<?xml version="1.0" standalone="no"?>
<!DOCTYPE svg PUBLIC "-//W3C//DTD SVG 20010904//EN"
 "http://www.w3.org/TR/2001/REC-SVG-20010904/DTD/svg10.dtd">
<svg version="1.0" xmlns="http://www.w3.org/2000/svg"
 width="4916.000000pt" height="4916.000000pt" viewBox="0 0 4916.000000 4916.000000"
 preserveAspectRatio="xMidYMid meet">
<metadata>
Created by potrace 1.11, written by Peter Selinger 2001-2013
</metadata>
<g transform="translate(0.000000,4916.000000) scale(0.100000,-0.100000)"
fill="#000000" stroke="none">
<path d="M26915 49140 c-100 -33 -200 -120 -369 -320 -350 -416 -575 -865
-941 -1875 -171 -472 -278 -785 -767 -2250 -177 -528 -324 -963 -328 -968 -7
-8 -53 -12 -250 -22 -144 -7 -265 -14 -355 -20 -38 -3 -117 -7 -175 -10 -58
-3 -132 -8 -165 -10 -33 -3 -107 -7 -165 -10 -58 -3 -123 -8 -145 -10 -22 -2
-96 -7 -165 -10 -69 -4 -136 -8 -150 -11 -14 -2 -70 -6 -125 -9 -55 -3 -113
-7 -130 -10 -16 -2 -64 -7 -105 -10 -41 -3 -93 -8 -115 -10 -22 -3 -67 -7
-100 -10 -70 -6 -424 -43 -475 -50 -19 -2 -73 -9 -120 -15 -47 -5 -94 -12
-105 -14 -11 -2 -51 -7 -88 -11 -37 -3 -78 -8 -90 -11 -12 -2 -74 -11 -137
-19 -63 -8 -126 -17 -140 -19 -14 -3 -59 -10 -100 -16 -41 -6 -91 -13 -110
-16 -82 -12 -347 -57 -495 -84 -536 -96 -843 -161 -1335 -281 -69 -17 -132
-32 -140 -34 -17 -3 -296 -76 -380 -99 -30 -8 -66 -18 -80 -22 -59 -16 -350
-100 -520 -151 -187 -55 -830 -265 -885 -288 -16 -7 -77 -29 -135 -49 -411
-145 -1151 -440 -1438 -572 -40 -19 -75 -34 -78 -34 -7 0 -446 -201 -589 -270
-221 -106 -724 -359 -845 -425 -63 -34 -135 -73 -160 -86 -41 -21 -372 -204
-495 -274 -143 -81 -342 -199 -356 -211 -8 -8 -19 -14 -23 -14 -7 0 -402 -242
-571 -351 -285 -182 -719 -477 -955 -647 -201 -145 -412 -299 -435 -319 -5 -5
-57 -44 -115 -88 -141 -106 -184 -139 -190 -145 -3 -3 -34 -28 -70 -55 -36
-28 -67 -52 -70 -55 -3 -3 -25 -21 -50 -40 -25 -19 -47 -37 -50 -40 -3 -3 -27
-24 -55 -45 -129 -103 -624 -520 -707 -596 -14 -13 -55 -49 -90 -79 -34 -30
-88 -78 -118 -106 -60 -54 -128 -116 -175 -159 -136 -124 -380 -359 -640 -620
-364 -364 -500 -505 -739 -770 -55 -60 -116 -128 -137 -150 -53 -58 -246 -280
-304 -350 -47 -55 -96 -113 -120 -139 -18 -19 -360 -439 -396 -486 -18 -25
-37 -47 -40 -50 -10 -9 -270 -349 -375 -490 -290 -391 -601 -839 -836 -1205
-155 -242 -348 -554 -356 -574 -3 -9 -9 -18 -12 -21 -10 -7 -246 -410 -262
-446 -7 -16 -15 -31 -19 -34 -5 -5 -83 -141 -147 -260 -16 -30 -41 -75 -54
-100 -128 -231 -326 -619 -486 -950 -115 -240 -183 -387 -282 -610 -106 -239
-210 -484 -259 -610 -23 -58 -49 -121 -57 -140 -23 -50 -186 -477 -238 -622
-104 -288 -263 -749 -270 -783 -2 -10 -67 -216 -91 -290 -25 -75 -122 -409
-164 -560 -23 -82 -46 -166 -51 -185 -33 -114 -123 -471 -155 -610 -2 -8 -24
-105 -50 -215 -52 -222 -136 -627 -160 -768 -22 -125 -23 -135 -30 -192 -4
-27 -8 -57 -10 -65 -2 -8 -7 -35 -10 -60 -3 -25 -10 -74 -15 -110 -5 -36 -12
-85 -15 -110 -5 -49 -10 -84 -25 -205 -5 -44 -12 -109 -16 -145 -3 -36 -7 -81
-10 -100 -6 -52 -22 -216 -29 -290 -3 -36 -7 -85 -10 -110 -2 -25 -7 -79 -10
-120 -4 -41 -8 -95 -10 -120 -4 -42 -8 -101 -20 -270 -2 -36 -7 -105 -10 -155
-3 -49 -7 -117 -10 -150 -4 -54 -8 -120 -20 -360 -2 -38 -6 -142 -10 -230 -3
-88 -8 -189 -10 -225 -27 -470 -27 -2169 0 -2585 2 -33 6 -116 10 -185 3 -69
8 -143 10 -165 2 -22 7 -80 10 -130 3 -49 8 -108 10 -130 8 -77 16 -160 20
-200 7 -62 35 -287 40 -315 2 -14 7 -47 10 -75 3 -27 10 -77 16 -110 5 -33 12
-80 15 -105 4 -25 31 -191 61 -370 68 -403 62 -372 79 -455 8 -38 23 -115 34
-170 29 -150 86 -421 104 -495 9 -36 19 -80 21 -99 3 -19 7 -37 10 -41 2 -4 7
-22 10 -41 10 -57 131 -541 194 -774 174 -646 392 -1328 623 -1945 128 -340
372 -945 389 -964 5 -6 9 -16 9 -22 0 -7 18 -52 40 -99 22 -47 40 -88 40 -91
0 -2 15 -37 34 -77 77 -165 166 -359 166 -364 0 -8 383 -776 457 -918 238
-452 604 -1086 841 -1455 30 -47 63 -98 73 -115 84 -134 394 -595 533 -793 94
-134 178 -254 186 -265 99 -142 624 -829 675 -883 5 -6 24 -29 40 -50 80 -103
554 -665 585 -694 3 -3 23 -26 45 -51 44 -50 176 -197 215 -239 115 -126 229
-249 305 -329 120 -128 718 -725 826 -826 47 -44 140 -130 205 -191 65 -61
169 -155 229 -209 61 -54 142 -126 180 -161 39 -34 88 -78 109 -96 22 -18 89
-76 150 -128 61 -53 149 -127 196 -165 47 -38 87 -72 90 -75 10 -12 410 -331
560 -446 209 -161 310 -236 540 -402 107 -78 200 -145 205 -150 6 -4 60 -41
120 -82 61 -41 112 -78 115 -81 7 -8 580 -389 585 -389 2 0 30 -17 62 -38 116
-77 228 -146 403 -252 8 -5 58 -35 110 -67 52 -32 104 -63 115 -69 11 -6 50
-29 88 -52 37 -23 70 -42 72 -42 3 0 22 -11 43 -24 73 -46 456 -259 652 -363
47 -25 114 -62 150 -81 82 -45 777 -392 784 -392 3 0 38 -16 78 -36 93 -45
479 -221 578 -263 41 -17 89 -38 105 -46 52 -25 304 -130 491 -204 98 -40 188
-76 199 -81 63 -29 455 -175 690 -256 72 -25 139 -50 150 -55 32 -15 608 -203
745 -244 69 -20 134 -40 145 -45 17 -7 133 -41 240 -70 17 -5 84 -24 150 -43
168 -50 406 -113 709 -189 333 -83 737 -173 1066 -237 30 -6 66 -14 80 -16 86
-17 401 -74 431 -78 20 -2 41 -7 45 -10 5 -2 32 -7 59 -11 28 -3 59 -8 70 -10
11 -2 79 -13 150 -24 72 -12 146 -23 165 -27 175 -28 721 -100 840 -110 36 -4
72 -8 80 -10 8 -2 65 -9 125 -15 61 -6 128 -13 150 -15 22 -3 76 -7 120 -10
146 -8 249 -15 305 -20 332 -27 1960 -27 2555 0 55 3 147 7 205 10 58 3 161 7
230 10 69 3 154 7 190 10 36 2 110 7 165 10 103 6 202 13 290 20 28 2 91 7
140 10 50 3 113 8 140 10 94 9 160 14 240 20 44 4 91 8 105 10 14 2 57 6 95
10 39 3 86 8 105 10 19 3 62 7 95 10 33 4 71 8 85 10 14 2 50 6 80 10 30 3 66
8 80 10 14 2 45 7 70 10 25 4 56 8 70 10 14 2 45 6 70 10 25 3 56 8 70 10 14
3 41 7 60 10 280 46 558 97 800 146 113 22 225 45 250 49 70 13 453 98 570
126 58 14 112 27 120 29 8 2 116 29 240 60 124 31 232 58 240 60 314 75 1204
344 1610 485 96 34 193 67 215 74 144 47 976 364 1090 416 11 5 115 49 230 99
219 93 424 183 560 246 44 20 105 49 135 62 291 135 854 416 1085 543 28 15
82 44 120 65 102 55 255 139 295 162 246 140 368 211 610 357 229 139 608 379
740 470 19 13 69 45 110 72 41 26 77 50 80 53 3 4 61 44 130 91 333 225 821
583 1175 863 141 111 419 336 495 401 14 11 52 43 85 71 33 27 65 54 71 60 6
5 35 30 64 55 29 25 58 50 64 55 6 6 65 57 131 115 66 57 125 109 131 115 6 5
49 44 95 85 237 212 509 471 794 755 342 342 543 553 805 845 47 52 93 104
103 115 11 11 38 42 60 69 23 27 51 58 62 70 17 18 85 96 179 206 61 72 230
275 286 345 35 44 67 82 70 85 6 5 116 145 276 350 320 410 690 931 1026 1445
168 257 518 824 518 838 0 3 13 25 29 49 16 24 90 153 165 288 75 135 141 252
146 260 5 8 23 41 39 72 49 93 122 229 151 283 33 59 311 617 363 725 204 431
407 898 572 1315 47 121 91 229 95 240 14 30 161 432 215 585 94 265 251 750
314 965 23 77 48 160 56 185 8 25 23 79 34 120 11 41 32 116 46 165 91 325
232 896 280 1129 9 44 17 82 19 85 2 3 7 23 10 43 3 21 10 57 15 80 6 24 12
54 14 68 3 14 8 36 11 50 3 14 8 36 10 50 3 14 12 59 20 100 8 41 17 86 19
100 3 14 14 75 26 135 11 61 23 124 26 140 13 72 95 575 101 620 3 28 7 57 9
65 6 33 15 97 20 140 3 25 7 56 9 70 6 33 24 171 31 240 3 30 8 62 10 70 2 8
7 49 10 90 4 41 8 77 10 80 1 3 6 46 10 95 4 50 8 92 10 95 1 3 6 46 9 95 4
50 9 97 11 105 2 8 6 56 10 105 3 50 8 106 10 125 2 19 7 71 10 115 3 44 8
105 10 135 3 30 7 98 10 150 2 52 7 124 9 160 38 490 43 1726 11 2325 -10 171
-17 292 -20 330 -2 22 -6 83 -9 135 -4 52 -8 118 -11 145 -3 28 -7 79 -10 115
-4 57 -15 179 -30 335 -3 28 -7 68 -9 90 -3 22 -8 67 -11 100 -4 33 -13 112
-20 175 -8 63 -16 133 -19 155 -2 22 -9 76 -15 120 -6 44 -13 96 -15 115 -3
19 -10 69 -16 110 -5 41 -13 93 -16 115 -8 62 -69 443 -78 490 -2 11 -7 40
-11 65 -4 25 -9 54 -11 65 -2 11 -13 72 -25 135 -18 105 -50 266 -99 505 -87
421 -286 1233 -348 1415 -3 8 -7 23 -8 33 -23 114 -259 859 -405 1277 -89 252
-278 752 -344 905 -7 17 -50 120 -95 230 -46 110 -96 227 -112 261 -15 34 -28
63 -28 66 0 4 -18 45 -40 92 -22 47 -40 88 -40 90 0 2 -27 61 -60 130 -33 69
-60 128 -60 130 0 15 -335 692 -442 896 -28 52 -73 138 -101 190 -27 52 -61
115 -75 140 -14 25 -41 74 -60 110 -60 110 -284 503 -311 545 -14 22 -32 51
-39 65 -15 29 -11 23 -127 213 -49 81 -94 155 -100 165 -32 55 -260 410 -378
587 -89 134 -287 425 -299 440 -5 6 -68 93 -140 195 -182 255 -473 641 -672
890 -121 151 -366 450 -415 505 -20 23 -58 68 -86 100 -70 84 -349 399 -410
465 -28 30 -74 80 -101 110 -191 212 -628 658 -926 945 -148 143 -221 211
-458 430 -46 42 -372 330 -426 375 -16 14 -58 49 -94 80 -36 30 -71 61 -79 68
-8 7 -46 39 -85 70 -39 31 -80 66 -92 77 -12 11 -30 27 -41 36 -74 60 -397
317 -474 376 -52 40 -98 76 -104 81 -183 144 -729 540 -920 667 -33 22 -62 43
-65 46 -4 5 -403 269 -550 364 -89 58 -323 203 -500 310 -187 113 -726 425
-735 425 -2 0 -30 15 -62 33 -260 151 -976 513 -1407 712 -218 101 -553 248
-761 334 -121 51 -229 96 -240 101 -29 13 -436 172 -525 205 -41 15 -84 31
-95 36 -138 60 -943 333 -1325 450 -146 44 -292 89 -325 99 -56 17 -343 98
-410 115 -16 5 -34 9 -40 11 -5 2 -62 17 -125 34 -63 17 -155 42 -205 55 -49
14 -99 26 -110 28 -11 2 -27 7 -35 10 -8 3 -67 19 -130 36 -301 78 -741 206
-784 228 -28 14 -28 16 -22 71 30 251 366 1145 829 2202 167 383 267 609 281
640 72 156 289 711 378 965 120 343 146 473 114 590 -73 275 -371 467 -1211
780 -1073 399 -2073 632 -2340 545z m-3192 -10713 c191 -132 351 -383 514
-807 25 -63 46 -119 47 -125 1 -5 21 -68 44 -140 113 -359 202 -723 301 -1240
48 -248 101 -573 126 -765 3 -25 8 -56 10 -70 2 -14 7 -43 9 -65 7 -56 26
-204 31 -240 3 -16 12 -86 20 -155 9 -69 18 -136 20 -150 2 -14 6 -50 10 -80
3 -30 8 -71 10 -90 3 -19 7 -51 9 -70 2 -19 7 -57 10 -85 23 -193 54 -464 61
-545 3 -30 8 -71 10 -90 3 -19 7 -57 10 -85 3 -27 8 -66 10 -85 3 -19 7 -62
10 -95 3 -33 8 -78 10 -100 2 -22 7 -67 10 -100 3 -33 8 -78 10 -100 2 -22 7
-71 10 -110 4 -38 8 -81 10 -95 2 -14 6 -59 10 -100 3 -41 8 -91 10 -110 3
-19 10 -93 15 -165 6 -71 13 -148 15 -170 2 -22 6 -71 10 -110 3 -38 8 -92 10
-120 5 -64 13 -162 20 -245 2 -36 9 -121 15 -190 10 -123 45 -613 55 -780 3
-47 8 -112 10 -145 2 -33 7 -112 10 -175 3 -63 8 -137 10 -165 2 -27 7 -126
10 -220 4 -93 8 -183 10 -200 23 -188 23 -1694 0 -1768 -2 -7 -6 -66 -10 -132
-26 -503 -124 -1119 -257 -1605 -299 -1099 -835 -2045 -2009 -3550 -118 -151
-350 -448 -515 -660 -1276 -1635 -1663 -2199 -2072 -3015 -327 -653 -560
-1337 -701 -2050 -50 -252 -91 -544 -106 -745 -4 -47 -9 -96 -12 -110 -12 -63
-10 -685 3 -855 75 -969 338 -2108 829 -3580 325 -977 782 -2170 1310 -3420 9
-22 120 -281 245 -575 362 -850 545 -1297 830 -2030 89 -228 177 -446 195
-485 18 -38 44 -98 58 -133 24 -59 25 -63 8 -72 -10 -5 -36 -12 -57 -15 -22
-3 -55 -7 -74 -10 -36 -5 -314 -5 -410 0 -168 9 -411 28 -530 40 -109 11 -149
15 -210 20 -36 3 -76 7 -90 10 -14 2 -56 7 -94 10 -38 3 -72 8 -75 9 -3 2 -37
7 -76 11 -124 12 -353 40 -490 60 -367 54 -430 63 -600 91 -121 19 -536 96
-635 118 -63 13 -128 27 -145 30 -96 17 -486 115 -725 182 -315 89 -795 243
-1050 339 -69 26 -159 60 -200 75 -369 138 -952 397 -1335 592 -206 105 -499
262 -629 337 -49 28 -90 51 -92 51 -1 0 -39 22 -84 50 -45 27 -83 50 -85 50
-5 0 -274 166 -447 276 -155 99 -519 343 -594 399 -22 16 -58 43 -80 58 -21
15 -64 46 -94 67 -30 22 -66 48 -79 58 -29 20 -407 310 -436 334 -11 9 -84 68
-162 132 -78 63 -155 126 -170 139 -16 14 -77 66 -138 118 -460 390 -1147
1060 -1476 1441 -17 19 -136 152 -154 172 -5 6 -50 58 -100 116 -49 58 -92
107 -95 110 -3 3 -50 59 -104 125 -54 66 -106 129 -115 141 -10 11 -51 63 -92
115 -41 51 -79 101 -86 109 -42 52 -139 179 -198 260 -38 52 -72 97 -75 100
-3 3 -57 77 -119 165 -62 88 -121 171 -132 185 -66 89 -431 647 -524 801 -5 9
-28 47 -50 84 -22 37 -48 79 -57 93 -10 15 -21 34 -25 42 -4 8 -34 60 -66 115
-473 801 -945 1826 -1268 2755 -82 234 -234 713 -269 845 -5 17 -19 71 -33
120 -47 171 -118 440 -123 465 -5 22 -25 110 -69 295 -39 160 -98 457 -135
670 -11 66 -23 131 -26 145 -3 14 -7 43 -10 65 -3 22 -9 65 -14 95 -10 57 -59
428 -65 491 -2 20 -6 63 -9 95 -6 58 -11 113 -21 224 -3 30 -7 75 -10 100 -2
25 -7 83 -10 130 -3 47 -8 114 -10 150 -3 36 -7 108 -10 160 -2 52 -7 138 -9
190 -38 729 -48 2106 -21 2955 8 254 14 406 20 485 2 36 7 112 10 170 6 116 9
149 25 330 16 179 20 221 25 260 8 65 18 165 20 185 0 11 4 38 8 60 3 22 16
109 27 193 12 84 23 162 26 175 4 22 11 62 18 107 2 14 9 54 16 90 7 36 14 76
17 90 20 114 98 473 128 590 40 157 103 394 119 450 8 25 22 72 31 105 146
506 381 1190 575 1674 83 208 252 600 321 749 22 45 57 121 80 170 55 118 276
558 329 657 24 44 57 107 75 140 116 220 389 687 562 960 237 375 549 826 790
1143 171 223 204 266 296 382 55 69 112 139 126 156 14 17 33 40 41 50 20 25
114 138 120 144 3 3 61 70 130 150 68 80 127 147 130 150 3 3 43 48 90 100
190 213 341 370 615 645 302 302 536 524 669 637 36 30 124 109 166 148 9 8
43 37 75 65 33 27 62 52 65 55 7 7 118 101 149 126 13 10 44 36 70 58 25 21
55 45 66 55 275 228 837 649 1158 866 169 115 531 352 595 390 9 6 123 74 252
151 129 78 249 149 265 158 17 9 37 20 45 26 19 12 139 79 210 117 30 17 87
47 125 68 410 224 924 472 1380 666 116 49 219 94 230 99 41 18 355 140 525
203 236 88 551 197 760 263 334 105 696 207 990 279 37 9 407 97 425 101 138
31 255 55 325 68 19 3 44 8 55 10 116 23 499 93 560 101 22 4 78 13 125 20 72
13 310 46 430 61 19 2 69 8 110 14 100 12 145 17 270 30 58 6 119 12 135 15
17 2 71 6 120 10 50 4 108 8 130 10 22 2 96 7 165 10 69 4 126 8 128 10 1 1
126 2 276 1 l274 -1 55 -38z m3372 -151 c33 -3 114 -10 180 -16 66 -6 145 -13
175 -16 30 -2 71 -6 90 -9 19 -2 71 -6 115 -10 132 -10 282 -24 325 -30 14 -2
59 -6 100 -10 41 -3 82 -8 90 -10 8 -2 40 -7 70 -10 47 -5 109 -13 370 -51
100 -15 283 -46 425 -74 28 -5 66 -12 85 -15 19 -4 73 -15 120 -25 47 -10 121
-26 165 -35 44 -9 134 -29 200 -45 66 -16 131 -31 145 -34 14 -3 126 -32 250
-66 124 -34 250 -68 280 -76 250 -67 1114 -361 1265 -429 17 -7 98 -40 180
-73 165 -66 220 -88 250 -102 11 -5 83 -37 160 -71 379 -165 863 -402 1213
-593 106 -59 195 -106 198 -106 2 0 21 -11 42 -24 20 -13 109 -65 197 -116
170 -98 407 -241 490 -295 214 -140 317 -205 325 -205 4 0 10 -3 12 -8 2 -4
66 -50 143 -101 77 -52 150 -101 161 -110 12 -9 30 -22 40 -29 20 -13 134 -93
194 -136 297 -212 788 -595 1070 -834 110 -94 227 -196 294 -256 38 -33 78
-69 90 -79 45 -39 204 -185 281 -258 44 -41 96 -90 115 -108 80 -74 466 -461
576 -578 137 -145 134 -141 239 -258 44 -49 89 -98 100 -109 11 -12 47 -53 80
-91 33 -39 62 -72 66 -75 5 -4 312 -373 388 -465 111 -136 390 -503 527 -695
364 -506 606 -883 966 -1500 175 -300 481 -889 640 -1229 73 -156 228 -500
228 -505 0 -3 11 -29 24 -58 47 -100 201 -484 287 -710 72 -192 168 -458 173
-478 2 -8 24 -76 49 -150 97 -289 212 -671 286 -950 22 -85 46 -171 51 -190 6
-19 26 -100 44 -180 19 -80 44 -183 55 -230 52 -219 163 -779 186 -940 3 -25
13 -82 20 -126 8 -45 17 -103 21 -130 3 -27 8 -58 10 -69 2 -11 6 -40 9 -65 5
-41 12 -91 20 -145 2 -11 8 -60 14 -110 7 -49 13 -106 16 -125 3 -19 7 -60 10
-90 2 -30 7 -73 10 -95 9 -80 32 -336 40 -470 4 -49 8 -110 10 -135 2 -25 7
-112 10 -195 4 -82 8 -181 10 -220 5 -82 5 -858 0 -960 -9 -220 -17 -354 -20
-385 -2 -19 -7 -82 -10 -140 -3 -58 -8 -121 -10 -140 -2 -19 -7 -64 -10 -100
-3 -36 -10 -108 -16 -160 -6 -52 -12 -111 -14 -130 -18 -176 -16 -159 -35
-300 -6 -47 -13 -101 -15 -120 -7 -57 -26 -203 -31 -235 -7 -53 -75 -499 -79
-525 -48 -292 -116 -645 -177 -930 -61 -287 -50 -237 -93 -415 -20 -82 -37
-157 -39 -165 -47 -193 -151 -572 -227 -825 -91 -301 -292 -899 -329 -980 -5
-11 -28 -69 -50 -130 -65 -173 -195 -493 -246 -603 -13 -29 -24 -54 -24 -57 0
-2 -15 -36 -33 -77 -19 -40 -62 -136 -98 -213 -182 -401 -473 -956 -707 -1350
-191 -321 -484 -774 -683 -1055 -33 -47 -70 -99 -82 -117 -60 -86 -335 -452
-400 -533 -7 -8 -55 -69 -107 -135 -52 -66 -99 -125 -105 -131 -5 -6 -26 -30
-45 -54 -50 -62 -243 -294 -251 -300 -3 -3 -36 -41 -74 -85 -38 -44 -72 -82
-75 -85 -3 -3 -20 -23 -39 -45 -33 -39 -157 -176 -271 -299 -315 -343 -746
-768 -1124 -1111 -13 -11 -163 -145 -215 -190 -18 -16 -39 -35 -45 -40 -6 -6
-38 -33 -71 -60 -33 -28 -62 -53 -65 -56 -3 -3 -57 -48 -120 -99 -63 -52 -117
-97 -120 -100 -3 -3 -36 -30 -75 -60 -38 -30 -75 -59 -81 -65 -33 -29 -79 -64
-299 -230 -289 -217 -311 -232 -540 -391 -720 -499 -1578 -990 -2345 -1341
-30 -14 -87 -40 -127 -59 -102 -47 -536 -232 -673 -287 -175 -69 -342 -134
-369 -142 -13 -4 -40 -14 -60 -23 -87 -37 -707 -247 -931 -316 -169 -51 -422
-125 -525 -152 -299 -80 -416 -110 -640 -164 -202 -48 -623 -141 -745 -164
-319 -60 -455 -84 -650 -116 -272 -45 -553 -88 -625 -96 -27 -3 -75 -9 -105
-14 -60 -10 -104 -16 -191 -25 -31 -3 -65 -7 -75 -9 -11 -2 -50 -7 -89 -11
-38 -4 -77 -8 -85 -10 -8 -2 -44 -6 -80 -10 -36 -3 -76 -8 -90 -10 -14 -2 -50
-7 -80 -10 -30 -3 -66 -8 -80 -10 -14 -2 -54 -6 -90 -10 -36 -3 -76 -8 -90
-10 -14 -2 -54 -7 -90 -11 -36 -3 -67 -7 -70 -9 -3 -1 -41 -6 -85 -10 -44 -4
-83 -9 -86 -11 -26 -16 -192 415 -357 931 -260 810 -447 1501 -696 2560 -318
1354 -500 2432 -551 3265 -4 52 -10 154 -15 225 -8 128 -6 1107 3 1175 3 19 8
89 12 155 3 66 8 134 10 150 2 17 6 64 10 105 11 143 46 466 71 650 212 1589
669 2771 1649 4265 251 383 546 794 1240 1730 461 622 886 1263 1169 1765 262
462 604 1144 816 1626 517 1171 768 2185 830 3344 8 162 5 841 -5 970 -28 360
-39 484 -61 675 -82 725 -224 1445 -505 2570 -377 1507 -835 2834 -1574 4560
-92 215 -175 408 -185 430 -10 22 -77 175 -150 340 -111 251 -249 561 -330
740 -10 22 -96 211 -190 420 -95 209 -174 385 -177 392 -3 8 8 11 39 8 24 -2
70 -6 103 -9z"/>
</g>
</svg>
