<svg width="795" height="165" viewBox="0 0 795 165" fill="none" xmlns="http://www.w3.org/2000/svg">
<path d="M40.6285 83.5754C40.7767 83.0332 40.8855 80.1623 40.8706 77.1957C40.8413 71.3669 40.1619 67.3436 38.3745 62.414C33.118 47.9169 20.4039 36.2537 4.14765 31.016C1.95482 30.3095 0.0990892 29.6886 0.0238406 29.6363C-0.519508 29.2587 8.36561 20.0228 12.2814 16.8947C39.842 -5.1215 78.2609 -5.67154 106.416 15.5469C109.927 18.1927 117.507 25.4743 117.224 25.9286C117.024 26.2491 106.754 34.1706 99.4103 39.6697C97.9612 40.755 95.2735 42.7976 93.4378 44.2091C91.602 45.6207 82.1162 52.865 72.3582 60.3071C62.6002 67.7496 53.6677 74.5663 52.5081 75.4553C46.8014 79.8327 41.2187 84.0509 40.8128 84.2921C40.4631 84.4999 40.4209 84.3359 40.6285 83.5754V83.5754Z" fill="#5F6E7D"/>
<path d="M54.2633 164.681C43.6433 163.615 35.486 161.348 26.6998 157.021C21.0312 154.23 17.1916 151.796 12.4556 147.989C8.41493 144.741 2.98831 139.322 3.29093 138.837C3.48962 138.518 11.6738 132.214 21.0631 125.147C22.5124 124.056 25.5952 121.699 27.9139 119.909C30.2327 118.119 41.0623 109.842 51.9799 101.517C62.8975 93.1907 73.6103 85.0175 75.7869 83.3531C77.9636 81.6891 79.7949 80.3274 79.8567 80.3274C79.9189 80.3274 79.825 81.3061 79.6483 82.5022C79.1898 85.6051 79.5941 93.1911 80.4068 96.7425C81.3162 100.717 82.703 104.529 84.5283 108.072C90.5956 119.849 102.77 129.66 116.624 133.938C118.653 134.564 120.37 135.12 120.439 135.173C120.737 135.4 116.09 140.62 112.844 143.704C101.515 154.47 87.7324 161.362 72.5323 163.863C68.4766 164.53 57.6104 165.017 54.2633 164.681V164.681Z" fill="#5F6E7D"/>
<path d="M153.639 65.9152C161.375 62.4611 168.693 60.7336 175.593 60.7336C184.584 60.7336 189.184 66.0201 189.393 76.5928H172.77C164.302 76.5928 157.455 78.6861 152.228 82.8733C147.105 87.0606 144.544 92.975 144.544 100.616C144.544 107.944 146.792 113.806 151.287 118.203C155.887 122.599 162.578 124.798 171.359 124.798C175.123 124.798 178.886 123.908 182.65 122.128C186.413 120.349 189.759 118.046 192.686 115.219L195.352 122.913H207.112V72.039C207.112 66.91 205.701 62.3039 202.878 58.2216C200.056 54.0343 196.188 50.7369 191.274 48.3293C186.465 45.9218 181.134 44.7176 175.28 44.7176C171.725 44.7176 167.073 45.3981 161.323 46.759C155.678 48.1199 151.496 49.6903 148.778 51.4696L153.639 65.9152ZM159.912 100.616C159.912 97.1622 161.009 94.2836 163.205 91.9806C165.505 89.5731 168.589 88.3693 172.457 88.3693H189.549V102.03C186.936 104.751 184.009 106.897 180.768 108.468C177.527 110.038 174.286 110.823 171.046 110.823C167.595 110.823 164.877 109.829 162.891 107.839C160.905 105.746 159.912 103.338 159.912 100.616V100.616ZM258.084 44.7176C265.82 44.7176 272.563 46.3929 278.313 49.7425C284.063 52.9877 288.454 57.6456 291.486 63.7171C294.622 69.7886 296.19 76.9067 296.19 85.0719C296.19 92.9227 294.622 99.8837 291.486 105.955C288.349 111.922 283.854 116.58 277.999 119.93C272.25 123.28 265.507 124.955 257.771 124.955C253.171 124.955 248.309 123.594 243.187 120.872V155.573L225.624 157.301V46.759H234.876L238.639 51.7835C241.671 49.4809 244.912 47.7534 248.362 46.6019C251.812 45.3458 255.053 44.7176 258.084 44.7176V44.7176ZM257.771 109.724C264.043 109.724 268.957 107.421 272.511 102.815C276.17 98.2089 277.999 92.2945 277.999 85.0719C277.999 77.5349 276.222 71.4634 272.668 66.8574C269.114 62.1468 264.148 59.7915 257.771 59.7915C255.053 59.7915 252.491 60.2103 250.087 61.0479C247.787 61.8851 245.487 63.1415 243.187 64.8164V105.013C247.473 108.153 252.334 109.724 257.771 109.724V109.724ZM342.923 44.7176C350.659 44.7176 357.402 46.3929 363.153 49.7425C368.902 52.9877 373.293 57.6456 376.325 63.7171C379.462 69.7886 381.027 76.9067 381.027 85.0719C381.027 92.9227 379.462 99.8837 376.325 105.955C373.189 111.922 368.694 116.58 362.839 119.93C357.088 123.28 350.345 124.955 342.609 124.955C338.009 124.955 333.148 123.594 328.025 120.872V155.573L310.462 157.301V46.759H319.715L323.478 51.7835C326.51 49.4809 329.75 47.7534 333.2 46.6019C336.65 45.3458 339.891 44.7176 342.923 44.7176V44.7176ZM342.609 109.724C348.882 109.724 353.795 107.421 357.35 102.815C361.009 98.2089 362.839 92.2945 362.839 85.0719C362.839 77.5349 361.061 71.4634 357.506 66.8574C353.952 62.1468 348.986 59.7915 342.609 59.7915C339.891 59.7915 337.33 60.2103 334.925 61.0479C332.625 61.8851 330.325 63.1415 328.025 64.8164V105.013C332.312 108.153 337.173 109.724 342.609 109.724V109.724ZM413.491 122.913V12.0579L395.929 13.7851V122.913H413.491ZM499.592 84.2865C499.592 72.7717 496.717 63.2983 490.967 55.8663C485.217 48.4338 476.749 44.7176 465.563 44.7176C457.934 44.7176 451.293 46.3929 445.648 49.7425C440.107 53.0922 435.823 57.8028 432.792 63.8743C429.865 69.8409 428.399 76.8018 428.399 84.7576C428.399 97.11 432.009 106.897 439.22 114.12C446.539 121.238 457.095 124.798 470.895 124.798C481.142 124.798 490.497 121.867 498.965 116.005L493.633 103.129C489.14 105.432 485.27 107.159 482.029 108.31C478.894 109.357 475.288 109.881 471.209 109.881C456.573 109.881 448.471 103.077 446.905 89.4682H499.592V84.2865ZM447.218 77.6917C447.949 72.039 449.832 67.6427 452.863 64.5021C455.999 61.3618 460.079 59.7915 465.093 59.7915C470.008 59.7915 473.927 61.3096 476.854 64.3453C479.781 67.3811 481.716 71.8296 482.656 77.6917H447.218Z" fill="#5F6E7D"/>
<path d="M568.092 104.542C564.325 106.322 560.876 107.63 557.741 108.468C554.605 109.305 551.104 109.724 547.233 109.724C540.857 109.724 535.734 107.421 531.867 102.815C528.105 98.2092 526.222 92.1904 526.222 84.7579C526.326 77.5353 528.314 71.5683 532.18 66.8581C536.151 62.1475 541.275 59.7922 547.55 59.7922C551.208 59.7922 554.553 60.2107 557.584 61.0483C560.72 61.8855 564.326 63.1942 568.405 64.9739L573.424 52.4121C570.184 50.1094 565.948 48.2774 560.72 46.9165C555.492 45.4511 551.104 44.7184 547.55 44.7184C539.604 44.7184 532.65 46.3932 526.691 49.7429C520.733 53.0925 516.132 57.8031 512.891 63.8746C509.756 69.8412 508.19 76.8026 508.19 84.7579C508.19 92.8182 509.756 99.884 512.891 105.956C516.132 111.922 520.681 116.58 526.535 119.93C532.389 123.28 539.291 124.955 547.233 124.955C550.895 124.955 555.336 124.275 560.563 122.914C565.791 121.553 570.023 119.721 573.267 117.418L568.092 104.542ZM660.103 84.7579C660.103 92.7137 658.485 99.7273 655.241 105.798C652 111.87 647.403 116.58 641.444 119.93C635.482 123.28 628.532 124.955 620.586 124.955C612.64 124.955 605.742 123.28 599.888 119.93C594.034 116.58 589.484 111.922 586.244 105.956C583.108 99.884 581.538 92.8182 581.538 84.7579C581.538 76.8026 583.108 69.8412 586.244 63.8746C589.484 57.8031 594.086 53.0925 600.044 49.7429C606.003 46.3932 612.953 44.7184 620.899 44.7184C628.845 44.7184 635.743 46.3932 641.601 49.7429C647.56 52.988 652.105 57.6464 655.241 63.7175C658.485 69.789 660.103 76.8026 660.103 84.7579V84.7579ZM620.586 109.724C626.962 109.724 632.085 107.369 635.956 102.658C639.927 97.9476 641.914 92.0332 641.914 84.9151C641.914 77.4831 639.979 71.4638 636.112 66.8581C632.346 62.1475 627.275 59.7922 620.899 59.7922C614.627 59.7922 609.504 62.1475 605.533 66.8581C601.662 71.5683 599.679 77.5353 599.575 84.7579C599.575 92.1904 601.454 98.2092 605.22 102.815C609.086 107.421 614.21 109.724 620.586 109.724V109.724ZM690.943 74.3946C695.123 70.6262 699.724 67.4337 704.743 64.8167C709.762 62.1998 714.151 60.8911 717.917 60.8911L714.307 46.7594C710.65 46.7594 706.361 48.068 701.451 50.685C696.641 53.3019 692.357 56.1805 688.59 59.3212L682.788 46.7594H673.381V122.914H690.943V74.3946ZM795 84.2869C795 72.7725 792.125 63.2987 786.375 55.8666C780.626 48.4346 772.158 44.7184 760.971 44.7184C753.339 44.7184 746.702 46.3932 741.056 49.7429C735.515 53.0925 731.227 57.8031 728.196 63.8746C725.269 69.8412 723.807 76.8026 723.807 84.7579C723.807 97.1103 727.413 106.898 734.628 114.121C741.944 121.239 752.504 124.798 766.304 124.798C776.546 124.798 785.906 121.867 794.373 116.005L789.041 103.129C784.544 105.432 780.678 107.159 777.438 108.311C774.302 109.358 770.692 109.881 766.617 109.881C751.982 109.881 743.879 103.077 742.309 89.4685H795V84.2869ZM742.622 77.6921C743.357 72.0394 745.236 67.6431 748.268 64.5028C751.407 61.3622 755.483 59.7922 760.502 59.7922C765.416 59.7922 769.335 61.3099 772.262 64.3457C775.189 67.3814 777.124 71.8304 778.064 77.6921H742.622Z" fill="#5F6E7D"/>
</svg>
