<svg width="100%" height="100%" viewBox="0 0 86 86" fill="none" xmlns="http://www.w3.org/2000/svg">
<path d="M43 86C19.2518 86 0 66.7482 0 43C0 19.2518 19.2518 0 43 0C66.7482 0 86 19.2518 86 43C86 66.7482 66.7482 86 43 86Z" fill="#FB604E" fill-opacity="0.5"/>
<path d="M22.2862 44.9C21.2367 43.8505 21.2367 42.1488 22.2862 41.0993L39.3894 23.9961C40.4389 22.9466 42.1404 22.9466 43.1901 23.9961C44.2396 25.0457 44.2396 26.7473 43.1901 27.7967L27.9872 42.9996L43.1901 58.2025C44.2396 59.252 44.2396 60.9535 43.1901 62.0032C42.1404 63.0527 40.4389 63.0527 39.3894 62.0032L22.2862 44.9ZM61.8115 45.6871H24.1865V40.3121H61.8115V45.6871Z" fill="white"/>
</svg>
