<svg width="100%" height="100%" viewBox="0 0 86 86" fill="none" xmlns="http://www.w3.org/2000/svg">
<path d="M43 86C66.7482 86 86 66.7482 86 43C86 19.2518 66.7482 0 43 0C19.2518 0 0 19.2518 0 43C0 66.7482 19.2518 86 43 86Z" fill="#FB604E" fill-opacity="0.5"/>
<path d="M63.7138 44.9C64.7633 43.8505 64.7633 42.1488 63.7138 41.0993L46.6106 23.9961C45.5611 22.9466 43.8596 22.9466 42.8099 23.9961C41.7604 25.0457 41.7604 26.7473 42.8099 27.7967L58.0128 42.9996L42.8099 58.2025C41.7604 59.252 41.7604 60.9535 42.8099 62.0032C43.8596 63.0527 45.5611 63.0527 46.6106 62.0032L63.7138 44.9ZM24.1885 45.6871H61.8135V40.3121H24.1885V45.6871Z" fill="white"/>
</svg>
