<svg width="100%" height="100%" viewBox="0 0 719 449" fill="none" xmlns="http://www.w3.org/2000/svg">
<path d="M0.164062 221.298V448.999H719V221.298H662.506C664.206 222.812 668.163 225.324 670.535 226.284C671.57 226.706 672.891 227.609 673.462 228.293C674.033 228.976 676.867 230.601 679.768 231.906C685.596 234.531 686.936 235.497 686.425 236.683C685.675 238.419 688.018 242.412 691.41 245.186C693.813 247.151 694.358 248.026 693.522 248.615C693.083 248.925 693.906 250.292 696.19 253.044C698.612 255.964 699.428 257.351 699.249 258.249C698.871 260.2 696.82 260.277 693.441 258.471C690.726 257.02 684.958 255.462 685.98 256.454C687.115 257.564 685.901 258.017 683.2 257.488C681.56 257.166 680.053 257.173 679.847 257.504C679.641 257.835 679.808 258.172 680.213 258.252C681.208 258.446 682.781 260.244 682.821 261.228C682.841 261.661 682.217 262.247 681.434 262.53C677.776 263.849 677.517 264.744 680.338 266.294C681.58 266.976 682.754 268.112 683 268.88C683.285 269.738 684.454 270.765 686.133 271.63C689.591 273.41 693.162 276.575 692.95 277.668C692.857 278.14 691.914 278.681 690.846 278.879C689.777 279.076 689.054 279.437 689.233 279.681C689.518 280.079 691.251 281.016 699.004 284.961C700.252 285.596 702.508 286.494 704.021 286.957C705.535 287.42 708.117 288.545 709.769 289.458C711.422 290.371 713.567 291.374 714.536 291.686C716.893 292.445 719.189 294.461 718.977 295.587C718.585 297.725 716.567 298.853 713.222 298.813C711.808 298.797 710.626 298.887 710.599 299.016C710.573 299.143 711.024 300.431 711.601 301.876L712.644 304.505L710.931 303.694C709.989 303.248 708.503 302.527 707.627 302.091C705.602 301.087 704.394 301.737 705.874 303.033C707.6 304.539 708.575 306.133 708.495 307.313C708.435 308.122 708.237 308.282 707.752 307.909C707.015 307.344 703.71 305.852 697.975 303.502C694.855 302.224 694.079 302.094 693.375 302.729C692.884 303.177 691.602 303.312 690.295 303.055C686.027 302.221 687.368 303.772 693.535 306.805C696.9 308.462 699.999 310.263 700.424 310.808L701.2 311.799L700.132 312.187C699.004 312.593 689.26 308.124 689.041 307.101C688.749 305.761 682.649 303.222 682.569 304.409C682.496 305.577 681.421 307.051 680.744 306.919C680.339 306.839 679.841 307.045 679.636 307.376C679.423 307.718 679.709 308.064 680.299 308.179C681.7 308.454 684.606 312.066 684.825 313.801C685.031 315.444 684.54 316.421 683.585 316.268C683.213 316.208 682.257 316.74 681.468 317.449L680.027 318.738L681.009 319.38C681.546 319.732 683.657 320.354 685.695 320.763C690.049 321.636 697.404 324.506 698.817 325.884C700.185 327.215 699.528 328.343 697.192 328.687C694.63 329.064 694.324 329.47 695.605 330.829C696.74 332.037 696.867 332.783 695.904 332.595C695.579 332.531 695.36 332.198 695.426 331.856C695.492 331.513 695.247 331.512 694.869 331.854C694.497 332.194 694.111 332.257 694.012 331.994C693.912 331.73 693.773 331.819 693.7 332.192C693.627 332.565 693.76 333.288 694.005 333.797C694.251 334.307 694.403 334.958 694.343 335.246C694.237 335.792 689.711 334.621 689.246 333.927C688.901 333.411 682.655 332.127 681.002 332.231C680.305 332.274 678.659 332.299 677.345 332.284C675.374 332.263 675.002 332.433 675.234 333.24C675.387 333.78 675.918 334.302 676.409 334.398C676.9 334.495 677.631 335.374 678.042 336.352C678.447 337.33 679.118 338.4 679.536 338.73C680.299 339.331 680.114 339.951 679.138 340.098C678.846 340.14 678.227 340.241 677.749 340.318C677.278 340.396 676.721 340.451 676.515 340.438C674.849 340.34 680 343.81 682.223 344.283C683.02 344.452 684.308 345.137 685.084 345.807C685.854 346.477 687.76 347.624 689.313 348.355C690.867 349.086 692.458 350.193 692.85 350.818C693.242 351.442 693.607 351.755 693.654 351.513C693.7 351.272 693.966 351.82 694.245 352.73C694.524 353.64 694.75 354.422 694.736 354.466C694.73 354.51 693.647 354.307 692.339 354.012C691.032 353.719 688.164 353.309 685.967 353.103L681.978 352.727L683.306 354.145C684.228 355.131 684.5 355.845 684.208 356.494C683.976 357.008 684.002 357.473 684.268 357.531C684.58 357.598 684.494 357.826 684.029 358.149C683.412 358.587 683.412 358.683 684.01 358.809C684.395 358.89 684.64 359.28 684.567 359.676C684.488 360.071 684.202 360.187 683.929 359.935C683.644 359.665 683.26 359.959 683.008 360.645C682.656 361.601 682.888 362.004 684.301 362.858C686.658 364.284 689.996 365.929 693.541 367.41C695.619 368.278 696.92 369.264 697.855 370.696C699.017 372.471 699.09 372.809 698.373 373.239C696.673 374.265 695.141 374.271 692.718 373.261C687.401 371.046 685.881 370.519 682.217 369.613C677.026 368.329 676.974 368.306 677.325 367.737C677.71 367.128 670.289 365.911 669.493 366.45C669.181 366.659 668.855 366.434 668.776 365.95C668.53 364.545 657.081 362.41 653.523 363.108C651.977 363.411 649.149 363.539 647.231 363.395C643.64 363.125 641.708 363.458 639.544 364.722L638.296 365.451L639.325 365.507C639.896 365.538 641.502 366.019 642.91 366.577C645.186 367.486 645.425 367.741 645.139 368.981C644.874 370.135 644.549 370.336 643.195 370.175C640.898 369.902 638.847 370.246 638.396 370.978C638.15 371.367 638.243 371.443 638.628 371.179C639.019 370.919 639.113 370.993 638.874 371.37C638.668 371.707 638.07 371.757 637.559 371.48C637.042 371.202 635.96 371.198 635.156 371.472C634.351 371.746 632.308 371.865 630.617 371.739C628.926 371.612 626.016 371.418 624.151 371.307C622.093 371.186 620.805 370.865 620.878 370.493C620.944 370.154 620.574 370.297 620.055 370.809C618.944 371.906 616.498 371.628 616.723 370.43C616.835 369.841 616.733 369.845 616.353 370.443C615.947 371.082 615.129 371.042 612.752 370.271C608.519 368.898 606.403 367.832 606.763 367.255C606.93 366.987 606.806 366.405 606.487 365.962C606.04 365.338 606.286 365.281 607.569 365.705C608.744 366.094 609.279 366.005 609.396 365.403C609.488 364.936 609.86 364.71 610.223 364.901C610.586 365.092 611.652 365.624 612.592 366.081C613.532 366.538 614.708 367.411 615.207 368.021C616.291 369.349 618.662 369.968 618.474 368.873C618.403 368.463 618.062 368.235 617.716 368.366C617.371 368.498 617.139 368.345 617.2 368.03C617.262 367.713 617.521 367.391 617.772 367.312C618.066 367.221 618.125 366.724 617.938 365.933C617.335 363.379 607.425 359.945 604.901 361.416C603.651 362.144 603.253 362.112 603.746 361.321C604.214 360.571 602.647 361.093 602.139 361.856C601.932 362.166 601.331 361.854 600.746 361.131C600.181 360.431 599.296 359.808 598.78 359.746C598.263 359.683 595.898 359.056 593.525 358.353C590.421 357.433 588.988 356.705 588.418 355.76C587.981 355.037 587.298 354.205 586.898 353.908C586.499 353.611 586.258 353.098 586.364 352.767C586.47 352.437 586.262 352.067 585.901 351.946C579.122 349.665 578.281 349.235 578.846 348.33C579.027 348.04 578.526 347.504 577.732 347.141C576.94 346.776 575.636 346 574.835 345.415C574.035 344.83 572.311 344.077 571.004 343.741C569.697 343.405 568.326 343.036 567.958 342.92C567.588 342.803 567.065 342.052 566.792 341.251C566.519 340.449 565.938 339.796 565.5 339.801C564.309 339.812 561.489 338.167 561.613 337.532C561.714 337.018 558.507 335.162 557.785 335.318C557.606 335.357 557.518 335.078 557.593 334.699C557.667 334.322 557.527 334.146 557.282 334.312C557.036 334.477 556.788 334.339 556.731 334.005C556.673 333.67 555.719 333.36 554.61 333.317C553.501 333.273 552.307 332.872 551.957 332.424C551.607 331.975 549.227 330.846 546.668 329.914C544.109 328.982 541.262 327.771 540.34 327.221C539.419 326.671 533.637 325.128 527.493 323.791C521.348 322.455 516.073 321.126 515.768 320.839C515.464 320.551 514.618 320.566 513.889 320.871C513.161 321.176 512.467 321.449 512.347 321.48C512.227 321.51 511.409 321.856 510.532 322.248C509.275 322.811 508.232 322.717 505.627 321.805C500.683 320.074 480.217 315.613 480.095 316.239C479.976 316.844 481.603 318.09 484.767 319.822C485.92 320.452 487.379 321.367 488.01 321.854C488.641 322.341 489.634 322.647 490.214 322.533C490.794 322.42 491.987 322.848 492.865 323.486C493.744 324.123 494.638 324.7 494.854 324.768C495.401 324.941 495.032 327.885 494.477 327.777C494.228 327.727 494.079 328.003 494.145 328.387C494.211 328.771 494.569 329.151 494.94 329.232C495.31 329.312 496.526 330.454 497.641 331.768C498.757 333.083 500.062 334.242 500.543 334.345C501.024 334.448 501.467 334.815 501.527 335.161C501.587 335.508 502.721 336.217 504.05 336.738C505.378 337.26 507.403 338.304 508.548 339.057C509.693 339.811 510.794 340.4 510.995 340.367C511.704 340.251 513.41 342.358 513.705 343.715C513.87 344.472 514.354 345.158 514.783 345.243C515.211 345.326 515.48 345.809 515.382 346.313C515.269 346.885 515.808 347.533 516.812 348.036C518.089 348.675 518.237 348.907 517.527 349.162C517.035 349.338 516.498 349.295 516.336 349.066C516.173 348.837 516.018 349.318 515.991 350.133C515.958 351.109 515.798 351.489 515.525 351.244C515.297 351.039 515.19 350.621 515.284 350.315C515.653 349.131 514.805 348.129 514.11 348.927C513.566 349.552 513.557 349.724 514.067 349.824C514.573 349.923 514.563 350.186 514.014 351.162C513.516 352.048 513.455 352.402 513.788 352.467C514.039 352.516 514.049 352.989 513.809 353.518C513.559 354.069 513.575 354.343 513.847 354.16C514.107 353.985 514.264 354.127 514.197 354.475C514.128 354.824 513.823 355.187 513.517 355.283C513.095 355.417 513.051 355.77 513.332 356.763C513.622 357.788 513.578 358.105 513.127 358.246C512.687 358.386 512.621 358.659 512.842 359.429C513.069 360.222 512.99 360.405 512.459 360.301C512.071 360.225 511.351 361.087 510.746 362.354C510.172 363.554 509.561 364.328 509.39 364.072C509.218 363.815 508.931 364.355 508.752 365.269L508.756 365.267C508.576 366.181 508.364 366.916 508.284 366.901C508.203 366.886 507.287 366.416 506.247 365.859C505.208 365.302 503.155 364.426 501.685 363.911C500.215 363.396 497.982 362.508 496.721 361.939C493.706 360.579 486.678 358.294 481.548 357.005C480.924 356.849 480.185 355.974 479.857 355.005C478.811 351.906 471.549 348.03 461.52 345.218C456.107 343.7 446.147 340.152 444.411 339.122C443.898 338.818 440.076 337.782 435.918 336.82C431.76 335.857 426.08 334.279 423.295 333.314C420.51 332.349 417.831 331.444 417.344 331.303C416.858 331.162 416.505 330.811 416.561 330.522C416.618 330.233 416.468 330.129 416.227 330.291C415.986 330.454 415.786 330.208 415.781 329.745C415.775 329.135 415.518 329.176 414.854 329.895C413.68 331.165 412.539 331.013 413.149 329.669C413.393 329.131 413.618 328.567 413.647 328.418C413.676 328.268 414.309 328.265 415.054 328.41C415.798 328.556 416.716 328.281 417.095 327.799C417.475 327.316 417.698 326.904 417.591 326.884C417.484 326.863 416.492 326.313 415.388 325.661C414.283 325.009 410.508 323.843 406.999 323.071C403.49 322.298 399.353 321.203 397.805 320.638C395.312 319.726 394.965 319.734 394.774 320.708C394.597 321.608 394.339 321.679 393.345 321.102C392.678 320.713 391.974 320.077 391.78 319.688C391.588 319.299 390.65 318.835 389.696 318.656C388.742 318.476 386.316 317.651 384.305 316.821C382.294 315.992 380.277 315.296 379.825 315.271C379.371 315.248 378.631 315.207 378.178 315.181C377.726 315.154 376.768 314.788 376.05 314.366C374.841 313.657 373.435 313.295 372.604 313.478C371.929 313.627 368.445 311.72 367.797 310.847C367.435 310.359 365.31 309.556 363.076 309.062C360.843 308.567 358.613 307.899 358.12 307.577C357.628 307.254 352.05 305.817 345.724 304.383C339.398 302.949 332.518 301.329 330.433 300.784C327.927 300.129 326.277 300.003 325.565 300.412C324.434 301.061 321.152 299.786 320.924 298.61C320.86 298.284 320.434 297.545 319.976 296.967C319.483 296.345 319.369 295.844 319.696 295.743C321.89 295.059 318.912 291.364 315.748 290.844C311.703 290.18 298.781 286.781 298.182 286.223C297.857 285.92 296.434 285.663 295.021 285.655C293.608 285.647 285.339 284.205 276.646 282.451C255.98 278.281 256.634 278.407 252.187 277.781C250.071 277.483 248.072 277.426 247.744 277.654C247.333 277.94 247.286 277.766 247.588 277.099C247.907 276.396 247.829 276.206 247.303 276.406C246.904 276.557 246.535 276.906 246.481 277.181C246.427 277.455 245.976 277.605 245.479 277.515C244.982 277.425 244.284 277.402 243.928 277.464C243.49 277.541 243.406 277.178 243.667 276.34C244.008 275.239 243.954 275.19 243.183 275.892C242.234 276.755 241.523 276.737 234.842 275.697C232.361 275.311 230.372 275.233 230.422 275.522C230.558 276.309 228.409 276.574 227.709 275.857C226.838 274.963 224.271 274.809 221.644 275.491C221.162 275.617 220.161 275.664 219.418 275.598C218.676 275.531 217.809 275.757 217.491 276.1C217.172 276.446 216.416 276.45 215.805 276.111C215.067 275.701 214.516 275.774 214.158 276.331C213.702 277.04 213.592 277.01 213.429 276.135C213.27 275.277 211.634 274.778 203.714 273.171C198.476 272.109 192.341 271.126 190.081 270.988C187.82 270.849 181.889 270.066 176.901 269.248C171.914 268.43 166.722 267.704 165.362 267.637C161.302 267.437 155.35 266.892 151.467 266.365C146.099 265.637 138.661 264.867 136.994 264.867C136.193 264.867 134.15 264.789 132.453 264.694C130.755 264.598 129.228 264.61 129.061 264.72C128.894 264.829 126.469 264.784 123.673 264.62C120.877 264.455 116.618 264.35 114.208 264.388C111.798 264.426 107.566 264.056 104.803 263.564C99.8012 262.674 91.7977 262.574 82.2295 263.282C77.5042 263.631 72.2468 262.609 72.9524 261.478C73.2856 260.944 54.4322 257.485 53.1744 257.849C52.5856 258.02 51.7775 257.629 51.1377 256.866C50.5058 256.111 49.0396 255.396 47.5103 255.097C44.8832 254.582 44.5748 253.643 46.9179 253.292C47.6221 253.187 48.2522 252.831 48.3167 252.502C48.466 251.74 48.1431 251.689 45.5385 252.059C43.9382 252.287 43.2168 252.123 42.654 251.401C41.9351 250.479 41.9972 250.402 44.1306 249.565C45.3552 249.085 46.3963 248.648 46.4447 248.595C46.4931 248.541 44.27 247.967 41.5028 247.32C38.7362 246.672 36.3632 245.854 36.2302 245.499C35.943 244.735 38.8006 243.958 40.616 244.307C41.3057 244.44 42.6107 244.235 43.5148 243.85C44.4195 243.465 46.2444 243.108 47.57 243.056C56.392 242.708 61.6142 241.984 61.5803 241.114C61.5602 240.61 61.6159 239.832 61.7034 239.384C61.7917 238.937 61.5554 238.474 61.1784 238.354C59.9584 237.967 53.8219 238.283 53.2677 238.761C52.5628 239.369 46.5098 240.189 46.3267 239.7C46.249 239.493 46.4066 239.367 46.6767 239.42C46.9468 239.474 47.1108 239.191 47.0423 238.793C46.9627 238.331 45.8197 238.019 43.8609 237.927C41.2888 237.805 40.8333 237.626 40.9946 236.803C41.122 236.153 42.0956 235.625 43.9037 235.227C49.701 233.952 50.4117 233.728 50.9912 232.992C51.4199 232.446 51.5046 232.004 51.2881 231.427C50.8785 230.337 44.1416 230.306 40.6017 231.379C38.1399 232.124 31.1297 231.951 31.287 231.148C31.3253 230.952 31.7487 230.33 32.2282 229.763C33.0338 228.812 33.0627 228.588 32.6003 226.836C32.3248 225.794 32.2311 224.729 32.3929 224.469C32.5545 224.21 33.8543 224.017 35.28 224.042C40.1868 224.123 45.5049 222.63 45.4801 221.298H0.164062ZM27.5624 235.698C27.604 235.693 27.6456 235.694 27.6869 235.702C28.3124 235.825 28.332 236.626 27.7245 237.283C27.1171 237.94 26.6971 237.573 26.8961 236.558C26.988 236.09 27.2714 235.736 27.5624 235.698ZM65.8468 237.24C65.3645 237.236 65.1146 237.374 65.161 237.644C65.2951 238.422 65.6708 238.495 67.5658 238.115C68.7188 237.883 68.6499 237.803 66.9526 237.401C66.5088 237.295 66.1362 237.242 65.8468 237.24ZM155.981 268.916C156.298 268.978 156.501 269.322 156.431 269.679C156.361 270.036 155.931 270.257 155.478 270.168C155.023 270.079 154.823 269.735 155.028 269.405C155.235 269.074 155.663 268.854 155.981 268.916ZM162.686 269.59C163.086 269.576 163.466 269.861 163.376 270.323C163.31 270.658 162.918 270.821 162.502 270.686C162.087 270.551 161.88 270.226 162.043 269.964C162.199 269.714 162.446 269.598 162.686 269.59ZM220.724 276.857C220.811 276.86 220.891 276.934 220.952 277.097C221.042 277.336 220.901 277.876 220.641 278.295V278.296C220.259 278.909 220.162 278.89 220.157 278.203C220.15 277.468 220.464 276.847 220.724 276.857ZM219.364 276.999C219.996 277.052 219.956 277.812 219.146 278.141C218.256 278.502 217.951 278.4 218.073 277.781C218.135 277.465 218.576 277.125 219.053 277.024C219.17 276.999 219.274 276.992 219.364 276.999ZM214.706 277.043C214.803 277.062 214.826 277.37 214.755 277.727C214.686 278.084 214.437 278.34 214.203 278.294C213.97 278.248 213.947 277.941 214.154 277.61C214.359 277.279 214.608 277.023 214.706 277.043ZM669.346 303.801C668.923 303.798 668.4 304.038 668.098 304.523V304.524C667.918 304.815 668.231 305.144 668.795 305.254C669.406 305.374 669.889 305.088 669.996 304.541C670.092 304.053 669.769 303.805 669.346 303.801ZM671.619 303.831C671.09 303.801 671.009 303.973 671.278 304.39C671.902 305.371 673.514 305.687 673.68 304.86C673.746 304.502 673.129 304.082 672.299 303.926C672.02 303.873 671.795 303.841 671.619 303.831ZM676.542 304.784C676.071 304.743 675.734 304.982 675.631 305.512C675.512 306.121 676.03 306.613 677.211 307.005C679.15 307.652 679.667 307.035 678.26 305.741C677.62 305.146 677.014 304.825 676.542 304.784ZM377.36 306.476C377.058 306.496 376.89 306.558 376.926 306.656C376.999 306.851 377.87 307.309 378.862 307.675C380.128 308.144 380.623 308.109 380.529 307.56C380.454 307.131 379.584 306.673 378.593 306.542C378.098 306.476 377.663 306.455 377.36 306.476ZM672.223 306.706C672.144 306.712 672.062 306.732 671.98 306.765C671.622 306.909 671.682 307.082 672.146 307.205C672.565 307.316 672.83 307.208 672.737 306.967C672.668 306.785 672.46 306.688 672.223 306.706ZM382.869 308.212C382.707 308.225 382.685 308.279 382.838 308.375C383.245 308.63 383.988 309.139 384.488 309.506C384.989 309.873 386.15 310.156 387.069 310.13C389.331 310.073 388.095 309.212 384.69 308.473C383.799 308.28 383.139 308.19 382.869 308.212ZM395.67 311.807C394.945 311.934 395.086 312.209 396.332 313.094C397.203 313.712 399.071 314.531 400.483 314.914C403.386 315.701 417.846 317.877 416.04 317.255C409.395 314.968 396.819 311.605 395.67 311.807ZM391.696 323.215C391.853 323.238 392.048 323.48 392.186 323.852C392.453 324.571 392.392 324.637 391.891 324.172C391.545 323.851 391.392 323.444 391.555 323.268C391.595 323.224 391.644 323.207 391.696 323.215ZM396.267 324.313C396.35 324.276 396.446 324.317 396.534 324.449C396.711 324.713 396.831 325.059 396.8 325.216C396.769 325.374 396.563 325.467 396.342 325.424C396.122 325.381 396.002 325.036 396.077 324.658C396.114 324.469 396.184 324.351 396.267 324.313ZM517.967 326.495C518.17 326.475 518.574 326.582 519.203 326.815C520.163 327.17 521.24 327.54 521.597 327.639C521.953 327.737 522.261 328.274 522.284 328.831C522.316 329.675 521.93 329.725 519.963 329.134C518.665 328.744 517.526 328.221 517.432 327.971C517.339 327.721 517.518 327.563 517.832 327.618C518.302 327.702 518.319 327.584 517.929 326.945C517.759 326.665 517.763 326.516 517.967 326.495ZM524.923 329.885C525.009 329.881 525.105 329.894 525.21 329.929C525.63 330.065 525.84 330.392 525.676 330.654C525.273 331.3 524.698 331.137 524.56 330.337C524.514 330.066 524.667 329.895 524.923 329.885ZM443.516 335.532C443.271 335.565 443.608 335.871 444.302 336.48C445.795 337.791 455.771 340.573 455.937 339.726C456.025 339.278 453.708 338.443 446.223 336.225C444.589 335.741 443.762 335.499 443.516 335.532ZM682.586 340.017C682.755 339.981 682.821 340.268 682.734 340.723C682.522 341.819 682.375 341.891 682.216 340.977C682.156 340.62 682.289 340.203 682.509 340.052C682.537 340.033 682.562 340.023 682.586 340.017ZM685.283 340.44C685.32 340.445 685.362 340.481 685.409 340.549C685.581 340.809 685.675 341.297 685.608 341.633C685.422 342.568 685.176 342.306 685.13 341.129C685.11 340.675 685.172 340.423 685.283 340.44ZM674.892 343.894C674.455 343.861 674.302 344.123 674.178 344.745C674.052 345.388 674.198 346.145 674.51 346.431C675.293 347.162 675.697 347.176 676.129 346.484C676.335 346.153 676.885 345.957 677.357 346.05C678.797 346.331 677.809 344.988 676.043 344.255C675.521 344.038 675.155 343.913 674.892 343.894ZM560.757 345.668C561.238 345.688 561.281 346.159 560.869 347.067C560.525 347.824 559.891 347.828 558.284 347.086C558.074 346.989 558.585 346.554 559.421 346.118C560.021 345.805 560.469 345.655 560.757 345.668ZM679.478 346.612C679.243 346.624 679.39 346.797 679.933 347.229C681.161 348.208 682.215 348.415 681.333 347.503C680.954 347.11 680.277 346.725 679.839 346.65C679.677 346.622 679.556 346.608 679.478 346.612ZM684.742 348.952C684.663 348.958 684.581 348.978 684.5 349.01C684.135 349.155 684.2 349.328 684.658 349.451C685.076 349.562 685.342 349.453 685.256 349.211C685.186 349.03 684.979 348.934 684.742 348.952ZM603.806 356.655C603.463 356.689 603.259 356.886 603.311 357.182C603.376 357.566 603.882 357.968 604.433 358.075C604.999 358.186 605.383 357.968 605.315 357.574C605.249 357.19 604.743 356.788 604.192 356.68C604.051 356.652 603.92 356.644 603.806 356.655ZM623.45 357.104C623.213 357.089 623.057 357.248 622.992 357.583V357.584C622.93 357.9 623.303 358.386 623.82 358.665C624.857 359.223 625.278 358.494 624.396 357.673C624.005 357.309 623.688 357.119 623.45 357.104ZM639.539 357.788C639.287 357.79 639.001 357.848 638.692 357.972C637.65 358.39 637.637 358.424 638.454 358.625C638.932 358.741 639.569 359.069 639.875 359.354C640.18 359.64 640.499 359.54 640.579 359.133C640.743 358.294 640.294 357.783 639.539 357.788ZM685.524 357.963C686.06 357.86 686.474 358.641 686.079 359.27C685.886 359.578 685.575 359.8 685.383 359.761C684.818 359.652 684.752 358.425 685.289 358.064C685.369 358.01 685.447 357.977 685.524 357.963ZM510.189 358.809C510.062 358.821 509.98 359.004 509.911 359.359C509.812 359.864 509.915 360.661 510.139 361.131C510.453 361.788 510.644 361.77 510.971 361.049C511.225 360.49 511.133 359.777 510.743 359.278C510.49 358.954 510.317 358.796 510.189 358.809ZM606.593 362.031C606.815 361.983 606.994 362.18 607.214 362.642C607.464 363.167 607.619 363.852 607.558 364.166C607.412 364.911 606.574 364.712 605.971 363.79C605.599 363.223 605.635 362.908 606.127 362.376C606.311 362.176 606.46 362.059 606.593 362.031ZM632.337 364.91C632.114 364.906 631.944 364.967 631.924 365.072C631.896 365.212 632.111 365.549 632.401 365.819C632.691 366.09 632.984 366.028 633.052 365.682C633.119 365.336 632.904 364.999 632.573 364.934C632.491 364.918 632.412 364.911 632.337 364.91ZM636.293 375.469C636.461 375.451 636.676 375.491 636.934 375.591C637.253 375.713 637.91 375.938 638.401 376.09C639.184 376.334 639.197 376.503 638.526 377.566C637.577 379.078 636.615 378.916 636.037 377.147C635.697 376.096 635.789 375.522 636.293 375.469ZM632.686 380.479C632.806 380.499 632.849 380.675 632.853 381.01C632.868 382.332 635.965 382.68 636.914 381.468C637.611 380.574 637.657 380.576 637.299 381.475C636.927 382.397 637.611 383.412 638.779 383.677C639.41 383.819 639.165 382.054 638.481 381.503C637.99 381.111 638.282 381.008 639.37 381.183C641.461 381.517 642.225 382.554 640.977 383.342C640.485 383.649 640.24 383.942 640.432 383.99C640.625 384.038 640.519 384.406 640.2 384.808V384.809C639.835 385.273 638.328 385.335 636.071 384.98C633.235 384.534 632.413 384.173 631.991 383.188C631.622 382.326 631.451 382.227 631.422 382.856C631.399 383.351 631.144 383.842 630.856 383.946C630.115 384.212 631.073 381.767 632.057 380.877C632.37 380.594 632.566 380.459 632.686 380.479ZM646.015 382.406C646.645 382.529 646.618 384.023 645.981 384.453C645.629 384.69 645.231 384.72 645.098 384.521C644.799 384.072 645.557 382.316 646.015 382.406Z" fill="#146495"/>
</svg>
