<svg width="100%" height="100%" viewBox="0 0 379 94" fill="none" xmlns="http://www.w3.org/2000/svg">
<path d="M98.8706 93.5038C98.8706 93.2307 98.7792 93.0596 98.6676 93.1236C98.5561 93.1875 98.3255 92.9307 98.1552 92.5529C97.9756 92.1544 97.6987 91.866 97.4956 91.866C97.2188 91.866 97.1965 91.8089 97.389 91.5938C97.5761 91.3847 97.5699 91.3021 97.3623 91.2373C97.1497 91.171 97.159 91.0774 97.4059 90.7988C97.6451 90.529 97.6575 90.4253 97.4582 90.3631C97.3143 90.3182 97.1966 90.1962 97.1966 90.0921C97.1966 89.988 97.2897 89.9561 97.4035 90.0213C97.5221 90.0893 97.5572 90.0114 97.4857 89.8388C97.4172 89.6731 97.4686 89.5376 97.6001 89.5376C97.7743 89.5376 97.7783 89.4324 97.6151 89.1496C97.4352 88.8379 97.456 88.7615 97.7206 88.7615C97.9869 88.7615 97.9998 88.7116 97.788 88.5014C97.5172 88.2325 96.991 88.473 97.0597 88.8343C97.0775 88.9277 96.9817 89.0418 96.8469 89.0879C96.6857 89.1431 96.6433 89.0248 96.723 88.7423C96.7896 88.5061 96.7586 88.3592 96.6542 88.4159C96.5498 88.4726 96.276 88.4547 96.0458 88.3762C95.714 88.263 95.8114 88.2043 96.5166 88.0924C97.0711 88.0044 97.4059 87.8482 97.4059 87.6773C97.4059 87.5266 97.5889 87.4033 97.8125 87.4033C98.0361 87.4033 98.3479 87.2328 98.5053 87.0244C98.7876 86.6507 99.8533 86.1408 100.199 86.2142C100.296 86.2349 100.908 86.1273 101.559 85.9751C102.209 85.8229 103.33 85.6368 104.05 85.5616C104.769 85.4864 105.41 85.3461 105.474 85.2499C105.538 85.1537 105.797 85.073 106.049 85.0706C106.301 85.0682 107.073 84.8083 107.763 84.4929C108.454 84.1775 109.178 83.9175 109.372 83.9152C109.567 83.9127 109.784 83.8235 109.856 83.7168C109.927 83.6101 109.879 83.5227 109.749 83.5227C109.459 83.5227 109.563 82.655 109.856 82.6361C109.971 82.6287 110.478 82.513 110.982 82.3791C111.487 82.2451 112.129 82.189 112.41 82.2544C112.691 82.3198 113.22 82.2877 113.585 82.1832C113.951 82.0787 114.775 81.8978 115.417 81.7813C117.179 81.4615 118.121 81.1943 118.121 81.0138C118.121 80.8268 107.387 80.9573 104.729 81.1767C103.329 81.2922 102.795 81.2606 102.218 81.0282C101.816 80.8658 101.439 80.7203 101.381 80.7048C101.324 80.6894 101.002 80.5714 100.665 80.4426C100.329 80.3138 99.9053 80.262 99.7237 80.3276C99.5422 80.3932 96.7572 80.4781 93.5349 80.5164C90.3127 80.5547 87.2525 80.673 86.7347 80.7793C86.2168 80.8856 84.6649 81.0739 83.2859 81.1978C81.9069 81.3217 80.5986 81.5125 80.3784 81.6217C80.1582 81.731 79.5181 81.7794 78.9561 81.7294C78.394 81.6793 77.8833 81.7145 77.8213 81.8076C77.7592 81.9007 77.6208 81.9266 77.5137 81.8652C77.4066 81.8038 77.3189 81.846 77.3189 81.9591C77.3189 82.0721 77.2483 82.1472 77.162 82.126C76.8139 82.0406 75.0173 82.3936 75.0173 82.5474C75.0173 82.7368 73.4367 83.0516 72.8391 82.9813C72.6192 82.9554 72.2625 83.1103 72.0463 83.3255C71.8301 83.5407 71.4921 83.7271 71.2951 83.7397C71.0982 83.7523 70.3722 83.7814 69.6817 83.8045C68.9912 83.8274 68.0496 83.9471 67.5893 84.0703C67.129 84.1935 66.3966 84.3434 65.9619 84.4034C65.5271 84.4634 65.2225 84.5891 65.2849 84.6827C65.4797 84.975 65.0147 85.0515 61.3794 85.3257C61.1862 85.3402 61.045 85.4349 61.0655 85.5359C61.0861 85.637 60.9146 85.7711 60.6844 85.8339C60.4543 85.8967 60.0282 86.0981 59.7377 86.2813C59.3576 86.5211 58.5652 86.6496 56.9129 86.7394C55.6499 86.808 54.3988 86.8551 54.1328 86.8439C53.8668 86.8328 53.36 86.9623 53.0066 87.1318C52.6415 87.3068 52.3081 87.363 52.2348 87.2619C52.0547 87.0138 51.318 86.7754 51.4794 87.0175C51.6495 87.2727 51.4458 87.2596 50.8887 86.9796C49.7643 86.4144 44.4411 86.844 43.8857 87.5447C43.7138 87.7617 43.695 87.908 43.8334 87.9508C43.9525 87.9876 44.0499 88.095 44.0499 88.1895C44.0499 88.284 43.9182 88.3144 43.7572 88.2571C43.5962 88.1999 43.4024 88.2462 43.3264 88.3602C43.1235 88.6647 44.3775 88.6205 45.0542 88.2994C45.3649 88.1519 46.0429 87.967 46.5608 87.8885C47.0786 87.8099 47.6671 87.7173 47.8685 87.6826C48.0699 87.648 48.2347 87.734 48.2347 87.8738C48.2347 88.0536 48.4949 88.109 49.124 88.0634C49.8114 88.0134 49.9291 88.044 49.6427 88.1981C49.4388 88.3076 49.3192 88.468 49.3768 88.5544C49.501 88.7408 48.3312 88.9282 46.0663 89.0847C44.7947 89.1726 44.3796 89.1378 44.2387 88.9315C44.1064 88.7378 44.0554 88.7311 44.0531 88.9071C44.0484 89.2643 42.7907 89.2066 42.3402 88.8285C42.1297 88.6519 41.9575 88.59 41.9575 88.6909C41.9575 88.8023 41.2784 88.822 40.2313 88.7411C39.2819 88.6677 37.7989 88.5596 36.9358 88.5008C36.0727 88.442 35.0572 88.2924 34.6792 88.1683C34.3012 88.0443 33.7575 87.9843 33.4711 88.0351C33.1846 88.0859 32.8909 88.0383 32.8183 87.9294C32.7372 87.8077 32.7919 87.7919 32.9602 87.8884C33.1306 87.9861 33.1833 87.9692 33.0997 87.8438C32.9422 87.6073 31.9443 87.3932 30.7632 87.3423C30.0665 87.3124 29.9225 87.2365 29.9035 86.8894C29.8832 86.5168 30.0275 86.4568 31.2636 86.3239C32.0241 86.2421 32.8818 86.1942 33.1695 86.2172L33.6926 86.2592L33.1374 85.9794C32.1746 85.4941 31.2359 85.2894 29.4032 85.1649C28.425 85.0984 27.0126 84.9015 26.2646 84.7272C24.5441 84.3263 18.5743 84.2956 18.314 84.6862C18.2244 84.8207 18.0403 84.8672 17.9049 84.7896C17.5553 84.5893 13.7048 84.5218 13.8358 84.7183C13.9583 84.9022 13.9271 84.9053 11.1899 84.9823C9.25806 85.0367 8.4426 85.103 5.54993 85.4408C4.23093 85.5949 3.45975 85.5066 2.70589 85.1154C2.39019 84.9516 2.45823 84.8584 3.21854 84.4133C3.83179 84.0543 4.58098 83.8432 5.71184 83.7106C7.64171 83.4844 9.48303 83.1994 10.8096 82.9216C11.6032 82.7554 11.7614 82.6527 11.6783 82.3579C11.6186 82.1463 11.4555 82.0405 11.2834 82.1017C11.1221 82.1591 10.9901 82.1094 10.9901 81.9913C10.9901 81.8731 11.1549 81.7752 11.3563 81.7735C11.6692 81.7711 11.6768 81.7432 11.4086 81.5825C11.2101 81.4635 11.1885 81.3933 11.3497 81.3914C11.4904 81.3896 11.5505 81.2574 11.4838 81.0963C11.3997 80.8931 11.6085 80.703 12.1704 80.4715L12.9779 80.1387L10.9335 80.0217C9.8091 79.9574 8.32612 79.9136 7.63801 79.9244C6.94989 79.9352 6.38688 79.9332 6.38688 79.9198C6.38688 79.9065 6.5752 79.6942 6.80536 79.4481C7.03552 79.202 7.22384 79.0597 7.22384 79.1319C7.22384 79.204 7.43587 79.1343 7.69502 78.9768C7.95417 78.8193 8.86422 78.59 9.71737 78.4673C10.5705 78.3445 11.6414 78.1221 12.0972 77.973C12.553 77.8239 13.2672 77.6988 13.6842 77.6949C14.8495 77.6843 17.7848 76.9766 16.936 76.9109C16.8305 76.9027 16.5559 76.8559 16.3257 76.8068C16.0956 76.7577 15.7923 76.6941 15.6518 76.6655C15.173 76.5682 15.1425 76.3794 15.5844 76.2493C15.8269 76.1779 16.2715 75.908 16.5723 75.6495C16.8731 75.391 17.3293 75.1795 17.5861 75.1795C17.8429 75.1795 18.1604 75.0595 18.2917 74.9128C18.4879 74.6936 18.3154 74.6233 17.3235 74.5186C16.6596 74.4484 15.834 74.3488 15.4888 74.2971C14.6674 74.1741 11.3991 74.1919 11.1746 74.3206C10.8717 74.4941 8.47928 74.576 8.47928 74.4128C8.47928 74.327 8.62051 74.1482 8.79313 74.0153C8.96576 73.8825 9.10699 73.6826 9.10699 73.5712C9.10699 73.4597 9.04503 73.426 8.96931 73.4962C8.89359 73.5664 8.70528 73.5266 8.55084 73.4078C8.39535 73.2881 8.27004 73.2744 8.27004 73.3771C8.27004 73.4791 8.1288 73.5626 7.95618 73.5626C7.45366 73.5626 7.59151 73.3548 8.28205 73.0714C9.05862 72.7526 8.94742 72.6189 7.69548 72.3661C6.55341 72.1354 6.3357 71.774 7.15452 71.4679C8.00192 71.1512 11.9832 70.7401 14.2591 70.7344C15.3259 70.7315 16.4485 70.6713 16.7538 70.6003L17.3088 70.4711L16.7127 70.0188C16.3848 69.7701 15.9573 69.5635 15.7627 69.5596C15.2667 69.5499 15.116 69.2412 15.382 68.7803C15.6629 68.2935 17.483 67.4183 18.2143 67.4183C18.5226 67.4183 18.7009 67.3346 18.6274 67.2243C18.5562 67.1176 18.3254 67.0303 18.1143 67.0303C17.7598 67.0303 17.3657 66.5459 17.4433 66.2056C17.5223 65.8598 14.2025 66.2466 13.9246 66.6156C13.7124 66.8974 8.36941 67.6339 7.84415 67.4538L7.34396 67.2822L7.83052 67.0407C8.09812 66.9079 9.83655 66.5644 11.6937 66.2773C15.092 65.7519 15.9191 65.381 13.6923 65.381C13.008 65.381 12.3786 65.2702 12.1739 65.1137C11.8833 64.8914 11.4809 64.8853 9.78566 65.0772C6.66857 65.4302 4.85702 65.6727 4.43219 65.7937C4.15073 65.874 4.06608 65.8165 4.11833 65.5805C4.19448 65.2367 4.84183 64.8332 5.8567 64.4971C6.73024 64.2078 6.18725 63.9528 5.07032 64.1277C4.58607 64.2036 3.76616 64.3272 3.2483 64.4023L2.30672 64.539L3.09137 63.8417C3.52293 63.4582 3.87602 63.1133 3.87602 63.0751C3.87602 63.037 3.29214 62.9445 2.57852 62.8697C0.89124 62.6926 -0.0115763 62.254 0.000112076 61.617C0.00625188 61.281 1.35988 60.8303 2.61939 60.7448C3.13792 60.7097 4.31541 60.5421 5.23607 60.3726C6.15672 60.203 7.5692 60.025 8.37491 59.977C9.18063 59.929 10.4047 59.7977 11.095 59.6853C15.3825 58.9872 16.3474 58.8154 16.5322 58.7171C16.6458 58.6567 16.3162 58.5119 15.7999 58.3954C15.2803 58.278 14.8611 58.0696 14.8611 57.9286C14.8611 57.6021 16.97 56.8928 18.884 56.5756C19.815 56.4213 20.5039 56.1918 20.7294 55.9607C20.9313 55.7538 21.6318 55.493 22.3248 55.3665C23.8971 55.0797 23.8546 54.8076 22.1462 54.2222C21.7799 54.0967 21.5227 53.8931 21.5745 53.7696C21.6926 53.4887 22.6624 53.0602 23.1801 53.0602C23.3941 53.0602 23.511 52.9729 23.4399 52.8661C23.3687 52.7594 22.6099 52.6721 21.7536 52.6721C20.3427 52.6721 19.7762 52.4737 20.4582 52.2185C21.0676 51.9905 18.014 52.114 16.5058 52.3783C14.6276 52.7076 13.6056 52.5698 13.6056 51.9873C13.6056 51.7187 14.1522 51.3661 15.6594 50.6623C17.0793 49.9993 17.6283 49.6524 17.438 49.5385C17.0765 49.322 17.4333 49.1007 18.8366 48.6709C20.8174 48.0642 22.3888 47.0472 22.1825 46.5055C22.0416 46.1355 22.8137 45.9337 26.0034 45.5067C27.5888 45.2945 29.1766 44.9865 29.5318 44.8222C29.887 44.6579 30.6389 44.4722 31.2027 44.4095C32.7575 44.2367 35.7324 43.5388 36.1977 43.2377C36.4247 43.0908 36.8955 42.9645 37.2439 42.957C37.5923 42.9495 38.0657 42.8684 38.2958 42.7766C38.6291 42.6439 38.5438 42.6041 37.8774 42.5813C36.0939 42.5204 35.1475 42.3573 34.9111 42.0702C34.7497 41.8742 34.4975 41.8139 34.1787 41.8952C33.7604 42.0018 33.7442 41.9891 34.0625 41.8042C34.266 41.686 34.5956 41.6141 34.7949 41.6445C34.9942 41.6749 35.2839 41.6262 35.4388 41.5362C35.6053 41.4394 35.931 41.4772 36.2363 41.6288C36.6385 41.8284 36.8397 41.8343 37.1482 41.6557C37.3987 41.5106 37.5906 41.4962 37.6708 41.6165C37.7404 41.721 38.3333 41.8096 38.9882 41.8134C39.6431 41.8172 40.4144 41.945 40.7021 42.0976C41.3289 42.4298 41.539 42.4542 41.539 42.1946C41.539 42.0879 41.3922 42.0005 41.2128 42.0005C41.0334 42.0005 40.9382 41.9232 41.0012 41.8286C41.0643 41.734 40.9187 41.6088 40.6777 41.5504C40.4367 41.4919 40.2804 41.3292 40.3304 41.1887C40.4227 40.9296 41.3599 40.7777 44.2591 40.5522C46.8784 40.3485 47.607 40.2388 47.607 40.0484C47.607 39.9482 47.4657 39.8662 47.2931 39.8662C47.1188 39.8662 46.9793 39.6938 46.9793 39.4782C46.9793 39.1936 47.1188 39.0901 47.5024 39.0901C48.1042 39.0901 48.2069 38.7913 47.6513 38.6566C47.4455 38.6067 46.3862 38.6125 45.2973 38.6694C42.126 38.8354 40.8574 38.7802 40.194 38.4473C39.857 38.2782 39.5209 38.1744 39.4472 38.2166C39.3735 38.2589 39.352 38.0477 39.3996 37.7473C39.5033 37.0918 39.209 36.9895 37.0607 36.9347C35.7749 36.9019 35.6751 36.8725 36.1219 36.6577C36.857 36.3044 39.5537 35.7974 41.1618 35.7101C41.9836 35.6655 42.7599 35.5061 43.0392 35.3247C43.6336 34.9387 43.9918 34.9339 44.3937 35.3065C44.5744 35.4742 45.0782 35.5958 45.5818 35.5934C47.1326 35.586 52.9188 35.0403 53.7044 34.8274C54.438 34.6285 54.4602 34.5964 54.3055 33.96C54.2079 33.559 54.2299 33.2202 54.3613 33.0984C54.5105 32.96 54.5041 32.8152 54.3406 32.6325C53.8407 32.074 54.4766 31.9584 57.5302 32.0525C59.9028 32.1256 60.6429 32.0856 61.1243 31.8579C61.6337 31.617 63.9302 31.2848 65.4969 31.2253C65.7271 31.2166 66.3862 31.1314 66.9616 31.036L68.0078 30.8625L67.0662 30.7214C66.5483 30.6437 64.9948 30.6248 63.6138 30.6792C62.2328 30.7336 60.2555 30.7665 59.2198 30.7523C58.184 30.7381 56.1596 30.8687 54.7211 31.0425C51.8748 31.3865 48.9394 31.6271 47.6758 31.62C47.2352 31.6175 46.8155 31.6918 46.7432 31.785C46.6709 31.8781 46.3178 31.9655 45.9586 31.9792C45.5993 31.9928 45.3054 32.0762 45.3054 32.1646C45.3054 32.2529 45.0935 32.27 44.8346 32.2024C44.466 32.1063 44.4319 32.1239 44.6776 32.2834C44.9482 32.459 44.941 32.4876 44.6253 32.4901C44.4239 32.4919 44.2592 32.5904 44.2592 32.7094C44.2592 32.8423 44.0602 32.8049 43.7434 32.6124C43.1706 32.2644 42.9195 32.2098 43.0936 32.471C43.1567 32.5656 43.021 32.6884 42.7921 32.7439C42.554 32.8017 42.376 32.7489 42.3759 32.6204C42.3759 32.4905 42.0456 32.3961 41.5913 32.3961C41.0926 32.3961 40.8246 32.4811 40.8557 32.6293C40.8894 32.7899 40.6639 32.834 40.1325 32.7709C39.2614 32.6675 38.4021 32.2154 38.3973 31.858C38.395 31.7053 38.3214 31.7242 38.1912 31.911C38.0338 32.1369 37.9877 32.0798 37.9852 31.6557C37.9811 30.9559 38.3258 30.3588 38.734 30.3588C38.9094 30.3588 38.9947 30.2715 38.9236 30.1648C38.8524 30.058 38.9646 29.964 39.1728 29.9559C39.8623 29.9288 40.3002 29.8113 40.7664 29.528C41.1844 29.274 42.1668 29.3718 42.1668 29.6673C42.1668 29.7208 42.0406 29.7196 41.8864 29.6645C41.7322 29.6097 41.4733 29.7165 41.311 29.9019C41.0567 30.1924 41.057 30.2161 41.3133 30.0729C41.5418 29.9452 41.5764 29.989 41.4631 30.2627C41.375 30.4756 41.4238 30.6821 41.5845 30.7766C41.9848 31.0122 42.3219 30.9679 41.9578 30.7276C41.7216 30.5717 41.8428 30.5461 42.4475 30.6242C42.892 30.6816 43.4221 30.6289 43.6337 30.5064C43.9232 30.3387 44.0906 30.3422 44.3226 30.5207C44.5697 30.7109 44.6604 30.6898 44.7913 30.412C44.8805 30.2225 44.9386 30.002 44.9203 29.922C44.9021 29.842 45.0205 29.7765 45.1835 29.7765C45.3466 29.7765 45.5158 29.6766 45.5597 29.5546C45.6036 29.4325 45.9157 29.3053 46.2533 29.272C46.5909 29.2386 46.9724 29.0779 47.101 28.9148C47.2295 28.7517 47.411 28.6825 47.5043 28.7608C47.5976 28.8392 47.6148 28.7505 47.5425 28.5638C47.3808 28.1458 47.781 28.1067 47.9535 28.5237C48.0631 28.7887 48.1225 28.7852 48.47 28.4936C48.841 28.1823 48.8628 28.1845 48.8658 28.5337C48.8685 28.8434 48.9019 28.8561 49.0719 28.6123C49.3743 28.1784 49.3311 28.0839 48.7711 27.9536C48.4159 27.8709 48.2711 27.7108 48.2942 27.4263C48.3311 26.9732 49.0599 26.6344 49.8997 26.6801C50.6825 26.7228 51.3735 26.4731 51.3735 26.1476C51.3735 25.9381 51.5815 25.8766 52.1582 25.9156C53.0015 25.9727 54.4202 25.7543 54.9306 25.4888C55.184 25.357 55.1639 25.3227 54.826 25.3105C54.5958 25.3023 53.9367 25.2545 53.3613 25.2045C51.5821 25.0498 49.2154 25.0547 48.3616 25.2148C47.7755 25.3247 47.5876 25.3062 47.6925 25.1489C47.7825 25.0138 47.7259 24.9702 47.5444 25.0348C47.3723 25.096 47.0946 24.9184 46.8737 24.6059C46.6042 24.2244 46.5687 24.0503 46.7493 23.9945C46.9188 23.9421 46.8778 23.8263 46.6244 23.642C46.2805 23.3919 46.3027 23.3766 46.8749 23.4687C47.2201 23.5244 47.3849 23.5184 47.241 23.4555C46.7111 23.2239 47.003 22.9855 47.8164 22.9855C48.3448 22.9855 48.6545 23.0749 48.6566 23.228C48.6588 23.4065 48.7073 23.401 48.8396 23.2073C48.9527 23.0419 49.0684 23.0174 49.1511 23.1415C49.2916 23.3523 49.5579 23.3359 50.2119 23.0762C50.4362 22.9872 50.9292 22.9085 51.3074 22.9014C52.1746 22.8851 52.4562 22.4034 51.5985 22.4034C51.2593 22.4034 50.9476 22.2772 50.8793 22.1123C50.798 21.9159 50.8895 21.8213 51.1604 21.8213C51.3812 21.8213 51.6372 21.7122 51.7292 21.5788C51.9692 21.2309 52.8219 20.8189 53.0414 20.9448C53.1439 21.0035 53.2868 20.9628 53.3591 20.8543C53.4314 20.7459 53.7504 20.6571 54.0679 20.6571C54.3855 20.6571 55.1567 20.5153 55.7818 20.342C56.7684 20.0685 56.8571 20.0056 56.454 19.8654C56.1987 19.7766 54.4516 19.7158 52.5716 19.7303C50.6915 19.7449 49.0303 19.6861 48.88 19.5999C48.7243 19.5107 48.5449 19.5357 48.4634 19.658C48.2953 19.9103 41.7908 20.1015 41.6292 19.859C41.5723 19.7737 41.3797 19.7559 41.2011 19.8195C40.9812 19.8977 40.9523 19.9785 41.1114 20.0697C41.2407 20.1438 41.0603 20.2044 40.7105 20.2044C40.3607 20.2044 40.0746 20.1209 40.0746 20.0189C40.0746 19.9169 39.931 19.9439 39.7556 20.0789C39.5802 20.2139 39.3698 20.2623 39.288 20.1864C39.2062 20.1106 39.3732 19.8833 39.6592 19.6815L40.1792 19.3144L39.6561 19.4077C39.1977 19.4894 39.1847 19.4781 39.5515 19.3165C40.1549 19.0507 41.1466 19.0782 41.728 19.3769C42.2946 19.6681 43.0039 19.5722 43.0039 19.2043C43.0039 19.0349 43.4171 18.9588 44.364 18.9539C45.2173 18.9494 45.724 19.0261 45.724 19.1599C45.724 19.2772 45.8417 19.23 45.9856 19.0552C46.1745 18.8255 46.741 18.7026 48.0256 18.6127C49.0038 18.5442 50.3985 18.365 51.1249 18.2144C51.8513 18.0639 52.7458 17.9323 53.1127 17.9221C53.4795 17.9118 54.2505 17.7842 54.8259 17.6385C55.8069 17.3901 55.6962 17.3802 53.0474 17.4794C51.4938 17.5377 50.0814 17.5867 49.9088 17.5885C49.7362 17.5902 47.5705 17.7963 45.0963 18.0465C42.622 18.2966 39.9245 18.528 39.1019 18.5605C38.2792 18.5932 37.6492 18.6853 37.7019 18.7653C37.7545 18.8454 37.3919 18.9112 36.896 18.9116C36.4001 18.9116 35.147 19.0389 34.1112 19.1935C32.3352 19.4586 28.1573 19.732 28.7246 19.546C28.8692 19.4986 28.9343 19.3799 28.8692 19.2823C28.8042 19.1848 29.0154 19.1007 29.3387 19.0956C29.662 19.0906 30.256 18.9206 30.6588 18.7181C31.0616 18.5156 31.5794 18.2685 31.8096 18.169C32.5661 17.8418 44.9068 15.9487 47.8164 15.7134C48.6795 15.6436 51.1747 15.4135 53.3612 15.2021C55.5478 14.9908 58.4338 14.7331 59.7745 14.6295C61.1153 14.526 62.6653 14.3148 63.219 14.1603C63.9464 13.9573 64.2658 13.9394 64.37 14.0958C64.5022 14.2941 66.7036 14.2398 69.368 13.9725C69.7708 13.9321 71.0419 13.8445 72.1927 13.7778C74.2577 13.6582 77.4038 13.2557 79.1648 12.8859C79.6621 12.7815 80.1571 12.7466 80.2648 12.8083C80.3725 12.87 81.8303 12.7281 83.5043 12.493C85.9812 12.145 86.6372 12.1096 87.0269 12.303C87.4187 12.4975 87.9204 12.4648 89.7881 12.1236C92.897 11.5554 96.9538 10.8168 98.9753 10.4509C99.896 10.2842 101.234 10.024 101.948 9.87267C102.662 9.72132 103.556 9.59791 103.935 9.59843C104.315 9.59843 105.049 9.47365 105.566 9.31996C106.439 9.06096 108.226 8.77343 112.994 8.12476C115.444 7.79151 115.937 7.7146 118.435 7.27688C119.585 7.07516 121.469 6.76602 122.619 6.58988C123.77 6.41374 124.994 6.22632 125.339 6.1734C127.783 5.79899 128.248 5.80595 128.734 6.2242C128.996 6.44988 129.21 6.73365 129.21 6.8548C129.21 6.97596 129.281 7.06474 129.367 7.05211C129.454 7.0396 129.739 7.0396 130.002 7.05211C130.402 7.0713 130.446 7.13445 130.271 7.43762C130.015 7.88146 130.22 8.12086 130.604 7.82576C131.035 7.49374 130.937 7.79239 130.44 8.32175C130.18 8.59943 129.657 8.84839 129.176 8.92378C128.473 9.03386 128.393 9.09454 128.618 9.34591C128.956 9.72318 128.67 9.74659 142.079 8.24217C142.999 8.13886 144.647 8.01248 145.74 7.9613C146.834 7.91013 148.811 7.77635 150.134 7.66401C151.458 7.5517 153.2 7.42521 154.005 7.38292C154.811 7.34066 155.842 7.2156 156.297 7.10504C156.752 6.99449 158.558 6.89865 160.309 6.8921C162.061 6.88556 163.619 6.84126 163.771 6.79369C164.148 6.67633 169.051 6.43814 170.218 6.48054C170.734 6.49934 171.3 6.63545 171.476 6.78314C171.87 7.11406 172.874 7.14723 177.545 6.98364C179.691 6.90841 181.663 6.73738 182.31 6.57021C183.155 6.35206 184.556 6.29234 188.274 6.31606C190.946 6.33321 195.393 6.28116 198.155 6.20065C203.752 6.03747 203.453 6.03562 209.244 6.26877C212.994 6.41971 215.157 6.42598 218.451 6.29544C219.026 6.27263 219.332 6.21403 219.131 6.16523C218.929 6.11644 218.765 5.98522 218.765 5.87368C218.765 5.73988 219.352 5.70932 220.491 5.78388C221.44 5.84606 224.289 5.9854 226.82 6.09355C229.352 6.20171 232.601 6.37977 234.039 6.48924C239.818 6.92907 242.023 7.08408 245.024 7.26176C252.531 7.70618 256.488 7.88326 260.613 7.95934C262.511 7.99438 264.865 8.08253 265.844 8.15523C266.822 8.22793 268.281 8.27959 269.087 8.27001C269.892 8.26059 271.493 8.33847 272.644 8.44344C273.795 8.54841 277.522 8.67273 280.926 8.71974C284.331 8.76674 287.532 8.8903 288.04 8.99431C288.549 9.09832 289.704 9.23072 290.608 9.28852C291.512 9.34631 292.548 9.43852 292.91 9.49341C294.147 9.68113 296.079 9.80877 298.903 9.88944C301.391 9.96047 303.807 10.131 307.377 10.4873C307.953 10.5447 308.753 10.616 309.156 10.6458C309.559 10.6756 310.595 10.756 311.458 10.8245C312.321 10.893 313.78 11.0024 314.701 11.0677C315.621 11.133 316.421 11.2133 316.479 11.2462C316.537 11.2791 317.119 11.3587 317.774 11.4233C318.428 11.4878 319.102 11.5896 319.27 11.6496C319.439 11.7096 320.41 11.7847 321.428 11.8165C324.225 11.9038 324.221 11.9032 324.221 12.2169C324.221 12.3769 324.321 12.5079 324.443 12.5079C324.565 12.5079 324.596 12.4058 324.513 12.2809C324.41 12.1261 324.478 12.0953 324.727 12.1839C324.928 12.2554 325.3 12.3139 325.554 12.3139C325.865 12.3139 326.026 12.44 326.047 12.7019C326.084 13.1658 325.971 13.188 325.551 12.7989C325.113 12.3928 324.623 12.4233 324.771 12.8475C324.843 13.0564 324.82 13.1036 324.712 12.9702C324.591 12.8224 324.002 12.7946 322.861 12.8831C320.897 13.0353 319.415 12.9934 316.689 12.7086C315.595 12.5945 314.183 12.4541 313.55 12.3967C312.917 12.3393 312.289 12.2591 312.155 12.2184C312.021 12.1777 311.856 12.2768 311.789 12.4386C311.699 12.6565 311.5 12.6988 311.023 12.6016C310.273 12.449 309.792 12.3909 307.796 12.2128C306.99 12.1409 306.275 12.0499 306.206 12.0107C306.059 11.9271 303.261 11.9133 299.426 11.9774C296.994 12.018 295.278 11.907 293.998 11.626C293.277 11.4676 288.232 11.3991 288.232 11.5477C288.232 11.6241 288.868 11.7497 289.644 11.8268C290.421 11.9039 291.245 12.0014 291.475 12.0435C293.09 12.3388 297.414 12.6697 300.891 12.7642C301.697 12.7861 302.455 12.8631 302.577 12.9353C302.779 13.0555 309.186 13.5188 309.53 13.4381C309.612 13.4189 310.385 13.4643 311.248 13.539C312.583 13.6544 315.99 13.8866 316.846 13.9204C317.155 13.9326 317.191 14.1831 316.907 14.3457C316.704 14.4624 315.127 14.4893 313.699 14.4005C313.263 14.3734 312.83 14.2363 312.737 14.0958C312.61 13.9058 312.251 13.8741 311.332 13.9719C310.653 14.0442 310.035 14.1381 309.957 14.1805C309.88 14.223 309.675 14.1253 309.5 13.9634C309.325 13.8016 309.133 13.7439 309.072 13.8353C308.954 14.0126 304.731 13.9371 303.507 13.7357C303.104 13.6695 302.394 13.5973 301.929 13.5753C301.464 13.5533 300.875 13.432 300.621 13.3058C300.251 13.1223 300.159 13.1283 300.159 13.3354C300.159 13.4879 299.879 13.6154 299.479 13.6454C297.824 13.7692 295.508 13.7574 293.672 13.616C292.352 13.5142 291.788 13.5269 291.992 13.654C292.817 14.1661 291.27 14.4186 288.86 14.1652C286.723 13.9406 286.341 13.9287 285.418 14.0587C284.942 14.1257 284.274 14.1114 283.934 14.0269C283.037 13.8042 278.38 13.4099 276.305 13.3812C275.327 13.3676 273.915 13.2968 273.167 13.2238C272.419 13.1509 270.912 13.0464 269.819 12.9916C268.726 12.9368 266.136 12.7636 264.065 12.6067C261.993 12.4498 258.912 12.2628 257.218 12.1911C254.457 12.0742 254.124 12.0942 254.004 12.3838C253.89 12.6593 253.526 12.7057 251.54 12.6987C250.258 12.6942 248.785 12.7612 248.267 12.8478L247.326 13.0052L248.895 13.2216C249.758 13.3406 250.794 13.4355 251.197 13.4326C251.6 13.4294 253.247 13.5625 254.858 13.7277C256.47 13.893 259.53 14.1257 261.659 14.2448C263.788 14.3639 265.739 14.5032 265.995 14.5543C266.251 14.6054 268.37 14.7322 270.703 14.8361C274.897 15.0228 277.835 15.1751 280.072 15.3219C280.705 15.3634 282.876 15.4858 284.897 15.5939C286.918 15.702 288.707 15.8293 288.872 15.8768C289.038 15.9243 289.362 16.0293 289.592 16.11C289.822 16.1907 290.373 16.2809 290.815 16.3106C291.257 16.3402 291.729 16.5029 291.862 16.6721C292.055 16.9164 292.6 16.9901 294.51 17.0299C295.833 17.0575 297.01 17.1338 297.125 17.1994C297.24 17.265 298.04 17.3699 298.903 17.4325C303.029 17.7319 307.154 17.975 309.051 18.0308C310.202 18.0646 312.65 18.2447 314.492 18.431C316.333 18.6174 318.687 18.7988 319.723 18.8343C326.891 19.0794 332.616 19.3881 335.625 19.6918C336.66 19.7963 338.476 19.938 339.659 20.0066C340.842 20.0753 341.86 20.2061 341.921 20.2973C341.981 20.3885 341.72 20.4702 341.339 20.4789C340.958 20.4877 340.381 20.5125 340.056 20.5344C339.731 20.5563 339.424 20.5128 339.374 20.4377C339.324 20.3627 338.935 20.3903 338.51 20.4992C338.078 20.6097 337.132 20.6405 336.367 20.569C335.613 20.4986 331.607 20.4068 327.464 20.365C323.321 20.3232 318.378 20.2327 316.479 20.1638C313.095 20.0409 312.136 20.1161 314.356 20.3301C314.972 20.3894 315.521 20.4803 315.577 20.5319C315.726 20.6703 314.961 21.0126 314.326 21.0914C313.587 21.1833 313.354 21.4291 313.986 21.4501C314.264 21.4594 315.716 21.5483 317.212 21.6478C318.708 21.7473 321.65 21.8802 323.75 21.9433C327.203 22.0469 327.569 22.0905 327.569 22.398C327.569 22.8248 328.411 22.9257 333.488 23.1071C335.535 23.1803 337.259 23.3138 337.319 23.4039C337.379 23.4939 337.841 23.5676 338.345 23.5676C340.064 23.5676 339.582 24.1034 337.47 24.5399C336.874 24.6631 336.074 24.7478 335.692 24.7282C333.143 24.5972 333.812 24.9792 336.671 25.2877C337.822 25.4119 339.422 25.5557 340.228 25.6074C341.034 25.6591 342.493 25.7884 343.471 25.8948C344.449 26.0012 346.427 26.1458 347.865 26.2162C349.637 26.3028 350.548 26.4262 350.69 26.5984C350.806 26.7392 351.552 26.9089 352.364 26.9789C353.169 27.0484 353.923 27.2119 354.038 27.3422C354.153 27.4725 354.935 27.638 355.775 27.71C356.616 27.782 357.514 27.9691 357.772 28.1259C358.068 28.3055 358.973 28.4424 360.22 28.4962C362.908 28.6122 365.014 28.8309 365.131 29.006C365.254 29.1901 363.422 29.4531 363.14 29.2918C363.025 29.2257 362.93 29.2543 362.93 29.3554C362.93 29.4566 363.26 29.5967 363.663 29.6667C364.458 29.8051 364.608 30.0464 364.029 30.2547C363.345 30.5005 364.302 30.8898 366.453 31.241C368.26 31.536 369.402 31.9006 368.569 31.9168C367.787 31.932 368.995 32.274 370.252 32.3933C370.998 32.4641 371.718 32.6062 371.852 32.7092C371.986 32.8121 372.691 32.9853 373.418 33.094C375.441 33.396 375.419 33.6386 373.356 33.789C372.585 33.8452 371.88 34.0116 371.668 34.1875C371.371 34.4343 371.008 34.4638 369.681 34.3489C366.983 34.1153 366.448 34.1607 366.044 34.6585C365.845 34.9022 365.724 35.1626 365.774 35.2372C365.823 35.3119 366.499 35.434 367.274 35.5087C368.05 35.5834 368.779 35.7131 368.894 35.7968C369.009 35.8806 369.55 36.0109 370.097 36.0863C371.597 36.2934 371.289 36.5676 369.556 36.5676C368.712 36.5676 367.951 36.633 367.863 36.7131C367.776 36.7931 366.899 36.8586 365.913 36.8586C364.667 36.8586 364.094 36.9325 364.032 37.1011C363.97 37.2673 364.194 37.344 364.744 37.3447C365.185 37.3451 365.875 37.4259 366.278 37.5238C366.681 37.6217 367.808 37.757 368.782 37.8246C369.756 37.8921 370.659 38.029 370.789 38.1289C370.918 38.2287 371.08 38.2596 371.147 38.1974C371.214 38.1352 371.487 38.1569 371.755 38.2455C372.131 38.37 371.908 38.4349 370.777 38.5303C369.442 38.6429 367.92 38.9261 367.115 39.2116C366.604 39.3927 367.399 39.5918 369.783 39.8801C370.963 40.0227 371.928 40.1911 371.928 40.2544C371.928 40.3177 372.54 40.3334 373.288 40.2892C374.381 40.2247 374.648 40.2646 374.648 40.4925C374.648 40.8442 373.986 41.4193 373.585 41.4153C373.339 41.4129 373.342 41.3798 373.601 41.2243C373.869 41.0642 373.86 41.0357 373.543 41.0332C373.338 41.0314 373.114 41.1657 373.045 41.3313C372.939 41.5879 372.561 41.6174 370.489 41.531C367.892 41.4227 367.254 41.5511 367.732 42.0856C368.533 42.9808 371.801 43.9407 374.047 43.9407C375.404 43.9407 376.112 44.176 376.112 44.6266C376.112 44.8521 375.778 44.9099 374.491 44.9062C373.599 44.9037 372.492 44.8096 372.032 44.6972C371.572 44.5848 369.403 44.4533 367.212 44.4049C363.339 44.3195 363.229 44.3277 363.198 44.7071C363.167 45.0803 363.423 45.349 363.872 45.4164C363.987 45.4336 364.89 45.589 365.878 45.7617C369.112 46.3268 371.983 46.671 374.922 46.8459C377.645 47.008 378.574 47.2302 378.293 47.6524C378.228 47.7487 378.086 47.776 377.976 47.713C377.866 47.6499 377.802 47.714 377.833 47.8553C377.865 47.9975 377.728 48.1004 377.527 48.0857C377.327 48.0711 377.208 48.127 377.264 48.2099C377.319 48.2929 377.044 48.4164 376.654 48.4844C375.809 48.6312 375.609 48.981 376.042 49.5536C376.272 49.8587 376.297 50.0406 376.132 50.2243C375.863 50.5255 376.039 50.7317 376.566 50.7317C376.777 50.7317 376.949 50.7682 376.949 50.8128C376.949 50.8575 377.012 51.045 377.088 51.2296C377.216 51.538 377.075 51.5548 375.362 51.4366C374.336 51.3658 373.144 51.256 372.712 51.1926C372.088 51.1008 371.928 51.1391 371.928 51.3799C371.928 51.5464 371.776 51.7613 371.59 51.8576C371.111 52.1061 371.399 53.2241 372 53.4488C372.429 53.6095 372.431 53.6188 372.032 53.6435C371.614 53.6694 371.614 53.6694 372.032 53.8362C372.44 53.9988 371.87 54.0683 369.731 54.1168C368.838 54.137 368.161 54.3982 368.161 54.7224C368.161 54.8956 367.944 55.0013 367.586 55.003C367.269 55.0047 366.796 55.0588 366.535 55.1238C366.089 55.2346 366.082 55.2582 366.43 55.503C366.634 55.6466 367.059 55.7669 367.374 55.7703C367.688 55.7738 368.567 56.082 369.326 56.4555C370.092 56.8323 371.012 57.1347 371.391 57.1347C372.659 57.1347 374.637 57.3817 374.54 57.5279C374.486 57.6077 374.603 57.6609 374.799 57.6463C374.995 57.6317 375.188 57.7702 375.229 57.9541C375.325 58.381 374.089 59.117 373.452 59.013C373.197 58.9714 372.954 59.0326 372.912 59.149C372.814 59.4235 370.372 59.5011 369.395 59.2608C368.98 59.1587 366.838 59.0516 364.635 59.0226C360.91 58.9737 359.811 59.0728 361.204 59.332C361.521 59.3909 362.203 59.528 362.721 59.6366C363.239 59.7453 364.063 59.838 364.552 59.8426C365.041 59.8473 365.441 59.9384 365.441 60.0451C365.441 60.1518 365.589 60.2391 365.769 60.2391C365.949 60.2391 366.29 60.335 366.526 60.4523C366.951 60.6631 366.95 60.6679 366.46 60.8946C365.601 61.2914 365.867 61.6658 367.31 62.0911C368.05 62.3093 368.7 62.6149 368.754 62.7702C368.808 62.9255 368.935 63.1032 369.037 63.1651C369.357 63.3598 368.974 63.9584 368.611 63.8295C368.428 63.7644 368.336 63.7647 368.407 63.8302C368.478 63.8957 368.298 64.1694 368.008 64.4384C367.626 64.7922 367.233 64.9363 366.585 64.9596C366.092 64.9773 365.728 65.0488 365.774 65.1186C365.821 65.1884 364.958 65.2027 363.856 65.1504C362.255 65.0744 361.783 65.1143 361.503 65.3495C361.113 65.6761 359.058 65.8107 357.986 65.5799C357.577 65.4917 357.278 65.5189 357.189 65.6525C357.111 65.7699 356.825 65.8661 356.553 65.8661C355.924 65.8661 355.398 66.0522 355.398 66.2749C355.398 66.3702 355.534 66.4481 355.701 66.4481C355.868 66.4481 356.084 66.5805 356.182 66.7423C356.292 66.9249 357.11 67.1719 358.337 67.3933C360.755 67.8295 362.534 68.4963 362.366 68.9029C362.301 69.0591 362.115 69.1392 361.951 69.0809C361.787 69.0226 361.706 69.0539 361.77 69.1503C361.834 69.2468 361.64 69.5977 361.338 69.9302C360.935 70.3752 360.679 70.5021 360.369 70.4109C360.136 70.3423 360.001 70.3659 360.066 70.4639C360.131 70.561 359.857 70.6492 359.456 70.6597C359.056 70.6702 358.068 70.829 357.26 71.0126L355.791 71.3463L356.259 71.8077C356.516 72.0614 356.813 72.269 356.919 72.269C357.026 72.269 357.436 72.4112 357.831 72.585C358.52 72.888 358.536 72.9195 358.231 73.351C358.031 73.6346 357.991 73.8456 358.123 73.9216C358.239 73.9879 358.273 74.1327 358.2 74.2434C358.113 74.3733 358 74.3513 357.882 74.1815C357.764 74.0107 357.644 73.9878 357.542 74.1162C357.456 74.2251 357.103 74.4405 356.758 74.5949L356.13 74.8757L356.792 74.9416C357.509 75.013 357.893 75.5109 357.373 75.6958C357.197 75.7583 357.001 75.7612 356.938 75.7022C356.874 75.6433 356.509 75.7582 356.126 75.9578C355.743 76.1573 355.071 76.3828 354.634 76.4589C354.197 76.535 353.712 76.7148 353.557 76.8585C353.19 77.1988 353.046 77.1913 351.102 76.7302C349.357 76.3164 348.865 76.355 348.15 76.9618C347.746 77.3041 347.583 77.3209 346.49 77.1335C345.055 76.8877 342.354 76.8562 342.508 77.0871C342.567 77.1759 343.302 77.3571 344.142 77.4898C346.28 77.828 346.521 77.9007 346.17 78.102C345.561 78.4509 348.287 79.2746 350.952 79.5467C351.671 79.6202 352.305 79.7487 352.361 79.8324C352.417 79.9161 352.265 80.2174 352.024 80.5019C351.618 80.9798 351.611 81.0456 351.922 81.3646C352.107 81.5546 352.259 81.7577 352.259 81.8161C352.259 82.0559 348.716 81.7108 347.551 81.3576C345.876 80.8497 342.485 80.479 342.171 80.7696C342.006 80.9233 342.004 81.0553 342.166 81.2363C342.385 81.4808 342.721 81.5854 345.511 82.2787C346.381 82.495 346.819 82.7015 346.819 82.8959C346.819 83.1417 346.572 83.1674 345.266 83.0577C344.272 82.9741 343.666 82.9994 343.58 83.128C343.506 83.2383 343.561 83.3287 343.703 83.3287C343.844 83.3287 343.91 83.3739 343.851 83.4291C343.711 83.5592 340.747 82.9825 340.453 82.7678C340.221 82.5989 337.165 82.1625 336.514 82.2052C336.312 82.2184 336.148 82.3384 336.148 82.472C336.148 82.6056 336.099 82.8325 336.039 82.9764C335.937 83.2249 338.492 83.7272 342.895 84.3242C343.557 84.4139 344.439 84.6195 344.856 84.7811C345.273 84.9427 345.909 85.0754 346.269 85.076C347.217 85.0778 348.578 85.4619 348.358 85.6658C348.256 85.7602 346.982 85.8623 345.526 85.8928C344.07 85.9232 342.895 85.9629 342.914 85.981C342.933 85.9991 343.414 86.1834 343.983 86.3905C344.973 86.7512 344.997 86.777 344.544 87.0016C344.19 87.1775 343.811 87.1843 343.029 87.0286C341.755 86.7754 341.588 86.772 341.588 86.9998C341.588 87.098 341.869 87.2357 342.213 87.3057C343.357 87.5387 343.109 87.7913 341.737 87.7913C340.938 87.7913 340.131 87.9144 339.738 88.0958C339.341 88.2795 338.896 88.3463 338.617 88.2641C338.02 88.0885 328.196 88.0215 328.311 88.1938C328.554 88.559 325.809 88.5572 323.467 88.1903C318.724 87.4478 314.688 87.0258 312.085 87C310.647 86.9857 308.481 86.8541 307.273 86.7074C306.064 86.5608 303.911 86.3508 302.489 86.2407C301.066 86.1307 299.842 86.0071 299.769 85.9661C299.695 85.925 298.929 85.8357 298.066 85.7676C297.203 85.6995 296.167 85.6068 295.764 85.5616C294.926 85.4677 291.108 85.2703 288.336 85.1776C286.331 85.1105 283.284 84.9321 281.222 84.7609C280.532 84.7036 277.848 84.6194 275.259 84.5739C272.67 84.5284 269.61 84.4196 268.459 84.3321C267.308 84.2447 264.125 84.1818 261.386 84.1924C257.243 84.2084 256.372 84.2598 256.207 84.4977C256.039 84.7403 255.981 84.7426 255.821 84.5129C255.696 84.3326 255.426 84.2805 255.015 84.3569C254.674 84.4201 254.293 84.3763 254.167 84.2592C254.041 84.1424 253.627 84.0284 253.247 84.0059C252.867 83.9834 252.368 83.9133 252.138 83.8501C250.884 83.5058 249.578 83.4056 249.051 83.6135C248.629 83.7804 247.574 83.5833 247.72 83.3646C247.774 83.2841 246.765 83.1947 245.479 83.166C242.016 83.0888 241.657 83.0535 241.265 82.7519C240.946 82.5067 240.914 82.5179 240.977 82.8538C241.026 83.1097 240.947 83.2092 240.735 83.1625C240.562 83.1246 240.209 83.0918 239.95 83.0897C239.691 83.0876 239.479 83.0188 239.479 82.9369C239.479 82.8549 239.327 82.7339 239.142 82.6679C238.897 82.5808 238.839 82.631 238.93 82.8512C239.017 83.0602 238.975 83.1071 238.797 83.0018C238.654 82.9179 237.643 82.8217 236.55 82.7882C234.251 82.7177 234.592 82.7187 223.786 82.754C219.24 82.7689 214.939 82.718 214.228 82.6409C213.516 82.5638 212.776 82.5571 212.582 82.6259C212.226 82.7526 205.391 83.0028 203.291 82.966C201.648 82.9372 199.786 83.8326 200.822 84.1528C200.976 84.2006 200.869 84.3379 200.56 84.4891C200.273 84.6297 199.985 84.8184 199.921 84.9084C199.69 85.234 197.914 85.4156 197.409 85.1653C197.091 85.0075 196.249 84.9508 194.924 84.9981C193.822 85.0375 190.201 85.1157 186.878 85.172C183.555 85.2283 180.607 85.3276 180.328 85.3926C180.048 85.4577 178.86 85.5243 177.688 85.5406C176.516 85.5569 175.368 85.6684 175.138 85.7884C174.726 86.003 172.786 86.3553 172.461 86.2744C172.061 86.1748 171.317 86.1998 170.639 86.3358C170.237 86.4166 169.719 86.4681 169.489 86.4503C169.258 86.4324 168.882 86.4024 168.652 86.3835C168.422 86.3647 167.339 86.4518 166.245 86.5772C165.152 86.7025 163.851 86.8032 163.353 86.801C162.856 86.7989 162.338 86.8796 162.202 86.9805C162.067 87.0815 161.65 87.2248 161.276 87.299C160.719 87.4093 160.596 87.3742 160.596 87.1055C160.596 86.8146 160.423 86.7928 159.079 86.9144C158.245 86.99 156.055 87.0719 154.214 87.0965C152.373 87.1211 150.359 87.2438 149.739 87.3691C149.119 87.4944 148.566 87.597 148.511 87.597C148.455 87.597 148.526 87.728 148.669 87.8881C148.813 88.0481 149.248 88.1791 149.637 88.1791C150.025 88.1791 150.343 88.2156 150.343 88.2602C150.343 88.3049 150.4 88.4795 150.47 88.6483C150.644 89.0692 150.055 89.0485 149.59 88.6174C149.327 88.3731 149.202 88.3466 149.139 88.5216C149.091 88.6547 148.966 88.7142 148.861 88.6539C148.756 88.5936 148.669 88.6149 148.669 88.7013C148.669 88.7876 148.458 88.8689 148.199 88.882C147.94 88.8951 146.504 89.0046 145.008 89.1254C143.512 89.2462 140.499 89.38 138.312 89.4227C136.126 89.4655 134.101 89.5483 133.813 89.6068C132.839 89.8051 127.479 90.2648 124.607 90.3965C119.285 90.6406 115.25 91.3464 114.418 92.1789C114.158 92.4393 113.7 92.6495 113.37 92.6594C110.663 92.741 106.903 93.0025 105.252 93.224C104.562 93.3166 103.35 93.446 102.561 93.5114C101.771 93.5769 100.651 93.7136 100.073 93.8152C99.4955 93.9168 98.9884 94 98.9466 94C98.9047 94 98.8705 93.7766 98.8705 93.5035L98.8706 93.5038ZM98.8706 91.7384C98.8706 91.5261 98.7779 91.5103 98.4599 91.6681C98.2145 91.7899 98.098 91.9899 98.1704 92.1649C98.2639 92.3907 98.3581 92.4069 98.5811 92.2352C98.7403 92.1127 98.8706 91.8892 98.8706 91.7384ZM134.127 88.8525C134.946 88.5803 134.925 88.5763 133.186 88.6709C129.202 88.8875 127.955 88.9972 127.955 89.131C127.955 89.3841 133.247 89.1454 134.127 88.8525ZM36.9358 86.5094C36.9358 86.4675 36.7946 86.4332 36.6219 86.4332C36.4493 86.4332 36.3081 86.5178 36.3081 86.6211C36.3081 86.7245 36.4493 86.7588 36.6219 86.6974C36.7946 86.6359 36.9358 86.5514 36.9358 86.5094ZM52.1056 85.8511C52.1787 85.7415 52.0073 85.6571 51.7118 85.6571C51.4241 85.6571 51.1306 85.7444 51.0594 85.8511C50.9864 85.9607 51.1578 86.0451 51.4532 86.0451C51.7409 86.0451 52.0345 85.9578 52.1056 85.8511ZM42.1668 84.8583C42.1668 84.6581 41.9162 84.6393 41.4515 84.8047C40.9265 84.9915 41.0674 85.2246 41.6437 85.1225C41.9314 85.0715 42.1668 84.9526 42.1668 84.8583ZM160.562 84.8267C161.276 84.6423 161.374 84.5715 161.022 84.4942C160.464 84.3714 153.806 84.6308 150.239 84.9142C149.269 84.9912 156.756 85.1793 158.294 85.1165C159.042 85.086 160.063 84.9556 160.562 84.8267ZM167.815 84.2296C168.045 84.1791 167.621 84.1449 166.873 84.1536C165.088 84.1744 164.381 84.3526 165.513 84.4966C165.974 84.5552 166.586 84.5397 166.873 84.4622C167.161 84.3848 167.585 84.2801 167.815 84.2296V84.2296ZM34.2851 84.2866C34.7159 84.2749 34.7131 84.2648 34.2293 84.0856C33.6589 83.8742 33.1695 83.9795 33.1695 84.3136C33.1695 84.4353 33.3181 84.4816 33.5005 84.4167C33.6825 84.3519 34.0356 84.2934 34.2851 84.2866ZM170.958 84.0682C171.014 84.0163 170.642 83.9591 170.13 83.9412C169.619 83.9233 169.136 84.0062 169.056 84.1255C168.955 84.278 169.201 84.3157 169.884 84.2525C170.419 84.203 170.902 84.1201 170.958 84.0682ZM334.578 81.7765C334.658 81.6564 334.325 81.5912 333.701 81.6054C332.808 81.6258 332.766 81.645 333.323 81.7765C334.238 81.9925 334.434 81.9925 334.578 81.7765ZM12.0756 78.9276C11.9245 78.8715 11.7441 78.8784 11.6745 78.9429C11.605 79.0074 11.7286 79.0532 11.9492 79.0448C12.1929 79.0355 12.2425 78.9895 12.0756 78.9276V78.9276ZM14.5472 78.672C14.9677 78.5472 14.9882 78.5156 14.6518 78.511C14.4217 78.5078 14.045 78.5803 13.8149 78.672C13.2817 78.8845 13.8318 78.8845 14.5472 78.672ZM17.3548 78.7483C17.5369 78.6835 17.6858 78.4736 17.6858 78.2817C17.6858 77.9845 17.5542 77.9481 16.7965 78.0359C15.8351 78.1474 15.2077 78.478 15.9577 78.478C16.2041 78.478 16.4639 78.5653 16.535 78.672C16.6838 78.8954 16.8881 78.9144 17.3548 78.7483ZM357.281 75.3736C357.281 75.2668 357.116 75.1809 356.915 75.1825C356.602 75.185 356.594 75.2128 356.862 75.3736C357.257 75.6102 357.281 75.6102 357.281 75.3736ZM22.5375 67.4798C22.3865 67.4238 22.206 67.4307 22.1365 67.4952C22.067 67.5596 22.1905 67.6055 22.4111 67.5971C22.6549 67.5877 22.7044 67.5418 22.5375 67.4799V67.4798ZM20.8244 66.9137C20.8244 66.5975 20.2424 66.5619 19.478 66.8315C18.6457 67.1249 18.8432 67.3314 19.8828 67.2547C20.5145 67.2081 20.8244 67.0959 20.8244 66.9137ZM24.7109 67.0537C24.502 66.7402 23.7537 66.6603 23.7537 66.9515C23.7537 67.1149 23.9686 67.2243 24.2892 67.2243C24.5837 67.2243 24.7735 67.1476 24.7109 67.0537ZM23.126 66.8363C23.3595 66.6964 23.2389 66.6474 22.6552 66.6452C22.2237 66.6435 21.8706 66.7296 21.8706 66.8363C21.8706 67.0834 22.7136 67.0834 23.126 66.8363ZM371.928 44.1349C371.928 44.0282 371.833 43.9408 371.718 43.9408C371.603 43.9408 371.509 44.0282 371.509 44.1349C371.509 44.2416 371.603 44.3289 371.718 44.3289C371.833 44.3289 371.928 44.2416 371.928 44.1349ZM373.444 40.5138C373.301 40.46 373.065 40.46 372.921 40.5138C372.778 40.5677 372.895 40.6117 373.183 40.6117C373.471 40.6117 373.588 40.5677 373.444 40.5138ZM370.306 38.1771C370.047 38.1308 369.623 38.1308 369.364 38.1771C369.105 38.2233 369.317 38.2612 369.835 38.2612C370.353 38.2612 370.565 38.2233 370.306 38.1771ZM360.629 36.6107C360.629 36.5277 359.852 36.3561 358.902 36.2296C357.953 36.103 356.95 35.939 356.673 35.865C356.36 35.7815 356.218 35.8033 356.297 35.9225C356.367 36.0281 357.253 36.2255 358.265 36.3613C359.277 36.497 360.2 36.6358 360.315 36.6696C360.43 36.7035 360.548 36.738 360.576 36.7464C360.605 36.7548 360.629 36.6938 360.629 36.6107ZM55.4534 34.8215C55.8271 34.6726 55.8116 34.6533 55.3089 34.6411C54.9992 34.6336 54.6876 34.7148 54.6165 34.8215C54.4621 35.0531 54.8721 35.0531 55.4534 34.8215ZM359.164 33.6847C359.164 33.593 358.219 33.4184 357.064 33.2966C354.463 33.0223 353.996 33.0168 354.261 33.2634C354.373 33.3669 355.498 33.5294 356.762 33.6244C358.025 33.7194 359.083 33.8093 359.112 33.8242C359.14 33.8392 359.164 33.7764 359.164 33.6847V33.6847ZM43.7145 31.3613C43.7738 31.2724 43.6852 31.1996 43.5176 31.1996C43.3501 31.1996 43.213 31.2724 43.213 31.3613C43.213 31.4502 43.3016 31.523 43.4099 31.523C43.5181 31.523 43.6552 31.4502 43.7145 31.3613ZM71.7087 31.0024C71.5577 30.9463 71.3772 30.9532 71.3077 31.0177C71.2381 31.0821 71.3617 31.128 71.5823 31.1196C71.826 31.1102 71.8756 31.0643 71.7087 31.0023V31.0024ZM39.2374 30.7469C39.2374 30.6401 39.0726 30.5542 38.8713 30.5558C38.5583 30.5583 38.5507 30.5861 38.8189 30.7469C39.2138 30.9835 39.2374 30.9835 39.2374 30.7469ZM40.0744 30.4444C40.0744 30.3973 39.9802 30.3588 39.8651 30.3588C39.7501 30.3588 39.6559 30.4513 39.6559 30.5643C39.6559 30.6773 39.7501 30.7158 39.8651 30.6498C39.9802 30.5839 40.0744 30.4914 40.0744 30.4444ZM52.001 29.0934C52.2887 29.0188 53.1832 28.8849 53.9888 28.7959C54.7943 28.7068 55.783 28.5416 56.1858 28.4288C56.5886 28.316 56.9181 28.2311 56.9181 28.24C56.9181 28.3144 58.3514 27.8992 59.0628 27.6187C60.1423 27.1931 60.2104 26.8663 59.2198 26.8663C58.7083 26.8663 58.4874 26.7785 58.4874 26.5752C58.4874 26.2769 59.4239 26.1589 60.9784 26.2615C61.6556 26.3062 63.5878 25.9718 64.0301 25.7333C64.3606 25.5552 63.3046 25.3544 61.9272 25.3334C61.0311 25.3197 60.2676 25.4563 59.3244 25.7991C58.5902 26.0659 57.7956 26.2855 57.5585 26.2872C57.2151 26.2896 57.1892 26.3264 57.4312 26.4684C57.5984 26.5664 57.8102 26.6036 57.902 26.551C57.9938 26.4984 58.0689 26.5379 58.0689 26.6388C58.0689 26.8125 57.6109 26.9352 56.0128 27.1895C55.6299 27.2504 55.2658 27.4231 55.2037 27.5733C55.1113 27.7965 55.0308 27.8012 54.7621 27.5989C54.4869 27.3916 54.4535 27.401 54.5567 27.6571C54.6469 27.8808 54.559 27.9541 54.2298 27.9304C53.9821 27.9126 53.4671 27.9772 53.0852 28.074C52.6038 28.1961 52.2991 28.1794 52.0914 28.0195C51.9229 27.8898 51.7918 27.8727 51.7918 27.9804C51.7918 28.1944 50.1975 28.8066 49.6401 28.8066C49.4425 28.8066 49.2809 28.926 49.2809 29.0719C49.2809 29.2694 49.5615 29.3233 50.3794 29.2831C50.9836 29.2533 51.7133 29.168 52.001 29.0934V29.0934ZM60.6084 22.0567C60.4575 22.0101 60.2345 22.0641 60.1129 22.1769C59.9576 22.3209 60.0393 22.3461 60.3873 22.2617C60.6703 22.1931 60.7651 22.1052 60.6084 22.0567ZM313.34 21.2879C313.34 21.2079 313.054 21.1239 312.705 21.1012C312.342 21.0776 312.123 21.1398 312.195 21.2467C312.34 21.4656 313.341 21.5016 313.34 21.2879ZM61.2075 20.0656L61.7306 20.0507L61.2426 19.8693C60.6912 19.6643 59.7428 19.8222 59.7428 20.1189C59.7428 20.2271 59.9533 20.2623 60.2136 20.1976C60.4726 20.1332 60.9198 20.0738 61.2075 20.0656ZM311.667 20.1076C311.667 20.0187 311.525 19.9459 311.353 19.9459C311.18 19.9459 311.039 20.0187 311.039 20.1076C311.039 20.1965 311.18 20.2693 311.353 20.2693C311.525 20.2693 311.667 20.1965 311.667 20.1076ZM312.543 20.1367C312.392 20.0807 312.211 20.0876 312.142 20.152C312.072 20.2165 312.196 20.2624 312.416 20.2539C312.66 20.2447 312.71 20.1987 312.543 20.1367V20.1367ZM64.8038 19.7487C64.6528 19.6926 64.4723 19.6995 64.4028 19.764C64.3333 19.8285 64.4568 19.8743 64.6774 19.8659C64.9212 19.8566 64.9707 19.8106 64.8038 19.7487V19.7487ZM41.3298 19.4932C41.3298 19.3865 41.2357 19.2992 41.1206 19.2992C41.0055 19.2992 40.9113 19.3865 40.9113 19.4932C40.9113 19.5999 41.0055 19.6872 41.1206 19.6872C41.2357 19.6872 41.3298 19.5999 41.3298 19.4932ZM46.77 18.9843C46.77 18.767 46.3771 18.9576 46.2645 19.2296C46.1543 19.4959 46.1849 19.5079 46.4514 19.3028C46.6266 19.168 46.77 19.0246 46.77 18.9843ZM48.8624 19.0081C48.8624 18.848 48.8254 18.7171 48.7802 18.7171C48.735 18.7171 48.6438 18.848 48.5775 19.0081C48.5113 19.1682 48.5483 19.2992 48.6597 19.2992C48.7712 19.2992 48.8624 19.1682 48.8624 19.0081ZM322.796 12.3756C322.645 12.3195 322.464 12.3264 322.395 12.3909C322.325 12.4554 322.449 12.5012 322.669 12.4928C322.913 12.4835 322.962 12.4375 322.796 12.3756V12.3756ZM130.143 8.44689C130.209 8.34755 130.177 8.21709 130.073 8.15697C129.968 8.09684 129.828 8.17813 129.762 8.33759C129.632 8.65194 129.946 8.74213 130.143 8.44689ZM30.8263 91.7205C30.7059 91.5871 30.6895 91.4753 30.7899 91.472C30.8903 91.4689 30.7964 91.3713 30.5812 91.2553C30.0292 90.9579 30.5182 90.703 31.6002 90.7241C32.1653 90.7352 32.3012 90.7815 32.0187 90.8667C31.62 90.9869 31.3228 91.4809 31.6525 91.4753C32.2669 91.4649 32.7106 91.2113 32.6148 90.9252C32.5214 90.6459 32.5463 90.6484 32.8093 90.9444C33.1667 91.3466 34.7589 91.4206 34.8966 91.0414C34.9665 90.8488 35.0515 90.8501 35.3099 91.0478C35.7172 91.3594 35.9575 92.1167 35.6116 91.9984C35.4768 91.9523 35.397 91.7969 35.4343 91.6532C35.4817 91.4704 35.3857 91.4896 35.1149 91.7168C34.8056 91.9763 34.3568 92.0339 32.8865 92.0024C31.7172 91.9774 30.9654 91.8745 30.8263 91.7205L30.8263 91.7205ZM27.954 91.2928C27.6753 91.1331 27.8093 90.7018 28.1377 90.7018C28.3764 90.7018 28.5859 91.2497 28.3902 91.3619C28.3034 91.4116 28.1071 91.3805 27.954 91.2928ZM32.3811 89.7317C32.1497 89.388 32.1738 89.3402 32.5923 89.3141C32.8522 89.2978 33.2061 89.2702 33.3787 89.2528C33.9369 89.1964 34.0419 89.3737 33.6738 89.7509C33.2088 90.2274 32.71 90.22 32.3811 89.7317ZM159.131 88.2879C159.131 88.2408 159.226 88.1484 159.341 88.0824C159.456 88.0165 159.55 88.055 159.55 88.168C159.55 88.281 159.456 88.3735 159.341 88.3735C159.226 88.3735 159.131 88.335 159.131 88.2879ZM161.586 88.1554C161.728 88.0228 161.897 87.9631 161.962 88.0229C162.026 88.0826 161.91 88.1911 161.704 88.264C161.405 88.3693 161.381 88.347 161.586 88.1554ZM49.2809 87.6211C49.2809 87.5275 49.4261 87.3391 49.6036 87.2025C49.8545 87.0094 49.9822 87.0059 50.1773 87.1868C50.3724 87.3677 50.3588 87.4602 50.1161 87.6025C49.7215 87.8338 49.2809 87.8436 49.2809 87.6211V87.6211ZM285.512 85.8511C285.512 85.7444 285.647 85.6571 285.813 85.6571C285.979 85.6571 286.173 85.7444 286.244 85.8511C286.315 85.9578 286.18 86.0451 285.943 86.0451C285.706 86.0451 285.512 85.9578 285.512 85.8511ZM281.955 85.645C281.955 85.4241 282.517 85.4016 282.66 85.6168C282.717 85.7013 282.581 85.7832 282.359 85.7988C282.137 85.8143 281.955 85.7451 281.955 85.645ZM74.4511 85.3319C74.2628 84.8769 74.5498 84.8101 75.273 85.1407C75.6502 85.3131 75.8647 85.4673 75.7496 85.4834C74.8678 85.6064 74.5493 85.5692 74.4511 85.3319ZM255.381 84.8809C255.381 84.7742 255.423 84.6869 255.474 84.6869C255.524 84.6869 255.624 84.7742 255.695 84.8809C255.766 84.9877 255.725 85.075 255.603 85.075C255.481 85.075 255.381 84.9877 255.381 84.8809ZM252.365 84.713C252.275 84.5777 252.257 84.4147 252.326 84.3506C252.514 84.177 252.718 84.4324 252.617 84.7137C252.546 84.9109 252.497 84.9108 252.365 84.7127V84.713ZM253.132 84.7524C252.704 84.5922 252.836 84.3267 253.289 84.4367C253.519 84.4925 253.707 84.6153 253.707 84.7095C253.707 84.8945 253.544 84.9067 253.132 84.7524ZM353.445 83.7814C353.204 83.5582 353.292 83.3287 353.619 83.3287C353.792 83.3287 353.933 83.4597 353.933 83.6198C353.933 83.9227 353.685 84.0047 353.445 83.7814ZM93.771 82.5929C93.7147 82.5083 93.8524 82.4263 94.0771 82.4106C94.3018 82.3949 94.4309 82.4641 94.3641 82.5643C94.2158 82.7868 93.9101 82.8015 93.771 82.5929ZM95.6571 82.2596C95.7229 82.1006 95.9314 81.9638 96.1205 81.9556C96.3096 81.9473 96.888 81.9013 97.4059 81.8532C98.0849 81.7902 98.2599 81.8206 98.0336 81.9622C97.7747 82.1242 97.7716 82.1591 98.0162 82.1616C98.1792 82.1633 98.2539 82.2189 98.1822 82.2855C98.1105 82.352 97.4861 82.4384 96.7946 82.4775C95.7473 82.5368 95.5575 82.5004 95.6571 82.2596ZM10.2668 81.7899C10.112 81.5577 10.5056 81.3277 10.7843 81.4874C11.0183 81.6215 10.8647 81.9705 10.5717 81.9705C10.4702 81.9705 10.333 81.8892 10.2668 81.7899ZM12.2456 76.7432C12.2456 76.6428 12.3387 76.5073 12.4524 76.4421C12.571 76.3741 12.6061 76.452 12.5347 76.6246C12.3956 76.9608 12.2456 77.0223 12.2456 76.7432ZM13.78 76.6432C13.78 76.4879 13.86 76.4066 13.9578 76.4626C14.0556 76.5187 14.0814 76.6458 14.0152 76.7451C13.846 76.999 13.78 76.9704 13.78 76.6432ZM378.414 51.3139C378.241 51.2105 378.194 51.1258 378.309 51.1258C378.424 51.1258 378.66 51.2105 378.832 51.3139C379.005 51.4174 379.052 51.502 378.937 51.502C378.822 51.502 378.587 51.4174 378.414 51.3139ZM34.6342 36.9145C34.6342 36.8305 34.8225 36.7617 35.0526 36.7617C35.2828 36.7617 35.4711 36.8436 35.4711 36.9437C35.4711 37.0438 35.2828 37.1125 35.0526 37.0964C34.8225 37.0803 34.6342 36.9985 34.6342 36.9145ZM43.3964 34.065L42.9057 33.6965L44.1579 33.5424C44.8465 33.4576 45.9042 33.3833 46.5082 33.3773C47.1123 33.3712 47.6066 33.3068 47.6067 33.2343C47.6069 33.0832 48.8532 33.384 49.0478 33.5821C49.1185 33.6541 48.8858 33.6619 48.5308 33.5994C48.1334 33.5294 47.6509 33.6008 47.2754 33.7847C46.9399 33.9492 46.1711 34.0921 45.5669 34.1025C44.9627 34.1128 44.4684 34.1915 44.4684 34.2773C44.4684 34.5555 43.8995 34.4428 43.3964 34.065V34.065ZM40.7588 34.1221C40.8283 34.0577 41.0088 34.0508 41.1598 34.1068C41.3267 34.1688 41.2771 34.2148 41.0334 34.2241C40.8128 34.2325 40.6892 34.1866 40.7588 34.1222V34.1221ZM36.9523 31.4421C36.9433 31.2376 36.9927 31.123 37.0622 31.1874C37.1317 31.2519 37.1392 31.4193 37.0787 31.5593C37.0119 31.7141 36.9624 31.6681 36.9523 31.4421H36.9523ZM42.6668 29.8113C42.7252 29.7236 42.5804 29.4989 42.3449 29.3119C41.9235 28.9774 41.9374 28.9628 43.2113 28.4042C44.7456 27.7313 44.8869 27.7162 44.8869 28.2245C44.8869 28.4636 44.7463 28.6137 44.5207 28.6155C44.2239 28.6179 44.2106 28.6514 44.4506 28.7922C44.6134 28.8878 44.9194 28.9351 45.1306 28.8974C45.3418 28.8597 45.5146 28.9178 45.5146 29.0266C45.5146 29.1353 45.2086 29.2088 44.8346 29.1898C44.4606 29.1708 43.9662 29.1655 43.7361 29.178C43.3874 29.1968 43.37 29.232 43.6314 29.3887C43.8997 29.5494 43.8921 29.5772 43.5791 29.5797C43.3777 29.5815 43.213 29.67 43.213 29.7767C43.213 29.8835 43.0662 29.9708 42.8868 29.9708C42.7073 29.9708 42.6084 29.899 42.6668 29.8113V29.8113ZM45.3422 28.2456C45.1319 28.125 45.1401 28.0441 45.3814 27.8584C45.72 27.5978 45.9898 27.8254 45.7568 28.175C45.6737 28.2996 45.4909 28.3308 45.3422 28.2456ZM38.0866 20.0752C38.0155 19.9685 38.0985 19.8812 38.2712 19.8812C38.4438 19.8812 38.6432 19.9685 38.7143 20.0752C38.7854 20.1819 38.7024 20.2693 38.5298 20.2693C38.3572 20.2693 38.1577 20.1819 38.0866 20.0752ZM42.372 19.2065C42.6734 18.8699 42.7945 18.8348 42.7945 19.0843C42.7945 19.1796 42.6399 19.3126 42.451 19.3798C42.1639 19.482 42.1509 19.4536 42.372 19.2065ZM338.09 16.0753C338.335 15.8479 339.675 15.6697 339.945 15.8285C340.101 15.9199 340.134 16.0047 340.019 16.0169C338.892 16.1366 337.994 16.1638 338.09 16.0753ZM336.819 15.836C336.646 15.7336 336.776 15.6772 337.186 15.6772C337.535 15.6772 337.822 15.75 337.822 15.8389C337.822 16.0454 337.172 16.0435 336.819 15.8358V15.836ZM331.44 15.5882C330.544 15.4023 328.37 15.2689 324.307 15.1508C322.915 15.1103 321.575 14.9773 321.329 14.8552C321.062 14.7223 320.124 14.6547 318.995 14.6868C317.956 14.7163 317.107 14.7206 317.107 14.6963C317.107 14.6288 318.324 14.0602 318.469 14.0602C318.539 14.0602 318.538 14.1475 318.467 14.2542C318.392 14.3674 318.604 14.4483 318.978 14.4483C319.33 14.4483 319.618 14.3609 319.618 14.2542C319.618 14.1475 319.718 14.0602 319.839 14.0602C319.961 14.0602 319.99 14.1693 319.904 14.3027C319.788 14.4821 319.825 14.4941 320.048 14.3488C320.214 14.2407 320.538 14.1623 320.769 14.1745C320.999 14.1867 321.687 14.2097 322.298 14.2255C322.909 14.2413 323.365 14.3197 323.312 14.3997C323.258 14.4798 323.794 14.5325 324.502 14.5169C325.211 14.5011 325.955 14.5698 326.157 14.6692C326.401 14.7899 326.523 14.7794 326.523 14.6377C326.523 14.5209 326.637 14.4906 326.776 14.5703C326.915 14.6501 327.833 14.7391 328.816 14.7682C329.799 14.7973 330.603 14.8315 330.603 14.8441C330.603 14.8568 331.074 14.8954 331.649 14.93C332.224 14.9646 332.719 15.0122 332.748 15.0359C332.797 15.0762 333.012 15.135 333.375 15.207C333.542 15.2401 332.56 15.8036 332.381 15.7773C332.324 15.7687 331.9 15.6837 331.44 15.5881L331.44 15.5882ZM322.966 14.6182C322.966 14.5248 322.783 14.4484 322.559 14.4484C322.336 14.4484 322.102 14.5248 322.04 14.6182C321.978 14.7115 322.161 14.7879 322.446 14.7879C322.732 14.7879 322.966 14.7115 322.966 14.6182ZM334.158 14.0572C334.085 13.9487 333.939 13.9102 333.832 13.9716C333.724 14.033 333.637 13.9959 333.637 13.8892C333.637 13.5135 333.974 13.5076 334.224 13.8789C334.363 14.0854 334.435 14.2544 334.383 14.2544C334.332 14.2544 334.23 14.1657 334.158 14.0572V14.0572ZM329.679 13.3004C329.458 13.0958 329.234 12.969 329.181 13.0185C329.127 13.068 328.625 13.1377 328.065 13.1735C327.094 13.2355 325.89 12.8357 326.196 12.5527C326.44 12.3262 327.885 12.3792 328.2 12.6263C328.524 12.8793 329.112 12.8876 329.376 12.6429C329.598 12.4371 330.666 12.4822 330.813 12.7037C331.014 13.0053 330.716 13.6722 330.379 13.6722C330.215 13.6722 329.899 13.5048 329.679 13.3003V13.3004ZM331.838 13.4483C331.749 13.3145 331.781 13.2767 331.916 13.3544C332.041 13.426 332.202 13.3958 332.275 13.2874C332.47 12.9948 332.73 13.0485 332.73 13.3812C332.73 13.723 332.055 13.7737 331.838 13.4483ZM87.2098 12.0028C87.2794 11.9383 87.4598 11.9314 87.6109 11.9875C87.7778 12.0495 87.7282 12.0954 87.4845 12.1048C87.2639 12.1132 87.1403 12.0673 87.2098 12.0029V12.0028ZM129.419 6.49319C129.419 6.38648 129.461 6.29916 129.512 6.29916C129.562 6.29916 129.662 6.38648 129.733 6.49319C129.804 6.59991 129.763 6.68722 129.641 6.68722C129.519 6.68722 129.419 6.59991 129.419 6.49319ZM134.299 6.51283C133.961 6.2827 134.042 5.95202 134.413 6.04219C134.651 6.09973 134.803 6.02058 134.825 5.82829C134.844 5.6604 134.875 5.39208 134.895 5.23201C134.914 5.07193 135.102 4.93007 135.313 4.91671C135.524 4.90332 135.767 4.87444 135.854 4.85241C135.94 4.83033 136.293 4.74193 136.638 4.65586C137.406 4.46452 137.823 4.1787 137.67 3.94884C137.607 3.85422 137.741 3.77681 137.968 3.77681C138.196 3.77681 138.43 3.88594 138.488 4.01934C138.562 4.18786 138.647 4.19832 138.767 4.05371C139.074 3.68374 139.715 3.56827 140.053 3.82199C140.324 4.02564 140.349 4.02056 140.201 3.79233C140.065 3.58305 140.11 3.54806 140.387 3.64681C140.588 3.71832 140.88 3.7768 141.035 3.7768C141.191 3.7768 141.375 3.94246 141.444 4.14494C141.525 4.38158 141.704 4.48046 141.946 4.4218C142.48 4.29229 142.425 3.81254 141.887 3.90442C141.461 3.97701 141.461 3.97435 141.869 3.79441C142.099 3.69301 142.606 3.60391 142.996 3.59641C143.385 3.58885 144.28 3.49713 144.984 3.39245C146.808 3.12119 151.393 2.64583 153.482 2.51143C154.46 2.44852 155.684 2.36242 156.202 2.32011C157.293 2.23098 159.447 2.08909 162.27 1.9204C163.363 1.85507 164.87 1.75353 165.618 1.69477C167.416 1.55354 170.246 1.543 170.64 1.67614C170.812 1.73449 171.354 1.84925 171.843 1.93121C172.332 2.01315 172.732 2.14445 172.732 2.22298C172.732 2.30149 172.499 2.5816 172.215 2.84542C171.794 3.23594 171.502 3.32155 170.645 3.30601C170.018 3.29451 169.62 3.36656 169.662 3.48339C169.701 3.59144 170.458 3.68704 171.344 3.69581C172.735 3.70955 173.662 3.9606 173.346 4.23797C173.204 4.36208 170.43 4.4847 170.431 4.36684C170.431 4.30913 169.795 4.28924 169.018 4.32261C168.241 4.356 167.065 4.30403 166.405 4.20689C165.745 4.10984 165.16 4.07187 165.106 4.12251C165.051 4.17311 164.603 4.23295 164.109 4.25547C163.615 4.278 162.951 4.36387 162.633 4.44634C162.29 4.53553 161.948 4.51343 161.79 4.39179C161.643 4.27932 160.613 4.16711 159.501 4.14244C158.123 4.11193 157.521 4.03093 157.612 3.88871C157.686 3.77385 157.587 3.80008 157.392 3.94702C157.148 4.13079 156.771 4.1748 156.186 4.08796C155.627 4.00508 155.38 4.02993 155.467 4.16035C155.615 4.38265 155.587 4.3869 153.691 4.43415C152.943 4.45277 152.119 4.53668 151.86 4.6206C151.601 4.70451 151.39 4.7018 151.39 4.61458C151.39 4.52735 151.154 4.45598 150.866 4.45598C150.579 4.45598 150.343 4.52147 150.343 4.60151C150.343 4.68154 150.197 4.74703 150.017 4.74703C149.838 4.74703 149.74 4.67329 149.8 4.58311C149.945 4.36522 147.796 4.68522 147.64 4.90472C147.354 5.30656 143.438 5.71376 143.438 5.34163C143.438 5.22807 143.339 5.13508 143.217 5.13508C143.095 5.13508 143.049 5.21638 143.116 5.31572C143.305 5.59971 142.824 5.77456 142.512 5.53492C142.303 5.37415 142.205 5.38399 142.127 5.57347C142.059 5.73708 141.715 5.81182 141.161 5.78309C140.687 5.75856 140.3 5.82002 140.3 5.91969C140.3 6.24056 139.225 6.02984 139.016 5.66806C138.905 5.47567 138.723 5.37039 138.612 5.43411C138.501 5.49783 138.458 5.6221 138.517 5.71025C138.575 5.79841 138.486 5.91955 138.318 5.97942C138.149 6.03931 137.955 6.00343 137.886 5.89966C137.809 5.78465 137.541 5.82417 137.199 6.00089C136.556 6.33346 134.554 6.68682 134.299 6.51291L134.299 6.51283ZM131.303 5.63153C131.303 5.29072 131.428 5.24055 131.608 5.50966C131.674 5.609 131.632 5.74513 131.515 5.81215C131.398 5.87918 131.303 5.79809 131.303 5.63153ZM132.091 5.29636C132.213 5.1836 132.436 5.12952 132.587 5.17618C132.743 5.22463 132.649 5.31258 132.366 5.38119C132.018 5.46559 131.936 5.44032 132.091 5.29636ZM204.17 4.80404C203.911 4.7578 203.699 4.65331 203.699 4.57186C203.699 4.33441 204.609 4.46349 204.699 4.7137C204.744 4.8387 204.749 4.92907 204.711 4.91454C204.672 4.89995 204.429 4.8503 204.17 4.80404H204.17ZM199.828 4.35888C200.404 4.12968 200.734 4.12968 200.351 4.35888C200.179 4.46234 199.896 4.54219 199.724 4.53631C199.517 4.52928 199.552 4.46884 199.828 4.35888ZM201.096 4.37694C201.031 4.28017 201.167 4.24671 201.397 4.30257C201.886 4.42104 201.948 4.55289 201.515 4.55289C201.349 4.55289 201.16 4.47371 201.096 4.37694ZM174.159 3.93785C173.83 3.63088 173.979 3.60959 176.566 3.59514C178.082 3.58657 179.533 3.54211 179.789 3.49614C180.046 3.45016 180.305 3.48584 180.364 3.57536C180.424 3.66491 180.761 3.71967 181.113 3.69705C182.065 3.63594 182.07 3.91843 181.118 4.0026C180.668 4.0424 180.344 4.00776 180.399 3.92586C180.571 3.66814 180.249 3.76376 179.921 4.06781C179.565 4.3979 178.681 4.45732 178.486 4.16431C178.4 4.03512 178.218 4.03812 177.946 4.17323C177.483 4.40313 177.047 4.2469 177.259 3.92735C177.353 3.78761 177.301 3.77433 177.106 3.88783C176.944 3.98192 176.294 4.1053 175.661 4.16202C174.756 4.24316 174.436 4.19545 174.159 3.93782V3.93785ZM190.936 4.1648C190.936 4.05809 190.977 3.97079 191.028 3.97079C191.079 3.97079 191.178 4.05809 191.25 4.1648C191.321 4.27152 191.279 4.35883 191.157 4.35883C191.035 4.35883 190.936 4.27152 190.936 4.1648ZM182.566 3.77674C182.378 3.66374 182.352 3.58746 182.502 3.58568C182.639 3.58392 182.809 3.67002 182.88 3.77674C183.041 4.01765 182.968 4.01765 182.566 3.77674ZM264.292 3.75028C264.4 3.58784 263.603 3.39677 263.441 3.54649C263.216 3.7551 262.286 3.79451 262.286 3.59541C262.286 3.47227 261.691 3.44259 260.665 3.51462C259.407 3.60292 258.879 3.55742 258.311 3.31166C257.908 3.13746 257.737 3.03496 257.931 3.08388C258.125 3.13281 258.313 3.09692 258.35 3.00426C258.386 2.91156 258.557 2.80733 258.729 2.77263C258.902 2.73798 259.112 2.62227 259.197 2.51554C259.281 2.40882 259.352 2.51273 259.354 2.74658C259.357 3.1484 259.388 3.1564 259.932 2.8929C260.448 2.64285 260.538 2.64902 260.797 2.9529C261.073 3.2751 261.081 3.27506 260.961 2.9529C260.864 2.69086 260.95 2.61336 261.341 2.61336C261.619 2.61336 261.943 2.76616 262.06 2.9529C262.179 3.14135 262.276 3.18452 262.28 3.04993C262.287 2.79585 262.914 2.69984 262.914 2.9529C262.914 3.03294 263.626 3.09338 264.496 3.08722C265.366 3.08103 266.125 3.14652 266.182 3.23274C266.24 3.31894 266.488 3.38946 266.734 3.38946C267.093 3.38946 267.13 3.43798 266.921 3.63199C266.659 3.87484 264.133 3.98925 264.292 3.75108V3.75028ZM267.727 3.74445C267.727 3.65551 267.797 3.57687 267.883 3.56966C267.97 3.56245 268.342 3.52001 268.71 3.47536C269.538 3.37492 269.832 3.70778 269.036 3.84378C268.249 3.97823 267.727 3.93864 267.727 3.74445ZM252.661 3.09767C252.661 2.99096 252.308 2.90365 251.877 2.90365C251.445 2.90365 251.023 2.99096 250.938 3.09767C250.836 3.22702 250.783 3.22702 250.781 3.09767C250.776 2.85459 249.523 2.79708 249.523 3.03997C249.523 3.13767 249.437 3.16856 249.333 3.10862C249.133 2.99441 247.293 2.81105 245.338 2.71064C244.705 2.67813 244.187 2.63193 244.187 2.60795C244.187 2.47791 241.434 2.4759 241.258 2.60584C240.943 2.83777 238.852 2.99958 238.852 2.79195C238.852 2.69331 238.71 2.61262 238.538 2.61262C238.365 2.61262 238.224 2.69687 238.224 2.79986C238.224 2.91676 236.75 2.95259 234.301 2.89528C232.143 2.84479 230.15 2.80439 229.873 2.80551C229.595 2.80726 229.054 2.72704 228.669 2.62869C228.249 2.52116 227.971 2.52049 227.971 2.62693C227.971 2.80325 227.239 2.77469 227.041 2.59061C226.983 2.53752 226.031 2.52511 224.925 2.56306C223.591 2.60879 222.813 2.55534 222.617 2.4045C222.387 2.22727 222.321 2.23584 222.318 2.44324C222.316 2.61149 222.259 2.63492 222.161 2.50685C222.069 2.3852 220.879 2.29452 219.183 2.28001C217.629 2.2668 212.922 2.20588 208.721 2.14485C204.521 2.08385 199.13 2.02228 196.742 2.00807C194.354 1.99401 192.4 1.92761 192.4 1.86083C192.4 1.79403 191.882 1.73939 191.249 1.73939C190.616 1.73939 190.099 1.80487 190.099 1.88491C190.099 1.96495 189.999 2.03043 189.877 2.03043C189.755 2.03043 189.714 1.94312 189.785 1.8364C189.856 1.72969 189.767 1.64238 189.588 1.64238C189.409 1.64247 189.262 1.55515 189.262 1.44845C189.262 1.34173 189.162 1.25441 189.04 1.25441C188.918 1.25441 188.877 1.34173 188.948 1.44845C189.024 1.56305 188.794 1.64126 188.385 1.63949C187.861 1.63703 187.769 1.5908 188.006 1.44845C188.238 1.30953 188.248 1.25958 188.044 1.25738C187.831 1.25492 187.839 1.1875 188.081 0.963365C188.254 0.803294 188.59 0.672321 188.828 0.672321C189.067 0.672321 189.262 0.57912 189.262 0.465208C189.262 0.342355 189.443 0.311351 189.707 0.389004C190.006 0.47707 190.104 0.449611 190.008 0.305067C189.929 0.186899 189.921 0.0902319 189.989 0.0902319C190.057 0.0902319 190.184 0.269803 190.271 0.489286L190.431 0.888357L190.982 0.48587C191.361 0.209996 191.58 0.152009 191.68 0.301565C191.783 0.456249 191.876 0.443141 192 0.256486C192.143 0.0425448 193.579 -0.00542106 199.664 0.000465724C203.782 0.00457769 208.847 0.0637738 210.918 0.132345C212.99 0.200903 216.426 0.307622 218.555 0.369505C226.243 0.592901 228.223 0.674092 228.396 0.772818C228.781 0.993416 230.467 1.1891 230.722 1.04279C230.879 0.952626 231.062 0.984818 231.156 1.11914C231.278 1.29247 231.371 1.27756 231.525 1.06038C231.638 0.900301 231.733 0.856644 231.734 0.963365C231.737 1.08582 233.031 1.14874 235.242 1.13395C238.738 1.11054 244.71 1.42375 244.71 1.63051C244.711 1.69045 245.44 1.72965 246.332 1.71768C247.86 1.69712 251.381 1.96265 252.005 2.14558C252.235 2.21308 252.239 2.28561 252.028 2.52236C251.814 2.76094 251.819 2.79966 252.056 2.73028C252.216 2.6834 252.61 2.59152 252.931 2.52612C253.291 2.45284 253.469 2.31629 253.394 2.17036C253.328 2.04009 253.383 2.07019 253.517 2.2372C253.715 2.48282 253.983 2.51294 254.923 2.3947C255.584 2.31156 256.243 2.32702 256.452 2.43055C256.653 2.53069 257.084 2.6245 257.408 2.63904C257.95 2.66336 257.957 2.67242 257.492 2.75367C257.102 2.82193 257.054 2.88112 257.283 3.01532C257.606 3.2052 257.335 3.22898 254.388 3.26855C253.36 3.28229 252.661 3.21325 252.661 3.09769L252.661 3.09767ZM191.849 1.35253C191.783 1.19306 191.645 1.11091 191.542 1.16996C191.246 1.33927 191.323 1.64245 191.661 1.64245C191.848 1.64245 191.922 1.52864 191.849 1.35253ZM179.645 2.01579C179.861 1.64267 179.848 1.6003 179.552 1.70569C179.256 1.81081 179.243 1.76832 179.456 1.39953L179.703 0.971329L179.911 1.40392C180.15 1.90022 180.582 1.97238 180.759 1.54544C180.825 1.38536 180.804 1.25439 180.711 1.25439C180.619 1.25439 180.544 1.12236 180.544 0.960963C180.544 0.722398 180.733 0.690783 181.555 0.79193C182.246 0.876907 182.566 0.846932 182.566 0.697327C182.566 0.575659 182.897 0.478288 183.311 0.478288C183.799 0.478288 184.007 0.551784 183.913 0.691675C183.812 0.843374 183.898 0.84209 184.21 0.687213C184.575 0.506185 184.628 0.519314 184.527 0.764865C184.46 0.927396 184.32 1.06039 184.218 1.06039C184.115 1.06039 184.031 1.1477 184.031 1.2544C184.031 1.65886 184.409 1.4251 184.659 0.866349C184.95 0.214708 184.957 0.211126 185.482 0.471434C185.746 0.60275 185.828 0.807784 185.756 1.15858C185.699 1.43358 185.735 1.63314 185.836 1.60201C185.936 1.57091 186.066 1.63076 186.123 1.73507C186.185 1.84724 185.688 1.93814 184.906 1.95761C183.697 1.9877 183.564 1.95058 183.355 1.52546C183.13 1.06706 182.357 0.866048 182.357 1.26585C182.357 1.37889 182.45 1.41799 182.564 1.3528C182.681 1.28589 182.719 1.36019 182.651 1.52312C182.581 1.69192 182.394 1.76307 182.201 1.69425C181.986 1.61773 181.921 1.65398 182.017 1.79785C182.186 2.0504 181.49 2.23688 180.683 2.15566C180.395 2.12674 179.988 2.18065 179.778 2.2755C179.436 2.43003 179.422 2.40307 179.645 2.01581V2.01579ZM185.369 1.28674C185.429 1.19781 185.344 1.12506 185.182 1.12506C185.019 1.12506 184.935 1.19781 184.994 1.28674C185.053 1.37566 185.138 1.44843 185.182 1.44843C185.226 1.44843 185.31 1.37566 185.369 1.28674ZM176.827 2.05257C176.764 1.95798 176.9 1.83511 177.129 1.77949C177.407 1.71214 177.503 1.57518 177.418 1.36939C177.348 1.19943 177.379 1.06037 177.487 1.06037C177.774 1.06037 177.728 1.69418 177.42 1.9797C177.108 2.26931 176.982 2.28478 176.827 2.05257ZM178.11 1.51311C178.169 1.37081 178.244 1.25439 178.277 1.25439C178.31 1.25439 178.385 1.37081 178.444 1.51311C178.503 1.6554 178.427 1.77182 178.277 1.77182C178.126 1.77182 178.051 1.6554 178.11 1.51311ZM178.917 0.969527C179.14 0.81285 179.529 0.681881 179.781 0.678482C180.281 0.671629 180.599 0.96599 180.286 1.1452C180.179 1.20658 180.055 1.15651 180.011 1.03376C179.951 0.866132 179.82 0.865809 179.484 1.032C178.84 1.35121 178.436 1.30623 178.917 0.968985V0.969527ZM176.136 0.943132C176.206 0.878658 176.386 0.871762 176.537 0.927843C176.704 0.989775 176.655 1.03576 176.411 1.04506C176.19 1.05345 176.067 1.00763 176.136 0.943153V0.943132ZM187.169 0.866322C186.901 0.705593 186.909 0.677795 187.222 0.675254C187.423 0.673497 187.588 0.759597 187.588 0.866322C187.588 1.10297 187.564 1.10297 187.169 0.866322ZM186.046 0.570799C185.946 0.329673 186 0.313065 186.337 0.480604C186.822 0.721316 186.868 0.866322 186.459 0.866322C186.299 0.866322 186.113 0.733327 186.046 0.570799Z" fill="#146495"/>
</svg>
