<svg width="100%" height="100%" preserveAspectRatio="none" viewBox="0 0 383 176" fill="none" xmlns="http://www.w3.org/2000/svg">
<path d="M191.493 0.000960389C182.401 -0.0106925 180.257 0.0799281 180.044 0.480469C179.858 0.829882 179.718 0.854385 179.563 0.564795C179.415 0.284775 179.087 0.393793 178.522 0.910324L177.698 1.66379L177.46 0.916325C177.329 0.505369 177.139 0.169613 177.037 0.169613C176.935 0.169613 176.948 0.350306 177.066 0.571552C177.211 0.842191 177.063 0.893802 176.616 0.728913C176.222 0.583543 175.952 0.64106 175.952 0.871205C175.952 1.08447 175.66 1.25963 175.304 1.25963C174.948 1.25963 174.446 1.50486 174.187 1.80457C173.826 2.22427 173.814 2.35048 174.132 2.35485C174.437 2.35922 174.422 2.45229 174.075 2.71238C173.721 2.9789 173.859 3.06554 174.642 3.06991C175.253 3.07282 175.597 2.92688 175.483 2.71238C175.377 2.51256 175.439 2.34956 175.621 2.34956C175.803 2.34956 175.952 2.51256 175.952 2.71238C175.952 2.91217 176.171 3.07612 176.439 3.07596C176.707 3.07596 176.84 3.23899 176.733 3.43878C176.627 3.6386 176.689 3.80231 176.871 3.80231C177.053 3.80231 177.202 3.67969 177.202 3.52986C177.202 3.38003 177.975 3.25737 178.92 3.25737C179.866 3.25737 180.64 3.35959 180.64 3.48465C180.641 3.60963 183.56 3.7338 187.128 3.76017C190.696 3.78682 198.75 3.90188 205.026 4.01608C211.302 4.13028 218.337 4.24499 220.658 4.26977C223.192 4.29686 224.97 4.46652 225.109 4.69429C225.254 4.93415 225.34 4.89035 225.343 4.57543C225.347 4.18709 225.445 4.1706 225.79 4.50248C226.083 4.78477 227.245 4.88543 229.237 4.79978C230.891 4.72869 232.313 4.75156 232.398 4.8509C232.695 5.19559 233.788 5.24955 233.788 4.9194C233.788 4.71973 234.205 4.72107 234.833 4.92229C235.406 5.10645 236.215 5.25566 236.63 5.25275C237.044 5.25129 240.021 5.32688 243.245 5.42135C246.906 5.52871 249.107 5.461 249.107 5.24221C249.107 5.04936 249.319 4.89219 249.577 4.89219C249.834 4.89219 250.045 5.04321 250.045 5.2279C250.045 5.61664 253.171 5.3137 253.641 4.87939C253.904 4.63653 258.017 4.64043 258.017 4.88375C258.017 4.92861 258.792 5.01485 259.737 5.07569C262.658 5.26368 265.408 5.60709 265.705 5.82089C265.862 5.9332 265.99 5.87511 265.99 5.69216C265.99 5.23746 267.863 5.3454 267.87 5.80053C267.874 6.04273 267.952 6.04273 268.105 5.80053C268.231 5.60073 268.862 5.43696 269.507 5.43696C270.152 5.43696 270.679 5.60073 270.679 5.80053C270.679 6.01689 271.722 6.1462 273.258 6.12041C277.661 6.04627 278.068 6.0017 277.585 5.6462C277.243 5.39494 277.314 5.28407 277.897 5.1562C278.592 5.00407 278.582 4.98712 277.771 4.94167C277.287 4.91443 276.644 4.73849 276.343 4.55098C276.03 4.35712 275.046 4.32833 274.059 4.48399C272.654 4.70536 272.253 4.64878 271.958 4.18891C271.758 3.87623 271.675 3.82007 271.775 4.06396C271.886 4.33719 271.621 4.59291 271.083 4.73012C270.603 4.85262 270.014 5.02467 269.775 5.1125C269.421 5.24243 269.413 5.16928 269.733 4.72256C270.049 4.27929 270.042 4.14372 269.699 4.01728C268.766 3.67477 263.506 3.17793 261.223 3.21638C259.891 3.23881 258.8 3.16522 258.8 3.05302C258.799 2.66591 249.875 2.07954 244.653 2.12339C241.348 2.15106 239.415 2.03355 239.411 1.80426C239.41 1.60444 239.268 1.68599 239.099 1.98567C238.869 2.39227 238.73 2.42009 238.548 2.09547C238.408 1.84406 238.134 1.78363 237.899 1.95242C237.518 2.22635 234.998 1.86038 234.423 1.44735C234.166 1.26251 231.207 1.10989 219.72 0.691618C216.539 0.575817 211.404 0.375836 208.309 0.247494C205.214 0.119166 197.646 0.00790242 191.493 0.00060477L191.493 0.000960389ZM169.685 0.581331C169.452 0.571135 169.345 0.859794 169.074 1.62236C168.7 2.66852 168.136 3.106 168.136 2.34871C168.136 2.14893 168.262 1.98589 168.415 1.98589C168.569 1.98589 168.777 1.73696 168.877 1.43264C169.029 0.972902 168.948 0.947718 168.403 1.28666C167.937 1.57702 167.809 1.57969 167.96 1.29537C168.099 1.03349 167.79 0.895699 167.06 0.895699C166.442 0.895699 165.947 1.07811 165.947 1.30591C165.947 1.58603 165.469 1.64192 164.436 1.48283C163.208 1.29342 162.925 1.35301 162.925 1.79968C162.925 2.10187 163.037 2.3492 163.176 2.3492C163.314 2.3492 163.345 2.59448 163.247 2.89419C162.983 3.69358 162.337 3.55844 161.981 2.62921L161.669 1.81929L161.3 2.62094C160.982 3.31141 161.002 3.39059 161.443 3.19376C161.885 2.99651 161.904 3.07691 161.583 3.77484C161.249 4.49914 161.27 4.5496 161.781 4.26039C162.095 4.08276 162.704 3.98185 163.134 4.03604C164.34 4.18811 165.379 3.83902 165.128 3.36614C164.984 3.09673 165.08 3.0286 165.402 3.17193C165.69 3.30069 165.97 3.16754 166.075 2.85201C166.175 2.54622 166.118 2.40757 165.943 2.53284C165.774 2.6549 165.634 2.58195 165.634 2.37027C165.634 1.6217 166.79 1.99827 167.127 2.85654C167.439 3.65258 167.637 3.72131 169.443 3.66495C170.611 3.62854 171.354 3.4587 171.262 3.2487C171.175 3.05347 170.983 2.94128 170.832 2.99954C170.682 3.05781 170.629 2.68419 170.713 2.1693C170.822 1.51249 170.699 1.12876 170.303 0.882896C170.009 0.700135 169.824 0.58689 169.684 0.58102L169.685 0.581331ZM171.183 0.697263C171.05 0.669442 171.053 0.787717 171.146 1.06986C171.247 1.37417 171.525 1.62312 171.764 1.62312C172.375 1.62312 172.306 1.35119 171.581 0.9005C171.392 0.782805 171.263 0.713941 171.183 0.697263V0.697263ZM172.904 1.26483C172.436 1.2692 172.424 1.32221 172.825 1.62312C173.415 2.06621 173.451 2.06621 173.451 1.62312C173.451 1.4233 173.205 1.26192 172.904 1.26483V1.26483ZM161.786 1.27065C161.41 1.27648 160.828 1.52229 160.494 1.81564C159.777 2.44663 160.381 2.53057 161.342 1.93304C161.844 1.6215 162.04 1.62219 162.13 1.93593C162.196 2.16571 162.38 2.25938 162.54 2.14446C163.008 1.80892 162.532 1.25741 161.786 1.27052V1.27065ZM156.594 1.66735C156.485 1.67317 156.392 1.7064 156.34 1.7667C156.236 1.88745 156.421 1.97285 156.751 1.95713C157.115 1.93965 157.19 1.85399 156.94 1.73807C156.827 1.68563 156.703 1.66216 156.594 1.66726V1.66735ZM158.359 1.98576C158.197 1.98576 158.15 2.24639 158.255 2.56462C158.382 2.94994 158.238 3.20624 157.824 3.3324C157.481 3.43655 157.278 3.66636 157.372 3.84347H157.371C157.603 4.2782 157.791 4.24944 158.258 3.70727C158.718 3.17268 158.787 1.98581 158.359 1.98581L158.359 1.98576ZM169.855 2.10694C170.098 2.10694 170.224 2.24298 170.136 2.40953C170.047 2.57608 169.921 2.71211 169.855 2.71211C169.789 2.71211 169.663 2.57608 169.574 2.40953C169.486 2.24299 169.612 2.10694 169.855 2.10694ZM179.48 2.15588C179.608 2.16608 179.742 2.30903 179.816 2.53297C179.926 2.86269 179.816 3.07569 179.536 3.07569C179.031 3.07569 178.916 2.50827 179.358 2.19126C179.396 2.16359 179.438 2.15234 179.48 2.15584L179.48 2.15588ZM159.539 2.34934C159.489 2.34934 159.377 2.56691 159.289 2.83334C159.202 3.09977 159.313 3.31809 159.539 3.31809C159.764 3.31809 159.876 3.09977 159.788 2.83334C159.7 2.56691 159.587 2.34934 159.539 2.34934ZM145.162 2.96278C143.696 2.97006 141.968 3.04059 140.624 3.17282C139.507 3.28279 137.256 3.47347 135.622 3.59583C131.404 3.91167 128.185 4.17715 126.555 4.34405C125.782 4.42329 123.953 4.58451 122.491 4.70234C119.37 4.95398 112.519 5.84364 109.794 6.35157C108.742 6.54754 107.406 6.71864 106.824 6.73319C106.242 6.74776 105.484 6.91442 105.14 7.10432C104.53 7.44122 104.531 7.44644 105.167 7.31054C105.971 7.13853 106.053 8.03688 105.255 8.27933C104.894 8.38916 104.626 8.20374 104.505 7.76071C104.401 7.38162 104.127 7.07116 103.895 7.07116C103.662 7.07116 103.226 6.96193 102.926 6.82805C102.511 6.64321 102.444 6.70876 102.647 7.10055C102.869 7.52786 102.831 7.53757 102.426 7.1562C101.921 6.68115 100.963 6.89702 100.505 7.58974C100.325 7.86049 100.198 7.84051 100.088 7.52507C100.001 7.27524 99.6522 7.07116 99.3124 7.07116C98.9725 7.07116 98.7707 7.21626 98.8651 7.39335C99.0939 7.82373 98.4718 8.35911 97.3245 8.71741C96.8088 8.87854 96.2813 9.04336 96.1524 9.08472C96.0235 9.12609 95.6597 9.18089 95.3445 9.20595C95.0293 9.231 94.7479 9.49637 94.7195 9.79605C94.6905 10.0958 94.6438 10.598 94.6153 10.9123C94.582 11.2723 94.3546 11.4206 94 11.3128C93.4442 11.144 93.3238 11.7634 93.8284 12.1943C94.2096 12.5199 97.2006 11.858 98.1621 11.2353C98.6735 10.9045 99.0742 10.8303 99.1889 11.0456C99.2919 11.2399 99.5824 11.3075 99.834 11.1954C100.085 11.0834 100.218 10.8561 100.131 10.6911C100.043 10.526 100.108 10.2932 100.273 10.1739C100.439 10.0546 100.711 10.2517 100.877 10.612C101.189 11.2894 102.795 11.684 102.795 11.0832C102.795 10.8966 103.374 10.7814 104.082 10.8273C104.909 10.8811 105.424 10.7415 105.525 10.4351C105.643 10.0803 105.788 10.0618 106.1 10.3629C106.566 10.8115 107.285 10.4844 107.002 9.95266C106.903 9.76669 106.972 9.61469 107.154 9.61469C107.336 9.61469 107.484 9.78815 107.484 10.0008C107.484 10.6975 113.335 9.93498 113.762 9.18261C113.995 8.77164 117.207 8.17323 116.99 8.58117C116.9 8.75003 117.047 8.88753 117.314 8.88753C117.583 8.88753 117.802 8.76488 117.802 8.61504C117.802 8.46507 118.154 8.34255 118.584 8.34255C119.013 8.34255 119.365 8.47657 119.365 8.63989C119.365 8.80355 119.681 8.80828 120.068 8.65153C120.455 8.49442 121.686 8.33723 122.804 8.30227C125.637 8.21386 125.678 8.20586 125.457 7.78969C125.327 7.54556 125.696 7.49897 126.531 7.6542C127.406 7.81677 127.969 7.73474 128.334 7.39073C128.626 7.11558 128.773 7.06658 128.663 7.28164C128.526 7.54797 129.426 7.69952 131.484 7.75662C133.146 7.80279 134.686 8.01276 134.904 8.22332C135.14 8.45099 135.652 8.49264 136.165 8.3257C136.64 8.17124 137.632 8.01041 138.37 7.96817C139.107 7.92593 139.777 7.81384 139.858 7.71901C139.94 7.62419 140.814 7.69542 141.8 7.87708C142.787 8.05894 144.544 8.15637 145.705 8.09388C146.866 8.03139 147.815 8.06852 147.815 8.17661C147.814 8.39731 151.959 8.16789 152.171 7.93501C152.643 7.41568 151.258 6.94607 149.179 6.92029C147.855 6.90383 146.725 6.72443 146.667 6.52213C146.604 6.3033 147.2 6.1686 148.135 6.19016C149.416 6.21929 149.851 6.05952 150.481 5.32832C150.906 4.83435 151.254 4.30933 151.254 4.16233C151.254 4.01531 150.656 3.77001 149.925 3.61659C149.194 3.46312 148.385 3.24784 148.127 3.13859C147.833 3.0139 146.628 2.95641 145.162 2.96323L145.162 2.96278ZM280.534 4.63161C280.506 4.63453 280.476 4.65999 280.444 4.70981C280.318 4.90965 280.004 5.12599 279.746 5.19082C279.487 5.25579 279.233 5.45151 279.179 5.62512C279.125 5.79864 278.843 5.86579 278.553 5.77417C278.263 5.68255 278.519 5.87408 279.121 6.20021C279.97 6.66031 280.758 6.74569 282.638 6.58036C284.171 6.44548 285.06 6.5011 285.06 6.73163C285.06 7.10438 286.45 7.03042 286.786 6.63988C287.027 6.35956 288.219 6.71737 288.057 7.02151V7.02298C287.82 7.46895 291.595 7.25491 291.986 6.80018C292.298 6.43697 292.242 6.34628 291.706 6.34628C291.339 6.34628 290.967 6.21416 290.881 6.05271C290.795 5.89138 289.662 5.76857 288.362 5.78022C287.062 5.79187 285.998 5.67868 285.998 5.5288C285.998 5.05497 285.061 5.23448 285.051 5.71021C285.046 5.9622 284.9 5.88163 284.723 5.5288C284.548 5.17915 284.064 4.89277 283.648 4.89277C283.065 4.89277 282.935 5.03812 283.081 5.5288C283.26 6.13198 283.247 6.13204 282.836 5.5288C282.447 4.95986 282.315 4.94846 281.544 5.41664C280.731 5.90998 280.684 5.89498 280.679 5.14264C280.677 4.81384 280.617 4.62233 280.534 4.63152L280.534 4.63161ZM295.083 6.47274C294.955 6.47321 294.813 6.4844 294.658 6.50742C294.108 6.59103 293.553 6.67121 293.424 6.68434C293.295 6.69745 293.188 6.84528 293.188 7.01177C293.188 7.37537 293.969 7.44946 295.146 7.19767C296.187 6.9749 295.98 6.4696 295.083 6.47279V6.47274ZM162.081 6.50888C161.99 6.5118 161.894 6.52418 161.799 6.54573C161.415 6.63182 159.247 6.71492 156.981 6.73092C153.117 6.75802 152.895 6.7982 153.387 7.37299C153.799 7.8554 154.277 7.94418 155.63 7.79227C156.576 7.68608 157.548 7.4551 157.79 7.27889C158.081 7.06641 158.158 7.09183 158.018 7.35348C157.7 7.95183 158.352 8.24381 159.044 7.81338C159.451 7.56038 159.722 7.55493 159.851 7.79676C160.143 8.34536 161.463 8.23413 161.995 7.61615C162.484 7.04684 162.966 6.86784 162.71 7.35041C162.628 7.50423 163.112 7.56875 163.784 7.49417C165.206 7.33654 165.198 6.80762 163.775 6.92211C163.249 6.9645 162.746 6.86166 162.657 6.69403C162.59 6.56832 162.355 6.49918 162.081 6.50888H162.081ZM165.851 6.71363C165.627 6.71654 165.665 6.85959 165.947 7.07116C166.548 7.52223 166.656 7.52223 166.416 7.07116C166.31 6.87136 166.055 6.71072 165.85 6.71363H165.851ZM178.59 7.43474C178.514 7.43474 178.453 7.5978 178.453 7.79756C178.453 7.99736 178.602 8.16114 178.784 8.16114C178.966 8.16114 179.028 7.99736 178.922 7.79756C178.815 7.5978 178.666 7.43474 178.59 7.43474H178.59ZM192.667 7.83894C192.508 7.83894 192.169 7.94661 191.739 8.16114C191.327 8.36704 191.274 8.47995 191.583 8.49306C191.841 8.50471 192.263 8.35485 192.521 8.16114C192.807 7.94658 192.827 7.83894 192.667 7.83894V7.83894ZM193.855 8.00755C193.658 7.98949 193.561 8.05915 193.634 8.19501C193.73 8.37615 194.011 8.52467 194.259 8.52467C194.906 8.52467 194.814 8.27761 194.083 8.05574C193.998 8.02967 193.921 8.01363 193.855 8.00751V8.00755ZM197.96 8.32521C197.714 8.32375 197.524 8.39337 197.524 8.56005C197.524 8.71254 197.84 8.90787 198.226 8.9944C198.613 9.08092 198.977 9.17416 199.034 9.20141C199.092 9.22865 199.083 9.05982 199.016 8.82579C198.932 8.53299 198.37 8.32866 197.96 8.32521H197.96ZM91.0851 9.6598C90.8877 9.66126 90.6662 9.75811 90.5302 9.91647C90.2982 10.186 90.4201 10.2333 90.9407 10.0753C91.3632 9.94683 91.5051 9.78216 91.2707 9.69141C91.2143 9.66956 91.1509 9.65937 91.0851 9.6598V9.6598ZM89.5034 9.994C89.4089 10.0087 89.3528 10.1953 89.3528 10.5442C89.3528 10.8561 89.4946 11.0078 89.6697 10.8822C89.8442 10.7567 89.9073 10.5014 89.8079 10.3154C89.7075 10.1265 89.6183 10.0222 89.5462 9.99853C89.5309 9.99416 89.5169 9.99126 89.5033 9.99418L89.5034 9.994ZM220.856 10.7588C220.311 10.7769 220.033 10.8565 220.033 10.9974C220.033 11.2063 220.28 11.4518 220.581 11.5431C220.881 11.6345 220.424 11.7443 219.564 11.787C214.644 12.0314 211.411 12.0192 205.809 11.7366C197.155 11.3001 197.602 11.3039 189.239 11.6094C185.112 11.7601 178.468 11.8575 174.475 11.8255C168.921 11.7811 166.827 11.8928 165.565 12.3012C164.598 12.6142 161.652 12.9349 158.444 13.0758C151.466 13.3821 149.966 13.3198 149.377 12.7001C149.113 12.4236 148.268 12.1686 147.497 12.1333C145.754 12.0539 138.428 12.5 137.865 12.7197C137.637 12.8087 135.309 12.8925 132.692 12.9041C130.075 12.9158 127.378 13.0961 126.698 13.3031C126.018 13.5101 124.477 13.7441 123.274 13.8232C122.07 13.9025 119.467 14.139 117.489 14.3494C115.512 14.5597 112.558 14.8105 110.924 14.9064C109.291 15.0022 106.828 15.2384 105.453 15.4318C85.4188 18.2486 85.8451 18.2052 85.3412 17.4988C85.005 17.0281 85.1247 16.9145 86.1745 16.7084C86.8931 16.5673 87.6752 16.1007 88.0644 15.5808C88.8058 14.5897 88.9523 14.0303 88.3077 14.652C87.7347 15.2045 87.429 14.7567 87.8114 13.9256C88.0729 13.3579 88.0073 13.2397 87.4096 13.2037C87.0167 13.1803 86.5897 13.1803 86.4607 13.2037C86.3318 13.2273 86.2262 13.0609 86.2262 12.8341C86.2262 12.6073 85.9053 12.0764 85.5136 11.6539C84.7876 10.8707 84.0931 10.8572 80.4428 11.5583C79.9266 11.6573 78.0977 12.0083 76.3787 12.3381C74.659 12.6679 71.845 13.2469 70.1253 13.6245C66.3942 14.4441 65.6571 14.5881 61.997 15.212C54.8722 16.4266 52.2026 16.9649 50.8987 17.4499C50.1246 17.7377 49.0286 17.9716 48.4618 17.9716C47.8956 17.9706 46.5589 18.2015 45.4918 18.4849C44.4247 18.7682 42.4258 19.2553 41.0504 19.5673C38.0298 20.2525 31.9686 21.6357 27.3234 22.6994C24.533 23.3384 23.7833 23.3992 23.198 23.0351C22.6157 22.673 21.6355 22.7396 17.9346 23.3912C15.4335 23.8314 13.2551 24.097 13.0941 23.9813C12.9332 23.8657 12.1943 23.9311 11.4511 24.1265C8.8204 24.8189 4.11903 25.5728 1.03375 25.7968C0.682494 25.8223 0.353781 25.8512 0 25.8788V57.9797C0.100108 57.9801 0.209381 57.9995 0.310725 58.0467C0.559927 58.1629 0.485612 58.249 0.121685 58.2665C0.0756115 58.2694 0.040027 58.265 5.16927e-05 58.2635V156.684C0.271003 156.549 0.587112 156.298 0.814988 156.014C1.13758 155.611 1.67057 155.321 1.99932 155.369C2.89246 155.501 5.25379 154.911 5.25379 154.557C5.25379 154.269 7.93841 153.608 8.45838 153.768C8.58728 153.808 8.69296 153.667 8.69296 153.456C8.69296 153.244 8.82408 153.165 8.98446 153.28C9.14419 153.395 9.35087 153.346 9.444 153.172C9.53649 152.998 10.2994 152.931 11.1395 153.025C11.979 153.119 12.9352 153.03 13.2639 152.824C13.5927 152.619 15.5481 152.262 17.6082 152.03C19.6683 151.798 21.9878 151.446 22.7613 151.246C23.5353 151.048 28.1079 150.827 32.9221 150.755C37.7369 150.683 41.8977 150.524 42.1691 150.401C42.4399 150.279 43.073 150.375 43.5757 150.616C44.0778 150.858 44.5596 151.078 44.6454 151.107C44.7318 151.136 45.2942 151.409 45.8962 151.712C46.7573 152.148 47.5557 152.207 49.6479 151.991C53.6183 151.58 69.6562 151.335 69.6562 151.685C69.6562 152.023 68.2506 152.523 65.6174 153.122C64.6583 153.341 63.4259 153.679 62.8794 153.875C62.3335 154.071 61.5438 154.131 61.1244 154.008C60.7049 153.886 59.7441 153.992 58.9903 154.242C58.2366 154.493 57.4791 154.71 57.3071 154.723C56.8704 154.759 56.7148 156.383 57.1478 156.383C57.3421 156.383 57.4132 156.547 57.3071 156.747C57.201 156.946 56.8763 157.113 56.5858 157.118C56.2946 157.122 55.2123 157.609 54.1804 158.199C53.1491 158.79 51.9963 159.278 51.62 159.282C51.2432 159.286 50.8569 159.437 50.7613 159.618C50.6651 159.797 49.707 160.06 48.6325 160.201C47.5574 160.342 45.8827 160.69 44.9106 160.975C43.9385 161.26 43.0246 161.461 42.879 161.423C42.3627 161.285 40.7703 162.24 40.3484 162.939C40.1134 163.33 39.6472 163.649 39.3129 163.649C38.9786 163.649 38.7054 163.88 38.7054 164.162C38.7054 164.482 38.205 164.775 37.3767 164.939C36.3231 165.149 36.1776 165.259 36.6729 165.471C37.0171 165.618 37.4263 165.651 37.5823 165.545C37.7384 165.439 37.785 165.714 37.6857 166.156C37.5666 166.685 37.6298 166.907 37.8704 166.803C38.0721 166.717 38.2149 166.503 38.189 166.328C38.086 165.652 38.8724 165.202 39.277 165.705C39.5935 166.099 39.5733 166.192 39.1754 166.192C38.78 166.192 38.7498 166.335 39.0187 166.918C39.2624 167.448 39.2554 167.646 38.9952 167.646C38.799 167.646 38.7221 167.899 38.8245 168.209C38.9319 168.532 38.8795 168.678 38.7019 168.551C38.5323 168.429 38.3929 168.489 38.3929 168.683C38.3929 168.879 38.5689 169.106 38.7842 169.191C39.0821 169.307 39.0625 169.501 38.7054 170.007C38.3365 170.528 38.3229 170.704 38.6407 170.828C38.9509 170.949 38.9595 171.103 38.68 171.495C38.3925 171.898 38.426 172.005 38.8394 172.005C39.1428 172.005 39.5567 172.545 39.825 173.291C40.0797 173.998 40.4243 174.479 40.5909 174.359C40.7579 174.239 40.8936 174.56 40.8938 175.071C40.8938 175.582 40.9453 176 41.0076 176C41.0699 176 41.8273 175.844 42.6909 175.654C43.5544 175.463 45.2267 175.207 46.4066 175.085C47.5872 174.962 49.3968 174.721 50.4288 174.547C52.8942 174.132 58.5134 173.642 62.5591 173.49C63.0507 173.471 63.7359 173.078 64.1251 172.59C65.3679 171.032 71.3966 169.71 79.3479 169.253C83.6391 169.007 91.6469 168.145 93.1038 167.774C93.5337 167.665 96.5582 167.51 99.8254 167.429C103.093 167.349 107.593 167.099 109.829 166.873C112.065 166.647 114.21 166.442 114.597 166.417C114.983 166.392 115.3 166.24 115.3 166.079C115.3 165.917 115.429 165.877 115.587 165.989C115.744 166.102 115.931 165.991 116.002 165.742C116.097 165.415 116.283 165.464 116.676 165.922C117.372 166.728 118.251 166.768 117.991 165.98C117.887 165.664 117.801 165.337 117.801 165.253C117.801 165.17 117.327 165.1 116.746 165.1C116.165 165.1 115.514 164.856 115.3 164.556C115.086 164.257 114.979 164.011 115.063 164.011C115.147 164.011 115.973 163.819 116.899 163.584C117.825 163.35 120.834 163.12 123.585 163.074C126.336 163.028 129.607 162.875 130.853 162.733C132.862 162.506 133.12 162.546 133.12 163.091C133.12 163.594 133.305 163.66 134.137 163.454C134.695 163.315 135.318 163.046 135.521 162.857C135.723 162.668 136.497 162.517 137.241 162.521C137.984 162.525 139.928 162.336 141.561 162.102C143.195 161.867 144.813 161.704 145.157 161.739C145.501 161.774 146.064 161.831 146.408 161.865C146.751 161.898 147.526 161.801 148.127 161.65C149.14 161.395 150.25 161.348 150.848 161.535C151.333 161.686 154.233 161.027 154.849 160.625C155.192 160.4 156.907 160.191 158.659 160.161C160.41 160.13 162.185 160.005 162.602 159.883C163.02 159.762 167.425 159.576 172.389 159.471C177.355 159.365 182.764 159.219 184.411 159.145C186.391 159.056 187.65 159.163 188.125 159.458C188.879 159.927 191.534 159.586 191.879 158.977C191.974 158.808 192.403 158.455 192.833 158.192C193.295 157.909 193.454 157.652 193.223 157.563C191.675 156.963 194.458 155.287 196.912 155.341C200.05 155.409 210.263 154.941 210.795 154.704C211.085 154.575 212.191 154.587 213.254 154.732C214.318 154.876 220.744 154.971 227.536 154.943C243.682 154.877 243.171 154.876 246.607 155.008C248.24 155.07 249.75 155.25 249.964 155.408C250.23 155.604 250.293 155.517 250.163 155.125C250.028 154.713 250.114 154.619 250.479 154.782C250.756 154.905 250.984 155.132 250.984 155.286C250.984 155.439 251.3 155.567 251.686 155.572C252.073 155.576 252.602 155.637 252.859 155.708C253.177 155.795 253.294 155.609 253.222 155.13C253.128 154.501 253.176 154.48 253.652 154.939C254.238 155.504 254.773 155.571 259.948 155.715C261.869 155.769 263.376 155.936 263.296 156.087C263.078 156.496 264.655 156.865 265.286 156.552C266.072 156.163 268.024 156.351 269.898 156.996C270.242 157.114 270.987 157.245 271.555 157.287C272.123 157.329 272.741 157.543 272.93 157.761C273.118 157.981 273.686 158.062 274.196 157.944C274.811 157.801 275.212 157.899 275.4 158.237C275.638 158.667 275.726 158.662 275.977 158.208C276.224 157.763 277.525 157.666 283.715 157.636C287.808 157.616 292.563 157.734 294.283 157.898C296.002 158.062 300.575 158.266 304.443 158.351C308.312 158.436 312.322 158.593 313.353 158.701C316.435 159.021 320.987 159.355 323.983 159.481C328.124 159.655 333.829 160.024 335.082 160.2C335.683 160.284 337.23 160.457 338.52 160.585C339.81 160.713 340.955 160.88 341.065 160.957C341.174 161.034 343.003 161.266 345.129 161.471C347.254 161.678 350.471 162.071 352.277 162.345C354.082 162.62 357.318 162.867 359.468 162.893C363.357 162.941 369.386 163.732 376.474 165.122C378.948 165.607 381.715 165.75 383 165.55V42.4712C382.705 42.328 382.603 42.1554 382.603 41.936C382.603 41.3603 382.055 41.2787 376.896 41.0846C373.759 40.9665 369.362 40.7176 367.127 40.5313C364.891 40.3451 362.723 40.1783 362.307 40.161C361.362 40.1215 361.711 39.6616 362.816 39.4896C363.764 39.342 364.908 38.7009 364.685 38.4418C364.602 38.3452 363.78 38.1751 362.86 38.0639C359.543 37.6633 360.975 37.5231 366.033 37.753C368.87 37.8821 376.256 38.0512 382.446 38.1294C382.635 38.1323 382.811 38.1352 383 38.1382V35.892C379.418 35.6682 375.352 35.4552 370.878 35.2635C369.331 35.1972 365.814 34.8574 363.063 34.5085C360.312 34.1595 356.653 33.822 354.934 33.7588C352.099 33.6545 345.937 33.1993 339.772 32.6387C338.483 32.5215 337.286 32.3249 337.114 32.2021C336.942 32.0793 335.185 31.937 333.208 31.8853C330.354 31.8107 329.539 31.6728 329.251 31.2153C329.051 30.8985 328.347 30.5934 327.686 30.5379C327.026 30.4824 326.203 30.3133 325.859 30.1622C325.516 30.0111 325.032 29.8147 324.784 29.7257C324.537 29.6367 321.864 29.3989 318.844 29.1965C315.825 28.9941 312.581 28.7647 311.634 28.6869C308.292 28.4121 303.902 28.1265 297.637 27.7769C294.15 27.5824 290.984 27.3456 290.602 27.2499C290.219 27.1542 287.304 26.8934 284.123 26.6703C280.942 26.4472 276.369 26.0117 273.962 25.7023C271.554 25.3929 269.093 25.144 268.491 25.1498C267.89 25.1557 266.342 24.9774 265.053 24.7546L262.708 24.3489L264.114 24.0546C264.888 23.8925 267.089 23.7666 269.004 23.7754C271.972 23.7885 272.515 23.7016 272.686 23.186C272.864 22.6437 273.362 22.6059 277.488 22.8247C280.019 22.9588 284.623 23.3092 287.719 23.603C290.814 23.8967 294.682 24.2215 296.315 24.3241C297.949 24.4266 300.2 24.6218 301.318 24.7584C302.435 24.8951 304.546 25.028 306.008 25.0535C309.107 25.1074 316.065 25.8455 317.404 26.2624C317.913 26.4207 318.911 26.4474 319.623 26.3218C321.002 26.0785 321.573 26.1007 324.765 26.5213C328.366 26.9958 330.678 26.5226 329.446 25.5638C329.14 25.3261 329.983 25.3026 331.956 25.493C334.7 25.7578 338.159 25.7798 340.631 25.5479C341.23 25.4919 341.648 25.2531 341.648 24.9676C341.648 24.5798 341.786 24.5683 342.338 24.9119C342.718 25.1482 343.597 25.3758 344.292 25.417C344.987 25.4583 346.047 25.5932 346.649 25.7174C348.478 26.0943 354.789 26.2353 354.966 25.9033C355.056 25.7321 355.344 25.8403 355.605 26.1434C355.866 26.4465 356.173 26.6294 356.288 26.5499C356.403 26.4703 357.328 26.2945 358.342 26.1592C359.714 25.9761 360.252 26.0352 360.441 26.391C360.581 26.654 361.228 26.9108 361.878 26.9616C364.011 27.128 366.368 27.0777 366.672 26.8592C367.096 26.5547 367.042 26.0857 366.58 26.0628C365.302 25.9995 360.211 25.5646 358.218 25.3485C356.928 25.2087 355.772 25.1243 355.65 25.1603C355.137 25.3113 345.562 24.4436 345.26 24.2186C345.079 24.0835 343.946 23.9389 342.742 23.898C337.546 23.7211 331.086 23.1012 328.674 22.5483C328.329 22.4695 327.099 22.287 325.938 22.1426C324.777 21.9983 323.828 21.7633 323.828 21.6202C323.828 21.3421 331.366 21.4705 332.444 21.767C334.356 22.2932 336.918 22.5011 340.553 22.4249C346.282 22.3049 350.464 22.3308 350.683 22.4874C350.786 22.561 351.854 22.7314 353.058 22.866C356.04 23.1995 356.761 23.3081 357.881 23.5939C358.594 23.7759 358.89 23.6963 359.025 23.2883C359.125 22.9853 359.371 22.7996 359.572 22.8758C359.772 22.9521 360.71 23.1027 361.656 23.21C362.602 23.3175 364.713 23.5804 366.346 23.7941C370.42 24.3272 372.634 24.4058 375.568 24.1208C377.273 23.9553 378.154 24.0075 378.334 24.2842C378.496 24.5339 378.529 24.445 378.421 24.0538C378.201 23.2596 378.934 23.2031 379.588 23.9635C380.215 24.692 380.384 24.6498 380.328 23.7813C380.296 23.2909 380.057 23.055 379.591 23.055C379.212 23.055 378.657 22.9457 378.356 22.8118C377.985 22.6459 377.883 22.7034 378.037 22.9932C378.161 23.227 378.114 23.4185 377.932 23.4185C377.749 23.4185 377.6 23.1733 377.6 22.8736C377.6 22.2864 377.606 22.2872 373.427 22.1238C371.906 22.0642 370.455 21.9238 370.204 21.8115C369.952 21.6991 368.945 21.5084 367.967 21.3876C366.989 21.2669 366.119 21.1173 366.033 21.0557C365.947 20.9942 364.751 20.8444 363.375 20.7222C362 20.6 359.819 20.3943 358.53 20.2661C357.24 20.1378 355.693 19.9877 355.091 19.9319C354.49 19.8761 353.293 19.7428 352.433 19.6353C347.099 18.9681 343.489 18.649 339.772 18.516C335.552 18.365 332.666 18.126 330.817 17.7745C330.277 17.6717 328.729 17.4989 327.378 17.3907C326.027 17.2824 324.3 17.0344 323.541 16.8397C322.781 16.6449 317.998 16.4137 312.911 16.3256C307.825 16.2376 302.256 16.005 300.536 15.8084C298.816 15.6119 296.425 15.4656 295.221 15.4832C294.018 15.5012 291.838 15.4049 290.376 15.2687C288.915 15.1327 285.397 14.9677 282.56 14.9022C276.398 14.7597 270.485 14.4275 259.269 13.5954C254.784 13.2627 251.491 12.973 242.855 12.1495C240.706 11.9445 235.853 11.6112 232.07 11.4087C228.287 11.2063 224.031 10.9448 222.612 10.8284C222.187 10.7935 221.813 10.771 221.491 10.7607C221.25 10.7534 221.038 10.7519 220.856 10.7577L220.856 10.7588ZM86.6761 11.7938C86.6002 11.7938 86.5387 11.9576 86.5387 12.1574C86.5387 12.3572 86.6869 12.5209 86.8696 12.5209C87.0515 12.5209 87.1131 12.3572 87.007 12.1574C86.9009 11.9576 86.7519 11.7938 86.6761 11.7938ZM87.3895 15.236C87.4327 15.2331 87.4755 15.2433 87.5146 15.2721C87.6713 15.3847 87.7181 15.6296 87.6188 15.8156C87.3252 16.3684 86.8556 16.1994 87.0498 15.6108C87.1239 15.3869 87.2599 15.2453 87.3895 15.236V15.236ZM23.7249 22.3741C23.6164 22.38 23.5232 22.4132 23.4711 22.4735C23.3674 22.5942 23.5517 22.6796 23.8816 22.6639C24.2456 22.6464 24.3199 22.5608 24.0707 22.4449C23.9579 22.3923 23.8336 22.3688 23.7249 22.3741V22.3741ZM375.125 23.1005C375.233 23.0947 375.358 23.1187 375.47 23.1713C375.72 23.2872 375.646 23.373 375.281 23.3903C374.952 23.4062 374.767 23.3207 374.871 23.1999C374.922 23.1396 375.016 23.1058 375.125 23.1006V23.1005ZM381.909 23.236C381.782 23.2316 381.655 23.2331 381.534 23.2389C381.076 23.2592 380.687 23.3448 380.55 23.5038C380.129 23.9927 381.626 24.6589 383 24.6691V23.3879C382.684 23.3011 382.291 23.2484 381.909 23.2366V23.236ZM369.006 26.3252C368.789 26.3252 366.97 27.3896 366.97 27.516C366.97 27.5616 368.24 27.5539 369.791 27.4987C371.479 27.4385 372.879 27.5652 373.279 27.814C373.647 28.0426 375.648 28.2916 377.728 28.3673C379.813 28.4433 381.544 28.5234 383 28.6089V27.5528C382.188 27.4769 381.551 27.3763 381.417 27.2803C381.209 27.1311 381.039 27.1882 381.039 27.4068C381.039 27.672 380.857 27.6914 380.492 27.4655C380.191 27.2794 379.079 27.1506 378.02 27.1802C376.962 27.2095 376.161 27.111 376.241 26.9612C376.321 26.8113 375.639 26.6648 374.726 26.6352C373.813 26.6055 372.785 26.5625 372.441 26.5397C372.097 26.5168 371.613 26.6632 371.365 26.8656C371.031 27.1377 370.976 27.1155 371.15 26.7798C371.279 26.5301 371.235 26.3252 371.052 26.3252C370.871 26.3252 370.722 26.4889 370.722 26.6887C370.722 26.8885 370.292 27.0523 369.766 27.0523C369.208 27.0523 368.89 26.9007 369.002 26.6887C369.109 26.4889 369.11 26.3252 369.006 26.3252L369.006 26.3252ZM375.118 27.0523C375.452 27.0523 375.724 27.1952 375.724 27.37C375.724 27.5448 375.375 27.6884 374.948 27.6884C374.521 27.6884 374.249 27.5447 374.342 27.37C374.435 27.1951 374.784 27.0523 375.118 27.0523ZM358.373 37.3451C358.631 37.3451 358.842 37.482 358.842 37.6484C358.842 37.8149 358.631 37.9511 358.373 37.9511C358.116 37.9511 357.904 37.815 357.904 37.6484C357.904 37.4819 358.116 37.3451 358.373 37.3451ZM359.806 37.6326C359.915 37.6268 360.038 37.6503 360.151 37.7027C360.4 37.8186 360.327 37.9052 359.962 37.9225C359.633 37.9384 359.448 37.852 359.552 37.7313C359.603 37.671 359.698 37.6379 359.806 37.6327V37.6326ZM360.03 39.5039C360.136 39.4966 360.258 39.4981 360.394 39.5083C360.915 39.5508 361.342 39.7084 361.342 39.8583C361.343 40.2583 359.849 40.1905 359.631 39.7808C359.551 39.6306 359.715 39.5273 360.03 39.5038V39.5039ZM39.5378 153.2C39.361 153.192 39.0858 153.213 38.7053 153.257C37.9319 153.347 37.0674 153.433 36.7849 153.449C36.5024 153.464 36.1906 153.72 36.0925 154.018C35.9433 154.469 36.2275 154.537 37.7924 154.426C38.8255 154.353 39.7587 154.192 39.8661 154.067C39.9728 153.942 39.861 153.838 39.6175 153.835C39.2523 153.831 39.2563 153.765 39.6437 153.462C39.855 153.296 39.8324 153.211 39.5378 153.2L39.5378 153.2ZM33.7317 154.301C33.3962 154.33 33.1909 154.484 33.2748 154.642C33.4827 155.033 33.9392 155.006 34.1607 154.589C34.2599 154.401 34.0678 154.272 33.7317 154.301V154.301ZM147.366 157.167C148.13 157.2 148.687 157.307 148.603 157.404C148.52 157.501 147.798 157.657 146.999 157.75C145.978 157.868 145.609 157.797 145.762 157.512C145.88 157.288 146.603 157.133 147.366 157.167ZM142.499 157.565C143.617 157.548 144.25 157.613 143.907 157.707C143.563 157.801 142.929 157.997 142.499 158.142C142.069 158.287 141.156 158.316 140.468 158.206C138.776 157.937 139.832 157.603 142.499 157.565V157.565ZM270.386 157.828C270.32 157.821 270.249 157.851 270.179 157.933C270.076 158.053 270.101 158.359 270.236 158.612C270.433 158.982 270.507 158.982 270.613 158.613C270.726 158.218 270.583 157.85 270.386 157.828V157.828ZM271.387 158.049C270.904 158.01 270.823 158.423 271.383 158.686C271.999 158.975 272.243 158.951 272.243 158.605C272.243 158.428 271.961 158.199 271.617 158.095C271.532 158.069 271.456 158.054 271.387 158.049H271.387ZM133.044 158.148C133.406 158.155 133.653 158.174 133.757 158.202C134.283 158.347 134.137 158.479 133.069 158.825C132.324 159.066 130.8 159.31 129.682 159.367C127.384 159.485 116.197 159.132 117.645 158.988C122.309 158.524 130.509 158.094 133.044 158.148V158.148ZM274.881 158.563C274.805 158.563 274.743 158.726 274.743 158.926C274.743 159.126 274.893 159.289 275.075 159.289C275.257 159.289 275.319 159.126 275.213 158.926C275.107 158.726 274.957 158.563 274.881 158.563ZM4.5745 159.028C4.31312 159.056 4.25436 159.304 4.40815 159.77C4.55501 160.215 5.03036 160.284 6.34787 160.054C6.51995 160.024 6.19998 159.736 5.63621 159.413C5.23097 159.181 4.91755 159.053 4.69871 159.03C4.65315 159.025 4.61183 159.024 4.57439 159.028L4.5745 159.028ZM314.895 160.025C314.658 160.036 314.448 160.15 314.448 160.357C314.448 160.544 314.72 160.674 315.051 160.645C315.383 160.616 315.586 160.462 315.502 160.304C315.395 160.102 315.132 160.013 314.895 160.025ZM320.213 160.379C319.966 160.379 319.763 160.543 319.763 160.743C319.763 160.942 320.053 161.106 320.407 161.106C320.761 161.106 320.963 160.942 320.857 160.743C320.751 160.543 320.461 160.379 320.213 160.379V160.379ZM135.063 164.765C134.941 164.761 134.76 164.871 134.6 165.057C134.294 165.416 134.33 165.458 134.775 165.261C135.084 165.124 135.257 164.921 135.161 164.809C135.137 164.781 135.103 164.767 135.063 164.765L135.063 164.765ZM131.366 164.863C131.329 164.87 131.288 164.89 131.245 164.92C131.073 165.044 130.932 165.217 130.932 165.306C130.932 165.394 131.073 165.465 131.245 165.465C131.417 165.465 131.558 165.292 131.558 165.081C131.558 164.922 131.478 164.841 131.366 164.863V164.863ZM94.0752 165.918C94.6114 165.922 94.3373 166.044 93.5728 166.363C92.2572 166.911 84.3503 167.358 84.3503 166.884C84.3503 166.633 86.2137 166.428 92.1653 166.022C93.14 165.956 93.7536 165.915 94.0752 165.918V165.918ZM40.7659 171.44C40.8599 171.46 40.8936 171.567 40.8936 171.766C40.8936 172.048 40.6993 172.466 40.4612 172.695C40.1281 173.017 39.987 172.987 39.8476 172.564C39.7397 172.237 39.9136 171.862 40.28 171.634C40.5178 171.486 40.6718 171.42 40.7658 171.44L40.7659 171.44Z" fill="#1C84C5"/>
</svg>
