<svg width="100%" height="100%" viewBox="0 0 573 358" fill="none" xmlns="http://www.w3.org/2000/svg">
<g clip-path="url(#clip0)">
<path d="M405.445 291.239C405.588 290.51 405.817 290.08 405.954 290.285C406.091 290.489 406.577 289.872 407.034 288.915C407.516 287.905 408.09 287.217 408.4 287.278C408.822 287.361 408.886 287.215 408.705 286.583C408.529 285.969 408.581 285.751 408.932 285.64C409.291 285.527 409.326 285.274 409.095 284.457C408.871 283.665 408.907 283.384 409.243 283.278C409.486 283.201 409.73 282.911 409.784 282.632C409.838 282.355 409.713 282.242 409.505 282.382C409.289 282.528 409.276 282.31 409.475 281.87C409.667 281.448 409.659 281.071 409.459 281.032C409.194 280.98 409.242 280.698 409.639 279.992C410.077 279.214 410.085 279.004 409.682 278.924C409.275 278.845 409.282 278.708 409.715 278.21C410.269 277.573 410.946 278.372 410.652 279.316C410.576 279.56 410.662 279.893 410.844 280.057C411.061 280.252 411.188 279.949 411.214 279.171C411.236 278.521 411.36 278.138 411.49 278.32C411.619 278.503 412.046 278.537 412.439 278.396C413.004 278.193 412.886 278.008 411.868 277.498C411.069 277.097 410.64 276.581 410.729 276.124C410.808 275.722 410.593 275.338 410.252 275.272C409.911 275.204 409.524 274.657 409.393 274.053C409.157 272.971 407.798 271.292 407.232 271.384C407.073 271.41 406.195 270.94 405.283 270.34C404.37 269.739 402.757 268.907 401.698 268.491C400.64 268.075 399.735 267.509 399.688 267.233C399.64 266.957 399.287 266.665 398.904 266.583C398.521 266.501 397.48 265.577 396.591 264.528C395.702 263.48 394.733 262.57 394.438 262.505C394.142 262.441 393.857 262.138 393.804 261.832C393.751 261.525 393.87 261.306 394.069 261.346C394.511 261.432 394.806 259.084 394.37 258.947C394.198 258.893 393.485 258.432 392.785 257.924C392.085 257.416 391.134 257.074 390.672 257.165C390.209 257.255 389.418 257.011 388.916 256.623C388.413 256.235 387.25 255.506 386.331 255.003C383.809 253.622 382.513 252.628 382.607 252.146C382.705 251.647 399.015 255.204 402.955 256.584C405.031 257.311 405.862 257.386 406.864 256.938C407.563 256.625 408.214 256.349 408.31 256.325C408.406 256.301 408.959 256.082 409.54 255.839C410.12 255.596 410.794 255.584 411.036 255.814C411.279 256.043 415.484 257.102 420.381 258.167C425.277 259.233 429.885 260.463 430.619 260.902C431.354 261.34 433.623 262.307 435.662 263.05C437.702 263.793 439.599 264.693 439.877 265.051C440.156 265.408 441.107 265.729 441.991 265.763C442.875 265.797 443.636 266.044 443.682 266.311C443.728 266.578 443.925 266.689 444.121 266.556C444.316 266.425 444.428 266.564 444.369 266.865C444.31 267.167 444.379 267.389 444.521 267.358C445.097 267.234 447.653 268.713 447.573 269.124C447.474 269.629 449.721 270.942 450.67 270.933C451.019 270.929 451.482 271.45 451.699 272.089C451.917 272.728 452.335 273.326 452.629 273.419C452.922 273.511 454.015 273.806 455.057 274.074C456.098 274.342 457.472 274.943 458.11 275.409C458.748 275.876 459.788 276.494 460.419 276.785C461.051 277.075 461.45 277.502 461.306 277.733C460.856 278.455 461.526 278.798 466.929 280.616C467.216 280.713 467.382 281.008 467.298 281.271C467.214 281.535 467.405 281.944 467.723 282.18C468.042 282.417 468.587 283.081 468.934 283.658C469.389 284.411 470.531 284.991 473.005 285.725C474.896 286.286 476.78 286.785 477.192 286.835C477.604 286.884 478.309 287.381 478.76 287.939C479.225 288.516 479.705 288.766 479.869 288.518C480.274 287.909 481.523 287.493 481.15 288.091C480.757 288.722 481.074 288.748 482.071 288.166C484.082 286.994 491.98 289.732 492.46 291.768C492.609 292.399 492.562 292.795 492.328 292.868C492.127 292.931 491.922 293.188 491.873 293.441C491.824 293.692 492.008 293.813 492.284 293.708C492.559 293.604 492.831 293.785 492.887 294.112C493.038 294.986 491.148 294.493 490.283 293.433C489.886 292.947 488.948 292.251 488.199 291.886C487.45 291.522 486.6 291.099 486.312 290.946C486.022 290.793 485.726 290.974 485.653 291.347C485.559 291.826 485.133 291.897 484.197 291.587C483.174 291.248 482.979 291.294 483.335 291.792C483.588 292.145 483.687 292.609 483.554 292.822C483.267 293.283 484.954 294.132 488.328 295.227C490.222 295.842 490.874 295.873 491.197 295.364C491.5 294.887 491.581 294.885 491.492 295.354C491.313 296.309 493.262 296.531 494.147 295.656C494.561 295.248 494.856 295.134 494.803 295.404C494.745 295.701 495.771 295.957 497.411 296.053C498.898 296.142 501.217 296.296 502.565 296.397C503.912 296.498 505.54 296.403 506.182 296.185C506.822 295.966 507.685 295.969 508.097 296.191C508.504 296.412 508.981 296.373 509.145 296.103C509.335 295.803 509.261 295.744 508.949 295.952C508.642 296.162 508.568 296.101 508.764 295.791C509.123 295.207 510.758 294.933 512.588 295.151C513.667 295.279 513.926 295.12 514.138 294.199C514.366 293.21 514.175 293.007 512.361 292.283C511.239 291.837 509.959 291.453 509.504 291.428L508.684 291.384L509.679 290.803C511.403 289.796 512.943 289.53 515.804 289.745C517.333 289.86 519.587 289.757 520.819 289.515C523.654 288.96 532.779 290.662 532.975 291.782C533.039 292.168 533.298 292.347 533.546 292.181C534.181 291.751 540.095 292.721 539.788 293.207C539.508 293.66 539.55 293.678 543.687 294.702C546.607 295.425 547.818 295.845 552.055 297.612C553.986 298.417 555.208 298.412 556.562 297.594C557.133 297.251 557.075 296.982 556.15 295.567C555.404 294.425 554.367 293.638 552.711 292.946C549.887 291.765 547.226 290.454 545.348 289.316C544.221 288.635 544.036 288.314 544.316 287.552C544.517 287.005 544.824 286.771 545.052 286.986C545.269 287.187 545.496 287.094 545.559 286.779C545.618 286.463 545.422 286.153 545.115 286.088C544.639 285.988 544.639 285.911 545.131 285.562C545.501 285.304 545.57 285.123 545.321 285.07C545.11 285.023 545.089 284.652 545.274 284.242C545.506 283.725 545.29 283.155 544.554 282.369L543.496 281.24L546.676 281.538C548.426 281.703 550.712 282.029 551.754 282.264C552.796 282.498 553.658 282.661 553.663 282.625C553.674 282.59 553.494 281.967 553.272 281.241C553.05 280.516 552.838 280.079 552.801 280.272C552.764 280.465 552.473 280.215 552.161 279.717C551.849 279.219 550.579 278.335 549.342 277.753C548.104 277.17 546.586 276.256 545.972 275.722C545.353 275.188 544.327 274.64 543.692 274.506C541.92 274.129 537.815 271.362 539.143 271.441C539.307 271.451 539.751 271.407 540.127 271.345C540.508 271.283 541 271.204 541.232 271.17C542.01 271.053 542.158 270.558 541.55 270.079C541.216 269.816 540.682 268.962 540.359 268.182C540.032 267.402 539.45 266.702 539.058 266.625C538.667 266.548 538.244 266.132 538.122 265.702C537.937 265.058 538.233 264.922 539.804 264.939C540.851 264.951 542.163 264.931 542.719 264.896C544.036 264.814 549.014 265.838 549.289 266.249C549.659 266.803 553.267 267.736 553.351 267.3C553.399 267.071 553.277 266.552 553.081 266.146C552.886 265.74 552.78 265.164 552.838 264.866C552.896 264.569 553.007 264.497 553.087 264.708C553.166 264.918 553.473 264.867 553.769 264.596C554.071 264.324 554.266 264.325 554.213 264.598C554.161 264.871 554.335 265.136 554.594 265.187C555.361 265.337 555.261 264.742 554.356 263.779C553.335 262.695 553.579 262.372 555.621 262.071C557.483 261.797 558.006 260.897 556.917 259.836C555.79 258.737 549.929 256.45 546.459 255.754C544.835 255.428 543.153 254.931 542.724 254.65L541.941 254.139L543.089 253.111C543.719 252.545 544.48 252.121 544.777 252.169C545.538 252.291 545.93 251.512 545.766 250.202C545.591 248.819 543.274 245.939 542.158 245.72C541.687 245.628 541.46 245.352 541.629 245.079C541.793 244.815 542.19 244.651 542.512 244.715C543.052 244.821 543.909 243.645 543.967 242.714C544.031 241.767 548.892 243.792 549.125 244.86C549.299 245.676 557.065 249.239 557.964 248.915L558.816 248.606L558.197 247.816C557.858 247.382 555.388 245.945 552.706 244.624C547.792 242.206 546.723 240.969 550.124 241.634C551.167 241.839 552.187 241.731 552.579 241.374C553.14 240.868 553.759 240.972 556.245 241.991C560.815 243.865 563.45 245.054 564.037 245.504C564.423 245.802 564.581 245.674 564.629 245.028C564.693 244.088 563.915 242.818 562.54 241.617C561.36 240.584 562.323 240.065 563.936 240.866C564.634 241.213 565.819 241.788 566.57 242.144L567.935 242.79L567.105 240.694C566.645 239.542 566.285 238.515 566.306 238.413C566.327 238.311 567.269 238.239 568.395 238.253C571.061 238.284 572.67 237.384 572.982 235.68C573.151 234.781 571.321 233.174 569.443 232.569C568.671 232.32 566.962 231.521 565.645 230.793C564.328 230.065 562.27 229.168 561.064 228.799C559.858 228.43 558.059 227.714 557.065 227.208C550.886 224.062 549.506 223.315 549.278 222.998C549.135 222.803 549.712 222.515 550.564 222.358C551.415 222.2 552.166 221.769 552.24 221.393C552.41 220.521 549.564 217.998 546.808 216.579C545.469 215.888 544.538 215.07 544.311 214.386C544.115 213.773 543.179 212.867 542.19 212.323C539.942 211.087 540.148 210.374 543.063 209.322C543.687 209.096 544.184 208.63 544.168 208.284C544.136 207.499 542.883 206.066 542.089 205.911C541.767 205.847 541.634 205.579 541.798 205.316C541.962 205.052 543.163 205.045 544.47 205.302C546.623 205.724 547.591 205.364 546.686 204.478C545.871 203.687 550.468 204.93 552.632 206.087C555.324 207.527 556.959 207.464 557.26 205.909C557.403 205.193 556.753 204.088 554.822 201.759C553.002 199.565 552.346 198.475 552.695 198.228C553.362 197.758 552.928 197.06 551.013 195.494C548.31 193.282 546.443 190.098 547.041 188.714C547.448 187.768 546.379 186.998 541.735 184.906C539.423 183.865 537.164 182.568 536.71 182.024C536.255 181.479 535.202 180.758 534.377 180.423C532.092 179.496 527.918 176.745 527.368 175.802C527.098 175.342 526.442 174.864 525.918 174.74C525.389 174.616 524.707 174.258 524.405 173.944C523.966 173.49 524.12 173.409 525.146 173.548C527.902 173.918 529.431 173.766 529.939 173.07C530.288 172.595 530.706 172.51 531.15 172.822C531.732 173.232 531.764 173.202 531.372 172.614C531.124 172.237 530.658 171.947 530.341 171.969C530.018 171.99 529.605 171.773 529.415 171.487C529.209 171.179 528.696 171.183 528.151 171.495C527.431 171.908 527.119 171.863 526.744 171.294C526.437 170.833 526.151 170.737 525.966 171.034C525.807 171.292 524.855 171.351 523.855 171.165C522.85 170.98 521.607 171.091 521.089 171.412C519.957 172.111 519.624 172.114 519.761 171.42C519.819 171.135 520.089 170.945 520.359 170.999C520.634 171.053 520.819 170.874 520.771 170.603C520.729 170.332 521.015 170.041 521.411 169.957C521.814 169.873 522.136 169.485 522.131 169.096C522.126 168.376 520.777 167.691 516.471 166.223C512.583 164.896 511.525 164.385 511.625 163.877C511.678 163.609 511.937 163.433 512.202 163.485C512.466 163.537 512.768 163.118 512.879 162.543C513.032 161.783 512.874 161.465 512.287 161.35C511.366 161.171 511.366 160.342 512.287 160.149C512.625 160.077 514.239 160.409 515.873 160.887C520.623 162.278 522.586 162.509 523.776 161.819C524.379 161.468 524.945 161.292 525.035 161.427C525.125 161.561 525.268 161.004 525.352 160.188C525.538 158.408 526.04 158.222 529.346 158.719C531.325 159.015 531.494 158.966 530.923 158.259C529.986 157.097 526.135 154.937 523.728 154.223C522.496 153.859 521.396 153.202 521.068 152.634C520.359 151.425 519.819 151.306 519.01 152.18C518.645 152.574 517.814 152.748 517.047 152.591C514.683 152.108 506.14 148.922 505.053 148.118C504.038 147.368 504.02 147.276 504.589 145.623C504.948 144.583 505.092 143.671 504.955 143.307C504.799 142.893 504.885 142.508 505.23 142.07C506.285 140.728 505.375 140.23 500.667 139.568C497.009 139.054 495.9 138.726 495.285 137.974C494.633 137.179 491.303 135.606 488.944 134.979C488.597 134.887 487.636 134.462 486.808 134.036L485.302 133.26L486.812 133.165C487.644 133.112 490.024 133.526 492.103 134.084C494.181 134.642 497.181 135.321 498.769 135.592C500.356 135.864 503.377 136.818 505.481 137.712C509.647 139.481 513.995 141 515.931 141.359C516.603 141.484 517.206 141.808 517.264 142.078C517.328 142.348 517.82 142.687 518.359 142.831C518.904 142.975 519.306 143.286 519.259 143.521C519.216 143.757 519.528 143.866 519.962 143.763C520.57 143.617 520.613 143.674 520.158 144.026C519.65 144.414 519.65 144.492 520.126 144.594C520.433 144.658 520.634 144.971 520.57 145.289C520.502 145.643 520.824 145.603 521.411 145.183C522.464 144.426 522.877 144.355 522.475 145.001C522.332 145.234 522.475 145.602 522.792 145.819C523.125 146.045 523.427 145.957 523.49 145.614C523.559 145.267 524.115 145.114 524.808 145.25C525.569 145.399 525.934 145.706 525.807 146.092C525.67 146.511 525.992 146.696 526.839 146.686C528.219 146.67 529.769 145.72 529.96 144.768C530.044 144.361 530.15 144.434 530.251 144.971C530.372 145.621 530.473 145.482 530.695 144.351C531.071 142.485 530.854 140.788 530.235 140.666C529.965 140.613 529.88 140.355 530.044 140.091C530.208 139.827 530.087 139.543 529.775 139.459C528.738 139.181 528.129 138.736 527.563 137.841C527.061 137.038 525.511 137.005 525.358 137.794C525.326 137.937 525.522 137.971 525.786 137.87C526.051 137.77 526.389 138.132 526.537 138.676C526.775 139.527 526.765 139.59 526.447 139.132C526.167 138.722 526.088 138.829 526.119 139.594C526.141 140.188 525.961 140.724 525.665 140.929C524.929 141.438 524.437 141.219 525.12 140.686C525.564 140.341 525.389 140.237 524.427 140.264C523.718 140.284 522.94 139.985 522.681 139.595C522.327 139.061 522.067 139.02 521.623 139.427C521.142 139.861 521.015 139.778 520.962 138.997C520.925 138.465 520.951 137.859 521.02 137.651C521.089 137.442 520.946 137.232 520.697 137.183C520.449 137.135 520.242 136.818 520.237 136.479C520.237 136.14 519.825 135.707 519.327 135.517C518.83 135.327 518.333 134.784 518.222 134.31C518.111 133.836 517.867 133.597 517.687 133.779C517.502 133.96 517.524 133.718 517.73 133.241C518.195 132.174 517.608 131.95 517.127 133.011C516.82 133.686 516.73 133.659 516.354 132.777C515.947 131.835 515.915 131.834 515.73 132.765C515.561 133.591 515.503 133.615 515.371 132.913C515.138 131.665 515.254 131.425 516.175 131.245C516.762 131.131 517.063 130.747 517.18 129.98C517.36 128.76 516.423 127.637 515.122 127.509C513.905 127.389 512.98 126.515 513.149 125.646C513.26 125.087 512.974 124.861 512.075 124.793C510.758 124.693 508.705 123.686 508.065 122.825C507.748 122.397 507.796 122.312 508.319 122.38C508.674 122.427 509.705 122.496 510.61 122.535C513.408 122.654 517.016 123.374 518.232 124.057C519.068 124.525 519.364 124.532 519.29 124.081C519.222 123.694 519.333 123.594 519.576 123.821C519.803 124.035 520.322 123.645 520.819 122.877C521.433 121.939 521.575 121.484 521.332 121.281C521.099 121.091 521.221 120.794 521.708 120.378C522.364 119.813 522.337 119.766 521.417 119.841C520.861 119.886 520.613 119.821 520.861 119.696C521.792 119.236 521.47 118.513 520.232 118.269C519.423 118.111 518.904 118.257 518.819 118.665C518.724 119.141 518.656 119.112 518.555 118.556C518.465 118.081 518.306 117.981 518.111 118.287C517.788 118.807 517.391 118.684 516.529 117.795C516.233 117.491 515.524 117.134 514.947 117.002C513.635 116.699 513.456 115.329 514.762 115.585C515.281 115.687 515.825 115.443 516.016 115.023C516.243 114.524 516.153 114.243 515.736 114.162C515.402 114.096 515.069 113.729 514.995 113.345C514.81 112.345 513.725 110.99 513.323 111.26C513.138 111.387 512.943 111.236 512.89 110.924C512.837 110.613 512.392 110.281 511.911 110.186C511.424 110.091 510.324 109.482 509.462 108.833C508.097 107.808 507.997 107.613 508.684 107.36C509.118 107.199 511.816 107.559 514.678 108.159C517.539 108.76 520.105 109.1 520.38 108.915C520.666 108.723 520.925 108.843 520.983 109.194C521.11 109.918 530.933 112.373 531.309 111.773C531.436 111.563 531.742 111.573 531.981 111.796C532.277 112.071 532.277 112.295 531.986 112.491C531.753 112.65 531.996 112.866 532.525 112.97C533.06 113.074 533.541 112.938 533.594 112.665C533.647 112.393 533.853 112.508 534.049 112.921C534.25 113.334 534.541 113.526 534.71 113.347C534.874 113.169 534.736 112.513 534.403 111.889L533.805 110.754L534.551 111.159C535.212 111.514 535.234 111.488 534.763 110.947C533.98 110.057 532.451 109.834 531.409 110.457C530.393 111.065 529.357 110.597 529.552 109.615C529.642 109.163 529.05 108.836 527.606 108.54C526.31 108.273 525.495 108.327 525.426 108.684C525.363 108.997 525.209 108.836 525.082 108.326C524.913 107.656 524.115 107.159 522.2 106.535C520.74 106.06 518.708 105.165 517.677 104.545C516.651 103.927 515.355 103.308 514.799 103.171C514.244 103.034 513.133 102.463 512.334 101.902C510.964 100.946 511.139 100.953 515.127 102.009C517.471 102.629 519.597 103.182 519.862 103.238C520.126 103.294 523.321 104.492 526.966 105.899C530.61 107.306 534.604 108.73 535.842 109.063C537.08 109.396 537.995 109.83 537.873 110.029C537.752 110.226 538.27 110.51 539.026 110.66C539.783 110.808 541.629 111.522 543.126 112.245C545.697 113.483 551.928 115.461 551.161 114.796C550.965 114.626 550.928 114.289 551.077 114.049C551.23 113.808 550.95 113.52 550.458 113.41C549.971 113.3 549.151 112.668 548.643 112.007C548.135 111.347 547.474 110.532 547.173 110.198C546.189 109.098 528.352 100.356 524.035 98.8585C522.755 98.4143 519.068 97.0545 515.841 95.8364C512.614 94.6189 508.346 93.0681 506.356 92.3911C504.364 91.7141 502.109 90.687 501.345 90.1089C500.342 89.3499 499.863 89.2066 499.623 89.5927C499.317 90.0824 495.987 89.2796 492.061 87.7701C491.467 87.5416 489.574 86.9275 487.853 86.406C484.765 85.4693 480.175 83.4547 477.681 81.941C476.977 81.5137 476.24 81.2725 476.043 81.4052C475.847 81.5374 473.697 80.7229 471.265 79.5948C467.668 77.9261 466.686 77.6352 465.99 78.035C465.29 78.437 464.542 78.1999 461.871 76.7308C457.424 74.2851 451.62 71.1011 448.727 69.5197C447.41 68.7998 445.505 67.7055 444.495 67.0878C443.484 66.4705 442.184 65.8739 441.605 65.7618C441.027 65.6487 439.972 65.0959 439.262 64.531C438.066 63.5785 435.49 62.2774 428.554 59.1203C424.99 57.4987 424.278 57.1459 420.696 55.2313C419.046 54.3485 416.334 52.9607 414.67 52.1462C413.007 51.3322 411.237 50.4658 410.738 50.2215C407.206 48.492 406.492 48.3714 405.532 49.3425C405.014 49.8666 404.538 50.56 404.475 50.8831C404.412 51.2068 404.257 51.4226 404.132 51.3634C404.007 51.3042 403.571 51.2185 403.163 51.1735C402.543 51.1047 402.443 51.2602 402.551 52.1218C402.71 53.3833 402.272 53.9608 401.841 53.0585C401.357 52.0435 401.351 52.8702 401.831 54.4315C402.084 55.2503 402.751 56.0711 403.446 56.4165C404.46 56.92 404.551 57.1062 404.076 57.7097C403.364 58.6157 403.787 58.7638 384.115 50.7403C382.764 50.1892 380.316 49.3593 378.675 48.896C377.034 48.4327 374.086 47.4844 372.126 46.7889C370.166 46.0934 367.574 45.2354 366.367 44.8816C365.16 44.5278 363.651 43.8857 363.015 43.4546C362.378 43.0236 359.673 42.2281 357.005 41.687C354.335 41.146 351.981 40.5621 351.774 40.3896C351.26 39.9639 343.904 37.8625 342.101 37.6266C341.305 37.5229 340.369 37.717 340.024 38.0587C339.249 38.8241 337.699 38.6125 330.659 36.7799C327.422 35.9373 324.503 34.8911 323.603 34.2517C322.428 33.4165 320.321 32.8384 314.637 31.7907C310.55 31.0375 303.793 29.5693 299.621 28.5289C291.166 26.4202 291.623 26.5048 282.664 25.3962C276.864 24.678 273.56 24.0481 268.603 22.7152C267.737 22.4825 267.3 22.2344 267.633 22.1646C267.966 22.0942 268.286 21.7933 268.344 21.4955C268.414 21.1385 267.534 20.8815 265.757 20.7403C264.276 20.6223 259.858 20.1426 255.938 19.6745C252.018 19.2065 246.968 18.7109 244.717 18.5728C235.668 18.0196 232.224 17.7747 227.551 17.3516C215.864 16.2938 209.734 15.584 203.401 14.5542C200.485 14.0798 196.848 13.6117 195.317 13.5133C193.786 13.415 191.532 13.1166 190.308 12.8501C189.084 12.5846 186.601 12.3138 184.79 12.2498C182.979 12.1862 177.228 11.404 172.008 10.5118C166.789 9.61955 161.84 8.99243 161.01 9.11811C160.18 9.24385 158.347 9.25185 156.938 9.13611C155.528 9.02016 153.899 8.95659 153.318 8.99497C151.333 9.12631 148.319 8.88962 143.967 8.26059C140.134 7.70667 136.357 7.43936 130.724 7.32331C129.816 7.30532 128.557 7.25573 127.927 7.21475C127.297 7.17397 125.674 7.07882 124.322 7.00374C122.969 6.92858 120.685 6.78456 119.246 6.68371C117.808 6.58276 116.544 6.55796 116.439 6.62853C116.334 6.69909 115.403 6.73747 114.371 6.71409C113.339 6.6905 112.258 6.76128 111.969 6.87102C111.681 6.98077 110.16 6.89101 108.59 6.67132C104.277 6.06842 104.283 6.06811 104.119 6.90522C104.034 7.33246 103.814 7.65221 103.628 7.61577C103.442 7.57939 103.447 7.29726 103.64 6.98891C103.879 6.60656 103.791 6.5038 103.365 6.66598C103.021 6.79672 102.423 6.84169 102.035 6.76573C101.56 6.67257 101.249 6.96145 101.08 7.6542C100.78 8.881 100.941 8.97434 101.785 8.06123C102.666 7.10808 103.397 7.3358 102.951 8.42406C102.731 8.96011 102.741 9.09286 102.977 8.76922C103.238 8.41078 104.152 8.5129 105.846 9.0899C108.763 10.0831 111.046 10.4144 115.356 10.4693C117.083 10.4913 119.312 10.5389 120.308 10.5749C121.303 10.6109 122.303 10.5849 122.53 10.5157C122.756 10.4473 122.955 10.7611 122.973 11.2133C122.996 11.8221 123.278 11.994 124.056 11.8771C125.28 11.6936 126.045 11.683 129.184 11.8042C130.451 11.8527 131.59 11.8241 131.715 11.7396C131.983 11.5603 136.26 12.36 142.077 13.6775C145.768 14.5132 148.443 14.7295 150.543 14.3619C151.727 14.1546 159.46 15.48 159.383 15.8767C159.342 16.0803 158.307 16.2258 157.082 16.1993C155.856 16.1729 154.548 16.1873 154.175 16.2305C151.557 16.5362 144.786 16.1268 139.431 15.3398C138.19 15.1573 136.992 15.1362 136.769 15.2929C136.397 15.5531 126.379 14.8745 125.897 14.5566C125.782 14.4805 124.578 14.3705 123.222 14.3117C121.126 14.2214 115.805 13.8225 114.482 13.6569C114.004 13.5972 113.818 14.2551 114.165 14.774C114.415 15.1464 116.808 15.6895 119.032 15.8789C119.711 15.937 120.444 15.7006 120.66 15.3537C120.952 14.884 121.518 14.9067 122.868 15.4426C123.866 15.8388 124.761 16.2741 124.856 16.4105C124.951 16.5471 125.317 16.3475 125.668 15.9678C126.019 15.5875 126.343 15.4913 126.388 15.7536C126.476 16.2624 132.959 17.3229 134.932 17.1515C135.581 17.095 136.702 17.1145 137.423 17.1949C138.144 17.2749 139.106 17.1271 139.56 16.8664C140.22 16.4872 140.358 16.5306 140.249 17.0838C140.169 17.4905 140.53 17.9147 141.125 18.1141C143.585 18.9392 147.125 19.6003 150 19.7712C152.068 19.8945 152.922 20.097 152.543 20.3747C151.017 21.4954 153.246 22.632 157.056 22.6759C160.433 22.7151 161.022 22.7977 162.363 23.4201C163.055 23.7417 164.081 23.903 164.645 23.7792C166.128 23.4529 173.441 23.7932 176.621 24.3357C178.121 24.5916 180.313 24.8249 181.493 24.854C182.672 24.8826 185.025 25.0539 186.722 25.2348C188.419 25.4151 192.461 25.7272 195.703 25.9271C198.946 26.1276 203.745 26.5496 206.368 26.8643C210.642 27.3779 211.14 27.5308 211.172 28.34C211.201 29.109 211.732 29.3417 214.767 29.9166C216.725 30.2879 218.937 30.9073 219.681 31.2929L221.036 31.9947L218.528 32.1031C217.149 32.1622 215.519 32.1071 214.906 31.9783C214.293 31.8492 211.709 31.7123 209.165 31.6716C206.62 31.6308 201.829 31.3373 198.518 31.0189C195.207 30.7005 192.157 30.4889 191.74 30.5492C191.322 30.609 188.024 30.3139 184.409 29.8939C177.913 29.1386 173.349 28.6669 169.86 28.3902C168.872 28.3119 165.495 27.9893 162.355 27.6741C159.215 27.3583 156.419 27.1637 156.141 27.2409C155.863 27.3181 155.314 27.5011 154.921 27.6482C154.528 27.7947 153.64 27.8708 152.95 27.8179C152.26 27.7649 151.456 28.058 151.164 28.47C150.742 29.0645 149.872 29.0978 146.936 28.6336C144.903 28.3115 143.068 28.1633 142.858 28.304C142.648 28.4448 141.372 28.4859 140.022 28.395C133.57 27.9608 127.149 27.3769 124.225 26.9585C122.451 26.7046 118.621 26.4534 115.715 26.4005C112.807 26.3475 109.121 26.1287 107.522 25.9134C96.4562 24.4251 87.5588 23.5375 82.8096 23.4492C81.1745 23.4186 78.3308 23.2541 76.4894 23.0837C74.6485 22.9128 73.0272 22.9578 72.8865 23.1831C72.7463 23.4084 73.1028 23.7051 73.6794 23.8421C74.256 23.979 75.1236 24.2182 75.6081 24.3737C76.0921 24.5292 76.583 24.5048 76.6988 24.3191C76.8142 24.134 77.3934 24.3231 77.9853 24.7417C78.5857 25.1654 80.0139 25.5308 81.2184 25.5684C82.4049 25.606 88.5654 26.558 94.909 27.685C101.252 28.8116 108.842 30.0477 111.775 30.4316C117.004 31.1155 118.428 31.6026 114.928 31.5101C113.958 31.4841 113.072 31.5625 112.96 31.6836C112.659 32.0084 113.648 33.1513 114.575 33.5512C115.656 34.0171 115.883 34.7433 114.907 34.6106C114.478 34.5518 112.217 34.3556 109.882 34.1737C107.547 33.9924 102.988 33.4676 99.7502 33.008C94.4281 32.2527 93.8467 32.2596 93.6859 33.0804C93.4627 34.2191 92.1244 34.2371 84.2839 33.2037C81.1222 32.7875 78.4217 32.6282 78.2831 32.8509C78.1446 33.0736 77.4013 33.1323 76.6322 32.9817C74.0095 32.4676 74.4644 34.0416 77.4579 35.8378C78.3027 36.345 79.4797 36.8104 80.0732 36.8723C84.03 37.2843 82.8101 38.1041 78.2863 38.0729C76.4656 38.0609 73.9482 37.9662 72.6918 37.8635C71.4355 37.7603 69.1413 37.6693 67.593 37.6609C66.0447 37.6529 62.9523 37.4472 60.7205 37.205C57.9719 36.9072 56.5167 36.9638 56.2104 37.3811C55.9597 37.7222 54.7319 37.9523 53.4571 37.8968C52.1918 37.8412 50.9572 38.0523 50.7133 38.3659C50.4694 38.679 49.1898 38.8874 47.87 38.8282C46.5497 38.769 45.0807 39.0001 44.6051 39.3412C44.0597 39.7321 42.6077 39.8273 40.6769 39.5983C36.5144 39.1043 33.186 39.0582 32.9163 39.4909C32.6327 39.9458 35.2909 41.1956 35.8045 40.8491C36.0156 40.7068 36.1447 40.8115 36.0918 41.0813C36.0388 41.3516 35.4623 41.6271 34.8111 41.6933C33.5257 41.825 33.1696 42.4242 33.9451 43.1536C34.8597 44.0141 33.1961 44.7673 29.7302 45.0613C26.8191 45.3089 24.8863 45.9409 26.1476 46.2329C27.3332 46.5074 25.3118 47.059 23.3313 47.0019C22.1556 46.9675 20.9825 47.132 20.7246 47.3668C20.4667 47.6017 19.3005 47.8529 18.1331 47.9254C14.8894 48.1269 14.7959 48.7811 17.8651 49.7993C19.0119 50.1795 20 50.8349 20.2314 51.3675C20.556 52.1154 21.0953 52.3026 23.1799 52.3925C27.4189 52.5754 28.2101 52.8563 28.5676 54.3061C28.7425 55.0159 28.7916 55.7468 28.6765 55.9314C28.5616 56.1159 27.4674 56.2403 26.2448 56.2075C25.0224 56.1753 23.8426 56.3033 23.6232 56.4926C23.4038 56.6819 22.5096 56.8676 21.6361 56.9056C19.2387 57.0104 19.5651 57.8339 22.2091 58.3517C23.4968 58.604 24.6249 59.0064 24.716 59.246C24.8069 59.4856 26.1119 59.923 27.6157 60.2176C29.5171 60.59 30.3529 60.9586 30.3599 61.4272C30.3659 61.8895 29.9847 62.027 29.1456 61.8647C28.4723 61.7341 27.3764 61.7431 26.7107 61.8846C26.0449 62.0254 24.2552 62.0502 22.7336 61.9392C21.212 61.8281 19.7623 61.9232 19.5121 62.1513C19.2618 62.3793 19 62.4136 18.9302 62.2275C18.8605 62.0414 18.4313 62.0175 17.9766 62.1741C17.3383 62.3941 17.6445 62.6337 19.3201 63.2266C21.2974 63.9258 23.4717 65.137 24.5509 66.1393C25.2357 66.7756 23.9192 67.0697 20.1307 67.1262C18.2562 67.1542 16.6955 67.3155 16.6624 67.4848C16.6292 67.6536 15.6872 67.5124 14.569 67.1707C12.935 66.6719 12.5066 66.6989 12.3874 67.3072C12.2035 68.246 12.9132 69.9787 13.5263 70.0882C13.9029 70.1548 13.9158 70.066 13.6012 69.573C13.2775 69.0658 13.3058 68.9928 13.791 69.0806C14.1047 69.1372 14.3759 69.5624 14.3939 70.0252C14.4217 70.7419 14.9835 70.9339 18.1904 71.3221C22.209 71.8093 23.1157 72.3429 22.1062 73.6266C20.4155 75.7766 14.9281 77.3622 11.501 76.6905C9.43055 76.2854 8.22609 76.7025 7.99038 77.9044C7.87242 78.5063 8.35305 78.7601 10.3185 79.1351C11.6807 79.3953 13.418 79.4747 14.1792 79.3122C14.9403 79.1499 18.3185 79.4472 21.6862 79.9729C27.6415 80.9027 27.805 80.9577 27.6536 81.9795C27.5046 82.9844 26.9744 83.6255 26.2542 83.671C26.0694 83.683 24.6109 83.8275 23.0128 83.993C17.7826 84.5346 13.2212 84.5955 8.6453 84.1839C4.40584 83.8021 2.87264 84.1178 3.08117 85.329C3.12875 85.6051 3.33192 85.721 3.53267 85.5855C3.73345 85.4502 3.7978 85.6401 3.67562 86.0081C3.55266 86.3778 3.7078 86.6936 4.02273 86.7143C4.33572 86.7354 4.4874 86.92 4.35958 87.1247C4.23183 87.3299 4.58585 87.7414 5.14641 88.0397C6.35798 88.6839 6.48058 89.6771 5.52122 91.0766C5.00996 91.8219 4.87729 92.3 5.03207 92.8395C5.28592 93.7243 4.90932 94.2221 4.1054 94.0644C3.78347 94.0015 3.50108 94.0484 3.47769 94.1666C3.4543 94.2855 3.26092 94.7674 3.04779 95.2376C2.6918 96.0225 2.89743 96.1093 5.57345 96.306C7.17568 96.4234 9.05248 96.4869 9.74415 96.4467C10.7449 96.3885 10.9694 96.5383 10.8434 97.1814C10.7563 97.6257 10.8754 98.2445 11.1082 98.5571C11.709 99.3636 10.6854 102.262 9.65135 102.682C8.91199 102.982 8.90462 103.007 9.49979 103.192C10.1248 103.386 10.1248 103.386 9.39906 103.706C8.69119 104.019 9.52479 104.374 12.7641 105.144C14.1154 105.464 15.0115 106.364 14.842 107.229C14.7514 107.691 15.0269 108.038 15.5731 108.15C16.0551 108.249 16.7485 108.535 17.1137 108.787C17.7364 109.216 17.734 109.281 17.0749 109.83C16.6885 110.152 15.9778 110.346 15.4956 110.261C15.0134 110.177 13.5113 110.737 12.1575 111.507C10.792 112.283 9.23112 112.816 8.65189 112.702C6.71715 112.323 3.57003 112.392 3.64225 112.811C3.68163 113.04 3.47568 113.147 3.18477 113.05C2.89371 112.952 2.52568 113.264 2.36694 113.742C1.99829 114.853 3.49844 117.187 4.52517 117.1C4.93589 117.065 5.27433 117.301 5.27729 117.624C5.28329 118.386 8.96974 119.323 10.5857 118.974C11.272 118.826 14.5965 119.18 17.9735 119.761C23.6828 120.744 25.307 121.337 23.0463 121.613C22.5326 121.676 21.4193 121.837 20.5723 121.972C19.7253 122.108 18.4197 122.109 17.671 121.974C16.9223 121.84 16.264 121.964 16.2082 122.249C16.1525 122.534 15.8817 122.723 15.6068 122.669C15.3319 122.615 14.7618 122.769 14.3401 123.011C13.5815 123.447 13.5802 123.46 14.2096 124.212C15.3117 125.527 14.71 126.447 12.2865 127.152C11.043 127.513 9.89193 128.134 9.72847 128.533C9.56493 128.931 9.27772 129.367 9.09015 129.502C8.50002 129.926 8.77143 131.638 9.39149 131.403C9.7048 131.284 9.84512 131.312 9.70309 131.466C9.56114 131.619 9.69107 132.404 9.99394 133.208C10.391 134.267 10.916 134.769 11.8923 135.025C12.6346 135.219 13.154 135.52 13.0464 135.692C12.9391 135.864 14.2485 136.16 15.9563 136.35C18.4392 136.626 19.138 136.873 19.4432 137.585C19.8669 138.573 22.9319 139.547 24.6881 139.251C25.3588 139.138 25.8003 139.3 25.8663 139.683C25.9243 140.02 26.3107 140.362 26.725 140.443C27.6855 140.631 28.3909 141.285 28.2744 141.88C28.2246 142.134 27.9754 142.301 27.7207 142.251C27.4661 142.202 27.0665 142.49 26.8329 142.893C26.5693 143.347 25.1921 143.763 23.2041 143.986C19.2873 144.428 16.2231 145.676 16.2672 146.812C16.2832 147.248 16.5274 147.517 16.8076 147.411C17.088 147.304 17.1958 147.412 17.0473 147.65C16.8987 147.889 17.0115 148.883 17.298 149.861C17.6813 151.169 18.0052 151.585 18.5253 151.434C18.9169 151.321 19.1106 151.424 18.9598 151.665C18.8102 151.906 19.1828 152.223 19.7881 152.37C20.3933 152.518 21.8183 153.238 22.9548 153.969L25.0212 155.299L24.0667 156.391C23.5417 156.991 22.9794 157.456 22.817 157.425C22.6547 157.393 21.9544 157.649 21.2609 157.995C20.0518 158.598 20.0103 158.678 20.2498 159.921C20.4071 160.737 20.3575 161.313 20.1156 161.476C19.9044 161.618 19.7763 161.994 19.831 162.312C19.8952 162.685 20.0785 162.66 20.3476 162.241C20.6182 161.821 20.8123 161.795 20.9004 162.169C20.9752 162.485 21.4013 163.166 21.8474 163.681L22.6582 164.618L21.6133 164.596C20.4819 164.573 19.6366 165.787 20.3329 166.436C20.5682 166.655 20.8654 166.722 20.9932 166.583C21.1212 166.445 21.6186 166.861 22.0987 167.508C22.5788 168.155 23.4851 168.958 24.1127 169.291C24.7402 169.625 25.3857 170.25 25.5469 170.68C25.929 171.698 26.1521 171.721 29.3598 171.072C32.2386 170.489 32.9686 170.738 33.7435 172.572C34.181 173.607 34.4206 173.7 36.1869 173.527C38.5038 173.299 42.6425 174.023 42.2865 174.593C42.15 174.813 40.9334 175.076 39.583 175.18C36.1425 175.443 35.7373 175.565 36.1678 176.207C36.9142 177.321 32.3238 178.704 28.1163 178.634C26.9801 178.614 25.945 178.769 25.8162 178.976C25.6872 179.182 25.7614 180.032 25.9809 180.863C26.3494 182.26 26.3269 182.438 25.6849 183.197C25.3027 183.648 24.965 184.145 24.9345 184.301C24.8091 184.941 30.3957 185.079 32.3577 184.485C35.1787 183.629 40.5473 183.654 40.8737 184.523C41.0462 184.983 40.9795 185.336 40.6378 185.77C40.176 186.358 39.6089 186.536 34.9888 187.553C33.5479 187.87 32.7724 188.291 32.6709 188.81C32.5423 189.465 32.9052 189.608 34.955 189.706C36.516 189.78 37.4274 190.028 37.4909 190.397C37.5454 190.714 37.4141 190.938 37.1989 190.896C36.9836 190.854 36.8582 190.955 36.9201 191.12C37.0661 191.509 41.8894 190.855 42.4511 190.37C42.8928 189.989 47.7832 189.737 48.7555 190.046C49.056 190.141 49.2448 190.511 49.1745 190.868C49.1047 191.225 49.0601 191.845 49.0761 192.246C49.103 192.94 44.941 193.518 37.9104 193.795C36.854 193.837 35.3999 194.121 34.6789 194.428C33.9584 194.735 32.9189 194.899 32.3693 194.793C30.9226 194.514 28.6448 195.133 28.8737 195.743C28.9796 196.025 30.8707 196.679 33.0755 197.195C35.2808 197.712 37.0529 198.169 37.0143 198.211C36.9757 198.254 36.1457 198.602 35.1697 198.985C33.4696 199.652 33.4204 199.713 33.9933 200.449C34.4419 201.024 35.0163 201.155 36.2917 200.973C38.3674 200.678 38.6245 200.719 38.5055 201.327C38.4541 201.59 37.9527 201.873 37.3915 201.957C35.5242 202.237 35.7701 202.985 37.8638 203.396C39.0826 203.634 40.2506 204.204 40.7542 204.806C41.2641 205.415 41.9084 205.726 42.3776 205.59C43.38 205.3 58.4052 208.057 58.1396 208.483C57.5773 209.385 61.7663 210.201 65.5321 209.922C73.1573 209.358 79.5358 209.437 83.5216 210.147C85.7238 210.539 89.0971 210.834 91.0178 210.804C92.938 210.774 96.3325 210.857 98.561 210.989C100.789 211.12 102.721 211.156 102.855 211.069C102.988 210.981 104.204 210.971 105.557 211.047C106.909 211.124 108.538 211.186 109.176 211.186C110.505 211.185 116.433 211.8 120.711 212.381C123.806 212.801 128.548 213.235 131.784 213.395C132.867 213.449 137.006 214.026 140.98 214.678C144.955 215.331 149.682 215.955 151.483 216.066C153.285 216.176 158.174 216.96 162.348 217.807C168.66 219.088 169.963 219.485 170.09 220.17C170.22 220.868 170.308 220.891 170.672 220.326C170.957 219.882 171.395 219.824 171.984 220.15C172.471 220.421 173.074 220.418 173.328 220.142C173.581 219.868 174.272 219.688 174.864 219.741C175.455 219.795 176.253 219.757 176.638 219.657C178.731 219.113 180.777 219.236 181.471 219.948C182.029 220.52 183.741 220.309 183.633 219.682C183.593 219.451 185.178 219.514 187.156 219.821C192.48 220.651 193.047 220.664 193.803 219.976C194.417 219.417 194.46 219.456 194.188 220.334C193.98 221.002 194.048 221.292 194.397 221.23C194.68 221.181 195.236 221.199 195.632 221.271C196.029 221.342 196.388 221.222 196.431 221.003C196.474 220.784 196.768 220.507 197.086 220.386C197.505 220.227 197.567 220.378 197.313 220.939C197.072 221.471 197.11 221.608 197.438 221.381C197.699 221.199 199.292 221.245 200.978 221.482C204.523 221.981 204.001 221.881 220.471 225.206C227.399 226.605 233.989 227.754 235.115 227.761C236.241 227.767 237.374 227.972 237.633 228.213C238.111 228.658 248.409 231.369 251.633 231.898C254.154 232.312 256.527 235.259 254.779 235.804C254.518 235.885 254.61 236.284 255.002 236.78C255.367 237.241 255.707 237.831 255.758 238.09C255.94 239.028 258.556 240.044 259.456 239.527C260.024 239.2 261.339 239.301 263.336 239.823C264.997 240.258 270.481 241.549 275.522 242.693C280.563 243.836 285.009 244.982 285.401 245.239C285.793 245.497 287.571 246.029 289.351 246.423C291.131 246.817 292.824 247.458 293.112 247.847C293.628 248.543 296.405 250.063 296.943 249.945C297.606 249.798 298.727 250.087 299.69 250.653C300.262 250.989 301.026 251.281 301.386 251.302C301.747 251.323 302.337 251.356 302.698 251.374C303.059 251.394 304.666 251.949 306.268 252.61C307.871 253.272 309.804 253.93 310.564 254.073C311.325 254.215 312.073 254.586 312.226 254.896C312.38 255.206 312.942 255.713 313.473 256.023C314.265 256.483 314.471 256.427 314.612 255.709C314.764 254.933 315.04 254.926 317.027 255.653C318.26 256.104 321.558 256.977 324.354 257.593C327.151 258.209 330.159 259.139 331.04 259.659C331.92 260.178 332.71 260.617 332.795 260.634C332.881 260.65 332.703 260.979 332.401 261.363C332.099 261.748 331.366 261.967 330.773 261.851C330.18 261.735 329.675 261.737 329.652 261.857C329.629 261.976 329.45 262.425 329.255 262.854C328.769 263.926 329.679 264.047 330.614 263.035C331.144 262.462 331.348 262.428 331.353 262.914C331.357 263.284 331.516 263.48 331.708 263.35C331.9 263.221 332.021 263.304 331.975 263.534C331.93 263.765 332.211 264.045 332.599 264.158C332.987 264.27 335.121 264.991 337.341 265.761C339.56 266.53 344.087 267.788 347.401 268.556C350.715 269.323 353.761 270.15 354.169 270.392C355.553 271.213 363.49 274.042 367.804 275.252C375.796 277.494 381.584 280.584 382.418 283.055C382.678 283.828 383.268 284.526 383.766 284.651C387.854 285.678 393.454 287.5 395.857 288.584C396.862 289.038 398.643 289.745 399.814 290.156C400.985 290.567 402.621 291.266 403.449 291.71C404.278 292.154 405.008 292.528 405.072 292.54C405.136 292.552 405.305 291.967 405.448 291.238L405.445 291.239ZM406.369 286.527C406.48 285.96 406.629 285.945 407.032 286.462C407.343 286.86 407.416 287.429 407.214 287.875C406.953 288.449 406.801 288.464 406.55 287.94C406.372 287.565 406.29 286.929 406.369 286.527V286.527ZM354.083 268.285C352.976 267.314 353.009 267.309 355.614 268.082C361.579 269.85 363.425 270.516 363.355 270.873C363.223 271.549 355.273 269.33 354.083 268.285V268.285ZM503.606 291.082C503.627 290.971 503.861 290.921 504.124 290.973C504.387 291.024 504.559 291.292 504.505 291.568C504.451 291.844 504.217 291.893 503.986 291.678C503.755 291.462 503.583 291.194 503.606 291.082ZM480.803 284.79C480.749 284.476 481.055 284.302 481.505 284.391C481.944 284.476 482.347 284.797 482.4 285.103C482.454 285.418 482.148 285.592 481.697 285.503C481.258 285.418 480.856 285.097 480.803 284.79V284.79ZM496.488 285.111C496.592 284.577 496.984 284.602 497.607 285.182C498.31 285.838 497.974 286.418 497.147 285.973C496.735 285.751 496.438 285.363 496.488 285.112V285.111ZM315.854 249.638C314.861 248.932 314.748 248.714 315.326 248.612C316.242 248.451 326.264 251.133 331.559 252.957C332.998 253.452 321.476 251.716 319.162 251.089C318.036 250.784 316.548 250.131 315.854 249.638ZM305.099 245.876C304.774 245.672 305.439 245.707 306.575 245.954C309.289 246.543 310.274 247.23 308.471 247.276C307.739 247.296 306.813 247.071 306.414 246.778C306.016 246.485 305.424 246.079 305.099 245.876V245.876ZM508.81 285.941C508.16 285.782 508.17 285.755 509.001 285.421C509.985 285.028 510.677 285.455 510.503 286.347C510.439 286.672 510.186 286.751 509.942 286.523C509.699 286.296 509.191 286.034 508.81 285.941ZM300.388 244.505C300.329 244.35 300.928 244.309 301.717 244.414C302.506 244.518 303.2 244.884 303.259 245.227C303.335 245.664 302.939 245.691 301.93 245.318C301.14 245.026 300.446 244.661 300.388 244.505V244.505ZM51.9301 189.48C51.8709 189.136 52.4146 189.062 53.3578 189.286C54.7104 189.607 54.7649 189.671 53.846 189.856C52.3358 190.159 52.037 190.1 51.9301 189.48V189.48ZM545.506 278.275C545.765 278.171 546.035 278.243 546.109 278.436C546.177 278.629 545.966 278.715 545.632 278.626C545.267 278.529 545.215 278.391 545.506 278.276V278.275ZM541.866 276.855C541.29 276.396 541.274 276.305 541.792 276.393C542.141 276.454 542.681 276.76 542.982 277.074C543.686 277.8 542.845 277.636 541.866 276.855V276.855ZM537.544 276.219C537.296 275.991 537.179 275.387 537.28 274.874C537.439 274.081 537.655 274.023 538.766 274.485C540.173 275.069 540.962 276.14 539.814 275.915C539.438 275.842 538.999 275.997 538.835 276.261C538.491 276.812 538.169 276.802 537.544 276.219V276.219ZM20.6395 165.603C20.6952 165.319 20.9917 165.138 21.2981 165.203C21.7742 165.303 21.7713 165.38 21.2779 165.729C20.5516 166.242 20.5156 166.235 20.6394 165.603H20.6395ZM535.529 244.592C535.788 244.487 536.058 244.56 536.132 244.753C536.206 244.945 535.994 245.031 535.661 244.943C535.291 244.845 535.243 244.707 535.529 244.592V244.592ZM538.438 243.593C538.602 242.749 539.512 242.828 540.533 243.776C541.655 244.808 541.242 245.3 539.697 244.784C538.756 244.471 538.343 244.079 538.438 243.593V243.593ZM532.434 242.805C532.916 242.03 534.101 242.041 533.947 242.819C533.863 243.255 533.477 243.483 532.99 243.387C532.54 243.299 532.292 243.037 532.434 242.806V242.805ZM534.968 242.698C534.683 242.255 534.894 242.16 535.783 242.329C536.444 242.453 536.936 242.789 536.883 243.074C536.751 243.733 535.465 243.481 534.968 242.698V242.698ZM14.6307 77.8419C14.6864 77.5574 14.8758 77.3521 15.0514 77.3865C15.227 77.4209 15.3249 77.6822 15.2691 77.9672C15.2133 78.2518 15.024 78.457 14.8484 78.4226C14.6729 78.3883 14.5748 78.127 14.6307 77.8419V77.8419ZM14.2099 67.7234C14.4575 67.6224 14.8167 67.6928 15.008 67.8795C15.1994 68.0662 14.996 68.1487 14.5579 68.0624C14.1188 67.9767 13.9622 67.8239 14.2099 67.7234ZM20.2211 62.4238C20.6403 62.3778 21.2869 62.5047 21.6578 62.7051C22.0287 62.9062 21.6856 62.9437 20.8955 62.7893C20.1053 62.6344 19.8018 62.4699 20.2211 62.4239V62.4238ZM35.8063 61.1359C35.8497 60.9137 37.1245 60.6884 38.6395 60.6345C40.1545 60.5805 41.771 60.4426 42.2323 60.3277C42.7533 60.1982 42.9591 60.2987 42.7756 60.5932C42.6126 60.854 41.158 61.1163 39.543 61.1761C37.9275 61.2359 36.4479 61.331 36.2543 61.3866C36.0612 61.4426 35.8634 61.4997 35.8152 61.5135C35.7667 61.5275 35.7629 61.3576 35.8073 61.1359H35.8063ZM502.386 147.58C501.894 147.071 501.928 147.024 502.701 147.142C503.178 147.214 503.611 147.524 503.663 147.83C503.777 148.495 503.152 148.372 502.386 147.58ZM39.5715 53.7635C39.6197 53.5186 41.1527 53.3351 42.9787 53.3552C47.0916 53.4007 47.8072 53.5255 47.2724 54.1041C47.0476 54.3468 45.2459 54.4442 43.2681 54.3204C41.2907 54.1961 39.6303 54.12 39.5784 54.1511C39.5267 54.1823 39.5234 54.0078 39.5724 53.7634L39.5715 53.7635ZM522.109 141.853C522.061 141.598 522.236 141.43 522.495 141.48C522.749 141.53 522.918 141.765 522.87 142.003C522.828 142.24 522.654 142.408 522.49 142.376C522.32 142.344 522.151 142.108 522.109 141.853ZM479.581 132.527C479.841 132.423 480.113 132.495 480.185 132.688C480.257 132.881 480.045 132.966 479.713 132.878C479.346 132.78 479.294 132.642 479.581 132.527V132.527ZM529.261 141.551C529.319 141.266 529.615 141.086 529.916 141.151C530.393 141.251 530.393 141.328 529.901 141.677C529.171 142.19 529.139 142.183 529.261 141.551L529.261 141.551ZM528.139 140.493C528.166 140.368 528.33 140.293 528.504 140.328C528.679 140.362 528.774 140.637 528.716 140.939C528.657 141.24 528.494 141.315 528.351 141.105C528.213 140.894 528.118 140.619 528.139 140.493V140.493ZM510.651 133.322C510.249 133.037 508.953 132.413 507.773 131.934C506.59 131.456 505.168 130.719 504.613 130.298C504.057 129.876 503.599 129.551 503.594 129.575C503.555 129.774 501.585 128.237 500.646 127.276C499.222 125.817 499.289 124.924 500.8 125.22C501.581 125.373 501.964 125.204 502.07 124.662C502.226 123.866 500.859 123.271 498.434 123.08C497.377 122.997 494.603 121.527 494.053 120.758C493.642 120.184 495.358 119.963 497.471 120.319C498.846 120.55 499.939 121.143 501.199 122.34C502.179 123.272 503.277 124.096 503.638 124.171C504.161 124.28 504.181 124.386 503.738 124.693C503.432 124.904 503.089 124.94 502.976 124.772C502.863 124.604 502.728 124.688 502.676 124.957C502.585 125.421 503.219 125.885 505.525 127.041C506.077 127.318 506.542 127.888 506.558 128.308C506.583 128.931 506.703 128.968 507.218 128.508C507.747 128.037 507.795 128.072 507.504 128.725C507.25 129.295 507.345 129.517 507.858 129.552C508.244 129.578 508.995 129.905 509.53 130.277C510.201 130.747 510.672 130.794 511.074 130.429C511.397 130.133 511.608 130.127 511.55 130.415C511.439 130.986 513.55 133.097 514.401 133.264C514.703 133.323 514.888 133.689 514.814 134.079C514.708 134.606 514.253 134.666 513.026 134.314C512.116 134.054 511.048 133.608 510.651 133.323L510.651 133.322ZM501.197 111.967C501.452 111.887 501.764 112.099 501.891 112.436C502.052 112.867 501.914 112.91 501.427 112.58C501.032 112.313 500.933 112.05 501.197 111.967V111.967ZM115.975 34.3706C116.016 34.1569 116.497 34.0184 117.042 34.0623C117.609 34.1078 117.909 34.3389 117.744 34.6028C117.407 35.1439 115.862 34.9408 115.975 34.3706ZM501.325 106.473L500.534 106.277L501.374 105.939C502.322 105.556 503.687 106.261 503.531 107.053C503.475 107.342 503.135 107.373 502.772 107.123C502.411 106.874 501.759 106.582 501.325 106.473ZM119.146 31.7203C119.192 31.4828 119.446 31.331 119.709 31.3823C119.973 31.4341 120.15 31.6706 120.103 31.9081C120.057 32.1455 119.803 32.2973 119.54 32.2455C119.277 32.1941 119.099 31.9578 119.146 31.7203ZM117.793 31.5362C118.053 31.4315 118.325 31.504 118.397 31.6969C118.47 31.89 118.257 31.9751 117.925 31.8868C117.558 31.7891 117.507 31.6514 117.793 31.5361V31.5362ZM496.003 104.553C496.263 104.448 496.535 104.52 496.607 104.713C496.679 104.906 496.467 104.992 496.135 104.903C495.768 104.806 495.716 104.668 496.003 104.553V104.553ZM531.953 110.887C532.011 110.602 532.202 110.397 532.376 110.432C532.551 110.466 532.646 110.727 532.593 111.012C532.535 111.297 532.35 111.502 532.17 111.468C531.995 111.433 531.9 111.172 531.953 110.887V110.887ZM523.918 107.903C524.034 107.322 524.531 107.949 524.563 108.708C524.59 109.452 524.537 109.475 524.241 108.848C524.039 108.436 523.897 108.01 523.918 107.903V107.903ZM520.712 107.34C520.797 106.914 520.924 106.575 520.993 106.588C521.061 106.602 521.13 106.979 521.151 107.426C521.167 107.873 521.04 108.212 520.871 108.178C520.702 108.145 520.633 107.768 520.712 107.34H520.712ZM106.209 7.75529C106.469 7.65074 106.741 7.72309 106.813 7.91579C106.885 8.1087 106.673 8.19422 106.341 8.1057C105.974 8.00815 105.922 7.87051 106.209 7.75505L106.209 7.75529ZM402.219 54.8546C402.17 54.5701 402.286 54.231 402.477 54.102C402.669 53.9728 402.84 54.2315 402.857 54.6769C402.891 55.5549 402.364 55.7014 402.219 54.8546ZM510.201 306.818C510.455 306.498 510.54 306.204 510.387 306.166C510.233 306.128 510.429 305.895 510.82 305.65C511.815 305.021 511.206 304.194 509.54 303.927C508.673 303.788 508.44 303.871 508.831 304.183C509.376 304.623 509.572 306.03 509.069 305.916C508.138 305.705 507.594 304.896 507.89 304.16C508.175 303.443 508.138 303.442 507.583 304.154C506.827 305.121 504.358 304.843 504.347 303.789C504.34 303.254 504.21 303.233 503.712 303.683C502.928 304.393 502.165 306.343 502.755 306.13C502.985 306.047 503.188 305.657 503.206 305.262C503.229 304.76 503.366 304.839 503.66 305.527C503.996 306.312 504.651 306.6 506.911 306.956C508.71 307.238 509.91 307.189 510.201 306.819V306.818ZM514.809 306.535C515.317 306.192 515.338 305.001 514.835 304.903C514.47 304.831 513.867 306.231 514.105 306.589C514.211 306.748 514.528 306.723 514.809 306.535L514.809 306.535ZM508.868 301.045C509.403 300.197 509.392 300.062 508.768 299.867C508.376 299.746 507.853 299.566 507.599 299.469C506.774 299.151 506.523 299.593 506.885 300.71C507.345 302.12 508.112 302.25 508.868 301.045V301.045ZM316.226 259.304C316.251 259.178 316.155 258.903 316.014 258.693C315.873 258.482 315.709 258.557 315.65 258.859C315.591 259.16 315.686 259.435 315.862 259.47C316.037 259.504 316.201 259.429 316.226 259.304V259.304ZM312.549 258.216C312.402 257.82 312.176 257.61 312.046 257.751C311.917 257.891 312.038 258.215 312.314 258.471C312.714 258.841 312.762 258.789 312.549 258.216V258.216ZM484.187 290.36C484.236 290.11 484.113 289.563 483.914 289.145C483.632 288.555 483.439 288.507 483.047 288.932C482.655 289.357 482.627 289.608 482.923 290.06C483.404 290.796 484.071 290.954 484.187 290.36H484.187ZM124.666 215.023C124.722 214.738 124.561 214.464 124.308 214.415C124.054 214.365 123.713 214.54 123.549 214.804C123.385 215.067 123.545 215.341 123.907 215.412C124.269 215.483 124.61 215.308 124.666 215.023ZM130.202 215.536C130.317 214.946 129.471 214.718 129.139 215.25C129.009 215.459 129.174 215.718 129.504 215.826C129.836 215.933 130.149 215.803 130.202 215.536V215.536ZM446.979 276.726C447.505 275.567 447.102 275.303 445.826 275.969C445.16 276.317 444.752 276.664 444.919 276.741C446.2 277.333 446.705 277.33 446.979 276.725V276.726ZM171.147 221.44C171.203 221.155 171.185 220.909 171.108 220.894C171.03 220.878 170.832 221.082 170.668 221.345C170.504 221.609 170.522 221.855 170.708 221.891C170.894 221.928 171.092 221.724 171.147 221.44V221.44ZM175.838 221.893C176.046 221.559 176.158 221.129 176.086 220.937C175.891 220.418 175.446 221.038 175.453 221.819C175.457 222.367 175.534 222.382 175.838 221.892V221.893ZM174.646 221.769C175.384 221.469 175.321 220.721 174.572 220.879C174.192 220.959 173.84 221.231 173.791 221.483C173.694 221.976 173.937 222.057 174.647 221.769H174.646ZM22.0949 189.192C22.579 188.669 22.5641 188.03 22.0657 187.932C21.8022 187.88 21.5183 188.188 21.4345 188.615C21.276 189.424 21.6109 189.716 22.0949 189.192H22.0949ZM418.933 263.639C419.064 263.431 418.896 263.17 418.562 263.061C418.227 262.952 417.994 263.098 418.043 263.386C418.153 264.024 418.612 264.155 418.933 263.639V263.639ZM416.23 262.186C416.212 261.742 415.966 261.314 415.682 261.236C415.398 261.157 414.539 260.862 413.774 260.579C412.771 260.207 412.488 260.236 412.759 260.682C413.07 261.192 413.056 261.286 412.681 261.219C412.432 261.175 412.289 261.301 412.363 261.5C412.438 261.7 413.346 262.117 414.38 262.428C415.947 262.899 416.256 262.859 416.23 262.186H416.23ZM546.764 286.456C547.124 285.883 546.643 285.151 546.135 285.494C545.707 285.783 545.759 286.76 546.209 286.847C546.362 286.878 546.611 286.702 546.764 286.456V286.456ZM546.389 272.394C546.442 272.126 546.368 271.737 546.23 271.529C546.082 271.312 545.987 271.509 546.008 271.991C546.045 272.93 546.241 273.139 546.389 272.394V272.394ZM544.098 271.669C544.178 271.254 544.098 271.013 543.919 271.134C543.744 271.254 543.638 271.585 543.686 271.87C543.813 272.599 543.929 272.542 544.098 271.669ZM0.978455 95.0657C1.29594 94.8409 1.41204 94.6294 1.23642 94.595C1.06088 94.5606 0.657374 94.7161 0.339887 94.9403C0.0223991 95.1651 -0.0936365 95.3767 0.0819214 95.4111C0.257459 95.446 0.660907 95.2899 0.978455 95.0657ZM533.059 159.39C533.101 159.166 532.852 158.926 532.498 158.857C532.149 158.788 531.815 158.951 531.768 159.218C531.715 159.485 531.964 159.725 532.323 159.751C532.683 159.776 533.016 159.614 533.059 159.39ZM521.178 149.165L522.119 148.328L520.289 147.543C519.284 147.111 517.708 146.596 516.792 146.399C515.872 146.202 515.153 145.883 515.19 145.689C515.269 145.286 513.211 145.716 512.809 146.187C512.661 146.358 513.016 146.448 513.587 146.387C514.232 146.319 514.93 146.654 515.407 147.258C515.835 147.796 516.93 148.408 517.845 148.616C518.766 148.824 519.474 149.182 519.432 149.411C519.289 150.154 520.215 150.023 521.178 149.165V149.165ZM525.172 150.106C525.103 149.913 524.828 149.841 524.569 149.945C524.283 150.061 524.336 150.198 524.701 150.296C525.034 150.384 525.246 150.3 525.172 150.106V150.106ZM532.382 144.09C532.503 143.547 532.487 143.226 532.35 143.378C532.207 143.529 532.112 143.973 532.128 144.365C532.149 144.798 532.249 144.69 532.382 144.09V144.09ZM524.516 138.029C524.473 137.777 524.812 137.221 525.272 136.792C526.087 136.025 526.076 135.982 524.42 134.11C522.431 131.855 522.225 131.773 521.961 133.129C521.834 133.768 521.971 134.211 522.315 134.283C522.765 134.378 522.77 134.471 522.331 134.775C522.029 134.982 521.537 135.017 521.236 134.853C520.934 134.689 520.638 134.793 520.58 135.083C520.527 135.374 520.955 135.661 521.532 135.722C522.114 135.783 522.87 135.917 523.214 136.019C523.738 136.173 523.748 136.272 523.267 136.612C522.775 136.961 522.77 137.038 523.246 137.138C523.553 137.203 523.759 137.489 523.701 137.773C523.648 138.058 523.823 138.335 524.098 138.389C524.373 138.442 524.558 138.281 524.515 138.029L524.516 138.029ZM521.252 133.05C521.638 132.791 521.67 132.572 521.395 132.004C521.014 131.208 520.485 131.735 520.659 132.737C520.717 133.095 520.982 133.233 521.252 133.05H521.252ZM536.597 113.41C536.761 113.146 536.682 112.889 536.418 112.837C536.153 112.786 535.804 112.959 535.64 113.222C535.476 113.486 535.555 113.744 535.82 113.796C536.084 113.847 536.433 113.674 536.597 113.41ZM530.514 109.811C530.229 108.821 530.065 108.692 529.932 109.358C529.885 109.612 530.049 110.014 530.303 110.249C530.689 110.608 530.721 110.536 530.514 109.811V109.811ZM80.9378 13.0589C80.6828 12.3788 78.7314 11.5024 78.2363 11.8456C77.9511 12.0429 77.8559 12.2597 78.0252 12.3264C79.6809 12.9828 81.0372 13.3239 80.9378 13.0589ZM83.0013 12.7998C83.3203 12.5787 83.1511 12.3893 82.5258 12.2666C81.992 12.1625 81.517 12.2706 81.4704 12.5083C81.3625 13.0595 82.3544 13.2483 83.0013 12.7992V12.7998ZM91.3391 13.7465C92.8033 13.518 96.1909 13.8121 102.452 14.7112C104.596 15.0191 106.71 15.0645 107.149 14.8122C107.627 14.5377 109.093 14.6371 110.8 15.0608C112.369 15.4495 113.663 15.715 113.675 15.6499C113.711 15.4696 112.15 13.5883 111.93 13.5449C111.823 13.5243 111.779 13.7575 111.831 14.0632C111.887 14.388 111.52 14.5403 110.95 14.4287C110.413 14.3234 110.019 14.0045 110.075 13.7194C110.131 13.4349 110.025 13.172 109.839 13.1355C109.653 13.099 109.551 13.3815 109.613 13.7633C109.697 14.2769 109.633 14.2976 109.369 13.8433C109.172 13.5053 108.719 13.1991 108.361 13.1631C108.004 13.1266 106.941 12.9822 106.001 12.8421C105.06 12.7014 104.323 12.7744 104.363 13.004C104.403 13.2336 103.557 13.214 102.485 12.9607C101.412 12.7068 100.241 12.6676 99.8811 12.8729C99.4452 13.122 99.2648 13.0574 99.3388 12.6794C99.4002 12.3679 99.2421 12.2526 98.9881 12.4239C98.7342 12.5953 97.2869 12.5583 95.7719 12.3426C94.2569 12.1262 93.0123 11.9771 93.0054 12.0109C92.9994 12.0447 92.26 12.007 91.3639 11.9274C90.4679 11.848 89.6892 11.8274 89.6326 11.8818C89.5368 11.9749 89.1771 12.0669 88.5852 12.151C88.3138 12.189 89.5178 13.9868 89.8035 13.9699C89.896 13.9639 90.5869 13.8642 91.3391 13.7467L91.3391 13.7465ZM104.777 13.6905C104.825 13.4414 105.144 13.2917 105.485 13.3589C105.826 13.4255 106.143 13.699 106.189 13.9672C106.235 14.2348 105.916 14.3845 105.48 14.2988C105.044 14.2136 104.728 13.9396 104.777 13.6905ZM87.9927 8.84755C88.1598 8.57967 88.4043 8.52074 88.5355 8.71661C88.6666 8.91251 88.8201 8.83974 88.8756 8.55488C89.0724 7.55212 88.5603 7.43535 87.9843 8.35174C87.6643 8.86144 87.467 9.29112 87.5458 9.30656C87.6246 9.32255 87.8256 9.11544 87.9927 8.84761V8.84755ZM95.2228 8.16643C95.6666 7.68635 96.075 7.41474 96.1306 7.56273C96.1862 7.71085 96.9156 8.0471 97.7519 8.31013C99.2008 8.76573 101.246 8.05854 100.929 7.21192C100.674 6.53423 98.4422 6.2438 97.8312 6.80892C97.2059 7.38755 96.303 7.23397 96.0285 6.50197C95.7973 5.88602 94.1453 5.6875 93.8041 6.23471C93.3397 6.97956 93.4465 8.84876 93.959 8.94925C94.2108 8.99842 94.7795 8.64609 95.2233 8.16613L95.2228 8.16643ZM91.8506 7.91555C92.0564 7.58525 92.0283 7.47494 91.7808 7.64176C91.5528 7.79548 91.3227 7.66673 91.2688 7.35565C91.1244 6.51654 90.699 6.58198 90.525 7.47C90.3463 8.38235 91.3492 8.71949 91.8507 7.91555H91.8506ZM465.867 77.1798C465.795 76.9867 465.523 76.9143 465.263 77.0191C464.976 77.1344 465.028 77.2719 465.395 77.3697C465.727 77.4581 465.939 77.3737 465.867 77.1798V77.1798ZM404.344 49.8559C404.4 49.5714 404.382 49.3259 404.305 49.3106C404.227 49.2946 404.029 49.4989 403.865 49.7623C403.701 50.0257 403.719 50.2711 403.905 50.3076C404.091 50.3442 404.289 50.1411 404.344 49.8559V49.8559ZM396.889 48.4501C397.525 47.9371 397.575 47.03 396.96 47.1596C396.568 47.2421 396.377 46.9857 396.444 46.4656C396.503 46.0119 396.595 45.2862 396.65 44.853C396.704 44.4204 396.491 43.9851 396.176 43.8867C395.862 43.7877 395.506 43.6381 395.385 43.5535C395.265 43.4683 394.772 43.1272 394.291 42.794C393.219 42.054 392.733 41.1666 393.087 40.5985C393.232 40.3647 393.067 40.1183 392.721 40.05C392.374 39.9823 391.96 40.2034 391.801 40.5419C391.601 40.9698 391.465 40.9725 391.358 40.5499C391.082 39.4709 390.165 38.9711 389.517 39.5471C388.996 40.0099 388.96 39.9887 389.306 39.4237C389.623 38.9054 389.573 38.7991 389.098 38.9795C388.754 39.1102 388.279 39.1794 388.042 39.1328C387.804 39.0862 387.437 39.4734 387.225 39.9933C386.978 40.6005 386.653 40.811 386.314 40.582C385.567 40.0769 385.902 38.8128 386.676 39.219C387.287 39.5401 387.289 39.5326 386.76 38.9302C386.462 38.5912 385.735 38.2014 385.144 38.065C384.554 37.9284 383.237 37.4165 382.218 36.9267C379.577 35.6573 372.829 33.0181 369.712 32.0349C368.252 31.5742 366.43 30.9787 365.662 30.711C364.043 30.1467 360.831 29.1243 356.612 27.8301C354.978 27.3292 352.732 26.6078 351.622 26.2275C348.953 25.313 344.64 24.4387 343.969 24.6768C343.675 24.7805 342.789 24.9253 342 24.9978C341.211 25.0704 340.532 25.3009 340.491 25.5109C340.449 25.7203 340.658 26.5374 340.954 27.3266C341.393 28.4949 341.793 28.8107 343.109 29.0254C344.07 29.1819 344.641 29.4935 344.515 29.7929C344.399 30.0695 343.195 30.0986 341.839 29.8568C339.708 29.4776 338.163 29.8708 338.5 30.7057C338.651 31.0791 342.82 32.2358 342.881 31.9211C342.91 31.7666 343.89 31.9031 345.058 32.2252C346.227 32.5463 348.048 32.7594 349.106 32.6976C350.165 32.6358 351.077 32.7095 351.134 32.8605C351.19 33.0118 351.844 33.3058 352.585 33.5131C353.326 33.721 354.294 34.1489 354.736 34.4641C355.214 34.8047 355.748 34.8481 356.052 34.5704C356.334 34.3139 357.964 34.3224 359.675 34.5884C361.793 34.919 362.755 34.8831 362.689 34.4757C362.637 34.1472 362.774 34.2467 362.995 34.6973C363.272 35.2606 363.823 35.4906 364.762 35.4341C365.658 35.3801 366.022 35.5202 365.821 35.8424C365.479 36.3914 365.519 36.411 368.387 37.1038C369.518 37.3773 370.732 37.8475 371.083 38.1484C371.434 38.4499 371.759 38.5059 371.805 38.2731C371.85 38.0404 372.246 37.9203 372.685 38.006C373.124 38.0922 373.449 38.3371 373.407 38.5508C373.366 38.7645 373.556 38.9834 373.829 39.0369C374.103 39.0908 374.29 38.9231 374.246 38.6645C374.139 38.0393 377.251 39.5361 377.374 40.1687C377.6 41.3265 383.361 43.5839 383.556 42.5906C383.616 42.2875 383.816 42.0691 384.002 42.1056C384.188 42.142 384.215 42.3727 384.062 42.6181C383.625 43.3194 384.268 43.9298 384.868 43.3834C385.271 43.0169 385.416 43.0724 385.436 43.6013C385.454 44.0583 385.941 44.3608 386.801 44.4497C387.536 44.5258 388.095 44.8056 388.043 45.0717C387.875 45.928 389.625 45.6868 390.133 44.784C390.403 44.3032 390.736 44.0768 390.872 44.2799C391.008 44.4835 391.009 44.8278 390.873 45.0458C390.737 45.2631 390.81 45.6133 391.036 45.8238C391.262 46.0338 391.577 45.9961 391.737 45.7396C391.913 45.4556 392.302 45.6413 392.731 46.2151C393.539 47.2951 396.409 48.8369 396.889 48.4487L396.889 48.4501ZM401.921 46.9935C402.1 46.0838 401.935 45.9119 401.52 46.5767C401.367 46.8221 401.359 47.1982 401.502 47.4119C401.645 47.6255 401.834 47.4379 401.921 46.9935H401.921ZM400.894 45.8627C400.767 45.5258 400.455 45.3147 400.201 45.3941C399.936 45.4766 400.035 45.7394 400.431 46.0071C400.917 46.3366 401.055 46.2937 400.894 45.8627V45.8627ZM291.171 23.0034C291.591 22.9574 291.968 22.7421 292.011 22.5248C292.135 21.8906 290.68 21.9636 290.412 22.6047C290.278 22.9247 290.223 23.1643 290.289 23.1368C290.355 23.1098 290.752 23.0494 291.171 23.0035L291.171 23.0034ZM298.029 23.113C297.271 22.3297 296.767 22.2308 297.231 22.957C297.44 23.2844 297.829 23.5822 298.095 23.6181C298.415 23.6609 298.392 23.489 298.029 23.1131L298.029 23.113ZM296.085 22.7824C296.234 22.5433 296.045 22.4137 295.664 22.4941C294.857 22.6638 294.694 22.9977 295.354 23.1272C295.607 23.1764 295.936 23.0215 296.085 22.7824V22.7824ZM337.416 29.6624C338.079 28.941 337.861 28.84 333.923 28.0281C331.614 27.5521 329.424 26.9994 329.056 26.8C328.689 26.6011 328.275 26.6186 328.137 26.8395C328 27.0611 327.457 27.1066 326.931 26.9405C325.51 26.493 325.356 27.2456 326.764 27.755C327.43 27.9956 327.942 27.9999 327.901 27.765C327.774 27.0256 328.216 27.3773 328.557 28.2865C328.927 29.274 330.245 29.6971 330.696 28.973C330.895 28.6541 331.17 28.7165 331.515 29.1581C332.101 29.9102 332.848 29.6241 332.691 28.707C332.622 28.3066 332.707 28.2865 332.946 28.6478C333.143 28.9472 334.07 29.4708 335.007 29.8114C336.346 30.2985 336.859 30.2668 337.416 29.6617L337.416 29.6624ZM311.699 25.2534C311.755 24.9684 311.737 24.7229 311.659 24.7076C311.582 24.6936 311.384 24.8959 311.22 25.1593C311.056 25.4232 311.073 25.6686 311.259 25.7051C311.445 25.7417 311.643 25.538 311.699 25.2534ZM324.672 26.719C325.019 26.4742 325.099 26.2779 324.871 26.2287C324.663 26.1828 324.358 26.3621 324.194 26.6254C323.822 27.2204 323.933 27.2421 324.672 26.719L324.672 26.719ZM199.987 2.21988C199.907 1.75391 201.223 1.4822 201.392 1.93007C201.625 2.55413 203.024 2.93732 203.128 2.40594C203.193 2.07723 204.116 2.17599 205.645 2.67501C207.518 3.28678 208.347 3.32301 209.343 2.83691C210.048 2.49234 210.363 2.26983 210.041 2.34244C209.719 2.415 209.451 2.26307 209.444 2.00484C209.438 1.74656 209.231 1.4173 208.986 1.27305C208.741 1.12892 208.481 0.757209 208.407 0.447042C208.334 0.136896 208.172 0.393088 208.047 1.01686C207.832 2.08847 207.78 2.10035 207.088 1.23443C206.431 0.41272 206.292 0.402576 205.736 1.13609C205.147 1.91375 205.135 1.91124 205.487 1.08711C205.772 0.416778 205.681 0.184038 205.084 0.0672556C204.66 -0.0159033 204.086 0.295163 203.809 0.758534C203.53 1.22618 203.358 1.31217 203.423 0.951828C203.546 0.271604 202.639 -0.172187 202.507 0.503319C202.465 0.716954 201.347 0.665429 200.023 0.388966C198.699 0.112382 197.506 0.0603474 197.374 0.273422C197.241 0.486297 196.825 0.600216 196.449 0.526593C195.902 0.419446 195.82 0.538596 196.037 1.11825C196.31 1.84475 200.105 2.9052 199.987 2.22201V2.21988ZM194.749 1.17761C194.796 0.940185 194.729 0.709177 194.602 0.664159C194.474 0.619181 193.928 0.394669 193.39 0.165382C192.18 -0.350143 191.555 0.450264 192.699 1.05133C193.83 1.64555 194.648 1.69592 194.749 1.17764L194.749 1.17761ZM218.075 3.95431C218.13 3.66943 218.715 3.54198 219.373 3.67097C220.032 3.80011 220.631 4.15927 220.704 4.46938C220.793 4.84531 220.872 4.86096 220.944 4.51635C221.078 3.86893 223.021 4.09012 222.894 4.73844C222.843 4.99919 222.957 5.10726 223.148 4.97852C223.512 4.73327 226.416 4.79399 229.451 5.11023C230.434 5.21258 231.248 5.24418 231.261 5.18021C231.329 4.83308 235.531 5.65066 235.731 6.05014C236.09 6.76321 239.197 7.82046 239.306 7.26621C239.358 7.00292 239.615 6.82975 239.879 6.88136C240.142 6.93294 240.313 7.20005 240.26 7.47497C240.199 7.78704 242.428 8.32317 246.196 8.90237C249.515 9.41261 252.576 9.90038 252.999 9.98633C253.422 10.0739 254.29 10.0217 254.928 9.87396C255.624 9.71244 256.05 9.79381 255.994 10.078C255.902 10.5488 257.033 10.6911 257.432 10.2591C257.548 10.1346 259.007 10.3861 260.675 10.818C262.686 11.3389 263.901 11.4289 264.279 11.0845C264.723 10.6804 264.819 10.7228 264.715 11.2777C264.631 11.7272 264.705 11.8071 264.921 11.494C265.126 11.1967 266.989 11.3111 269.585 11.7791C271.962 12.208 279.177 13.4525 285.618 14.5452C292.059 15.638 300.317 17.085 303.968 17.761C307.619 18.4369 310.634 18.8442 310.67 18.6659C310.705 18.4876 311.524 18.4966 312.49 18.6859C313.455 18.8752 314.21 19.2048 314.168 19.4185C314.127 19.6321 314.245 19.8363 314.43 19.8728C314.616 19.9092 314.725 19.6887 314.673 19.3825C314.62 19.0768 314.801 18.87 315.075 18.9234C315.349 18.9774 315.618 18.7885 315.674 18.5035C315.73 18.2184 315.927 18.0153 316.114 18.0518C316.299 18.0882 316.317 18.3337 316.153 18.5971C315.976 18.8806 316.287 19.1583 316.912 19.2757C317.713 19.426 317.877 19.3296 317.589 18.879C317.309 18.4384 317.32 18.3025 317.632 18.3575C317.959 18.4146 317.981 18.2321 317.729 17.5615C317.549 17.0828 317.105 16.6327 316.741 16.5613C316.377 16.4899 316.128 16.1831 316.188 15.879C316.252 15.5511 315.992 15.4141 315.55 15.5426C315.047 15.6882 314.911 15.5854 315.133 15.2285C315.315 14.9365 315.379 14.681 315.276 14.6609C315.171 14.6403 314.884 15.082 314.635 15.6416L314.183 16.6592L313.552 15.4199C313.119 14.5705 312.815 14.35 312.585 14.7197C312.347 15.1015 312.211 15.0386 312.119 14.5034C312.013 13.8898 309.848 13.3323 300.559 11.5293C294.274 10.3091 286.515 8.95333 283.318 8.51718C280.122 8.081 274.822 7.3386 271.541 6.86739C259.695 5.16575 256.63 4.79052 256.316 5.0025C255.613 5.47631 252.938 5.49466 252.625 5.02769C252.432 4.73998 252.136 4.77113 251.922 5.10166C251.647 5.52813 251.512 5.46037 251.391 4.83467C251.301 4.37352 251.18 4.22882 251.122 4.51312C251.054 4.83928 249.047 4.62045 245.68 3.91987C240.359 2.8126 231.083 1.86342 230.974 2.41519C230.942 2.57511 229.808 2.46179 228.454 2.16317C226.133 1.65147 220.623 1.30792 219.574 1.60968C219.188 1.72102 219.143 1.91332 219.343 2.60857C219.544 3.30927 219.515 3.41096 219.19 3.15496C218.97 2.98205 218.417 2.61897 217.961 2.34845C217.451 2.04528 217.251 1.6277 217.441 1.26042C217.611 0.932604 217.511 0.996468 217.219 1.40217C216.789 1.99883 216.363 1.99883 214.991 1.40238C214.027 0.982948 213.013 0.827144 212.64 1.04108C212.28 1.2481 211.575 1.36989 211.073 1.31182C210.231 1.21447 210.217 1.23666 210.884 1.59256C211.444 1.89152 211.485 2.06367 211.066 2.35351C210.473 2.76367 210.876 2.90844 215.351 3.89495C216.913 4.2389 218.014 4.26329 218.075 3.95492L218.075 3.95431ZM311.776 17.4738C311.961 17.0676 312.215 16.8898 312.341 17.0781C312.703 17.6187 312.427 18.4046 311.911 18.3036C311.626 18.2476 311.573 17.9217 311.776 17.4738H311.776ZM330.05 22.8919C329.917 21.8314 329.958 21.7225 330.355 22.0922C330.751 22.4608 330.794 22.3513 330.662 21.3036L330.509 20.0865L329.965 21.1793C329.341 22.4328 328.643 22.4963 328.597 21.3036C328.579 20.8567 328.681 20.5134 328.822 20.5409C328.963 20.5685 329.147 20.2389 329.231 19.8079C329.356 19.1711 329.084 19.0304 327.776 19.0542C326.678 19.0748 326.205 18.8986 326.283 18.4993C326.347 18.1746 325.893 17.816 325.261 17.6922C324.516 17.5463 324.161 17.6803 324.231 18.082C324.305 18.5168 324.175 18.4877 323.78 17.9811C323.318 17.3893 323.229 17.4083 323.256 18.0936C323.274 18.5474 323.417 18.9441 323.573 18.9748C323.73 19.0056 323.813 19.2641 323.757 19.5487C323.545 20.6282 323.091 19.8914 323.002 18.3253C322.899 16.499 322.889 16.4868 321.953 17.0253C321.48 17.2966 321.248 17.8192 321.175 18.7775C321.118 19.5286 320.958 20.0501 320.821 19.9369C320.684 19.8241 320.455 19.9449 320.313 20.2061C320.16 20.4869 320.871 20.8783 322.054 21.1639C323.883 21.6056 324.105 21.5463 324.646 20.4742C325.229 19.318 326.514 19.0124 326.305 20.0797C326.246 20.3812 326.083 20.4579 325.944 20.25C325.801 20.0363 325.704 20.2236 325.721 20.6784C325.739 21.1497 325.988 21.3956 326.319 21.2697C326.687 21.13 326.767 21.2459 326.545 21.6014C326.156 22.2249 327.119 22.9305 328.394 22.9548C328.848 22.9648 329.441 23.2293 329.712 23.5456C330.154 24.0602 330.189 23.9925 330.05 22.8919H330.05ZM321.697 19.235C321.653 18.9796 321.821 18.8108 322.069 18.8595C322.316 18.9081 322.407 19.1276 322.27 19.3472C322.133 19.5666 321.967 19.7359 321.9 19.7227C321.832 19.7087 321.741 19.4899 321.697 19.235ZM334.332 23.8328C334.477 23.599 334.334 23.2304 334.013 23.0135C333.624 22.7507 333.549 22.3561 333.786 21.832C333.983 21.3993 334.008 21.019 333.843 20.9868C333.405 20.901 333.144 22.6068 333.465 23.461C333.79 24.3273 333.974 24.4061 334.332 23.8328V23.8328ZM332.656 22.0091C332.64 21.6114 332.587 21.2787 332.537 21.2687C332.487 21.2587 332.311 21.5469 332.147 21.9092C331.982 22.2715 332.036 22.6047 332.266 22.6496C332.496 22.6946 332.671 22.4063 332.656 22.0091ZM331.709 20.3172C331.45 19.8322 330.925 19.3662 330.542 19.2816C329.784 19.1139 329.145 19.8046 329.528 20.3764C329.66 20.5727 329.874 20.4757 330.006 20.1611C330.186 19.7322 330.386 19.7703 330.811 20.3145C331.626 21.3585 332.266 21.3596 331.709 20.3155L331.709 20.3172ZM335.965 21.0777C335.893 20.8846 335.621 20.8122 335.362 20.917C335.074 21.0323 335.126 21.1698 335.493 21.2677C335.825 21.356 336.038 21.2697 335.965 21.0777L335.965 21.0777ZM319.171 17.5748C319.664 17.2257 319.667 17.1495 319.191 17.049C318.885 16.9841 318.588 17.165 318.533 17.4494C318.409 18.081 318.445 18.0884 319.171 17.5748H319.171ZM321.04 17.1215C321.319 16.508 321.245 16.4477 320.643 16.7936C319.777 17.2913 319.631 17.6647 320.254 17.7869C320.499 17.8351 320.853 17.5356 321.04 17.1215Z" fill="#1C84C5"/>
</g>
<defs>
<clipPath id="clip0">
<rect width="573" height="358" fill="white"/>
</clipPath>
</defs>
</svg>
