<?xml version="1.0" encoding="UTF-8" standalone="no"?>
<!-- Created with Inkscape (http://www.inkscape.org/) -->

<svg
   xmlns:dc="http://purl.org/dc/elements/1.1/"
   xmlns:cc="http://creativecommons.org/ns#"
   xmlns:rdf="http://www.w3.org/1999/02/22-rdf-syntax-ns#"
   xmlns:svg="http://www.w3.org/2000/svg"
   xmlns="http://www.w3.org/2000/svg"
   xmlns:sodipodi="http://sodipodi.sourceforge.net/DTD/sodipodi-0.dtd"
   xmlns:inkscape="http://www.inkscape.org/namespaces/inkscape"
   width="393.93176mm"
   height="246.24542mm"
   viewBox="0 0 393.93176 246.24542"
   version="1.1"
   id="svg8"
   inkscape:version="0.92.4 (5da689c313, 2019-01-14)"
   sodipodi:docname="cart10.svg">
  <defs
     id="defs2" />
  <sodipodi:namedview
     id="base"
     pagecolor="#ffffff"
     bordercolor="#666666"
     borderopacity="1.0"
     inkscape:pageopacity="0.0"
     inkscape:pageshadow="2"
     inkscape:zoom="0.35"
     inkscape:cx="1357.2443"
     inkscape:cy="418.77423"
     inkscape:document-units="mm"
     inkscape:current-layer="layer1"
     showgrid="false"
     fit-margin-top="0"
     fit-margin-left="0"
     fit-margin-right="0"
     fit-margin-bottom="0"
     inkscape:window-width="1920"
     inkscape:window-height="1001"
     inkscape:window-x="-9"
     inkscape:window-y="-9"
     inkscape:window-maximized="1" />
  <metadata
     id="metadata5">
    <rdf:RDF>
      <cc:Work
         rdf:about="">
        <dc:format>image/svg+xml</dc:format>
        <dc:type
           rdf:resource="http://purl.org/dc/dcmitype/StillImage" />
        <dc:title></dc:title>
      </cc:Work>
    </rdf:RDF>
  </metadata>
  <g
     inkscape:label="Layer 1"
     inkscape:groupmode="layer"
     id="layer1"
     transform="translate(387.45244,-13.388601)">
    <g
       transform="translate(-272.8198,24.151916)"
       id="layer1-4"
       inkscape:label="Layer 1"
       style="fill:#ffffff;fill-opacity:1">
      <g
         style="fill:#ffffff;fill-opacity:1"
         inkscape:label="Layer 1"
         id="layer1-1"
         transform="translate(737.06244,31.568366)">
        <g
           id="g829"
           transform="translate(-710.74645,-124.36789)"
           style="fill:#ffffff;fill-opacity:1">
          <flowRoot
             xml:space="preserve"
             id="flowRoot900-88"
             style="font-style:normal;font-weight:normal;font-size:40px;line-height:1.25;font-family:sans-serif;letter-spacing:0px;word-spacing:0px;fill:#ffffff;fill-opacity:1;stroke:none"
             transform="matrix(0.26458333,0,0,0.26458333,-370.5481,5521.9307)"><flowRegion
               id="flowRegion902-1"
               style="fill:#ffffff;fill-opacity:1"><rect
                 id="rect904-1"
                 width="48.57143"
                 height="127.14286"
                 x="-67.14286"
                 y="-591.76605"
                 style="fill:#ffffff;fill-opacity:1" /></flowRegion><flowPara
               id="flowPara906-5" /></flowRoot>          <path
             sodipodi:nodetypes="ccccccccsssscccscccccc"
             inkscape:connector-curvature="0"
             id="path2993"
             transform="matrix(0.26458333,0,0,0.26458333,-163.56895,67.88646)"
             d="M 150,54 C 117.45071,54.456283 87.494456,46.128852 85.494141,82.363281 85.558846,86.673628 88.619376,127.77096 150,128 h 142 l 175,669 c 25.88975,-4.10183 104,-11 104,-11 l 876,-6 c 16.6667,-1.9999 30.3334,-9.16665 41,-21.5 10.6668,-12.33335 13.8814,-26.64089 16,-42.5 l 70,-524 c 2.2951,-17.18056 -6.3333,-32.33329 -19,-45 -12.6667,-12.66671 -27.6666,-19 -45,-19 H 388.3934 C 383.86734,96.802415 387.88008,98.461751 368.5,76 363.49991,69.999871 356.83333,64.833353 348.5,60.5 340.16663,56.166643 330.66658,54 320,54 Z M 404.06055,207.46094 H 1499.8379 l -70,506.15429 -886.37501,6.56836 z"
             style="fill:#ffffff;fill-opacity:1;stroke-width:0.99999994" />
        </g>
      </g>
      <path
         sodipodi:nodetypes="sssss"
         inkscape:connector-curvature="0"
         id="circle877"
         d="m 243.83697,210.36936 c 0,13.86938 -11.24336,25.11274 -25.11274,25.11274 -13.86938,0 -25.11274,-11.24336 -25.11274,-25.11274 0,-13.86938 11.24336,-25.11274 25.11274,-25.11274 13.86938,0 25.11274,11.24336 25.11274,25.11274 z"
         style="opacity:1;fill:#ffffff;fill-opacity:1;stroke:none;stroke-width:27.10924911;stroke-linecap:round;stroke-linejoin:miter;stroke-miterlimit:4;stroke-dasharray:none;stroke-dashoffset:0;stroke-opacity:1" />
      <path
         style="opacity:1;fill:#ffffff;fill-opacity:1;stroke:none;stroke-width:27.10924911;stroke-linecap:round;stroke-linejoin:miter;stroke-miterlimit:4;stroke-dasharray:none;stroke-dashoffset:0;stroke-opacity:1"
         d="m 48.937092,210.36936 c 0,13.86939 -11.243357,25.11274 -25.11274,25.11274 -13.8693835,0 -25.1127404,-11.24335 -25.1127404,-25.11274 0,-13.86938 11.2433569,-25.11274 25.1127404,-25.11274 13.869383,0 25.11274,11.24336 25.11274,25.11274 z"
         id="path890"
         inkscape:connector-curvature="0"
         sodipodi:nodetypes="sssss" />
    </g>
  </g>
</svg>
