<svg width="264" height="315" viewBox="0 0 264 315" fill="none" xmlns="http://www.w3.org/2000/svg">
<path d="M189.659 228.382C188.852 233.329 189.757 238.664 189.757 243.746C189.757 255.356 190.406 260.388 192.473 264.726C200.364 281.304 216.934 292.71 233.045 292.647C253.766 292.569 265.116 279.861 263.575 258.462C262.781 247.451 258.967 238.948 251.14 230.755C238.428 217.443 219.969 212.578 206.251 218.923C198.459 220.602 193.86 222.343 189.659 228.382V228.382Z" fill="#8A120F"/>
<path d="M145.506 294.542C147.446 294.463 149.588 294.921 151.473 296.026C153.586 297.268 155.318 299.666 155.318 301.355C155.318 303.748 154.16 304.513 150.076 304.81C143.705 305.277 139.597 302.96 139.597 298.899C139.597 296.297 142.272 294.674 145.506 294.542V294.542Z" fill="#F86858"/>
<path d="M250.225 264.831C250.429 264.814 250.615 264.831 250.778 264.888C253.592 265.857 253.915 272.049 251.36 276.126C247.548 282.206 239.917 282.64 239.917 276.776C239.917 273.244 247.162 265.093 250.225 264.831V264.831Z" fill="#F86858"/>
<path d="M168.738 231.523L155.075 228.903C153.567 229.696 151.818 230.056 149.719 230.056C147.767 230.056 143.034 232.137 139.202 234.678C116.829 249.515 111.898 284.716 129.414 304.584C132.763 308.382 137.602 312.127 140.169 312.906C163.594 320.009 184.129 301.347 185.678 271.547C186.243 260.695 185.83 257.847 182.601 250.228C180.393 245.034 176.654 239.588 173.458 236.92C171.421 235.222 169.677 233.225 168.738 231.526V231.523Z" fill="#F86858"/>
<path d="M184.903 191.755C186.913 196.975 186.661 195.562 189.211 199.341C190.877 200.105 194.795 202.637 199.817 205.397C209.489 210.712 227.371 210.364 237.833 204.655C248.928 198.6 254.157 193.457 258.516 184.308C263.112 174.668 263.669 162.139 259.879 153.784C254.31 141.513 236.407 133.901 221.535 137.479C195.929 143.64 179.898 164.551 184.609 185.655C185.3 188.748 185.495 190.361 184.903 191.755V191.755ZM246.191 153.601C249.962 153.822 253.807 159.658 253.134 164.583C252.434 169.733 248.279 169.867 244.514 164.862C240.533 159.571 240.966 154.299 245.439 153.634C245.688 153.596 245.939 153.586 246.191 153.601V153.601Z" fill="#CE2828"/>
<path d="M216.984 0C216.846 0 216.706 0.00645897 216.562 0.00903276C212.971 0.140553 207.325 1.76656 197.813 4.70897C167.482 14.0895 140.369 30.4969 127.691 47.1453C116.176 62.2688 111.227 77.1228 111.184 96.8742C111.139 111.796 114.427 125.79 121.77 141.895C127.725 154.954 129.486 165.864 125.637 165.864C124.55 165.864 109.143 158.114 91.4015 148.642C73.6591 139.169 58.6837 131.461 58.1213 131.419C33.0153 129.557 51.3046 144.33 52.1449 145.75C52.5227 146.389 61.7413 151.597 72.6284 157.325C107.194 175.503 123.29 184.927 122.734 186.664C121.549 190.374 112.462 191.973 104.635 189.85C90.7396 186.08 79.432 185.675 66.2279 188.472C41.2667 193.761 25.7155 206.732 13.7462 232.245C9.66671 240.933 6.33522 250.029 6.33522 252.46C6.33522 254.89 5.59296 258.325 4.68827 260.091C2.19299 264.969 -0.510921 287.538 0.0829802 298.556L0.609551 308.341H11.518C22.748 308.341 45.9729 303.089 55.7436 298.339C80.2763 286.416 94.9198 272.808 103.948 253.542C109.317 242.089 111.422 233.16 113.442 213.242L114.431 203.472L124.177 200.325C129.537 198.594 135.925 197.178 138.37 197.178C143.022 197.178 163.552 209.89 163.552 212.771C163.552 213.632 162.46 217.19 161.128 220.677C159.49 224.953 157.635 227.557 155.075 228.904L168.738 231.524C168.095 230.138 168.046 230.098 168.046 229.613C168.046 225.021 172.241 215.96 174.333 216.031C175.402 216.067 179.311 218.881 183.016 222.285L189.658 228.382C191.099 227.089 193.744 224.702 196.804 221.938C195.272 221.166 191.771 218.383 188.258 215.092L180.771 208.079L184.307 204.976C185.956 203.529 190.236 201.12 191.797 200.752C191.175 199.183 186.913 196.976 184.902 191.755C184.438 192.846 183.504 193.806 181.867 195.213C179.618 197.146 177.222 198.736 176.548 198.736C175.873 198.742 166.947 193.331 156.71 186.716L138.098 174.689V167.928C138.098 159.273 141.277 155.889 151.752 153.401C156.184 152.348 166.599 148.075 174.902 143.906C206.204 128.178 223.712 103.715 229.026 68.2823C231.416 52.3418 231.416 50.2426 229.026 33.008C227.626 22.9289 225.401 11.3568 224.076 7.29234C222.45 2.30209 221.255 -0.0135843 216.984 0.000314183V0ZM209.047 25.1433C212.678 25.2235 213.349 31.0336 214.081 45.505C214.994 63.5141 212.07 79.5541 205.291 93.7433C198.462 108.031 181.756 123.426 165.207 130.683C151.468 136.707 145.374 138.506 143.905 136.969C141.311 134.256 150.458 101.602 158.929 83.3269C170.454 58.47 183.602 41.0088 198.662 30.5544C203.624 27.1102 206.868 25.0953 209.047 25.1433ZM175.403 32.1085C175.59 32.102 175.735 32.1304 175.831 32.1923C176.484 32.6144 173.39 37.675 168.951 43.4384C164.511 49.2018 158.747 57.7129 156.146 62.3516C149.953 73.384 140.797 96.5795 137.359 109.952C135.857 115.799 134.048 120.958 133.336 121.416C130.496 123.252 127.245 110.184 127.288 96.9737C127.333 75.5908 135.22 59.4937 152.499 45.5419C159.936 39.535 172.588 32.1869 175.403 32.1085V32.1085ZM77.1633 203.633C83.8642 203.651 81.9125 206.784 71.1084 214.4C60.8242 221.645 38.4439 243.977 28.3167 257.094C25.1677 261.168 21.9674 264.501 21.2036 264.501C15.7748 264.501 27.8754 235.461 38.6898 222.534C46.8776 212.748 60.6338 205.221 72.7132 203.917C74.1591 203.761 75.4178 203.668 76.4878 203.641C76.722 203.634 76.9471 203.632 77.1633 203.632V203.633ZM94.5772 214.487C97.6342 214.462 97.7166 218.38 96.1042 226.556C93.7356 238.576 87.2881 252.873 80.642 260.839C72.6452 270.423 56.0504 281.196 42.6673 285.493C26.2285 290.769 23.126 291.363 21.9922 289.447C21.4453 288.521 24.7048 282.002 29.2379 274.959C39.0299 259.732 63.7618 234.208 79.9451 222.617C87.1079 217.484 91.662 214.725 94.2718 214.501C94.3767 214.493 94.4781 214.488 94.5772 214.486V214.487Z" fill="#799850"/>
<path d="M155.328 302.851C155.36 303.053 155.359 303.239 155.314 303.407C154.56 306.286 148.41 307.073 144.152 304.832C137.803 301.488 136.796 293.911 142.643 293.47C146.166 293.205 154.838 299.816 155.329 302.851H155.328Z" fill="#8A120F"/>
<path d="M189.659 228.382C188.852 233.329 189.757 238.664 189.757 243.746C189.757 255.356 190.406 260.388 192.473 264.726C200.364 281.304 216.934 292.71 233.045 292.647C253.766 292.569 265.116 279.861 263.575 258.462C262.781 247.451 258.967 238.948 251.14 230.755C238.428 217.443 219.969 212.578 206.251 218.923C198.459 220.602 193.86 222.343 189.659 228.382V228.382Z" fill="#8A120F"/>
<path d="M145.506 294.542C147.446 294.463 149.588 294.921 151.473 296.026C153.586 297.268 155.318 299.666 155.318 301.355C155.318 303.748 154.16 304.513 150.076 304.81C143.705 305.277 139.597 302.96 139.597 298.899C139.597 296.297 142.272 294.674 145.506 294.542V294.542Z" fill="#F86858"/>
<path d="M250.225 264.831C250.429 264.814 250.615 264.831 250.778 264.888C253.592 265.857 253.915 272.049 251.36 276.126C247.548 282.206 239.917 282.64 239.917 276.776C239.917 273.244 247.162 265.093 250.225 264.831V264.831Z" fill="#F86858"/>
<path d="M168.738 231.523L155.075 228.903C153.567 229.696 151.818 230.056 149.719 230.056C147.767 230.056 143.034 232.137 139.202 234.678C116.829 249.515 111.898 284.716 129.414 304.584C132.763 308.382 137.602 312.127 140.169 312.906C163.594 320.009 184.129 301.347 185.678 271.547C186.243 260.695 185.83 257.847 182.601 250.228C180.393 245.034 176.654 239.588 173.458 236.92C171.421 235.222 169.677 233.225 168.738 231.526V231.523Z" fill="#F86858"/>
<path d="M184.903 191.755C186.913 196.975 186.661 195.562 189.211 199.341C190.877 200.105 194.795 202.637 199.817 205.397C209.489 210.712 227.371 210.364 237.833 204.655C248.928 198.6 254.157 193.457 258.516 184.308C263.112 174.668 263.669 162.139 259.879 153.784C254.31 141.513 236.407 133.901 221.535 137.479C195.929 143.64 179.898 164.551 184.609 185.655C185.3 188.748 185.495 190.361 184.903 191.755V191.755ZM246.191 153.601C249.962 153.822 253.807 159.658 253.134 164.583C252.434 169.733 248.279 169.867 244.514 164.862C240.533 159.571 240.966 154.299 245.439 153.634C245.688 153.596 245.939 153.586 246.191 153.601V153.601Z" fill="#CE2828"/>
<path d="M155.328 302.851C155.36 303.053 155.359 303.239 155.314 303.407C154.56 306.286 148.41 307.073 144.152 304.832C137.803 301.488 136.796 293.911 142.643 293.47C146.166 293.205 154.838 299.816 155.329 302.851H155.328Z" fill="#8A120F"/>
</svg>
