<svg width="286" height="308" viewBox="0 0 286 308" fill="none" xmlns="http://www.w3.org/2000/svg">
<path d="M151.053 161.785H137.982V161.785C63.182 161.835 1.8567 162.545 0.827696 163.51C0.0416964 164.259 -0.239843 180.706 0.225157 200.664C1.00116 233.869 1.36873 237.375 5.28473 248.881C10.7297 264.864 19.1215 277.026 36.5025 294.126L50.4996 307.892H112.247H174L187.895 294.452C195.539 287.061 203.485 278.594 205.556 275.638C207.628 272.681 209.471 270.057 209.654 269.809C209.833 269.56 215.893 268.016 223.119 266.38C257.981 258.482 279.746 239.508 285.011 212.424C287.697 198.598 284.094 186.768 274.541 178.064C263.949 168.413 252.229 166.078 236.546 170.496C226.726 173.261 224.95 172.647 224.95 166.497V161.979L191.343 161.862C177.753 161.814 164.242 161.789 151.053 161.784V161.785ZM251.515 185.801C255.576 185.8 259.114 186.559 261.456 188.114C279.37 200.014 267.098 232.599 240.15 244.69H240.139C229.584 249.425 223.553 250.892 222.332 249.02C221.813 248.221 222.447 242.808 223.746 236.992C225.045 231.177 226.137 218.957 226.137 209.836L226.177 193.254L234.68 189.501C240.209 187.06 246.297 185.802 251.518 185.801H251.515Z" fill="#799850"/>
<path d="M91.3414 139.726C80.5334 119.836 81.4374 89.0326 93.3834 70.2246C104.346 52.9617 106.799 34.7802 100.698 15.9343C98.3839 8.78275 108.245 20.103 114.075 31.2902C119.41 41.5239 119.785 43.1788 119.22 53.7855C118.669 64.1437 117.743 66.8261 109.503 81.9368C98.4886 102.12 94.5635 116.163 95.4225 132.294C96.0835 144.682 95.0554 146.558 91.3414 139.726V139.726Z" fill="#CE2828"/>
<path d="M119.657 124.838C118.662 121.085 117.845 116.57 117.845 114.806C117.845 108.416 124.446 93.2538 133.068 79.8323C146.689 58.6266 150.646 48.6328 151.478 33.3622C152.056 22.7968 151.518 18.4417 148.704 10.5282C146.785 5.14954 145.546 0.437437 145.945 0.0564371C147.277 -1.20566 161.536 19.0491 164.125 25.8819C170.451 42.571 169.882 59.7032 162.532 73.8631C160.282 78.1978 153.29 87.2733 146.996 94.0313C134.137 107.836 128.872 115.587 125.865 125.134C124.735 128.724 123.285 131.662 122.642 131.662C121.994 131.662 120.654 128.591 119.657 124.838V124.838Z" fill="#F86858"/>
<path d="M141.538 181.214H131.621V181.214C74.8753 181.251 28.3534 181.768 27.5734 182.472C26.9764 183.018 26.7634 195.008 27.1164 209.557C27.7044 233.765 27.9833 236.32 30.9543 244.708C35.0843 256.361 41.4509 265.227 54.6369 277.693L65.2551 287.728H112.097H158.946L169.487 277.931C175.286 272.542 181.313 266.37 182.884 264.214C192.51 252.27 199.096 212.982 197.596 184.649V181.356L172.103 181.27C161.793 181.235 151.542 181.216 141.538 181.213V181.214Z" fill="white"/>
</svg>
