<svg width="51" height="51" viewBox="0 0 51 51" fill="none" xmlns="http://www.w3.org/2000/svg">
<path d="M20.8267 50.1405C20.7703 50.1281 20.482 50.0711 20.1861 50.0137C19.709 49.9213 19.3056 49.8232 18.418 49.5841C17.8398 49.4283 16.488 48.9824 16.0606 48.8065C12.5595 47.3656 9.93877 45.6481 7.42397 43.1464C5.0251 40.7601 2.93648 37.6101 1.8084 34.6773C1.70938 34.4198 1.60775 34.1587 1.58256 34.0971C1.51627 33.9348 1.30797 33.3106 1.13255 32.7486C0.736977 31.4812 0.436251 30.1715 0.302958 29.1356C0.277569 28.9383 0.233116 28.6385 0.204168 28.4694C0.024284 27.4185 -0.0585832 24.8699 0.0458692 23.6008C0.215744 21.5368 0.582907 19.5504 1.10208 17.8866C1.80807 15.6241 2.61794 13.8412 3.79767 11.9524C4.84451 10.2763 5.70385 9.18086 7.2492 7.55253C7.67201 7.10702 8.9408 5.9493 9.33065 5.65328C10.6595 4.64426 11.6256 3.94699 11.6949 3.94699C11.7086 3.94699 11.8373 3.86791 11.9809 3.77126C12.1246 3.6746 12.4641 3.47281 12.7355 3.32283C13.0069 3.17286 13.3241 2.99554 13.4404 2.9288C14.3337 2.4163 16.9412 1.34597 17.9568 1.07497C18.0413 1.0524 18.3296 0.973033 18.5974 0.898591C20.5674 0.350919 23.1073 0.00179959 25.1346 7.9157e-06C26.7925 -0.0014448 28.733 0.197122 30.4255 0.541468C31.0514 0.668801 31.2372 0.715863 32.2551 1.00494C34.2334 1.56677 36.5018 2.55444 38.2255 3.60453C38.9233 4.0296 40.2642 4.95806 40.847 5.41966C41.4066 5.86292 41.4867 5.93089 42.0393 6.43255C44.0008 8.21325 45.4633 9.97228 46.8116 12.1724C47.6957 13.6149 48.6201 15.5792 49.0184 16.8616C49.0578 16.9884 49.1125 17.1383 49.14 17.1947C49.1675 17.2511 49.2731 17.574 49.3748 17.9122C50.4057 21.3428 50.7098 24.9544 50.2614 28.4437C50.1495 29.3143 49.9878 30.3062 49.9109 30.5926C49.884 30.6932 49.8172 30.96 49.7627 31.1855C49.4101 32.6428 48.8603 34.2952 48.4027 35.2725C48.3017 35.4884 48.219 35.6797 48.219 35.6976C48.219 35.7593 47.2892 37.5809 47.0822 37.9247C46.4116 39.0385 45.5859 40.2499 45.0693 40.8781C44.9272 41.0508 44.6916 41.339 44.5457 41.5187C43.4905 42.8176 41.7445 44.4587 40.1797 45.6223C39.3979 46.2036 37.8142 47.1906 36.8793 47.6792C36.1 48.0864 34.3488 48.8512 33.8182 49.0161C33.6631 49.0642 33.4556 49.1354 33.3569 49.1741C33.1114 49.2706 31.9357 49.6258 31.4351 49.7547C30.557 49.9808 29.4345 50.1938 29.3608 50.1482C29.2771 50.0965 29.2886 32.7493 29.3724 32.7465C29.4076 32.7453 30.6818 32.7456 32.2038 32.7468C34.3293 32.7487 35.0001 32.7343 35.0958 32.6848C35.246 32.6071 35.2723 32.5158 35.4096 31.5954C35.6717 29.8377 36.066 27.3082 36.2645 26.1118C36.3649 25.5064 36.3697 25.2861 36.2845 25.2008C36.2366 25.1529 35.4206 25.1348 32.8291 25.124C30.9631 25.1162 29.4052 25.0987 29.3669 25.0851C29.3093 25.0645 29.3018 24.6271 29.3227 22.5112C29.3375 21.0101 29.3697 19.8777 29.4009 19.757C29.4301 19.6443 29.4797 19.4252 29.5113 19.2702C29.6434 18.6211 30.2252 17.7833 30.8355 17.3634C31.6345 16.8137 32.5124 16.6663 35.0251 16.6601C36.1104 16.6575 36.5305 16.6398 36.5753 16.595C36.6218 16.5485 36.6368 15.7745 36.6368 13.4255C36.6368 9.844 36.6865 10.1575 36.1088 10.09C35.9341 10.0696 35.6529 10.0282 35.4837 9.99812C35.3146 9.96802 34.9456 9.92073 34.6638 9.89303C34.3819 9.86534 33.7938 9.80765 33.3569 9.76485C32.4168 9.67274 29.6089 9.65732 29.132 9.74166C27.9746 9.94634 27.2031 10.145 26.6178 10.389C25.634 10.799 24.7499 11.3472 24.0449 11.9841C23.6388 12.351 22.907 13.1899 22.7784 13.436C22.7439 13.502 22.6563 13.6497 22.5837 13.7643C22.0747 14.5676 21.5337 15.9981 21.3599 17.0001C21.1625 18.1385 21.1617 18.1589 21.1607 21.6661C21.1602 23.5616 21.1425 25.1128 21.1214 25.1131C21.1002 25.1133 19.6827 25.1191 17.9714 25.1259C15.2201 25.1367 14.8505 25.1475 14.7793 25.2188C14.7074 25.2906 14.6989 25.6912 14.7015 28.9009C14.7032 31.0618 14.7237 32.5386 14.7528 32.593C14.781 32.6457 14.8891 32.6976 15.0116 32.7172C15.1272 32.7357 16.5386 32.7492 18.1479 32.7473C20.4927 32.7444 21.0823 32.7569 21.1161 32.8102C21.1394 32.8467 21.153 36.7626 21.1463 41.512C21.1342 50.1063 21.1337 50.1474 21.0317 50.1551C20.9753 50.1594 20.8831 50.1527 20.8267 50.1404V50.1405Z" fill="#51D5E1"/>
</svg>
