<svg width="317" height="310" viewBox="0 0 317 310" fill="none" xmlns="http://www.w3.org/2000/svg">
<path d="M296.374 155.6C296.374 193.224 281.608 229.309 255.323 255.918C229.038 282.527 193.386 297.482 156.207 297.495C119.029 297.507 83.3672 282.575 57.0649 255.984C30.7627 229.392 15.9733 193.317 15.949 155.692C15.9247 118.068 30.6674 81.9733 56.9352 55.3467C83.203 28.7202 118.845 13.7415 156.024 13.7045C193.203 13.6676 228.874 28.5754 255.193 55.1497C281.513 81.724 296.325 117.789 296.374 155.414L156.161 155.6H296.374Z" fill="#8A120F"/>
<path d="M160.368 308.15C161.123 306.241 160.098 301.499 156.726 291.287C155.591 287.851 154.266 280.788 153.781 275.591L152.899 266.143L158.105 262.885C161.36 260.847 164.436 257.341 166.315 253.524C169.853 246.337 174.876 242.552 186.087 238.622C193.809 235.916 194.304 235.487 194.689 231.182C194.98 227.927 194.071 225.158 191.53 221.552C188.52 217.28 188.088 215.572 188.76 210.607C189.198 207.372 189.711 203.589 189.899 202.2C190.116 200.595 189.015 199.109 186.875 198.119C185.023 197.263 179.873 194.789 175.429 192.622C170.94 190.432 164.059 188.33 159.944 187.891C153.183 187.171 151.718 187.528 143.112 191.992L133.687 196.882V206.25C133.687 214.379 133.252 216.067 130.403 219.015C128.597 220.883 123.719 223.615 119.563 225.086L112.006 227.761L112.259 237.811C112.399 243.339 112.578 248.288 112.663 248.809C112.747 249.329 114.482 250.594 116.519 251.618C121.888 254.319 132.817 263.96 137.259 269.913C140.889 274.777 141.093 275.777 141.093 288.645C141.093 298.274 141.693 303.364 143.148 306.096C145.036 309.64 145.788 309.953 152.43 309.953C157.329 309.953 159.886 309.372 160.369 308.15H160.368Z" fill="#70B037"/>
<path d="M130.993 292.362V277.389L124.934 271.311C121.601 267.968 115.712 262.937 111.846 260.13C103.11 253.787 101.503 250.968 101.689 242.307C101.832 235.657 101.724 235.444 98.1346 235.444C95.9276 235.444 93.1565 236.763 91.2708 238.712C84.9047 245.29 76.7764 242.446 66.99 230.215C63.826 226.261 56.9092 218.614 51.6193 213.222C38.8735 200.23 31.4214 185.935 28.7913 169.432C27.0193 158.311 26.6415 157.452 21.8896 153.745C19.1249 151.589 14.0002 147.324 10.5012 144.269C7.00268 141.213 3.51597 138.713 2.75347 138.713C0.744268 138.713 -0.683018 154.445 0.339482 165.321C1.97578 182.724 6.44007 204.006 10.5739 214.108C19.0565 234.838 43.2949 264.582 64.322 280.065C75.6686 288.42 99.6205 299.919 114.162 303.993C132.187 309.043 130.993 309.868 130.993 292.362V292.362Z" fill="#79D12C"/>
<path d="M301.222 223.139C324.836 174.622 321.782 119.884 292.956 74.9871C284.857 62.3738 261.948 38.0607 258.161 38.0607C256.612 38.0607 254.271 40.363 252.006 44.1151C248.618 49.7283 248.466 50.587 249.93 55.8984C252.22 64.2123 251.868 72.1178 249.007 76.6223C247.637 78.7791 243.477 83.5715 239.762 87.2719C228.066 98.9238 229.078 105.442 244.45 117.445C257.169 127.378 260.934 131.615 260.934 135.997C260.934 138.267 259.722 142.43 258.241 145.249C256.759 148.067 255.548 150.905 255.548 151.555C255.548 153.423 265.483 159.614 270.745 161.025C276.667 162.612 288.136 172.436 291.067 178.43C295.546 187.594 293.214 193.379 282.815 198.9C279.667 200.571 277.092 202.345 277.092 202.841C277.092 203.337 278.584 206.332 280.406 209.498C283.12 214.212 287.252 223.989 291.297 235.264C292.434 238.434 295.749 234.384 301.222 223.139V223.139Z" fill="#70B037"/>
<path d="M84.4884 228.381C86.0373 224.426 88.1809 223.134 93.2905 223.073C96.4159 223.036 97.33 222.434 97.33 220.411C97.33 218.063 96.2079 217.73 86.3236 217.143C76.9893 216.589 74.7784 215.998 71.7716 213.251C66.7953 208.705 60.7975 198.067 58.8567 190.346C56.8247 182.261 54.678 178.002 51.0125 174.781C44.9095 169.42 48.5971 160.201 62.4068 146.296C71.1995 137.442 79.8561 132.177 85.6189 132.177C88.9771 132.177 92.0737 133.622 97.1374 137.55L104.063 142.923L118.201 142.021C126.823 141.47 135.756 140.011 141.092 138.282C149.798 135.46 149.858 135.407 152.257 128.384L154.669 121.322L151.412 117.926C143.628 109.812 143.408 102.959 150.87 101.082C156.856 99.5765 157.02 96.5769 151.262 93.9113C145.482 91.2357 143.317 91.9287 139.699 97.6116C135.153 104.752 129.462 108.648 123.58 108.648C118.34 108.648 114.162 106.051 114.162 102.793C114.162 101.832 112.565 98.0586 110.614 94.4071C107.408 88.409 107.194 87.1373 108.395 81.2396C109.126 77.649 109.465 74.459 109.147 74.1506C108.828 73.8423 105.859 74.7537 102.547 76.1761C98.3195 77.9914 95.239 78.4905 92.2144 77.8503C85.1569 76.3568 74.0516 71.1365 70.4089 67.6C67.2029 64.4878 67.0569 63.76 67.8911 55.0459C68.7441 46.1346 68.6368 45.6538 64.9601 41.9282C62.8607 39.8011 60.131 38.0607 58.8939 38.0607C55.5279 38.0607 34.3577 60.04 26.572 71.618C22.8216 77.1949 17.7358 85.8963 15.2699 90.9546C10.5717 100.592 3.73393 120.273 3.76303 124.075C3.76303 126.553 12.6918 134.448 28.2059 145.733C33.8824 149.863 38.8952 154.173 39.3452 155.312C39.7953 156.45 39.24 158.749 38.1133 160.42C35.5794 164.174 35.5419 168.723 37.973 177.585C40.0054 184.997 44.1764 190.857 56.8517 204.108C61.3408 208.802 68.534 216.89 72.8362 222.082C77.1384 227.274 81.2434 231.522 81.9586 231.522C82.6738 231.522 83.8124 230.109 84.4887 228.381H84.4884Z" fill="#70B037"/>
<path d="M231.885 28.3208H181.791C181.416 28.3208 181.113 29.2462 181.113 30.3878V66.0101C181.113 67.1517 181.416 68.0771 181.791 68.0771H231.885C232.259 68.0771 232.562 67.1517 232.562 66.0101V30.3878C232.562 29.2462 232.259 28.3208 231.885 28.3208Z" fill="#F86858"/>
<path d="M158.129 0.000488951C143.574 0.0364889 128.919 2.0815 114.312 6.1471C102.104 9.545 78.3723 20.0975 72.0595 24.9353L68.3343 27.79L71.9273 31.9266C77.6953 38.5671 79.4298 43.9083 78.4038 51.8802L77.4975 58.9204L84.7208 62.1849C94.0267 66.3904 96.5547 66.308 104.279 61.5524C118.308 52.9158 125.663 58.3431 120.221 73.3165C119.11 76.373 118.202 80.5243 118.202 82.541C118.202 86.6528 123.389 95.3981 125.878 95.4833C126.769 95.5113 129.355 92.9188 131.625 89.7155C136.922 82.2412 140.527 79.8529 146.514 79.8529C151.91 79.8529 162.283 85.5518 165.827 90.4641C169.318 95.301 168.622 100.261 163.984 103.589C159.562 106.764 158.83 109.223 161.963 110.391C166.214 111.974 162.948 131.635 157.404 137.828C151.956 143.916 139.587 147.494 120.069 148.626C102.275 149.659 100.123 149.244 91.9551 143.192C87.3575 139.785 84.9358 138.792 82.8158 139.445C78.353 140.82 58.9541 160.517 58.9541 163.673C58.9541 165.174 60.4007 168.071 62.1678 170.11C63.935 172.149 66.1199 176.939 67.0239 180.755C69.2639 190.212 74.4928 200.85 78.1099 203.31C80.1068 204.668 84.1592 205.342 90.3292 205.342C99.291 205.342 99.7221 205.494 105.073 210.586C111.073 216.296 112.461 216.382 120.684 211.547C125.427 208.758 125.579 207.748 122.853 197.174C122.234 194.77 122.657 192.499 124.137 190.308C127.088 185.935 149.071 175.276 155.138 175.276C161.427 175.276 173.379 178.395 179.7 181.685C182.535 183.161 187.69 185.508 191.156 186.898C199.739 190.343 202.595 195.469 199.691 202.215C196.779 208.981 197.115 211.259 201.687 215.799C205.391 219.477 205.726 220.564 205.726 228.885C205.726 239.193 205.076 239.948 192.934 243.757C182.853 246.92 177.529 250.588 175.217 255.958C174.079 258.603 171.003 263.306 168.383 266.41C163.625 272.047 163.621 272.063 165.068 279.546C165.865 283.667 167.551 290.863 168.815 295.536C170.078 300.209 171.306 304.768 171.545 305.666C172.072 307.657 170.699 307.693 185.014 305.306C207.023 301.635 229.925 292.713 248.14 280.712C256.602 275.136 278.193 255.626 282.698 249.485L285.324 245.906L280.386 231.832C277.671 224.092 274.229 215.702 272.737 213.186C264.715 199.652 265.468 194.058 276.013 188.871C280.887 186.473 282.478 184.957 282.478 182.709C282.478 178.492 274.164 171.282 262.604 165.473C252.114 160.202 244.775 153.371 244.775 148.876C244.775 147.347 246.317 143.539 248.203 140.415C250.322 136.905 251.222 134.049 250.56 132.936C249.97 131.946 245.19 127.823 239.937 123.773C234.685 119.723 228.395 113.715 225.958 110.421C221.79 104.787 221.578 103.974 222.366 96.6578C223.407 86.991 224.492 85.0181 233.423 76.5538C241.755 68.6565 243.062 65.0422 240.634 56.6202C238.14 47.9737 238.811 43.8273 244.052 35.5083C249.807 26.3753 249.663 26.1876 229.421 16.4938C206.375 5.45737 182.389 -0.059811 158.129 0.000488951V0.000488951ZM208.022 34.8901C211.225 34.9181 212.75 35.6455 215.269 37.7035C218.057 39.9804 219.186 42.102 219.221 45.0393C219.221 47.3119 220.413 51.6577 221.835 54.697C225.496 62.5266 223.092 62.7219 217.946 55.0123C213.731 48.697 213.433 48.5176 207.085 48.5176C203.357 48.5176 198.815 49.4891 196.495 50.7816C191.404 53.6181 189.936 52.3026 192.002 46.7574C192.885 44.3879 193.606 41.1504 193.606 39.5613C193.606 36.2117 194.476 35.841 204.161 35.0713C205.7 34.9489 206.955 34.8805 208.022 34.89V34.8901Z" fill="#79D12C"/>
</svg>
