<svg width="175" height="190" viewBox="0 0 175 190" fill="none" xmlns="http://www.w3.org/2000/svg">
<path d="M64.2855 189.284C54.3175 188.419 46.1489 185.442 37.0427 179.356C31.751 175.819 24.8783 170.62 21.0864 167.285C10.4016 157.887 3.54809 146.514 1.40061 134.617C-0.677368 123.105 -0.464189 110.793 2.18098 89.5471C4.0587 74.4655 6.98183 55.0651 7.95528 51.2238C8.62063 48.5983 10.7686 45.2882 13.562 42.5837C14.9449 41.2448 15.9246 40.5673 17.7124 39.7136C22.2098 37.5663 28.1869 37.5244 32.385 39.6109C35.8914 41.3536 38.9527 44.3432 40.7444 47.7747C42.6794 51.4804 43.0263 53.8512 43.3395 65.5081C43.401 67.7952 43.4765 68.8899 43.5749 68.9225C43.7535 68.9817 45.9903 66.036 63.9127 42.1396C84.7941 14.2978 91.9083 4.9757 93.4508 3.43377C94.1177 2.76723 95.4251 1.98987 96.9186 1.3719C101.629 -0.577176 106.909 -0.444046 111.389 1.7368C114.442 3.22279 116.784 5.30326 119.184 8.66208C119.657 9.32286 120.127 9.8635 120.229 9.8635C120.331 9.8635 121.22 9.32872 122.204 8.6751C125.087 6.76045 127.583 5.67213 130.101 5.23233C130.992 5.07667 131.765 5.04576 133.349 5.10253C135.426 5.17697 136.485 5.34469 137.833 5.81257C140.241 6.64899 143.691 9.09375 146.428 11.9046C147.686 13.1971 147.878 13.4604 148.536 14.8093C150.1 18.0147 150.603 21.763 150.029 25.955C149.925 26.7162 149.933 26.9481 150.069 27.0747C150.164 27.1626 150.797 27.365 151.476 27.5244C155.209 28.4015 159.484 30.832 161.759 33.3716C164.847 36.82 166.09 39.9973 166.076 44.4125C166.07 46.4219 165.867 47.6377 165.169 49.8364C164.587 51.6708 162.119 56.463 160.494 58.9146C159.773 60.0017 159.659 60.3762 159.97 60.6338C160.067 60.7149 160.813 61.018 161.626 61.3074C164.864 62.4595 166.735 63.5721 168.805 65.5765C171.553 68.2377 173.415 71.5128 174.031 74.7648C174.418 76.8129 174.111 80.4646 173.343 82.923C172.553 85.4536 170.824 88.07 161.626 100.652C151.486 114.523 118.576 158.659 111.992 167.217C109.011 171.092 107 173.085 102.826 176.298C92.8296 183.991 84.1637 187.719 73.1864 189.048C71.5893 189.241 65.6156 189.4 64.2855 189.284V189.284ZM71.4322 179.943C74.2059 179.629 77.7658 179.005 79.525 178.523C85.9681 176.758 93.1051 172.656 99.8505 166.842C103.641 163.575 105.076 161.845 115.157 148.384C120.97 140.624 122.351 138.764 146.476 106.209L162.716 84.2964L163.584 82.3758C164.656 80.0081 164.99 78.8346 164.99 77.4382C164.99 75.0553 164.1 73.6395 161.268 71.5112C159.554 70.2237 158.741 69.8565 157.422 69.7742C156.047 69.6885 155.353 69.8803 153.099 70.969L151.409 71.7854L145.245 79.9519C129.975 100.183 124.159 107.699 122.728 109.051C121.802 109.926 121.244 110.099 119.953 109.913C118.714 109.735 117.731 109.234 116.904 108.36C115.695 107.083 115.424 105.816 116.082 104.519C117.154 102.404 123.472 93.5722 145.094 63.96C150.988 55.8878 155.938 49.0978 156.093 48.8711C156.485 48.2981 156.87 45.9009 156.861 44.0878C156.855 42.9351 156.798 42.5196 156.568 41.9368C155.672 39.6665 151.542 36.7298 148.812 36.422C147.206 36.2409 145.17 36.971 143.999 38.1471C142.346 39.8086 137.731 45.8367 117.541 72.7027C110.096 82.61 103.983 90.7425 103.956 90.7747C103.93 90.807 103.517 90.8738 103.04 90.9233C100.76 91.1591 98.8165 90.2787 97.8999 88.5954C97.5366 87.9281 97.0928 86.1182 97.1959 85.7242C97.2287 85.5993 101.485 79.7161 106.654 72.6504C129.335 41.6472 139.924 26.9036 140.723 25.217C141.961 22.6025 140.666 18.1753 138.054 16.0912C136.393 14.7659 134.676 14.2216 132.439 14.3112C131.218 14.3602 130.794 14.4411 129.527 14.8665L128.043 15.3645L105.732 45.1316C89.3872 66.9377 83.3376 74.9183 83.1111 74.972C79.0896 75.927 77.0526 74.6936 76.3296 70.8661C76.1596 69.9664 76.1628 69.8519 76.3669 69.5165C76.7444 68.896 92.9396 46.5939 106.386 28.1771C112.239 20.1611 112.41 19.9105 112.467 19.2526C112.535 18.4532 112.322 16.8722 111.956 15.4749C111.228 12.6969 109.21 10.6065 106.321 9.63836C105.409 9.33246 105.084 9.29069 103.658 9.29575C101.915 9.30194 101.137 9.48856 99.9462 10.1861C98.6279 10.9583 97.6385 12.2459 68.3586 51.2964C46.037 81.0665 42.3673 85.8625 40.9021 87.1792C40.1538 87.8517 39.678 88.0001 38.6577 87.8793C37.27 87.7151 35.4144 86.4935 35.0072 85.4762C34.6307 84.5356 34.3853 79.4398 34.1371 67.4019C33.9408 57.8864 33.7653 55.2036 33.2247 53.4541C32.9481 52.5588 32.247 51.3411 31.4897 50.4407C30.9622 49.8134 29.2274 48.4601 28.4288 48.0528C26.7523 47.1979 24.7047 46.9445 22.9855 47.379C20.9926 47.8828 19.608 48.9583 18.2276 51.0751C17.2858 52.5194 16.9151 53.3719 16.5272 54.9862C14.9479 61.5571 10.6974 93.6393 9.65106 106.887C9.11467 113.677 9.05262 122.22 9.50909 126.434C10.3232 133.949 11.3975 138.153 13.7923 143.193C16.3798 148.639 19.9561 153.392 25.7116 159.036C38.4094 171.487 52.3741 179.049 64.6753 180.133C66.3655 180.282 69.1208 180.205 71.4322 179.943Z" fill="#146495"/>
</svg>
