<svg width="192" height="184" viewBox="0 0 192 184" fill="none" xmlns="http://www.w3.org/2000/svg">
<path d="M174.877 62.6139H177.61V64.6224H174.877V62.6139ZM180.606 62.6139H183.339V64.6224H180.606V62.6139ZM49.4429 183.191C49.4018 183.15 45.5065 183.072 40.7868 183.017L32.2055 182.918L30.4708 182.55C23.1593 180.997 16.9689 177.66 11.7463 172.455C6.7492 167.476 3.82019 162.288 1.71329 154.686C1.45097 153.739 1.20138 152.937 1.15864 152.903C1.04153 152.811 0.936303 48.3826 1.04653 41.655C1.19689 32.4779 1.38673 30.7758 2.726 26.5965C4.1759 22.0719 6.54916 17.8033 9.59457 14.2424C15.4408 7.40658 23.3792 3.01837 32.4162 1.62701C34.2808 1.33993 40.9396 1.23763 68.1507 1.07802C85.9052 0.973871 97.9526 0.974002 115.723 1.07837C143.522 1.24187 149.474 1.33452 151.506 1.63543C158.004 2.5978 164.022 5.21685 169.244 9.35516C170.859 10.6354 173.433 13.2121 174.74 14.8569C177.843 18.7613 180.337 23.6525 181.867 28.8346C182.138 29.753 182.36 30.5793 182.36 30.6709C182.36 30.8076 181.607 30.8373 178.143 30.8373H173.927L173.644 29.9461C171.502 23.1979 167.602 17.9748 161.793 14.0781C160.069 12.9215 156.778 11.3363 154.243 10.4417L152.124 9.69395H92.087H32.05L29.4848 10.5605C24.253 12.3278 20.6614 14.5169 17.263 18.0098C15.0058 20.3297 13.5555 22.4501 11.6717 26.1841C10.1971 29.1069 9.9523 29.9982 9.65065 33.5417C9.30877 37.5576 9.2606 44.8233 9.26103 92.3004C9.26138 146.155 9.3018 149.631 9.97179 153.641C10.2395 155.243 10.6508 156.302 12.0046 158.874C13.7988 162.282 15.1709 164.26 17.2886 166.489C20.5671 169.941 25.589 172.892 30.2554 174.111C33.4113 174.935 32.8259 174.904 47.8787 175.041C55.485 175.11 81.3618 175.147 106.023 175.123L150.461 175.081L152.662 174.436C158.645 172.683 162.846 170.242 166.692 166.285C170.225 162.651 172.337 158.899 173.992 153.318L174.616 151.212L174.585 123.938L174.554 96.6643L172.321 96.6029C171.092 96.5691 170.06 96.5137 170.026 96.4799C169.993 96.4461 169.38 95.6994 168.665 94.8204L167.364 93.2224L167.38 87.3834C167.389 84.1719 167.43 80.2168 167.472 78.5942L167.547 75.6439L168.623 75.5153C169.214 75.4445 169.753 75.3312 169.821 75.2635C169.978 75.1065 170.039 73.4387 170.199 64.8879C170.315 58.7113 170.352 57.9255 170.53 57.7884C170.688 57.6666 172.507 57.6506 179.219 57.7119C183.887 57.7546 187.748 57.8263 187.799 57.8713C187.849 57.9162 187.956 61.7921 188.038 66.4844C188.171 74.2083 188.205 75.0354 188.393 75.2235C188.541 75.3716 188.925 75.4568 189.73 75.5205C190.797 75.605 190.866 75.6275 190.992 75.9342C191.08 76.1492 191.154 79.0983 191.21 84.679L191.296 93.0995L190.896 93.4683C190.677 93.6711 189.981 94.4179 189.351 95.1278C188.72 95.8377 188.148 96.4591 188.079 96.5088C188.01 96.5585 186.885 96.5999 185.579 96.601C184.181 96.602 183.107 96.6552 182.967 96.7301C182.733 96.8553 182.729 97.2615 182.727 121.346C182.725 145.857 182.657 150.866 182.293 153.149C181.426 158.59 178.583 164.873 174.903 169.482C173.687 171.005 170.955 173.736 169.427 174.956C166.419 177.358 162.277 179.692 158.625 181.043C157.104 181.605 152.301 183.02 151.913 183.02C151.824 183.02 151.751 183.075 151.751 183.143C151.751 183.277 49.577 183.325 49.4429 183.191L49.4429 183.191ZM183.774 75.36L185.618 75.2753L185.65 67.7768C185.679 60.8365 185.666 60.2669 185.472 60.1246C185.167 59.9002 173.036 59.9018 172.729 60.1264C172.534 60.2691 172.511 60.8215 172.443 66.9181C172.368 73.6652 172.431 75.1191 172.811 75.3973C172.996 75.5326 180.579 75.5068 183.774 75.36L183.774 75.36ZM89.4278 137.16C80.5018 136.413 71.5333 132.254 62.3856 124.62C59.9207 122.564 59.3673 121.974 59.1271 121.147C58.6036 119.347 59.7516 117.641 61.6369 117.417C62.5564 117.308 63.2859 117.616 64.3539 118.562C69.4963 123.117 74.7663 126.605 79.6551 128.689C85.9536 131.374 92.4099 132.064 98.5082 130.704C105.648 129.112 112.765 124.913 120.147 117.937C121.334 116.815 121.605 116.62 122.219 116.441C124.651 115.731 126.727 118.196 125.647 120.514C125.425 120.993 124.937 121.519 123.467 122.87C119.341 126.661 115.592 129.483 111.751 131.691C104.437 135.896 96.7712 137.774 89.4278 137.16V137.16ZM39.8877 77.1959C38.3275 76.6851 37.4797 75.2799 37.808 73.7491C37.9885 72.9074 38.4106 72.3731 40.0972 70.852C43.0307 68.2061 45.956 66.167 48.9235 64.6993C57.5451 60.4354 66.1721 61.1695 74.9225 66.9116C77.8052 68.8033 80.855 71.3672 81.3387 72.3055C81.9778 73.5452 81.4856 75.2532 80.2714 76.0097C79.56 76.4529 78.321 76.5834 77.6219 76.2887C77.388 76.1901 76.4775 75.5053 75.5986 74.767C71.2479 71.1122 67.4992 69.088 63.3992 68.1793C61.7638 67.8169 58.2923 67.7883 56.7294 68.1244C52.3209 69.0726 48.0785 71.4881 43.6632 75.5641C42.9336 76.2377 42.1415 76.8814 41.9031 76.9945C41.3977 77.2343 40.3307 77.3409 39.8877 77.1959V77.1959ZM100.367 77.1887C99.0361 76.7838 98.2539 75.7259 98.2539 74.3306C98.2539 73.2494 98.5871 72.6996 100.084 71.312C107.309 64.6117 114.892 61.4196 122.115 62.0382C125.757 62.3502 128.81 63.2618 132.329 65.0886C135.831 66.9066 141.108 70.9044 141.786 72.2533C142.772 74.2165 141.39 76.4431 139.185 76.4431C138.213 76.4431 137.86 76.2695 136.57 75.159C132.183 71.3807 127.971 69.0565 123.932 68.1839C122.238 67.818 118.783 67.7867 117.209 68.123C112.791 69.0669 108.494 71.5392 103.947 75.7521C102.929 76.6947 102.543 76.9729 102.05 77.1195C101.385 77.317 100.86 77.3386 100.367 77.1887V77.1887Z" fill="#146495" stroke="black" stroke-width="0.163" stroke-linecap="round"/>
</svg>
