<svg width="100%" height="100%" preserveAspectRatio="none" viewBox="0 0 814 100" fill="none" xmlns="http://www.w3.org/2000/svg">
<path d="M812.067 100C812.29 99.8566 812.616 99.7768 813.107 99.808C816.597 100.03 808.846 98.957 807.205 98.106C810.188 98.106 807.982 97.0929 804.302 96.8638C798.211 96.4846 789.436 94.5709 787.342 93.1652C786.093 92.326 787.835 92.2514 794.867 92.8436C800.479 93.3161 801.507 93.3381 801.818 92.9919C802.019 92.7684 802.637 92.6158 803.193 92.6529C804.053 92.71 804.074 92.7518 803.336 92.9338C802.618 93.1108 802.608 93.1571 803.275 93.2021C804.36 93.2754 806.207 92.5709 806.238 92.0718C806.259 91.7484 805.538 91.6468 802.568 91.5539C800.535 91.4903 798.877 91.3649 798.883 91.2751C798.888 91.1852 796.286 90.7832 793.1 90.3817C786.66 89.5701 784.523 89.1531 785.924 88.9822C788.133 88.7131 792.286 88.5683 795.915 88.6339C798.99 88.6894 799.6 88.6339 798.592 88.3948C797.874 88.2238 797.134 88.1471 796.947 88.2241C796.759 88.3009 796.325 88.2299 795.982 88.0664C795.639 87.9028 793.202 87.5557 790.566 87.2955C787.931 87.0352 784.888 86.6531 783.804 86.4462C782.72 86.2392 780.855 86.0079 779.659 85.9329C778.168 85.8391 777.567 85.6923 777.749 85.4668C777.933 85.2379 779.493 85.2301 782.873 85.4405C785.546 85.6069 787.931 85.6622 788.175 85.5634C788.418 85.4645 790.49 85.5001 792.778 85.6426C797.478 85.9352 798.337 85.5982 794.287 85.051C792.811 84.8517 791.354 84.5752 791.05 84.4369C790.745 84.2986 788.781 83.9915 786.684 83.7546C784.587 83.5176 782.767 83.2302 782.638 83.1159C782.51 83.0016 782.862 82.6526 783.421 82.3403C784.563 81.7023 786.016 81.7282 793.312 82.5154C796.9 82.9024 797.889 82.9218 798.717 82.6217C799.307 82.4079 801.233 82.2907 803.328 82.3412C808.937 82.4761 809.017 82.1351 803.56 81.3651C801.596 81.088 799.699 80.7235 799.346 80.5548C798.992 80.3861 797.052 80.0629 795.034 79.8365C791.636 79.4549 788.391 78.7657 790.514 78.8761C792.772 78.9937 789.708 78.2834 784.835 77.5598C779.032 76.6982 776.472 75.9843 778.348 75.7509C779.938 75.5532 779.551 75.1852 777.407 74.8546C776.321 74.6872 775.44 74.4327 775.448 74.2892C775.457 74.1457 775.716 74.1212 776.023 74.2346C776.772 74.511 781.764 74.447 781.448 74.1651C781.147 73.8967 775.454 73.2307 768.173 72.6122C764.797 72.3253 762.355 71.9782 761.569 71.6735C760.884 71.4076 758.463 70.9904 756.19 70.7462C753.917 70.5022 751.812 70.135 751.511 69.9308C751.211 69.7263 749.182 69.3674 747.003 69.1327C744.809 68.8964 742.8 68.5294 742.498 68.3101C742.129 68.0418 739.668 67.7129 734.872 67.2909C730.977 66.948 725.627 66.4089 722.984 66.0928C720.341 65.7766 716.394 65.3469 714.214 65.1375C712.034 64.9281 707.706 64.4537 704.596 64.0831C696.87 63.1627 695.091 62.5079 701.991 63.124C703.025 63.2162 705.203 63.2313 706.83 63.157C712.595 62.8942 713.95 62.2154 709.288 61.925C707.92 61.8401 706.675 61.6572 706.52 61.5194C706.365 61.3814 701.702 60.9011 696.157 60.4515C682.406 59.3368 680.131 59.0512 680.169 58.4456C680.196 58.0093 679.207 57.886 669.853 57.1559C664.163 56.7118 656.196 56.0262 652.147 55.6323C648.099 55.2387 644.17 54.8676 643.416 54.8076C641.704 54.6707 642.358 54.3616 644.372 54.3558C646.1 54.3513 648.205 53.9943 647.813 53.7727C647.667 53.69 646.185 53.4684 644.519 53.2802C638.517 52.6017 641.125 52.6574 650.293 53.4031C655.436 53.8214 668.833 54.7841 680.065 55.5429C691.296 56.3017 702.153 57.1086 704.19 57.336C706.257 57.5666 708.828 57.6825 710.008 57.5984C711.171 57.5157 712.228 57.5421 712.357 57.6573C712.486 57.7721 713.313 57.8853 714.196 57.9094C715.079 57.9332 716.647 57.9953 717.681 58.0472C718.714 58.0991 719.432 58.0276 719.275 57.8878C719.118 57.748 716.37 57.3905 713.167 57.0932C709.965 56.7962 705.054 56.2886 702.255 55.9654C694.123 55.0265 678.624 53.622 659.206 52.0639C656.4 51.8388 650.032 51.184 645.055 50.6085C640.079 50.0333 633.455 49.364 630.337 49.1218C625.197 48.7224 614.033 47.6811 602.87 46.5594C600.535 46.3248 598.374 46.0409 598.068 45.9284C597.761 45.8158 594.577 45.509 590.992 45.2465C585.815 44.8674 584.343 44.671 583.842 44.2916C583.496 44.0291 582.232 43.7186 581.035 43.6017C579.838 43.4851 578.353 43.2639 577.736 43.1105C577.119 42.957 576.251 42.7537 575.805 42.6583C575.36 42.5628 570.52 42.0802 565.049 41.5856C559.578 41.091 553.701 40.5506 551.988 40.385C545.935 39.799 537.98 39.0865 526.624 38.1133C520.305 37.5721 514.571 37.0344 513.882 36.9186C513.191 36.8029 507.911 36.2761 502.148 35.7476C496.386 35.2191 488.108 34.3719 483.754 33.8655C479.398 33.3591 474.942 32.8923 473.85 32.8289C472.758 32.7651 469.955 32.4553 467.626 32.1406L463.391 31.5689L465.956 31.5041C467.37 31.4687 471.367 31.6225 474.844 31.8452C480.232 32.1903 481.222 32.1857 481.556 31.8139C481.904 31.4231 482.81 31.4517 490.289 32.0834C494.876 32.4712 503.217 33.2568 508.82 33.8291C514.423 34.4016 521.43 35.0842 524.39 35.3467C527.35 35.6089 531.426 36.0118 533.448 36.2418C535.471 36.4715 539.295 36.8107 541.946 36.9949C547.569 37.3862 560.165 38.7319 562.575 39.1991C563.49 39.3764 565.301 39.5093 566.599 39.4945C569.114 39.4661 570.149 39.5477 575.923 40.2273C582.436 40.9939 586.654 40.8968 584.463 40.0307C583.92 39.816 585.45 39.8931 589.022 40.2604C593.989 40.7712 600.268 41.1786 604.766 41.2822C605.854 41.3071 606.624 41.1735 606.638 40.9571C606.656 40.6633 606.908 40.6707 607.894 40.9936C608.573 41.2154 610.158 41.487 611.417 41.5966C612.676 41.7063 614.595 41.9287 615.681 42.0908C618.983 42.583 630.429 43.4032 630.765 43.1715C630.938 43.052 631.456 43.1663 631.915 43.4254C632.374 43.6847 632.924 43.8583 633.136 43.811C633.349 43.7637 635.034 43.7351 636.882 43.747C639.382 43.7633 640.354 43.8689 640.68 44.1598C640.922 44.3748 642.084 44.6426 643.264 44.7549C647.127 45.1218 651.406 45.3499 651.969 45.2185C652.752 45.0358 652.676 44.6741 651.839 44.6048C649.523 44.4122 640.302 43.5078 636.693 43.1185C634.359 42.8671 632.267 42.6718 632.043 42.6854C631.104 42.7417 613.769 41.0022 613.231 40.7978C612.908 40.6745 610.857 40.4372 608.675 40.2701C599.253 39.549 587.556 38.3495 583.204 37.6578C582.583 37.5591 580.358 37.2819 578.258 37.0411C576.158 36.8006 574.446 36.5149 574.453 36.4067C574.466 36.1958 588.141 37.1446 590.083 37.4912C593.529 38.1061 598.171 38.5533 604.772 38.9063C615.176 39.4626 622.764 39.9552 623.155 40.0985C623.338 40.1658 625.27 40.4158 627.449 40.6537C632.845 41.2436 634.146 41.4069 636.165 41.75C637.451 41.9684 637.993 41.942 638.257 41.6479C638.453 41.4298 638.908 41.3171 639.269 41.3974C639.63 41.4778 641.325 41.6976 643.037 41.8861C644.748 42.0743 648.566 42.5122 651.52 42.8587C658.89 43.7231 662.906 44.0329 668.244 44.1484C671.346 44.2154 672.942 44.3545 673.255 44.5845C673.538 44.7922 673.604 44.729 673.426 44.42C673.064 43.7932 674.396 43.8329 675.547 44.4832C676.651 45.1062 676.961 45.0935 676.9 44.4289C676.865 44.0536 676.442 43.8478 675.597 43.7953C674.909 43.7524 673.905 43.6066 673.367 43.4711C672.699 43.3035 672.512 43.3355 672.778 43.5724C672.992 43.7639 672.897 43.9036 672.567 43.8831C672.236 43.8625 671.978 43.6597 671.992 43.4326C672.02 42.9876 672.029 42.989 664.453 42.393C661.694 42.1757 659.068 41.9053 658.616 41.7916C658.164 41.6782 656.347 41.4196 654.578 41.2177C652.808 41.0156 651.235 40.8044 651.082 40.7482C650.928 40.6916 648.765 40.4422 646.275 40.1942C643.784 39.9462 639.836 39.5445 637.501 39.3017C635.167 39.0586 632.365 38.7698 631.275 38.6596C630.186 38.5494 628.022 38.3128 626.467 38.1341C616.817 37.0258 610.277 36.3758 603.538 35.8549C595.885 35.2634 590.659 34.7567 587.32 34.2813C586.344 34.1423 583.543 33.8366 581.096 33.6019C578.649 33.3673 575.527 32.9841 574.158 32.7509C572.789 32.5174 564.118 31.8015 554.89 31.1599C545.662 30.5186 535.565 29.7129 532.453 29.3698C529.342 29.0263 525.008 28.6452 522.822 28.5226C520.637 28.4002 516.682 28.0805 514.036 27.8123C511.391 27.5439 505.015 27.0218 499.869 26.6514C488.692 25.8471 477.975 24.9273 457.658 23.0292C449.534 22.2704 443.568 21.6783 427.937 20.0786C424.045 19.6804 415.25 18.8791 408.395 18.2982C401.538 17.7172 393.826 17.0384 391.256 16.7898C388.174 16.492 386.58 16.4363 386.568 16.6263C386.556 16.7846 386.992 16.9981 387.535 17.1013C388.075 17.2046 387.242 17.2364 385.679 17.1717C376.736 16.8007 370.87 16.4267 360.713 15.5794C345.028 14.2707 345.839 14.3237 330.645 13.6104C323.149 13.2583 311.087 12.5813 303.84 12.1059C293.762 11.4446 289.956 11.2928 287.644 11.4596C285.876 11.5875 280.514 11.4973 274.685 11.2418C262.004 10.6852 259.282 10.4689 258.243 9.93262C257.778 9.69332 256.256 9.40453 254.859 9.29055C251.699 9.03357 238.382 8.54382 237.348 8.64678C236.932 8.68855 232.704 8.48834 227.952 8.20178C223.2 7.91549 218.297 7.74669 217.054 7.82671C215.808 7.90693 213 7.90994 210.813 7.83386C208.626 7.75787 203.888 7.6433 200.29 7.57916C196.691 7.51506 191.318 7.37115 188.347 7.25918C185.378 7.14721 180.899 7.04833 178.393 7.03965C141.898 6.91056 142.674 6.92576 141.791 6.33316C141.204 5.93869 141.425 5.86579 143.342 5.8284C144.652 5.80258 146.092 5.53741 146.824 5.1876C148.215 4.52023 148.509 4.11296 147.309 4.51121C146.243 4.86509 145.709 4.49124 146.444 3.90473C146.946 3.50389 146.83 3.40667 145.75 3.31183C145.038 3.24977 144.262 3.2013 144.027 3.2046C143.792 3.20807 143.609 3.06992 143.617 2.89819C143.629 2.7262 143.072 2.28759 142.38 1.92301C141.102 1.24749 139.839 1.15908 133.182 1.27797C132.241 1.29489 128.904 1.35367 125.767 1.40935C122.63 1.46505 117.498 1.58568 114.358 1.67762C107.547 1.87719 106.202 1.90339 99.5307 1.96284C86.5419 2.07828 81.671 2.18429 79.2806 2.40445C77.8632 2.53521 75.8591 2.58851 74.8309 2.52439C73.8057 2.45968 71.3689 2.48353 69.4171 2.57779C67.4682 2.67205 63.8175 2.81532 61.3051 2.89649C55.7924 3.07432 44.7235 3.43778 36.2425 3.71911C31.148 3.88792 29.7826 3.84991 28.7399 3.50763C27.7001 3.16739 25.9167 3.10678 19.1697 3.18214C14.6096 3.2332 10.6424 3.18886 10.3549 3.08297C10.0702 2.97719 8.72233 2.94315 7.36594 3.00753C5.39153 3.10086 2.77591 3.16046 -2.69587e-05 3.1885V99.9999L812.067 100ZM798.068 97.0227C798.031 97.0249 797.993 97.0227 797.954 97.0206C797.642 97.001 797.394 96.8614 797.404 96.7099C797.413 96.5585 797.676 96.4506 797.988 96.47C798.3 96.4896 798.548 96.6293 798.538 96.7807C798.53 96.9132 798.328 97.0125 798.068 97.0223V97.0227ZM802.751 92.0133C802.617 92.0112 802.45 92.0055 802.255 91.9934C801.475 91.9448 801.16 91.8623 801.555 91.8103C801.949 91.7582 802.588 91.7981 802.973 91.8988C803.262 91.9742 803.153 92.017 802.751 92.0133V92.0133ZM794.815 88.1465C794.582 88.1537 794.087 88.1363 793.384 88.0927C791.98 88.0052 791.409 87.9158 792.115 87.8939C792.821 87.872 793.97 87.9435 794.669 88.0528C795.018 88.1075 795.048 88.1393 794.815 88.1465V88.1465ZM768.41 84.3801C768.332 84.3634 768.016 84.2941 767.707 84.2267C767.398 84.1593 764.909 83.8066 762.176 83.4431C759.443 83.0795 757.059 82.6499 756.878 82.4882C756.673 82.3057 757.061 82.2987 757.902 82.47C758.646 82.6217 761.352 83.0239 763.916 83.3638C766.479 83.7037 768.571 84.0783 768.564 84.1962C768.556 84.3141 768.487 84.3969 768.41 84.3801V84.3801ZM764.752 79.9856C764.734 79.9919 764.715 79.9921 764.696 79.9856C764.62 79.9596 761.76 79.6536 758.342 79.3054C754.923 78.9573 751.887 78.5367 751.593 78.3709C750.894 77.976 752.16 78.0629 759.19 78.8914C762.312 79.2592 764.859 79.6666 764.851 79.7966C764.845 79.8942 764.804 79.9666 764.752 79.9856ZM640.79 54.6097C639.958 54.5899 638.812 54.4254 638.577 54.216C638.393 54.052 638.99 54.0007 639.974 54.0956C640.919 54.1867 641.686 54.3543 641.68 54.4677C641.673 54.5815 641.288 54.6216 640.79 54.6097ZM639.664 52.85C639.565 52.8533 639.432 52.8522 639.266 52.8446C638.668 52.8194 638.336 52.7333 638.531 52.6535C638.725 52.574 639.215 52.5947 639.62 52.6997C639.955 52.7867 639.961 52.8404 639.664 52.8501V52.85ZM636.712 52.6894C636.61 52.6948 636.498 52.6942 636.381 52.6868C635.912 52.6575 635.536 52.5303 635.544 52.4041C635.552 52.2779 635.941 52.1985 636.409 52.2278C636.877 52.2568 637.255 52.3839 637.246 52.5101C637.24 52.6047 637.019 52.6733 636.712 52.6893V52.6894ZM714.495 51.4921C714.809 51.4943 714.727 51.3681 714.313 51.212C713.594 50.9411 709.945 50.9679 709.259 51.2493C708.993 51.3589 711.431 51.4718 714.495 51.4921ZM707.933 51.0361C708.295 51.0316 708.547 50.9786 708.554 50.8687C708.562 50.7423 707.792 50.591 706.843 50.5318C705.731 50.4628 705.373 50.5207 705.836 50.6954C706.422 50.9167 707.33 51.0436 707.933 51.0361ZM693.921 49.8673C694.613 49.8529 696.972 49.2916 696.551 49.2214C695.573 49.0578 694.994 48.9381 694.864 48.8726C694.789 48.8343 693.452 48.6831 691.895 48.5369C690.338 48.3907 689.065 48.2561 689.065 48.2381C689.065 48.2201 686.888 48.0361 684.225 47.8287C681.562 47.6214 679.081 47.3398 678.71 47.2032C678.34 47.0666 678.029 47.0907 678.019 47.2566C678.006 47.4576 677.675 47.4515 677.023 47.2392C676.486 47.064 674.473 46.8413 672.551 46.7438C670.628 46.6466 669.18 46.4811 669.332 46.3763C669.484 46.2719 668.253 46.0836 666.598 45.958C664.943 45.8325 663.078 45.6837 662.455 45.6275C661.832 45.5712 660.946 45.6275 660.487 45.7533C659.869 45.9219 659.768 45.8985 660.098 45.6635C660.345 45.4889 660.276 45.3289 659.946 45.3083C659.615 45.2877 659.337 45.3947 659.327 45.5461C659.318 45.6975 658.529 45.773 657.574 45.7135C656.561 45.6506 655.992 45.4999 656.206 45.352C656.409 45.2128 656.418 45.0888 656.228 45.0769C655.836 45.0526 652.484 45.6538 652.479 45.7495C652.476 45.7843 654.781 45.9217 657.599 46.0551C660.666 46.2004 663.201 46.4545 663.916 46.6883C664.572 46.9029 668.194 47.3181 671.963 47.6105C682.971 48.4641 688.856 49.0203 691.269 49.4354C692.509 49.6489 693.65 49.8409 693.806 49.8626C693.836 49.8669 693.875 49.8682 693.921 49.8674V49.8673ZM699.369 48.0398C699.51 48.0485 699.331 47.7967 698.972 47.4799C698.327 46.9109 697.411 46.8621 697.377 47.3952C697.368 47.5465 697.602 47.6143 697.898 47.5452C698.194 47.4762 698.589 47.5552 698.776 47.7215C698.962 47.8874 699.229 48.0311 699.369 48.0398V48.0398ZM693.95 46.8625C694.482 46.8746 694.948 46.7638 694.963 46.5213C694.993 46.0491 694.291 45.9291 693.736 46.3111C693.531 46.4529 693.091 46.4685 692.758 46.3458C692.398 46.2127 692.31 46.2612 692.539 46.4662C692.819 46.7153 693.418 46.8503 693.95 46.8625V46.8625ZM667.498 46.7963C667.329 46.7985 667.144 46.7935 666.95 46.7816C666.176 46.7334 665.687 46.5939 665.864 46.4718C666.041 46.3496 666.682 46.281 667.287 46.3188C667.893 46.3565 668.382 46.4956 668.374 46.6281C668.368 46.7273 668.006 46.7911 667.498 46.7964V46.7963ZM688.733 46.5374C689.578 46.4839 690.311 45.6695 689.825 45.2363C689.445 44.8972 686.554 44.6527 685.933 44.9074C685.197 45.2102 683.6 45.0987 682.746 44.6853C681.912 44.2813 677.998 43.9623 677.316 44.2425C676.463 44.5926 679.692 45.3628 682.33 45.4389C683.853 45.4828 685.221 45.4687 685.37 45.4075C685.519 45.3463 686.116 45.564 686.696 45.8915C687.276 46.219 688.116 46.5095 688.563 46.5374C688.62 46.5409 688.677 46.5409 688.733 46.5374V46.5374ZM668.156 43.5673C668.057 43.5706 667.924 43.5695 667.758 43.5619C667.159 43.5367 666.828 43.4506 667.023 43.3708C667.217 43.2913 667.707 43.312 668.112 43.417C668.447 43.504 668.453 43.5578 668.156 43.5674V43.5673ZM522.308 22.2451C522.552 22.2451 522.809 22.2401 523.077 22.2328C525.249 22.1742 524.479 21.6518 522.225 21.6551C521.222 21.6551 520.21 21.6529 519.976 21.6492C519.741 21.6449 519.543 21.7447 519.535 21.8709C519.52 22.112 520.599 22.2524 522.308 22.2451ZM514.978 21.706C515.292 21.7086 515.594 21.7082 515.871 21.703C516.61 21.6904 517.176 21.6505 517.359 21.5754C517.946 21.3353 517.847 21.2603 516.877 21.1999C516.209 21.1581 515.541 21.0158 515.393 20.8838C515.245 20.7518 513.191 20.531 510.833 20.393C508.472 20.2546 506.546 20.0486 506.555 19.9352C506.575 19.5761 504.867 19.6064 504.827 19.9658C504.803 20.1563 504.542 20.0786 504.24 19.7911C503.938 19.5063 503.072 19.2347 502.317 19.1877C501.26 19.1218 501.016 19.2172 501.257 19.6055C501.553 20.083 501.533 20.0818 500.812 19.578C500.136 19.1029 499.895 19.0789 498.474 19.3466C496.976 19.6285 496.888 19.6118 496.917 19.041C496.932 18.7089 496.752 18.5496 496.511 18.6868C496.273 18.8239 495.692 18.9528 495.221 18.9728C494.751 18.9927 494.277 19.1119 494.17 19.2372C494.065 19.3625 493.551 19.3817 493.028 19.2796C492.508 19.1775 492.962 19.3517 494.039 19.667C495.558 20.1116 496.984 20.265 500.403 20.3523C503.194 20.4233 504.806 20.566 504.794 20.741C504.777 21.0235 507.304 21.1242 507.931 20.8664C508.382 20.681 510.528 21.0867 510.22 21.2991V21.3012C509.923 21.5055 512.775 21.6893 514.978 21.7068V21.706ZM490.661 19.295C491.738 19.3125 491.707 19.235 491.277 19.0729C490.67 18.844 490.804 18.7678 491.867 18.7368C493.136 18.7 493.118 18.6858 491.649 18.5597C490.772 18.4843 489.613 18.2788 489.076 18.1028C488.518 17.9206 486.732 17.7868 484.934 17.7934C482.375 17.8028 481.649 17.7144 481.135 17.3327C480.786 17.0729 480.638 17.021 480.807 17.217C480.995 17.4366 480.502 17.6006 479.52 17.6438C478.643 17.6824 477.568 17.7464 477.129 17.7862C476.479 17.8445 476.47 17.7886 477.068 17.4862C477.664 17.1859 477.658 17.0821 477.039 16.9475C475.364 16.5826 465.84 15.6112 461.695 15.3824C459.276 15.249 457.3 15.0698 457.304 14.9848C457.321 14.6913 441.155 13.2383 431.671 12.6814C425.674 12.329 422.171 12.0214 422.174 11.8474C422.18 11.6957 421.918 11.7417 421.599 11.9499C421.16 12.2322 420.908 12.2374 420.594 11.9712C420.35 11.7647 419.856 11.6878 419.42 11.789C418.715 11.9535 414.16 11.3917 413.135 11.0134C412.679 10.8443 407.314 10.3946 386.486 8.77954C380.718 8.33228 371.407 7.60067 365.795 7.15339C360.184 6.70641 346.457 5.76748 335.287 5.06613C318.786 4.03033 314.889 3.85623 314.482 4.13587C314.128 4.37979 313.875 4.38257 313.608 4.14562C313.352 3.91648 312.751 3.96152 311.702 4.28929L310.169 4.76734L309.774 4.17444C309.556 3.84813 309.225 3.57166 309.042 3.56034C308.856 3.54884 308.873 3.68743 309.077 3.86845C309.323 4.08971 309.054 4.11216 308.249 3.93668C307.54 3.78205 307.049 3.79543 307.038 3.96974C307.026 4.13135 306.489 4.23046 305.844 4.19012C305.196 4.1498 304.273 4.27895 303.79 4.47704C303.117 4.75433 303.088 4.84868 303.663 4.88813C304.217 4.92554 304.185 4.99493 303.546 5.15301C302.89 5.31486 303.134 5.39588 304.554 5.48782C305.664 5.55919 306.297 5.48781 306.1 5.31194C305.917 5.14835 306.036 5.03157 306.367 5.05214C306.698 5.07276 306.959 5.21322 306.95 5.36491C306.942 5.51633 307.331 5.66488 307.819 5.69506C308.304 5.72553 308.536 5.86409 308.333 6.00359C308.133 6.14312 308.237 6.27416 308.569 6.29475C308.9 6.31536 309.176 6.23935 309.181 6.12565C309.187 6.0119 310.598 6.00635 312.315 6.11331C314.029 6.22004 315.428 6.385 315.423 6.47985C315.42 6.5747 320.712 6.99878 327.186 7.42198C333.66 7.84517 348.275 8.8426 359.661 9.63849C371.047 10.4341 383.809 11.3154 388.02 11.5965C392.618 11.9034 395.836 12.233 396.077 12.4213C396.33 12.6194 396.487 12.5961 396.507 12.3577C396.533 12.0641 396.713 12.0631 397.323 12.3534C397.84 12.6005 399.946 12.8074 403.565 12.9678C406.571 13.1007 409.15 13.2791 409.301 13.3641C409.824 13.6588 411.805 13.8229 411.822 13.5726C411.831 13.4215 412.586 13.4696 413.716 13.693C414.747 13.8975 416.208 14.1029 416.963 14.1473C417.716 14.1926 423.115 14.5861 428.961 15.022C435.601 15.5172 439.601 15.7152 439.61 15.5492C439.618 15.4031 440.01 15.3072 440.478 15.3365C440.945 15.3655 441.323 15.5041 441.314 15.6442C441.294 15.9389 446.981 16.0623 447.855 15.7862C448.346 15.6316 455.81 16.0989 455.799 16.2837C455.796 16.3176 457.196 16.4705 458.909 16.6237C464.204 17.0962 469.177 17.667 469.708 17.8628C469.987 17.9655 470.222 17.9362 470.231 17.7976C470.252 17.453 473.647 17.7463 473.638 18.0921C473.632 18.276 473.775 18.2846 474.065 18.1184C474.303 17.9812 475.456 17.9286 476.627 18.0015C477.797 18.0745 478.747 18.2581 478.738 18.4095C478.727 18.5737 480.614 18.7895 483.403 18.9435C487.401 19.1643 489.584 19.2776 490.661 19.2953L490.661 19.295ZM348.573 12.895C348.638 12.8859 348.622 12.7666 348.525 12.6047C348.302 12.2346 345.847 11.898 345.827 12.2347C345.818 12.3505 346.384 12.5344 347.081 12.6437C347.781 12.7531 348.435 12.8648 348.54 12.8921C348.552 12.8953 348.563 12.8964 348.573 12.8951V12.895ZM340.283 11.8542C341.021 11.862 340.757 11.6836 339.609 11.4643C338.987 11.3462 338.618 11.3703 338.784 11.5185C338.949 11.6667 339.455 11.8112 339.905 11.8393C340.051 11.8484 340.177 11.853 340.283 11.8541V11.8542ZM335.447 11.5227C335.884 11.5147 336.408 11.4557 336.768 11.3676C337.825 11.1069 336.928 11.0511 335.348 11.2791C334.59 11.3887 334.488 11.4683 335.049 11.513C335.166 11.5223 335.301 11.5254 335.447 11.5227V11.5227ZM311.947 9.81649C312.189 9.80564 312.26 9.69858 312.1 9.55543C311.917 9.39214 311.653 9.25112 311.516 9.24266C311.38 9.23398 311.258 9.35063 311.249 9.50203C311.241 9.65373 311.502 9.79463 311.833 9.81522C311.874 9.81783 311.912 9.81805 311.947 9.81739V9.81649ZM289.568 7.85723C289.699 7.86526 289.644 7.77596 289.437 7.5915C289.254 7.42791 288.801 7.27728 288.429 7.25669C288.022 7.23378 288.086 7.34623 288.586 7.53852C289.12 7.74345 289.437 7.84907 289.568 7.85723V7.85723ZM279.252 7.77374C280.04 7.795 280.889 7.70925 281.385 7.50504C282.303 7.12913 283.186 7.04751 282.695 7.38426C282.541 7.49128 283.416 7.59494 284.639 7.61438C287.226 7.65557 287.241 7.25419 284.653 7.17998C283.694 7.15271 282.785 7.01795 282.631 6.88077C282.477 6.74359 281.78 6.64934 281.08 6.67141C280.381 6.69346 276.442 6.51188 272.329 6.26794C265.315 5.85171 264.908 5.85627 265.774 6.34762C266.5 6.75979 267.363 6.8816 269.826 6.91934C271.548 6.94572 273.322 6.88043 273.77 6.77397C274.307 6.64577 274.447 6.67375 274.182 6.85619C273.575 7.27361 274.746 7.56939 276.021 7.32111C276.773 7.17553 277.264 7.20168 277.485 7.39951C277.737 7.62386 278.464 7.75245 279.252 7.77374H279.252ZM262.135 6.67565C262.897 6.68455 263.442 6.67347 263.541 6.63623C264.423 6.29599 261.931 5.7832 258.159 5.52882C255.757 5.36667 253.714 5.10338 253.619 4.94354C253.514 4.77067 254.601 4.73583 256.297 4.85793C258.62 5.02471 259.419 4.95254 260.595 4.4693C261.391 4.14297 262.047 3.78477 262.053 3.67339C262.062 3.56201 260.987 3.30781 259.668 3.10888C258.35 2.9099 256.892 2.65591 256.427 2.54394C255.373 2.28841 247.697 1.82556 242.808 1.7226C240.775 1.67968 236.68 1.56957 233.708 1.47764C226.038 1.24038 220.185 1.07766 217.22 1.01992C215.811 0.992647 212.483 0.908633 209.825 0.832599C204.147 0.670768 191.672 0.570635 186.7 0.647819C184.783 0.677416 182.349 0.656717 181.291 0.601624C180.234 0.546508 178.852 0.587317 178.218 0.692319C177.094 0.878778 177.097 0.882679 178.256 0.851671C179.723 0.812222 179.831 1.5022 178.373 1.59588C177.71 1.63824 177.234 1.46777 177.034 1.11825C176.865 0.819212 176.38 0.55267 175.959 0.526609C175.538 0.500202 174.75 0.368095 174.213 0.23291C173.47 0.045843 173.345 0.0880129 173.696 0.407943C174.077 0.756906 174.007 0.759646 173.29 0.424895C172.395 0.00779718 170.649 0.0632754 169.784 0.536357C169.444 0.721406 169.215 0.692439 169.029 0.440947C168.884 0.241685 168.259 0.0474379 167.643 0.00913912C167.025 -0.0294417 166.653 0.0577835 166.816 0.20282C167.211 0.554647 166.055 0.889943 163.958 1.03179C163.014 1.09558 162.046 1.16119 161.811 1.178C161.576 1.19493 160.914 1.19449 160.338 1.178C159.766 1.1613 159.244 1.3308 159.177 1.55472C159.11 1.77865 159.003 2.15398 158.936 2.3892C158.857 2.65837 158.439 2.74515 157.8 2.62361C156.801 2.43277 156.551 2.88815 157.446 3.27162C158.123 3.56165 163.583 3.39815 165.358 3.03471C166.302 2.8418 167.033 2.83081 167.231 3.00716C167.408 3.16611 167.931 3.2498 168.393 3.19321C168.855 3.13664 169.11 2.98001 168.956 2.84484C168.805 2.70996 168.933 2.54102 169.241 2.46935C169.549 2.3977 170.031 2.57719 170.316 2.869C170.85 3.41775 173.746 3.89864 173.775 3.44326C173.783 3.30172 174.841 3.27993 176.122 3.39452C177.62 3.52882 178.561 3.48092 178.759 3.26017C178.988 3.0046 179.255 3.00694 179.807 3.27035C180.632 3.66308 181.954 3.49621 181.463 3.06141C181.294 2.90913 181.425 2.80136 181.756 2.82196C182.084 2.84257 182.349 2.99168 182.337 3.15295C182.305 3.68084 192.959 3.76377 193.769 3.24195C194.213 2.95683 200.069 2.86557 199.656 3.15041C199.485 3.26817 199.744 3.38911 200.231 3.41953C200.717 3.44969 201.12 3.38165 201.129 3.26823C201.135 3.15481 201.78 3.10151 202.561 3.14998C203.339 3.19872 203.973 3.33975 203.964 3.4636C203.958 3.58716 204.53 3.62678 205.242 3.55133C205.95 3.47595 208.193 3.49576 210.223 3.59583C215.367 3.84875 215.442 3.8475 215.062 3.50726C214.838 3.30736 215.509 3.31386 217.017 3.5259C218.597 3.74843 219.622 3.74903 220.301 3.52982C220.844 3.35408 221.115 3.33393 220.906 3.48448C220.644 3.6707 222.271 3.88758 226.003 4.16342C229.018 4.38648 231.8 4.71921 232.186 4.90339C232.605 5.10267 233.531 5.19206 234.472 5.12334C235.341 5.06011 237.15 5.05008 238.489 5.10168C239.831 5.15302 241.051 5.14399 241.205 5.08128C241.356 5.01864 242.939 5.17116 244.722 5.42033C246.503 5.66978 249.689 5.94213 251.798 6.02595C253.909 6.10977 255.629 6.24504 255.623 6.3268C255.614 6.45233 259.85 6.64919 262.135 6.6756V6.67565ZM313.617 6.04884C313.564 6.05101 313.505 6.04886 313.442 6.04539C312.524 5.98824 312.341 5.54484 313.157 5.35458C313.442 5.28816 313.811 5.4281 313.973 5.66566C314.134 5.89508 313.993 6.03777 313.617 6.04873V6.04884ZM145.336 5.5267C144.986 5.53061 144.745 5.36032 144.983 5.09527C145.174 4.88006 145.561 4.78843 145.84 4.89141C146.121 4.99438 146.194 5.18484 146.005 5.3148C145.796 5.45934 145.546 5.52443 145.336 5.5267ZM297.118 5.40804C298.019 5.40543 298.512 5.34797 298.414 5.2419C298.266 5.08415 297.921 4.97718 297.645 5.00415C297.369 5.03142 297.29 4.74221 297.468 4.36165C297.694 3.87581 297.491 3.57143 296.785 3.34027C295.385 2.88225 295.365 2.88586 294.519 3.76154C293.793 4.51248 292.745 4.78056 292.782 4.20654C292.791 4.05515 293.026 3.94547 293.305 3.96285C293.584 3.98021 293.974 3.8147 294.171 3.59541C294.467 3.26417 294.322 3.23633 293.317 3.43182C292.457 3.5989 292.225 3.58626 292.513 3.38817C292.777 3.20542 292.222 3.06582 290.897 2.98343C289.776 2.91354 288.87 2.99602 288.859 3.16863C288.847 3.38094 287.973 3.36944 286.108 3.13218C283.886 2.84992 283.372 2.86278 283.352 3.20127C283.337 3.43012 283.529 3.63017 283.779 3.64584C284.029 3.66146 284.075 3.85089 283.883 4.06668C283.366 4.64275 282.199 4.46755 281.598 3.72297L281.069 3.07412L280.363 3.63991C279.753 4.12748 279.785 4.18962 280.596 4.09042C281.409 3.99093 281.438 4.05304 280.822 4.54643C280.18 5.05805 280.215 5.09876 281.159 4.93719C281.737 4.83828 282.846 4.83059 283.622 4.92023C285.806 5.17172 287.708 5.02454 287.273 4.63761C287.026 4.41717 287.203 4.37687 287.778 4.52191C288.298 4.65214 288.812 4.58258 289.016 4.35487C289.213 4.13504 289.117 4.02311 288.795 4.09847C288.481 4.17157 288.231 4.10065 288.24 3.93996C288.278 3.37262 290.354 3.78833 290.927 4.47693C291.455 5.11564 291.812 5.19083 295.092 5.35209C295.888 5.39126 296.576 5.40963 297.118 5.40809V5.40804ZM295.885 4.67612C295.766 4.66896 295.545 4.55139 295.391 4.41505C295.237 4.27898 295.472 4.1899 295.914 4.21713C296.355 4.24469 296.579 4.36234 296.408 4.47862C296.239 4.59465 296.004 4.6835 295.885 4.67612V4.67612ZM302.281 4.4977C302.431 4.50703 302.453 4.42405 302.463 4.25613C302.472 4.10471 302.033 3.95501 301.487 3.92344C300.636 3.87411 300.613 3.91217 301.327 4.18577C301.852 4.38692 302.131 4.48839 302.281 4.4977V4.4977ZM273.805 4.38878C274.05 4.38878 274.353 4.29876 274.789 4.11966C275.649 3.76636 275.832 2.87467 275.054 2.82619C274.76 2.80797 274.665 3.00017 274.839 3.25339C275.051 3.55968 274.778 3.73783 274.02 3.78655C273.392 3.82656 273.012 3.97761 273.174 4.12263C273.373 4.30038 273.56 4.38883 273.805 4.38835V4.38878ZM299.761 4.07855C300.464 4.07855 300.237 3.86849 299.106 3.49793C298.205 3.20324 298.057 3.21766 298.307 3.57676C298.476 3.81866 298.966 4.03886 299.402 4.06584C299.541 4.07451 299.66 4.07866 299.761 4.07866V4.07855ZM277.274 3.97048C277.588 3.95551 277.736 3.81543 277.607 3.63016C277.459 3.41812 277.267 3.2405 277.177 3.23475C277.087 3.22932 276.875 3.38208 276.701 3.57379C276.529 3.76583 276.724 3.94395 277.13 3.96921C277.182 3.97246 277.23 3.97268 277.274 3.97138V3.97048ZM282.41 3.44199C282.484 3.44416 282.56 3.43635 282.634 3.4191C283.5 3.21752 282.663 2.74606 281.31 2.6715C280.624 2.63381 279.559 2.75418 278.937 2.93893C277.604 3.3363 278.699 3.46744 280.47 3.12286C281.397 2.94391 281.752 2.96683 281.9 3.21483C281.98 3.35103 282.187 3.43676 282.41 3.44199V3.44199ZM30.3949 3.30891C30.6917 3.29915 30.6846 3.24547 30.3491 3.15846C29.9454 3.05324 29.4544 3.03246 29.2627 3.11227C29.0681 3.19203 29.3994 3.27791 29.9977 3.3034C30.1633 3.31035 30.296 3.31206 30.3949 3.30881V3.30891ZM144.914 2.73423C145.157 2.72338 145.23 2.61605 145.07 2.47316C144.884 2.30957 144.623 2.16883 144.486 2.16039C144.347 2.15171 144.227 2.26877 144.216 2.42019C144.207 2.5716 144.472 2.71263 144.8 2.73296C144.841 2.73556 144.879 2.73578 144.914 2.73513V2.73423ZM272.534 2.62828C272.83 2.61851 272.824 2.56486 272.489 2.47782C272.085 2.37287 271.595 2.35182 271.4 2.43163C271.205 2.51139 271.536 2.59727 272.138 2.62277C272.302 2.62971 272.435 2.63143 272.534 2.62817V2.62828ZM149.735 1.82685C149.804 1.83228 149.881 1.82683 149.961 1.80773C150.284 1.7323 150.408 1.54638 150.237 1.39409C149.775 0.98192 149.43 1.03148 149.401 1.5153C149.39 1.6926 149.529 1.81066 149.735 1.8268V1.82685ZM151.728 1.36448C151.876 1.36231 152.068 1.35515 152.305 1.3399C153.078 1.29029 153.345 1.18147 152.924 1.08604C152.517 0.99438 151.907 1.03339 151.57 1.17292C151.243 1.30647 151.286 1.36789 151.728 1.36448Z" fill="white"/>
</svg>
