<svg width="100%" height="100%" preserveAspectRatio="none" viewBox="0 0 814 100" fill="none" xmlns="http://www.w3.org/2000/svg">
<path d="M1.93271 0C1.71036 0.143409 1.3836 0.223232 0.892975 0.191985C-2.59652 -0.0304946 5.15411 1.04301 6.79483 1.894C3.81239 1.894 6.01763 2.90709 9.69759 3.13618C15.7886 3.51542 24.564 5.42908 26.6575 6.83476C27.9075 7.67404 26.1654 7.74858 19.1333 7.15643C13.5215 6.68389 12.4925 6.66194 12.1819 7.0081C11.9814 7.23156 11.3627 7.38421 10.8069 7.34715C9.94696 7.29001 9.92585 7.24819 10.6643 7.06616C11.3817 6.88916 11.3924 6.84292 10.7254 6.79789C9.63992 6.72461 7.79271 7.42909 7.76157 7.92819C7.74136 8.25161 8.46221 8.35317 11.432 8.44608C13.4645 8.50972 15.1231 8.63511 15.1174 8.72495C15.1117 8.81476 17.7142 9.21682 20.9004 9.61834C27.3404 10.4299 29.4775 10.8469 28.0758 11.0178C25.867 11.2869 21.7144 11.4317 18.0855 11.3661C15.0102 11.3106 14.3999 11.3661 15.4076 11.6052C16.1255 11.7762 16.8661 11.8529 17.0534 11.7759C17.2407 11.6991 17.6746 11.7701 18.0176 11.9336C18.3606 12.0972 20.7978 12.4443 23.4335 12.7045C26.0692 12.9648 29.1123 13.3469 30.196 13.5538C31.2796 13.7608 33.145 13.9921 34.3414 14.0671C35.8319 14.1609 36.4333 14.3077 36.2515 14.5332C36.0673 14.7621 34.5066 14.7699 31.1271 14.5595C28.4544 14.3931 26.0686 14.3378 25.8253 14.4366C25.5819 14.5355 23.5103 14.4999 21.2216 14.3574C16.5224 14.0648 15.6629 14.4018 19.713 14.949C21.1887 15.1483 22.6455 15.4248 22.9501 15.5631C23.2549 15.7014 25.2195 16.0085 27.3162 16.2454C29.4129 16.4824 31.2334 16.7698 31.3618 16.8841C31.49 16.9984 31.1378 17.3474 30.5788 17.6597C29.4366 18.2977 27.9838 18.2718 20.6878 17.4846C17.0997 17.0976 16.111 17.0782 15.2829 17.3783C14.6925 17.5921 12.7669 17.7093 10.6715 17.6588C5.06346 17.5239 4.98262 17.8649 10.4403 18.6349C12.4044 18.912 14.3008 19.2765 14.6544 19.4452C15.0079 19.6139 16.9481 19.9371 18.9656 20.1635C22.3641 20.5451 25.6088 21.2343 23.4861 21.1239C21.2277 21.0063 24.2917 21.7166 29.1652 22.4402C34.9677 23.3018 37.5278 24.0157 35.6518 24.2491C34.0622 24.4468 34.4488 24.8148 36.5931 25.1454C37.6791 25.3128 38.5603 25.5673 38.5516 25.7108C38.5427 25.8543 38.2839 25.8788 37.9766 25.7654C37.2275 25.489 32.2357 25.553 32.5522 25.8349C32.8533 26.1033 38.5464 26.7693 45.8268 27.3878C49.2032 27.6747 51.6449 28.0218 52.4306 28.3265C53.1163 28.5924 55.5373 29.0096 57.81 29.2538C60.0831 29.4978 62.1882 29.865 62.4888 30.0692C62.7894 30.2737 64.8179 30.6326 66.9966 30.8673C69.1909 31.1036 71.2004 31.4706 71.5022 31.6899C71.8714 31.9582 74.3322 32.2871 79.1283 32.7091C83.0232 33.052 88.3727 33.5911 91.0161 33.9072C93.6594 34.2234 97.6062 34.6531 99.7863 34.8625C101.966 35.0719 106.294 35.5463 109.404 35.9169C117.13 36.8373 118.909 37.4921 112.009 36.876C110.975 36.7838 108.797 36.7687 107.17 36.843C101.405 37.1058 100.05 37.7846 104.712 38.075C106.08 38.1599 107.325 38.3428 107.48 38.4806C107.635 38.6186 112.298 39.0989 117.843 39.5485C131.594 40.6632 133.869 40.9488 133.831 41.5544C133.804 41.9907 134.793 42.114 144.147 42.8441C149.837 43.2882 157.804 43.9738 161.853 44.3677C165.901 44.7613 169.83 45.1324 170.584 45.1924C172.296 45.3293 171.642 45.6384 169.628 45.6442C167.9 45.6487 165.795 46.0057 166.187 46.2273C166.333 46.31 167.815 46.5316 169.481 46.7198C175.483 47.3983 172.875 47.3426 163.707 46.5969C158.564 46.1786 145.167 45.2159 133.935 44.4571C122.704 43.6983 111.847 42.8914 109.81 42.664C107.743 42.4334 105.172 42.3175 103.992 42.4016C102.829 42.4843 101.772 42.4579 101.643 42.3427C101.514 42.2279 100.687 42.1147 99.8037 42.0906C98.9207 42.0668 97.3525 42.0047 96.3191 41.9528C95.2857 41.9009 94.5683 41.9724 94.7252 42.1122C94.882 42.252 97.6304 42.6095 100.833 42.9068C104.035 43.2038 108.946 43.7114 111.745 44.0346C119.877 44.9735 135.376 46.378 154.794 47.9361C157.6 48.1612 163.968 48.816 168.945 49.3915C173.921 49.9667 180.545 50.636 183.663 50.8782C188.803 51.2776 199.967 52.3189 211.13 53.4406C213.465 53.6752 215.626 53.9591 215.932 54.0716C216.239 54.1842 219.423 54.491 223.008 54.7535C228.185 55.1326 229.657 55.329 230.158 55.7084C230.504 55.9709 231.768 56.2814 232.965 56.3983C234.162 56.5149 235.647 56.7361 236.264 56.8895C236.881 57.043 237.749 57.2463 238.195 57.3417C238.64 57.4372 243.48 57.9198 248.951 58.4144C254.422 58.909 260.299 59.4494 262.012 59.615C268.065 60.201 276.02 60.9135 287.376 61.8867C293.695 62.4279 299.429 62.9656 300.118 63.0814C300.809 63.1971 306.089 63.7239 311.852 64.2524C317.614 64.7809 325.892 65.6281 330.246 66.1345C334.602 66.6409 339.058 67.1077 340.15 67.1711C341.242 67.2349 344.045 67.5447 346.374 67.8594L350.609 68.4311L348.044 68.4959C346.63 68.5313 342.633 68.3775 339.156 68.1548C333.768 67.8097 332.778 67.8143 332.444 68.1861C332.096 68.5769 331.19 68.5483 323.711 67.9166C319.124 67.5288 310.783 66.7432 305.18 66.1709C299.577 65.5984 292.57 64.9158 289.61 64.6533C286.65 64.3911 282.574 63.9882 280.552 63.7582C278.529 63.5285 274.705 63.1893 272.054 63.0051C266.431 62.6138 253.835 61.2681 251.425 60.8009C250.51 60.6236 248.699 60.4907 247.401 60.5055C244.886 60.5339 243.851 60.4523 238.077 59.7727C231.564 59.0061 227.346 59.1032 229.537 59.9693C230.08 60.184 228.55 60.1069 224.978 59.7396C220.011 59.2288 213.732 58.8214 209.234 58.7178C208.146 58.6929 207.376 58.8265 207.362 59.0429C207.344 59.3367 207.092 59.3293 206.106 59.0064C205.427 58.7846 203.842 58.513 202.583 58.4034C201.324 58.2937 199.405 58.0713 198.319 57.9092C195.017 57.417 183.571 56.5968 183.235 56.8285C183.062 56.948 182.544 56.8337 182.085 56.5746C181.626 56.3153 181.076 56.1417 180.864 56.189C180.651 56.2363 178.966 56.2649 177.118 56.253C174.618 56.2367 173.646 56.1311 173.32 55.8402C173.078 55.6252 171.916 55.3574 170.736 55.2451C166.873 54.8782 162.594 54.6501 162.031 54.7815C161.248 54.9642 161.324 55.3259 162.161 55.3952C164.477 55.5878 173.698 56.4922 177.307 56.8815C179.641 57.1329 181.733 57.3282 181.957 57.3146C182.896 57.2583 200.231 58.9978 200.769 59.2022C201.092 59.3255 203.143 59.5628 205.325 59.7299C214.747 60.451 226.444 61.6505 230.796 62.3422C231.417 62.4409 233.642 62.7181 235.742 62.9589C237.842 63.1994 239.554 63.4851 239.547 63.5933C239.534 63.8042 225.859 62.8554 223.917 62.5088C220.471 61.8939 215.829 61.4467 209.228 61.0937C198.824 60.5374 191.236 60.0448 190.845 59.9015C190.662 59.8342 188.73 59.5842 186.551 59.3463C181.155 58.7564 179.854 58.5931 177.835 58.25C176.549 58.0316 176.007 58.058 175.743 58.3521C175.547 58.5702 175.092 58.6829 174.731 58.6026C174.37 58.5222 172.675 58.3024 170.963 58.1139C169.252 57.9257 165.434 57.4878 162.48 57.1413C155.11 56.2769 151.094 55.9671 145.756 55.8516C142.654 55.7846 141.058 55.6455 140.745 55.4155C140.462 55.2078 140.396 55.271 140.574 55.58C140.936 56.2068 139.604 56.1671 138.453 55.5168C137.349 54.8938 137.039 54.9065 137.1 55.5711C137.135 55.9464 137.558 56.1522 138.403 56.2047C139.091 56.2476 140.095 56.3934 140.633 56.5289C141.301 56.6965 141.488 56.6645 141.222 56.4276C141.008 56.2361 141.103 56.0964 141.433 56.1169C141.764 56.1375 142.022 56.3403 142.008 56.5674C141.98 57.0124 141.971 57.011 149.547 57.607C152.306 57.8243 154.932 58.0947 155.384 58.2084C155.836 58.3218 157.653 58.5804 159.422 58.7823C161.192 58.9844 162.765 59.1956 162.918 59.2518C163.072 59.3084 165.235 59.5578 167.725 59.8058C170.216 60.0538 174.164 60.4555 176.499 60.6983C178.833 60.9414 181.635 61.2302 182.725 61.3404C183.814 61.4506 185.978 61.6872 187.533 61.8659C197.183 62.9742 203.723 63.6242 210.462 64.1451C218.115 64.7366 223.341 65.2433 226.68 65.7187C227.656 65.8577 230.457 66.1634 232.904 66.3981C235.351 66.6327 238.473 67.0159 239.842 67.2491C241.211 67.4826 249.882 68.1985 259.11 68.8401C268.338 69.4814 278.435 70.2871 281.547 70.6302C284.658 70.9737 288.992 71.3548 291.178 71.4774C293.363 71.5998 297.318 71.9195 299.964 72.1877C302.609 72.4561 308.985 72.9782 314.131 73.3486C325.308 74.1529 336.025 75.0727 356.342 76.9708C364.466 77.7296 370.432 78.3217 386.063 79.9214C389.955 80.3196 398.75 81.1209 405.605 81.7018C412.462 82.2828 420.174 82.9616 422.744 83.2102C425.826 83.508 427.42 83.5637 427.432 83.3737C427.444 83.2154 427.008 83.0019 426.465 82.8987C425.925 82.7954 426.758 82.7636 428.321 82.8283C437.264 83.1993 443.13 83.5733 453.287 84.4206C468.972 85.7293 468.161 85.6763 483.355 86.3896C490.851 86.7417 502.913 87.4187 510.16 87.8941C520.238 88.5554 524.044 88.7072 526.356 88.5404C528.124 88.4125 533.486 88.5027 539.315 88.7582C551.996 89.3148 554.718 89.5311 555.757 90.0674C556.222 90.3067 557.744 90.5955 559.141 90.7095C562.301 90.9664 575.618 91.4562 576.652 91.3532C577.068 91.3114 581.296 91.5117 586.048 91.7982C590.8 92.0845 595.703 92.2533 596.946 92.1733C598.192 92.0931 601 92.0901 603.187 92.1661C605.374 92.2421 610.112 92.3567 613.71 92.4208C617.309 92.4849 622.682 92.6289 625.653 92.7408C628.622 92.8528 633.101 92.9517 635.607 92.9604C672.102 93.0894 671.326 93.0742 672.209 93.6668C672.796 94.0613 672.575 94.1342 670.658 94.1716C669.348 94.1974 667.908 94.4626 667.176 94.8124C665.785 95.4798 665.491 95.887 666.691 95.4888C667.757 95.1349 668.291 95.5088 667.556 96.0953C667.054 96.4961 667.17 96.5933 668.25 96.6882C668.962 96.7502 669.738 96.7987 669.973 96.7954C670.208 96.7919 670.391 96.9301 670.383 97.1018C670.371 97.2738 670.928 97.7124 671.62 98.077C672.898 98.7525 674.161 98.8409 680.818 98.722C681.759 98.7051 685.096 98.6463 688.233 98.5907C691.37 98.5349 696.502 98.4143 699.642 98.3224C706.453 98.1228 707.798 98.0966 714.469 98.0372C727.458 97.9217 732.329 97.8157 734.719 97.5955C736.137 97.4648 738.141 97.4115 739.169 97.4756C740.194 97.5403 742.631 97.5165 744.583 97.4222C746.532 97.3279 750.183 97.1847 752.695 97.1035C758.208 96.9257 769.276 96.5622 777.758 96.2809C782.852 96.1121 784.217 96.1501 785.26 96.4924C786.3 96.8326 788.083 96.8932 794.83 96.8179C799.39 96.7668 803.358 96.8111 803.645 96.917C803.93 97.0228 805.278 97.0568 806.634 96.9925C808.608 96.8991 811.224 96.8395 814 96.8115V5.29761e-05L1.93271 0ZM15.9317 2.97726C15.9688 2.97509 16.0073 2.97726 16.0463 2.97943C16.3584 2.99896 16.6058 3.13864 16.5963 3.29008C16.5868 3.44152 16.324 3.5494 16.0119 3.52995C15.6998 3.51043 15.4521 3.37074 15.4615 3.2193C15.4698 3.08679 15.6722 2.98745 15.9317 2.97773V2.97726ZM11.2491 7.98667C11.3831 7.98884 11.5497 7.99449 11.7448 8.00665C12.5249 8.05523 12.8404 8.13765 12.4455 8.18973C12.0507 8.24183 11.4125 8.20188 11.0272 8.10115C10.7381 8.02579 10.8472 7.98299 11.2491 7.98673V7.98667ZM19.185 11.8535C19.4178 11.8463 19.9134 11.8637 20.6156 11.9073C22.02 11.9948 22.5912 12.0842 21.8849 12.1061C21.1786 12.128 20.0295 12.0565 19.3314 11.9472C18.9824 11.8925 18.9523 11.8607 19.185 11.8535V11.8535ZM45.5904 15.6199C45.6676 15.6366 45.9837 15.7059 46.2928 15.7733C46.6018 15.8407 49.0909 16.1934 51.8237 16.5569C54.5565 16.9205 56.9406 17.3501 57.1221 17.5118C57.3269 17.6943 56.939 17.7013 56.0985 17.53C55.3541 17.3783 52.6476 16.9761 50.0842 16.6362C47.5207 16.2963 45.4289 15.9217 45.4364 15.8038C45.4435 15.6859 45.5131 15.6031 45.5904 15.6199V15.6199ZM49.2481 20.0144C49.2655 20.0081 49.2845 20.0079 49.3037 20.0144C49.3804 20.0404 52.2397 20.3464 55.658 20.6946C59.0766 21.0427 62.1133 21.4633 62.4069 21.6291C63.1063 22.024 61.8399 21.9371 54.8096 21.1086C51.6882 20.7408 49.141 20.3334 49.1493 20.2034C49.1553 20.1058 49.1959 20.0334 49.2481 20.0144ZM173.21 45.3903C174.042 45.4101 175.188 45.5746 175.423 45.784C175.607 45.948 175.01 45.9993 174.026 45.9044C173.081 45.8133 172.314 45.6457 172.32 45.5323C172.327 45.4185 172.712 45.3784 173.21 45.3903ZM174.336 47.15C174.435 47.1467 174.568 47.1478 174.734 47.1554C175.332 47.1806 175.664 47.2667 175.469 47.3465C175.275 47.426 174.785 47.4053 174.38 47.3003C174.045 47.2133 174.039 47.1596 174.336 47.1499V47.15ZM177.288 47.3106C177.39 47.3052 177.502 47.3058 177.619 47.3132C178.088 47.3425 178.464 47.4697 178.456 47.5959C178.448 47.7221 178.059 47.8015 177.591 47.7722C177.123 47.7432 176.745 47.6161 176.754 47.4899C176.76 47.3953 176.981 47.3267 177.288 47.3107V47.3106ZM99.5045 48.5079C99.1911 48.5057 99.2734 48.6319 99.687 48.788C100.406 49.0589 104.055 49.0321 104.741 48.7507C105.007 48.6411 102.569 48.5282 99.5045 48.5079ZM106.067 48.9639C105.705 48.9684 105.453 49.0214 105.446 49.1313C105.438 49.2577 106.208 49.409 107.157 49.4682C108.269 49.5372 108.627 49.4793 108.164 49.3046C107.578 49.0833 106.67 48.9564 106.067 48.9639ZM120.079 50.1327C119.387 50.1471 117.028 50.7084 117.449 50.7786C118.427 50.9422 119.006 51.0619 119.136 51.1274C119.211 51.1657 120.548 51.3169 122.105 51.4631C123.662 51.6093 124.935 51.7439 124.935 51.7619C124.935 51.7799 127.112 51.9639 129.775 52.1713C132.438 52.3786 134.919 52.6602 135.29 52.7968C135.66 52.9334 135.971 52.9093 135.981 52.7434C135.994 52.5424 136.325 52.5485 136.977 52.7608C137.514 52.936 139.527 53.1587 141.449 53.2562C143.372 53.3534 144.82 53.5189 144.668 53.6237C144.516 53.7281 145.747 53.9164 147.402 54.042C149.057 54.1675 150.922 54.3163 151.545 54.3725C152.168 54.4288 153.054 54.3725 153.513 54.2467C154.131 54.0781 154.232 54.1015 153.902 54.3365C153.655 54.5111 153.724 54.6711 154.054 54.6917C154.385 54.7123 154.663 54.6053 154.673 54.4539C154.682 54.3025 155.471 54.227 156.426 54.2865C157.439 54.3494 158.008 54.5001 157.794 54.648C157.591 54.7872 157.582 54.9112 157.772 54.9231C158.164 54.9474 161.516 54.3462 161.521 54.2505C161.524 54.2157 159.219 54.0783 156.401 53.9449C153.334 53.7996 150.799 53.5455 150.084 53.3117C149.428 53.0971 145.806 52.6819 142.037 52.3895C131.029 51.5359 125.144 50.9797 122.731 50.5646C121.491 50.3511 120.35 50.1591 120.194 50.1374C120.164 50.1331 120.125 50.1318 120.079 50.1326V50.1327ZM114.631 51.9602C114.49 51.9515 114.669 52.2033 115.028 52.5201C115.673 53.0891 116.589 53.1379 116.623 52.6048C116.632 52.4535 116.398 52.3857 116.102 52.4548C115.806 52.5238 115.411 52.4448 115.224 52.2785C115.038 52.1126 114.771 51.9689 114.631 51.9602V51.9602ZM120.05 53.1375C119.518 53.1254 119.052 53.2362 119.037 53.4787C119.007 53.9509 119.709 54.0709 120.264 53.6889C120.469 53.5471 120.909 53.5315 121.242 53.6542C121.602 53.7873 121.69 53.7388 121.461 53.5338C121.181 53.2847 120.582 53.1497 120.05 53.1375V53.1375ZM146.502 53.2037C146.671 53.2015 146.856 53.2065 147.05 53.2184C147.824 53.2666 148.313 53.4061 148.136 53.5282C147.959 53.6504 147.318 53.719 146.713 53.6812C146.107 53.6435 145.618 53.5044 145.626 53.3719C145.632 53.2727 145.994 53.2089 146.502 53.2036V53.2037ZM125.267 53.4626C124.422 53.5161 123.689 54.3305 124.175 54.7637C124.555 55.1028 127.446 55.3473 128.067 55.0926C128.803 54.7898 130.4 54.9013 131.254 55.3147C132.088 55.7187 136.002 56.0377 136.684 55.7575C137.537 55.4074 134.308 54.6372 131.67 54.5611C130.147 54.5172 128.779 54.5313 128.63 54.5925C128.481 54.6537 127.884 54.436 127.304 54.1085C126.724 53.781 125.884 53.4905 125.437 53.4626C125.38 53.4591 125.323 53.4591 125.267 53.4626V53.4626ZM145.844 56.4327C145.943 56.4294 146.076 56.4305 146.242 56.4381C146.841 56.4633 147.172 56.5494 146.977 56.6292C146.783 56.7087 146.293 56.688 145.888 56.583C145.553 56.496 145.547 56.4422 145.844 56.4326V56.4327ZM291.692 77.7549C291.448 77.7549 291.191 77.7599 290.923 77.7672C288.751 77.8258 289.521 78.3482 291.775 78.3449C292.778 78.3449 293.79 78.3471 294.024 78.3508C294.259 78.3551 294.457 78.2553 294.465 78.1291C294.48 77.888 293.401 77.7476 291.692 77.7549ZM299.022 78.294C298.708 78.2914 298.406 78.2918 298.129 78.297C297.39 78.3096 296.824 78.3495 296.641 78.4246C296.054 78.6647 296.153 78.7397 297.123 78.8001C297.791 78.8419 298.459 78.9842 298.607 79.1162C298.755 79.2482 300.809 79.469 303.167 79.607C305.528 79.7454 307.454 79.9514 307.445 80.0648C307.425 80.4239 309.133 80.3936 309.173 80.0342C309.197 79.8437 309.458 79.9214 309.76 80.2089C310.062 80.4937 310.928 80.7653 311.683 80.8123C312.74 80.8782 312.984 80.7828 312.743 80.3945C312.447 79.917 312.467 79.9182 313.188 80.422C313.864 80.8971 314.105 80.9211 315.526 80.6534C317.024 80.3715 317.112 80.3882 317.083 80.959C317.068 81.2911 317.248 81.4504 317.489 81.3132C317.727 81.1761 318.308 81.0472 318.779 81.0272C319.249 81.0073 319.723 80.8881 319.83 80.7628C319.935 80.6375 320.449 80.6183 320.972 80.7204C321.492 80.8225 321.038 80.6483 319.961 80.333C318.442 79.8884 317.016 79.735 313.597 79.6477C310.806 79.5767 309.194 79.434 309.206 79.259C309.223 78.9765 306.696 78.8758 306.069 79.1336C305.618 79.319 303.472 78.9133 303.78 78.7009V78.6988C304.077 78.4945 301.225 78.3107 299.022 78.2932V78.294ZM323.339 80.705C322.262 80.6875 322.293 80.765 322.723 80.9271C323.33 81.156 323.196 81.2322 322.133 81.2632C320.864 81.3 320.882 81.3142 322.351 81.4403C323.228 81.5157 324.387 81.7212 324.924 81.8972C325.482 82.0794 327.268 82.2132 329.066 82.2066C331.625 82.1972 332.351 82.2856 332.865 82.6673C333.214 82.9271 333.362 82.979 333.193 82.783C333.005 82.5634 333.498 82.3994 334.48 82.3562C335.357 82.3176 336.432 82.2536 336.871 82.2138C337.521 82.1555 337.53 82.2114 336.932 82.5138C336.336 82.8141 336.342 82.9179 336.961 83.0525C338.636 83.4174 348.16 84.3888 352.305 84.6176C354.724 84.751 356.7 84.9302 356.696 85.0152C356.679 85.3087 372.845 86.7617 382.329 87.3186C388.326 87.671 391.829 87.9786 391.826 88.1526C391.82 88.3043 392.082 88.2583 392.401 88.0501C392.84 87.7678 393.092 87.7626 393.406 88.0288C393.65 88.2353 394.144 88.3122 394.58 88.211C395.285 88.0465 399.84 88.6083 400.865 88.9866C401.321 89.1557 406.686 89.6054 427.514 91.2205C433.282 91.6677 442.593 92.3993 448.205 92.8466C453.816 93.2936 467.543 94.2325 478.713 94.9339C495.214 95.9697 499.111 96.1438 499.518 95.8641C499.872 95.6202 500.125 95.6174 500.392 95.8544C500.648 96.0835 501.249 96.0385 502.298 95.7107L503.831 95.2327L504.226 95.8256C504.444 96.1519 504.775 96.4283 504.958 96.4397C505.144 96.4512 505.127 96.3126 504.923 96.1316C504.677 95.9103 504.946 95.8878 505.751 96.0633C506.46 96.2179 506.951 96.2046 506.962 96.0303C506.974 95.8686 507.511 95.7695 508.156 95.8099C508.804 95.8502 509.727 95.7211 510.21 95.523C510.883 95.2457 510.912 95.1513 510.337 95.1119C509.783 95.0745 509.815 95.0051 510.454 94.847C511.11 94.6851 510.866 94.6041 509.446 94.5122C508.336 94.4408 507.703 94.5122 507.9 94.6881C508.083 94.8517 507.964 94.9684 507.633 94.9479C507.302 94.9272 507.041 94.7868 507.05 94.6351C507.058 94.4837 506.669 94.3351 506.181 94.3049C505.696 94.2745 505.464 94.1359 505.667 93.9964C505.867 93.8569 505.763 93.7258 505.431 93.7052C505.1 93.6846 504.824 93.7606 504.819 93.8743C504.813 93.9881 503.402 93.9936 501.685 93.8867C499.971 93.78 498.572 93.615 498.577 93.5202C498.58 93.4253 493.288 93.0012 486.814 92.578C480.34 92.1548 465.725 91.1574 454.339 90.3615C442.953 89.5659 430.191 88.6846 425.98 88.4035C421.382 88.0966 418.164 87.767 417.923 87.5787C417.67 87.3806 417.513 87.4039 417.493 87.6423C417.467 87.9359 417.287 87.9369 416.677 87.6466C416.16 87.3995 414.054 87.1926 410.435 87.0322C407.429 86.8993 404.85 86.7209 404.699 86.6359C404.176 86.3412 402.195 86.1771 402.178 86.4274C402.169 86.5785 401.414 86.5304 400.284 86.307C399.253 86.1025 397.792 85.8971 397.037 85.8527C396.284 85.8074 390.885 85.4139 385.039 84.978C378.399 84.4828 374.399 84.2848 374.39 84.4508C374.382 84.5969 373.99 84.6928 373.522 84.6635C373.055 84.6345 372.677 84.4959 372.686 84.3558C372.706 84.0611 367.019 83.9377 366.145 84.2138C365.654 84.3684 358.19 83.9011 358.201 83.7163C358.204 83.6824 356.804 83.5295 355.091 83.3763C349.796 82.9038 344.823 82.333 344.292 82.1372C344.013 82.0345 343.778 82.0638 343.769 82.2024C343.748 82.547 340.353 82.2537 340.362 81.9079C340.368 81.724 340.225 81.7154 339.935 81.8816C339.697 82.0188 338.544 82.0714 337.373 81.9985C336.203 81.9255 335.253 81.7419 335.262 81.5905C335.273 81.4263 333.386 81.2105 330.597 81.0565C326.599 80.8357 324.416 80.7224 323.339 80.7047L323.339 80.705ZM465.427 87.105C465.362 87.1141 465.378 87.2334 465.475 87.3953C465.698 87.7654 468.153 88.102 468.173 87.7653C468.182 87.6495 467.616 87.4656 466.919 87.3563C466.219 87.2469 465.565 87.1352 465.46 87.1079C465.448 87.1047 465.437 87.1036 465.427 87.1049V87.105ZM473.717 88.1458C472.979 88.138 473.243 88.3164 474.391 88.5357C475.013 88.6538 475.382 88.6297 475.216 88.4815C475.051 88.3333 474.545 88.1888 474.095 88.1607C473.949 88.1516 473.823 88.147 473.717 88.1459V88.1458ZM478.553 88.4773C478.116 88.4853 477.592 88.5443 477.232 88.6324C476.175 88.8931 477.072 88.9489 478.652 88.7209C479.41 88.6113 479.512 88.5317 478.951 88.487C478.834 88.4777 478.699 88.4746 478.553 88.4773V88.4773ZM502.053 90.1835C501.811 90.1944 501.74 90.3014 501.9 90.4446C502.083 90.6079 502.347 90.7489 502.484 90.7573C502.62 90.766 502.742 90.6494 502.751 90.498C502.759 90.3463 502.498 90.2054 502.167 90.1848C502.126 90.1822 502.088 90.182 502.053 90.1826V90.1835ZM524.432 92.1428C524.301 92.1347 524.356 92.224 524.563 92.4085C524.746 92.5721 525.199 92.7227 525.571 92.7433C525.978 92.7662 525.914 92.6538 525.414 92.4615C524.88 92.2566 524.563 92.1509 524.432 92.1428V92.1428ZM534.748 92.2263C533.96 92.205 533.111 92.2907 532.615 92.495C531.697 92.8709 530.814 92.9525 531.305 92.6157C531.459 92.5087 530.584 92.4051 529.361 92.3856C526.774 92.3444 526.759 92.7458 529.347 92.82C530.306 92.8473 531.215 92.982 531.369 93.1192C531.523 93.2564 532.22 93.3507 532.92 93.3286C533.619 93.3065 537.558 93.4881 541.671 93.7321C548.685 94.1483 549.092 94.1437 548.226 93.6524C547.5 93.2402 546.637 93.1184 544.174 93.0807C542.452 93.0543 540.678 93.1196 540.23 93.226C539.693 93.3542 539.553 93.3263 539.818 93.1438C540.425 92.7264 539.254 92.4306 537.979 92.6789C537.227 92.8245 536.736 92.7983 536.515 92.6005C536.263 92.3761 535.536 92.2476 534.748 92.2263H534.748ZM551.865 93.3244C551.103 93.3155 550.558 93.3265 550.459 93.3638C549.577 93.704 552.069 94.2168 555.841 94.4712C558.243 94.6333 560.286 94.8966 560.381 95.0565C560.486 95.2293 559.399 95.2642 557.703 95.1421C555.38 94.9753 554.581 95.0475 553.405 95.5307C552.609 95.857 551.953 96.2152 551.947 96.3266C551.938 96.438 553.013 96.6922 554.332 96.8911C555.65 97.0901 557.108 97.3441 557.573 97.4561C558.627 97.7116 566.303 98.1744 571.192 98.2774C573.225 98.3203 577.32 98.4304 580.292 98.5224C587.962 98.7596 593.815 98.9223 596.78 98.9801C598.189 99.0074 601.517 99.0914 604.175 99.1674C609.853 99.3292 622.328 99.4294 627.3 99.3522C629.217 99.3226 631.651 99.3433 632.709 99.3984C633.766 99.4535 635.148 99.4127 635.782 99.3077C636.906 99.1212 636.903 99.1173 635.744 99.1483C634.277 99.1878 634.169 98.4978 635.627 98.4041C636.29 98.3618 636.766 98.5322 636.966 98.8818C637.135 99.1808 637.62 99.4473 638.041 99.4734C638.462 99.4998 639.25 99.6319 639.787 99.7671C640.53 99.9542 640.655 99.912 640.304 99.5921C639.923 99.2431 639.993 99.2404 640.71 99.5751C641.605 99.9922 643.351 99.9367 644.216 99.4636C644.556 99.2786 644.785 99.3076 644.971 99.5591C645.116 99.7583 645.741 99.9526 646.357 99.9909C646.975 100.029 647.347 99.9422 647.184 99.7972C646.789 99.4454 647.945 99.1101 650.042 98.9682C650.986 98.9044 651.954 98.8388 652.189 98.822C652.424 98.8051 653.086 98.8055 653.662 98.822C654.234 98.8387 654.756 98.6692 654.823 98.4453C654.89 98.2214 654.997 97.846 655.064 97.6108C655.143 97.3416 655.561 97.2548 656.2 97.3764C657.199 97.5672 657.449 97.1118 656.554 96.7284C655.877 96.4384 650.417 96.6019 648.642 96.9653C647.698 97.1582 646.967 97.1692 646.769 96.9928C646.592 96.8339 646.069 96.7502 645.607 96.8068C645.145 96.8634 644.89 97.02 645.044 97.1552C645.195 97.29 645.067 97.459 644.759 97.5307C644.451 97.6023 643.969 97.4228 643.684 97.131C643.15 96.5823 640.254 96.1014 640.225 96.5567C640.217 96.6983 639.159 96.7201 637.878 96.6055C636.38 96.4712 635.439 96.5191 635.241 96.7398C635.012 96.9954 634.745 96.9931 634.193 96.7297C633.368 96.3369 632.046 96.5038 632.537 96.9386C632.706 97.0909 632.575 97.1986 632.244 97.178C631.916 97.1574 631.651 97.0083 631.663 96.847C631.695 96.3192 621.041 96.2362 620.231 96.758C619.787 97.0432 613.931 97.1344 614.344 96.8496C614.515 96.7318 614.256 96.6109 613.769 96.5805C613.283 96.5503 612.88 96.6184 612.871 96.7318C612.865 96.8452 612.22 96.8985 611.439 96.85C610.661 96.8013 610.027 96.6603 610.036 96.5364C610.042 96.4128 609.47 96.3732 608.758 96.4487C608.05 96.5241 605.807 96.5042 603.777 96.4042C598.633 96.1512 598.558 96.1525 598.938 96.4927C599.162 96.6926 598.491 96.6861 596.983 96.4741C595.403 96.2516 594.378 96.251 593.699 96.4702C593.156 96.6459 592.885 96.6661 593.094 96.5155C593.356 96.3293 591.729 96.1124 587.997 95.8366C584.982 95.6135 582.2 95.2808 581.814 95.0966C581.395 94.8973 580.469 94.8079 579.528 94.8767C578.659 94.9399 576.85 94.9499 575.511 94.8983C574.169 94.847 572.949 94.856 572.795 94.9187C572.644 94.9814 571.061 94.8288 569.278 94.5797C567.497 94.3302 564.311 94.0579 562.202 93.9741C560.091 93.8902 558.371 93.755 558.377 93.6732C558.386 93.5477 554.15 93.3508 551.865 93.3244V93.3244ZM500.383 93.9512C500.436 93.949 500.495 93.9511 500.558 93.9546C501.476 94.0118 501.659 94.4552 500.843 94.6454C500.558 94.7118 500.189 94.5719 500.027 94.3343C499.866 94.1049 500.007 93.9622 500.383 93.9513V93.9512ZM668.664 94.4733C669.014 94.4694 669.255 94.6397 669.017 94.9047C668.826 95.1199 668.439 95.2116 668.16 95.1086C667.879 95.0056 667.806 94.8152 667.995 94.6852C668.204 94.5407 668.454 94.4756 668.664 94.4733ZM516.882 94.592C515.981 94.5946 515.488 94.652 515.586 94.7581C515.734 94.9158 516.079 95.0228 516.355 94.9959C516.631 94.9686 516.71 95.2578 516.532 95.6383C516.306 96.1242 516.509 96.4286 517.215 96.6597C518.615 97.1177 518.635 97.1141 519.481 96.2385C520.207 95.4875 521.255 95.2194 521.218 95.7935C521.209 95.9449 520.974 96.0545 520.695 96.0372C520.416 96.0198 520.026 96.1853 519.829 96.4046C519.533 96.7358 519.678 96.7637 520.683 96.5682C521.543 96.4011 521.775 96.4137 521.487 96.6118C521.223 96.7946 521.778 96.9342 523.103 97.0166C524.224 97.0865 525.13 97.004 525.141 96.8314C525.153 96.6191 526.027 96.6306 527.892 96.8678C530.114 97.1501 530.628 97.1372 530.648 96.7987C530.663 96.5699 530.471 96.3698 530.221 96.3542C529.971 96.3385 529.925 96.1491 530.117 95.9333C530.634 95.3573 531.801 95.5324 532.402 96.277L532.931 96.9259L533.637 96.3601C534.247 95.8725 534.215 95.8104 533.404 95.9096C532.591 96.0091 532.562 95.947 533.178 95.4536C533.82 94.9419 533.785 94.9012 532.841 95.0628C532.263 95.1617 531.154 95.1694 530.378 95.0798C528.194 94.8283 526.292 94.9755 526.727 95.3624C526.974 95.5828 526.797 95.6231 526.222 95.4781C525.702 95.3479 525.188 95.4174 524.984 95.6451C524.787 95.865 524.883 95.9769 525.205 95.9015C525.519 95.8284 525.769 95.8994 525.76 96.06C525.722 96.6274 523.646 96.2117 523.073 95.5231C522.545 94.8844 522.188 94.8092 518.908 94.6479C518.112 94.6087 517.424 94.5904 516.882 94.5919V94.592ZM518.115 95.3239C518.234 95.331 518.455 95.4486 518.609 95.5849C518.763 95.721 518.528 95.8101 518.086 95.7829C517.645 95.7553 517.421 95.6377 517.592 95.5214C517.761 95.4054 517.996 95.3165 518.115 95.3239V95.3239ZM511.719 95.5023C511.569 95.493 511.547 95.5759 511.537 95.7439C511.528 95.8953 511.967 96.045 512.513 96.0766C513.364 96.1259 513.387 96.0878 512.673 95.8142C512.148 95.6131 511.869 95.5116 511.719 95.5023V95.5023ZM540.195 95.6112C539.95 95.6112 539.647 95.7012 539.211 95.8803C538.351 96.2336 538.168 97.1253 538.946 97.1738C539.24 97.192 539.335 96.9998 539.161 96.7466C538.949 96.4403 539.222 96.2622 539.98 96.2135C540.608 96.1734 540.988 96.0224 540.826 95.8774C540.627 95.6996 540.44 95.6112 540.195 95.6116V95.6112ZM514.239 95.9215C513.536 95.9215 513.763 96.1315 514.894 96.5021C515.795 96.7968 515.943 96.7823 515.693 96.4232C515.524 96.1813 515.034 95.9611 514.598 95.9342C514.459 95.9255 514.34 95.9213 514.239 95.9213V95.9215ZM536.726 96.0295C536.412 96.0445 536.264 96.1846 536.393 96.3698C536.541 96.5819 536.733 96.7595 536.823 96.7653C536.913 96.7707 537.125 96.6179 537.299 96.4262C537.471 96.2342 537.276 96.0561 536.87 96.0308C536.818 96.0275 536.77 96.0273 536.726 96.0286V96.0295ZM531.59 96.558C531.516 96.5558 531.44 96.5636 531.366 96.5809C530.5 96.7825 531.337 97.2539 532.69 97.3285C533.376 97.3662 534.441 97.2458 535.063 97.0611C536.396 96.6637 535.301 96.5326 533.53 96.8771C532.603 97.0561 532.248 97.0332 532.1 96.7852C532.02 96.649 531.813 96.5632 531.59 96.558V96.558ZM783.605 96.6911C783.308 96.7009 783.315 96.7545 783.651 96.8415C784.055 96.9468 784.546 96.9675 784.737 96.8877C784.932 96.808 784.601 96.7221 784.002 96.6966C783.837 96.6897 783.704 96.6879 783.605 96.6912V96.6911ZM669.086 97.2658C668.843 97.2766 668.77 97.3839 668.93 97.5268C669.116 97.6904 669.377 97.8312 669.514 97.8396C669.653 97.8483 669.773 97.7312 669.784 97.5798C669.793 97.4284 669.528 97.2874 669.2 97.267C669.159 97.2644 669.121 97.2642 669.086 97.2649V97.2658ZM541.466 97.3717C541.17 97.3815 541.176 97.4351 541.511 97.5222C541.915 97.6271 542.405 97.6482 542.6 97.5684C542.795 97.4886 542.464 97.4027 541.862 97.3772C541.698 97.3703 541.565 97.3686 541.466 97.3718V97.3717ZM664.265 98.1731C664.196 98.1677 664.119 98.1732 664.039 98.1923C663.716 98.2677 663.592 98.4536 663.763 98.6059C664.225 99.0181 664.57 98.9685 664.599 98.4847C664.61 98.3074 664.471 98.1893 664.265 98.1732V98.1731ZM662.272 98.6355C662.124 98.6377 661.932 98.6448 661.695 98.6601C660.922 98.7097 660.655 98.8185 661.076 98.914C661.483 99.0056 662.093 98.9666 662.43 98.8271C662.757 98.6935 662.714 98.6321 662.272 98.6355Z" fill="white"/>
</svg>
