<svg width="50" height="50" viewBox="0 0 50 50" fill="none" xmlns="http://www.w3.org/2000/svg">
<path opacity="0.996" d="M24.9186 0.000132723C18.2886 0.021708 11.9386 2.67604 7.26557 7.37926C2.5925 12.0825 -0.0209403 18.4494 0.000126381 25.0794C0.0211829 31.7095 2.67502 38.0596 7.37787 42.733C12.0807 47.4065 18.4474 50.0204 25.0774 49.9999C31.7075 49.9793 38.0578 47.326 42.7317 42.6235C47.4055 37.921 50.0199 31.5546 49.9999 24.9245V24.9167C49.9778 18.2866 47.323 11.9369 42.6194 7.26418C37.9158 2.59148 31.5487 -0.0214561 24.9186 0.000132723V0.000132723ZM25.0001 9.66792C29.1653 9.66792 29.6852 9.68313 31.3207 9.7598C32.9522 9.83518 34.0652 10.0934 35.0426 10.4728C36.0532 10.8625 36.9066 11.3889 37.7589 12.2411C38.6098 13.0933 39.1363 13.9493 39.5273 14.9574C39.9055 15.9335 40.1636 17.0477 40.2402 18.6793C40.313 20.3148 40.3321 20.8348 40.3321 24.9999C40.3321 29.1652 40.3169 29.6853 40.2402 31.3207C40.1648 32.9523 39.9055 34.0651 39.5273 35.0425C39.1376 36.0531 38.6098 36.9067 37.7589 37.7589C36.9066 38.6099 36.0494 39.1362 35.0426 39.5272C34.0652 39.9053 32.9522 40.1634 31.3207 40.2401C29.6852 40.313 29.1653 40.3321 25.0001 40.3321C20.8349 40.3321 20.3149 40.3168 18.6794 40.2401C17.0478 40.1647 15.9362 39.9053 14.9575 39.5272C13.9482 39.1374 13.0933 38.6099 12.2411 37.7589C11.3889 36.9067 10.8638 36.0494 10.4728 35.0425C10.0934 34.0651 9.83658 32.9523 9.75992 31.3207C9.68709 29.6853 9.66792 29.1652 9.66792 24.9999C9.66792 20.8348 9.68326 20.3148 9.75992 18.6793C9.8353 17.0464 10.0934 15.9348 10.4728 14.9574C10.8625 13.948 11.3889 13.0933 12.2411 12.2411C13.0933 11.3889 13.9494 10.8638 14.9575 10.4728C15.9349 10.0934 17.0466 9.83646 18.6794 9.7598C20.3149 9.68697 20.8349 9.66792 25.0001 9.66792V9.66792ZM24.9426 12.3894C20.8425 12.3894 20.3633 12.4085 18.7343 12.466C17.2394 12.5427 16.4332 12.7918 15.8966 13.0039C15.1696 13.2709 14.67 13.6159 14.1347 14.1513C13.5968 14.6892 13.253 15.1875 12.9847 15.9157C12.7739 16.4524 12.526 17.2752 12.4481 18.7701C12.3906 20.3991 12.3702 20.8974 12.3702 24.9809C12.3702 29.063 12.3906 29.56 12.4481 31.1699C12.526 32.6647 12.7739 33.4889 12.9847 34.0256C13.253 34.7359 13.5968 35.2534 14.1347 35.7887C14.67 36.3253 15.1696 36.6511 15.8966 36.9374C16.4332 37.1482 17.2573 37.3973 18.7535 37.4753C20.3799 37.5507 20.8591 37.5699 24.9617 37.5699C29.063 37.5699 29.5422 37.5532 31.17 37.4803C32.6648 37.4127 33.4888 37.1623 34.0254 36.9528C34.7359 36.6755 35.2533 36.3433 35.7887 35.8079C36.3253 35.2688 36.6511 34.7602 36.9373 34.0422C37.1482 33.503 37.3973 32.6917 37.4753 31.1968C37.5507 29.5806 37.5697 29.0936 37.5697 24.9999C37.5697 20.9063 37.5531 20.4208 37.4803 18.8032C37.4126 17.3084 37.1622 16.497 36.9526 15.9579C36.6755 15.2398 36.3432 14.73 35.8079 14.1934C35.2687 13.658 34.7602 13.3259 34.0422 13.0486C33.503 12.8365 32.6916 12.5886 31.1968 12.5183C29.5805 12.4481 29.0925 12.4277 25.0001 12.4277L24.9426 12.3894ZM33.1848 14.9779C34.198 14.9767 35.0247 15.802 35.0247 16.8164C35.0247 17.8322 34.1993 18.6563 33.1848 18.6563C32.169 18.6563 31.3449 17.8309 31.3449 16.8164C31.3449 15.802 32.1703 14.9779 33.1848 14.9779ZM25.0001 17.127C29.3467 17.127 32.8732 20.6495 32.8732 24.9999C32.8732 29.3466 29.3505 32.873 25.0001 32.873C20.6534 32.873 17.127 29.3505 17.127 24.9999C17.127 20.6532 20.6496 17.127 25.0001 17.127V17.127ZM25.0001 19.8892C22.1764 19.8892 19.8893 22.1764 19.8893 24.9999C19.8893 27.8236 22.1764 30.1107 25.0001 30.1107C27.8237 30.1107 30.1108 27.8236 30.1108 24.9999C30.1108 22.1764 27.8237 19.8892 25.0001 19.8892V19.8892Z" fill="#51D5E1"/>
</svg>
