<svg width="50" height="50" viewBox="0 0 50 50" fill="none" xmlns="http://www.w3.org/2000/svg">
<path d="M25 0C11.1862 0 0 11.1862 0 25C0 35.5856 6.56907 44.6321 15.8784 48.2733C15.6532 46.2838 15.4655 43.2808 15.9535 41.1036C16.4039 39.1516 18.8814 28.6787 18.8814 28.6787C18.8814 28.6787 18.1306 27.1772 18.1306 24.9625C18.1306 21.4715 20.1577 18.8814 22.6351 18.8814C24.7748 18.8814 25.7883 20.4955 25.7883 22.4099C25.7883 24.5495 24.4369 27.7778 23.7237 30.7432C23.1231 33.2207 24.9625 35.2477 27.4399 35.2477C31.8694 35.2477 35.2853 30.5556 35.2853 23.7988C35.2853 17.8303 30.9685 13.6261 24.8498 13.6261C17.7553 13.6261 13.5511 18.9565 13.5511 24.4745C13.5511 26.6141 14.3769 28.9414 15.4279 30.1802C15.6156 30.4429 15.6532 30.6306 15.6156 30.8934C15.4279 31.6817 15.015 33.3709 14.9399 33.7087C14.8273 34.1592 14.5646 34.2718 14.1141 34.0465C10.9985 32.5826 9.04655 28.0405 9.04655 24.3619C9.04655 16.479 14.7898 9.23423 25.5631 9.23423C34.2342 9.23423 40.9535 15.4279 40.9535 23.6486C40.9535 32.2447 35.5105 39.1892 28.003 39.1892C25.488 39.1892 23.0856 37.8754 22.2598 36.3363C22.2598 36.3363 21.021 41.1036 20.7207 42.2673C20.1577 44.4444 18.6186 47.1471 17.6051 48.8363C19.9324 49.5495 22.4099 49.9625 25 49.9625C38.8138 49.9625 50 38.7763 50 24.9625C50 11.1862 38.8138 0 25 0Z" fill="#51D5E1"/>
</svg>
