<svg width="70%" height="70%" viewBox="0 0 18 18" fill="none" xmlns="http://www.w3.org/2000/svg" style="margin: 0 auto;">
<path opacity="0.996" d="M8.94377 0C7.90027 0.00367559 7.05646 0.942423 7.05317 2.0994H7.05302V2.11284V7.05302H2.0994C0.936257 7.05643 -0.00367376 7.90829 1.07958e-05 8.95584C0.00368639 9.99934 0.942425 10.8432 2.0994 10.8465V10.8467H2.11284H7.05302V15.7868V15.8004H7.05319C7.05647 16.9574 7.90029 17.8961 8.94379 17.8998C9.99134 17.9035 10.8432 16.9635 10.8466 15.8004V10.8468H15.7868H15.8002V10.8465C16.9572 10.8432 17.896 9.99935 17.8996 8.95585C17.9033 7.9083 16.9634 7.05644 15.8002 7.05303H10.8466V2.09942C10.8432 0.936273 9.99132 -0.00365736 8.94377 1.82391e-05V0Z" fill="#0A4270"/>
</svg>
