<svg width="100%" height="100%" viewBox="0 0 76 64" fill="none" xmlns="http://www.w3.org/2000/svg">
<path d="M71.4708 0.458656C72.3372 0.985602 72.4416 1.23803 72.7151 3.46802C73.0326 6.05637 72.9603 6.14929 69.2171 7.96375C60.6563 12.1135 54.6131 19.6384 53.4861 27.552C52.8327 32.1404 52.8069 32.0942 55.6618 31.4556C64.7865 29.4146 73.4575 34.9975 75.6129 44.3014C76.4511 47.9198 75.9301 51.4762 74.0301 55.1049C70.5862 61.6823 62.8192 65.2895 55.8353 63.5551C47.8534 61.5727 41.6096 54.2035 39.8337 44.6693C38.1568 35.6666 40.3183 25.7008 45.6038 18.0658C50.4019 11.1349 58.8156 4.75506 68.4515 0.741166C70.5493 -0.132686 70.5053 -0.128573 71.4708 0.458656ZM68.1698 3.47225C67.083 3.94545 66.0866 4.41152 65.9556 4.50794C65.8247 4.60433 64.8067 5.14777 63.6935 5.71548C60.5867 7.29982 55.9233 10.4239 54.1656 12.0982C53.9514 12.3022 53.3554 12.8525 52.8412 13.321C50.2904 15.6452 47.7159 18.9206 46.043 21.9701C42.8415 27.806 41.7187 32.217 41.6896 39.0719C41.6731 42.9847 41.7263 43.5589 42.3176 45.8414C44.1674 52.9814 48.7739 58.6077 54.6256 60.8742C60.6404 63.2038 67.8233 60.7227 71.5081 55.0426C73.1131 52.5685 73.575 50.9251 73.5599 47.7416C73.5487 45.4173 73.4541 44.7503 72.9234 43.2679C71.8814 40.3574 70.4558 38.3224 68.2178 36.551C64.7787 33.8289 60.6946 32.7674 57.0259 33.6422C56.0437 33.8764 54.6155 34.0716 53.8523 34.076C52.5496 34.0838 52.4146 34.0295 51.6496 33.1967C50.917 32.3991 50.8351 32.1711 50.8394 30.9402C50.8558 26.1582 52.7838 20.397 55.7886 16.1508C58.5158 12.2968 63.6331 8.11901 68.6123 5.68144C70.0677 4.96894 70.5915 4.59742 70.4949 4.34622C70.4212 4.15479 70.361 3.68626 70.361 3.30503C70.361 2.92379 70.3126 2.61187 70.2534 2.61187C70.1943 2.61187 69.2567 2.99903 68.1698 3.47225H68.1698ZM55.8723 53.5954C56.4413 54.0716 57.27 54.6136 57.7138 54.8C58.6984 55.2134 60.5768 55.2366 62.0992 54.8542C63.106 54.6013 63.2856 54.6178 63.7122 55.0029C64.3821 55.6077 64.2274 56.5611 63.3951 56.9572C63.0345 57.1288 62.0879 57.3738 61.2916 57.5017C58.7392 57.9118 56.0167 57.1202 54.347 55.4827C53.3201 54.4755 53.1941 53.6506 53.9833 53.0993C54.6911 52.6048 54.6875 52.6038 55.8723 53.5953V53.5954ZM32.18 0.458656C33.0471 0.986006 33.1523 1.24099 33.4208 3.46516C33.7327 6.05011 33.7307 6.05294 30.2133 7.82426C26.5261 9.68116 23.8079 11.5827 21.3732 14.0085C17.5619 17.8059 15.1296 22.2476 14.3058 26.9146C13.7265 30.197 13.6769 31.0102 14.0269 31.4878C14.3396 31.9143 14.4016 31.9137 16.2205 31.4694C19.9746 30.5521 24.2599 31.0974 27.808 32.9439C30.171 34.1736 33.5135 37.4946 34.7036 39.7952C39.6439 49.3452 34.707 60.5382 24.2729 63.4458C15.145 65.9893 5.32102 59.5634 1.53505 48.573C-0.570662 42.4602 -0.505512 34.2528 1.70291 27.4332C5.01485 17.2058 12.764 8.89896 24.6144 2.87255C27.1185 1.59912 30.8204 -0.00224197 31.255 2.35645e-06C31.3498 0.000473666 31.7661 0.206893 32.18 0.458673V0.458656ZM28.255 3.79248C23.166 6.15544 21.2716 7.26516 17.378 10.1642C13.8653 12.7795 10.4727 16.2657 8.15467 19.6419C3.63386 26.2263 1.46635 35.1564 2.50594 42.9145C3.24527 48.4319 6.0035 54.0076 9.66773 57.3919C12.5833 60.0847 16.5874 61.7555 20.1251 61.7555C27.6164 61.7555 34.3873 55.2572 34.4011 48.054C34.4056 45.901 33.3903 41.6289 32.7469 41.0909C32.6688 41.0256 32.5006 40.7349 32.3733 40.4451C31.9541 39.4909 30.0364 37.4035 28.5761 36.3119C25.4909 34.0056 22.1576 33.042 18.7426 33.4692C17.7189 33.5972 16.5843 33.8146 16.2212 33.9523C15.8581 34.09 15.0732 34.2027 14.4769 34.2027C13.5351 34.2027 13.2715 34.0816 12.4683 33.2805C11.604 32.4183 11.544 32.2677 11.5453 30.9646C11.5475 28.9289 12.1523 25.3043 12.8087 23.3953C15.4165 15.8111 20.9596 9.84199 29.1271 5.82303C30.7995 5.00008 31.3164 4.63803 31.2107 4.36339C31.1334 4.16252 31.0702 3.68626 31.0702 3.30503C31.0702 2.92379 31.0089 2.61187 30.9339 2.61187C30.859 2.61187 29.6534 3.14314 28.255 3.79248ZM16.5815 53.5954C17.1505 54.0716 17.9609 54.606 18.3823 54.783C19.3208 55.1772 21.7604 55.2019 23.0052 54.8299C23.8027 54.5916 23.9886 54.6123 24.402 54.9855C25.038 55.5596 25.0103 56.437 24.3432 56.8539C24.0485 57.038 23.0794 57.3206 22.1896 57.482C19.4926 57.971 16.9683 57.2726 15.0563 55.5084C14.0146 54.5473 13.8815 53.666 14.6925 53.0994C15.4004 52.6048 15.3968 52.6039 16.5816 53.5954L16.5815 53.5954Z" fill="#146495"/>
</svg>
