<svg width="393" height="210" viewBox="0 0 393 210" fill="none" xmlns="http://www.w3.org/2000/svg">
<path d="M43.3198 209.413C28.1043 207.964 14.6442 200.603 3.93065 187.869C3.09399 186.875 2.15703 185.687 1.84845 185.231C1.53992 184.774 1.286 184.486 1.2842 184.591C1.2823 184.695 1.20069 184.654 1.10262 184.499C1.00454 184.345 0.970779 183.976 1.02761 183.68C1.09543 183.325 1.1866 183.23 1.29278 183.401C1.4071 183.586 1.49333 183.541 1.5865 183.248C1.66594 182.998 2.33407 182.548 3.26767 182.117C8.39962 179.746 10.6256 178.593 12.6244 177.269C22.9486 170.439 29.8358 160.104 32.3519 147.667C32.7827 145.538 32.8347 144.652 32.8365 139.41C32.8365 134.052 32.794 133.324 32.3295 131.084C30.3388 121.481 26.1767 113.639 19.62 107.138C15.1697 102.726 11.0358 100.062 3.13972 96.5169C2.15776 96.0761 1.63785 95.7128 1.55921 95.4127C1.47021 95.0731 1.39856 95.034 1.26109 95.2505C1.1459 95.4319 1.08506 95.225 1.09373 94.6814C1.1012 94.2117 1.15724 93.9516 1.21824 94.1034C1.28577 94.2712 1.557 94.0209 1.91178 93.4628C2.91869 91.8792 5.77264 88.5796 8.21613 86.1742C16.1054 78.408 25.7262 72.9638 36.018 70.4416C39.6361 69.555 43.0276 69.3146 50.1106 69.4426C55.5958 69.5419 56.3715 69.6022 58.507 70.0952C63.8431 71.3271 67.3651 72.5637 71.983 74.8268C77.6312 77.5948 82.4802 81.0611 87.3528 85.8133C93.3875 91.6989 95.4673 94.7745 94.1757 95.9032C93.9699 96.083 92.7426 96.6863 91.4485 97.2436C84.6384 100.177 80.5423 102.963 75.7249 107.938C69.4375 114.432 65.8128 121.388 63.831 130.764C63.3819 132.888 63.2688 134.131 63.1693 138.035C63.0315 143.432 63.2329 145.711 64.1923 149.614C66.4092 158.631 70.5317 165.923 76.8418 171.988C80.9936 175.98 85.4199 178.943 90.2265 180.953C94.3287 182.668 95.026 183.276 94.5045 184.684C93.9422 186.2 87.0628 193.573 83.4271 196.553C78.3813 200.691 72.4164 204.127 66.4355 206.341C62.4225 207.827 55.3133 209.187 52.051 209.472C47.5879 209.89 46.5743 209.78 43.3198 209.413V209.413ZM55.8333 203.461C63.8052 202.066 71.4523 198.709 78.1767 193.653C81.1159 191.443 86.2078 186.485 86.2078 185.832C86.2078 185.435 85.9017 185.177 84.6569 184.526C82.589 183.444 78.3298 180.595 76.2388 178.894C67.7403 171.984 61.8548 162.726 59.0235 151.817C58.0458 148.051 57.7436 145.832 57.6096 141.438C57.3643 133.39 58.4619 127.008 61.3112 119.919C65.5746 109.313 73.9818 100.026 84.3874 94.4283C85.4771 93.842 86.3408 93.2354 86.3808 93.028C86.4715 92.5576 82.2859 88.4032 79.3113 86.0111C72.8775 80.8371 64.8898 77.0544 57.0542 75.4709C54.5787 74.9706 53.9595 74.9323 48.3472 74.9323C41.3463 74.9323 39.2498 75.1668 35.1171 76.412C28.0611 78.5379 22.3895 81.5004 16.7035 86.0298C13.7844 88.3553 9.62951 92.4397 9.63071 92.9827C9.63134 93.2868 10.069 93.6245 11.2393 94.2242C22.0365 99.7569 31.1258 110.027 35.3784 121.501C36.2673 123.899 37.4807 128.41 38.0136 131.298C38.5523 134.216 38.545 144.582 38.0021 147.524C36.2908 156.801 32.732 164.697 27.1653 171.565C23.2032 176.454 17.2471 181.344 11.713 184.252C10.2907 184.999 9.62962 185.466 9.62962 185.719C9.62962 186.208 14.9955 191.45 17.3302 193.243C25.094 199.209 33.2196 202.613 42.5084 203.791C45.9004 204.221 52.4059 204.06 55.833 203.461H55.8333ZM171.236 209.518L170.053 209.48C168.152 209.415 163.75 208.828 160.861 208.251C144.304 204.945 129.164 195.356 117.52 180.8C115.444 178.205 115.166 177.61 115.554 176.594C115.903 175.678 116.545 175.276 119.898 173.877C137.946 166.343 150.592 150.851 154.334 131.692C155.488 125.794 155.49 116.535 154.343 110.667C153.329 105.477 151.302 99.437 149.195 95.3219C147.001 91.0363 143.245 85.7391 139.762 82.0154C134.427 76.3115 128.263 72.059 120.005 68.3863C116.111 66.6542 115.513 66.1908 115.513 64.9042C115.513 64.2336 115.747 63.7656 116.772 62.3861C125.358 50.827 139.291 40.6441 152.626 36.1829C159.46 33.896 162.186 33.3816 169.228 33.0484C176.565 32.7013 183.292 32.9929 187.156 33.8258C197.111 35.9705 206.436 40.0366 214.317 45.6678C218.249 48.4777 221.062 50.8748 224.716 54.5301C231.56 61.3763 233.855 64.8334 232.573 66.3646C232.367 66.6104 230.422 67.582 228.251 68.5239C220.504 71.885 215.529 75.2331 209.845 80.9111C204.442 86.3086 200.594 91.9738 197.785 98.6655C195.115 105.028 193.729 111.016 193.383 117.701C192.824 128.462 194.754 137.815 199.45 147.104C205.355 158.784 215.516 168.332 227.385 173.355C231.887 175.261 232.282 175.471 232.632 176.145C233.226 177.293 233.045 178.116 231.849 179.698C228.871 183.639 221.805 190.852 217.866 193.974C207.422 202.252 195.186 207.476 182.401 209.116C181.012 209.294 179.376 209.455 178.765 209.473C175.275 209.641 173.201 209.614 171.236 209.518V209.518ZM179.577 203.885C192.053 202.732 204.463 197.623 214.658 189.443C217.137 187.454 224.245 180.458 224.858 179.403C225.057 179.062 225.152 178.679 225.072 178.551C224.991 178.424 224.204 178.015 223.321 177.642C219.862 176.181 214.357 172.647 210.19 169.212C207.574 167.058 203.201 162.618 201.19 160.077C197.539 155.459 193.668 148.593 191.677 143.198C189.936 138.482 188.462 132.461 188.039 128.339C187.749 125.504 187.748 117.605 188.039 114.431C188.878 105.257 192.704 94.5427 197.929 86.7289C200.635 82.6841 202.967 79.9093 206.768 76.2119C211.601 71.5102 216.217 68.214 222.144 65.2306C223.999 64.2971 225.165 63.5854 225.206 63.3611C225.304 62.8325 217.554 55.1374 214.444 52.6739C205.743 45.783 196.642 41.5369 185.245 39.0514C181.206 38.17 167.005 38.2525 162.4 39.1841C161.494 39.3672 159.262 39.9524 157.439 40.4846C146.589 43.6509 137.075 49.2673 128.596 57.5117C124.837 61.1662 123.149 63.1127 123.38 63.5246C123.477 63.697 124.658 64.3898 126.005 65.0641C140.616 72.378 151.391 84.3949 157.091 99.7353C158.569 103.713 160.056 110.075 160.45 114.108C160.803 117.706 160.598 128.448 160.13 130.977C159.082 136.641 158.092 140.058 156.015 145.175C151.796 155.573 144.685 164.575 135.094 171.658C132.387 173.658 128.114 176.221 125.476 177.429C123.782 178.205 123.427 178.45 123.427 178.843C123.427 179.42 127.398 183.785 130.307 186.406C142.108 197.038 154.367 202.482 169.844 203.962C171.609 204.131 177.411 204.085 179.577 203.885V203.885ZM319.899 209.518L318.615 209.48C317.909 209.458 316.033 209.289 314.444 209.105C297.941 207.197 283.156 200.697 269.632 189.405C264.034 184.732 254.247 173.886 253.803 171.861C253.617 171.019 254.231 169.769 255.121 169.177C255.493 168.93 257.534 167.982 259.657 167.072C265.782 164.442 270.857 161.419 275.835 157.434C278.787 155.071 283.41 150.477 285.882 147.45C293.446 138.19 298.82 125.747 300.328 114.003C300.709 111.032 300.835 102.925 300.56 99.1808C300.062 92.4435 298.256 85.3659 295.174 78.0764C291.628 69.6878 284.891 60.5838 277.588 54.3078C272.051 49.5502 266.248 46.0408 257.997 42.4593C254.857 41.0961 254.225 40.6424 253.916 39.5219C253.634 38.5045 254.143 37.4066 255.988 35.0434C264.296 24.4056 275.656 15.0914 287.622 9.10744C296.47 4.6829 307.84 1.40634 314.936 1.23652C322.354 0.868886 327.987 0.977603 332.519 1.23841C337.028 1.36752 347.623 4.15905 354.101 6.925C365.421 11.7586 374.564 18.0899 383.75 27.4575C390.218 34.053 393.06 38.0121 392.611 39.7992C392.39 40.675 391.638 41.147 387.804 42.8157C378.58 46.83 372.791 50.5631 366.716 56.4126C361.878 61.0727 358.844 64.7363 355.861 69.5259C350.707 77.7998 346.99 88.586 346.091 97.8841C345.773 101.185 345.773 110.046 346.091 112.936C346.64 117.912 348.395 124.729 350.494 130.05C355.896 143.736 365.243 154.763 378.207 162.743C381.11 164.53 382.667 165.305 386.862 167.059C391.376 168.947 391.959 169.295 392.388 170.367C392.578 170.842 392.734 171.459 392.734 171.738C392.734 173.298 384.111 183.011 377.761 188.603C366.317 198.682 351.875 205.724 337.227 208.37C334.531 208.857 329.869 209.423 328.137 209.475L326.959 209.509C323.596 209.603 322.293 209.565 319.899 209.518V209.518ZM332.199 203.578C346.331 201.646 359.126 196.245 370.702 187.33C372.243 186.143 375.197 183.401 378.616 179.984C384.212 174.391 385.505 172.89 385.087 172.472C384.96 172.346 383.897 171.836 382.723 171.337C376.604 168.742 369.056 163.71 363.254 158.358C351.57 147.581 343.84 132.998 340.925 116.245C340.482 113.694 340.443 112.824 340.447 105.463C340.453 98.2791 340.501 97.1492 340.922 94.4586C342.119 86.8326 344.655 78.8723 348.02 72.1713C354.933 58.407 367.112 46.4307 380.756 39.9795C385.232 37.8625 385.129 37.9195 385.203 37.5358C385.331 36.8686 378.2 29.4222 373.811 25.6393C363.969 17.1584 352.794 11.336 340.408 8.23586C334.197 6.68112 334.599 6.71771 323.749 6.71771C311.322 6.71771 309.893 6.89612 301.503 9.49537C290.137 13.0166 279.18 19.4848 269.817 28.2002C265.856 31.8873 261.318 36.9077 261.432 37.4764C261.475 37.6948 263.226 38.7004 266.001 40.1017C278.477 46.4016 287.208 54.2401 295.003 66.1373C300.038 73.8217 303.782 83.5711 305.452 93.3466C306.329 98.4766 306.513 107.73 305.866 114.11C305.586 116.866 304.348 122.779 303.389 125.939C302.322 129.46 300.197 134.768 298.511 138.127C291.23 152.625 278.561 164.678 263.481 171.452C261.988 172.123 261.396 172.495 261.396 172.765C261.396 173.555 268.556 181.13 272.634 184.655C285.363 195.658 300.084 202.085 316.467 203.791C320.053 204.165 328.776 204.046 332.199 203.578V203.578Z" fill="#136394" stroke="#136394" stroke-width="0.465"/>
</svg>
