<svg width="58" height="31" viewBox="0 0 58 31" fill="none" xmlns="http://www.w3.org/2000/svg">
<path d="M57.739 0H23.1223V2.38441H57.739V0Z" fill="#C91820"/>
<path d="M57.739 4.68652H23.1223V7.07093H57.739V4.68652Z" fill="#C91820"/>
<path d="M57.739 9.3877H23.1223V11.7721H57.739V9.3877Z" fill="#C91820"/>
<path d="M57.739 14.0068H23.1223V16.3912H57.739V14.0068Z" fill="#C91820"/>
<path d="M57.739 18.625H0V21.0094H57.739V18.625Z" fill="#C91820"/>
<path d="M57.739 23.5713H0V25.9557H57.739V23.5713Z" fill="#C91820"/>
<path d="M57.739 28.6152H0V30.9996H57.739V28.6152Z" fill="#C91820"/>
<path d="M23.6258 0H0V16.3362H23.6258V0Z" fill="#241F5D"/>
<path d="M2.01998 2.17322L1.43724 2.57508L1.60743 1.8569L1.06924 1.38287H1.75712L2.00929 0.661133L2.28907 1.38287H2.96982L2.45213 1.8569L2.64281 2.57508L2.01998 2.17322Z" fill="white"/>
<path d="M5.88976 2.17322L5.30702 2.57508L5.47721 1.8569L4.93903 1.38287H5.6269L5.87907 0.661133L6.15885 1.38287H6.8396L6.32191 1.8569L6.51259 2.57508L5.88976 2.17322Z" fill="white"/>
<path d="M9.89494 2.17322L9.31221 2.57508L9.48328 1.8569L8.9451 1.38287H9.63298L9.88514 0.661133L10.164 1.38287H10.8457L10.328 1.8569L10.5187 2.57508L9.89494 2.17322Z" fill="white"/>
<path d="M13.7647 2.17322L13.182 2.57508L13.3522 1.8569L12.814 1.38287H13.5019L13.754 0.661133L14.0338 1.38287H14.7146L14.1969 1.8569L14.3876 2.57508L13.7647 2.17322Z" fill="white"/>
<path d="M17.6612 2.17322L17.0784 2.57508L17.2486 1.8569L16.7104 1.38287H17.3992L17.6514 0.661133L17.9303 1.38287H18.6119L18.0942 1.8569L18.2849 2.57508L17.6612 2.17322Z" fill="white"/>
<path d="M21.6396 2.17322L21.0569 2.57508L21.2271 1.8569L20.6889 1.38287H21.3777L21.6298 0.661133L21.9087 1.38287H22.5904L22.0718 1.8569L22.2634 2.57508L21.6396 2.17322Z" fill="white"/>
<path d="M3.95442 3.89774L3.37258 4.2996L3.54276 3.58053L3.00458 3.10739H3.69246L3.94462 2.38477L4.22351 3.10739H4.90515L4.38746 3.58053L4.57814 4.2996L3.95442 3.89774Z" fill="white"/>
<path d="M7.82415 3.89774L7.24141 4.2996L7.4116 3.58053L6.87341 3.10739H7.56129L7.81345 2.38477L8.09324 3.10739H8.77399L8.2563 3.58053L8.44787 4.2996L7.82415 3.89774Z" fill="white"/>
<path d="M11.8294 3.89774L11.2475 4.2996L11.4177 3.58053L10.8795 3.10739H11.5674L11.8196 2.38477L12.0985 3.10739H12.7801L12.2624 3.58053L12.4531 4.2996L11.8294 3.89774Z" fill="white"/>
<path d="M15.6991 3.89774L15.1164 4.2996L15.2875 3.58053L14.7493 3.10739H15.4372L15.6893 2.38477L15.9682 3.10739H16.6499L16.1322 3.58053L16.3229 4.2996L15.6991 3.89774Z" fill="white"/>
<path d="M19.5956 3.89774L19.0138 4.2996L19.184 3.58053L18.6458 3.10739H19.3337L19.5858 2.38477L19.8647 3.10739H20.5464L20.0287 3.58053L20.2193 4.2996L19.5956 3.89774Z" fill="white"/>
<path d="M2.01998 5.4163L1.43724 5.81815L1.60743 5.09909L1.06924 4.62595H1.75712L2.00929 3.90332L2.28907 4.62595H2.96982L2.45213 5.09909L2.64281 5.81815L2.01998 5.4163Z" fill="white"/>
<path d="M5.88976 5.4163L5.30702 5.81815L5.47721 5.09909L4.93903 4.62595H5.6269L5.87907 3.90332L6.15885 4.62595H6.8396L6.32191 5.09909L6.51259 5.81815L5.88976 5.4163Z" fill="white"/>
<path d="M9.89494 5.4163L9.31221 5.81815L9.48328 5.09909L8.9451 4.62595H9.63298L9.88514 3.90332L10.164 4.62595H10.8457L10.328 5.09909L10.5187 5.81815L9.89494 5.4163Z" fill="white"/>
<path d="M13.7647 5.4163L13.182 5.81815L13.3522 5.09909L12.814 4.62595H13.5019L13.754 3.90332L14.0338 4.62595H14.7146L14.1969 5.09909L14.3876 5.81815L13.7647 5.4163Z" fill="white"/>
<path d="M17.6612 5.4163L17.0784 5.81815L17.2486 5.09909L16.7104 4.62595H17.3992L17.6514 3.90332L17.9303 4.62595H18.6119L18.0942 5.09909L18.2849 5.81815L17.6612 5.4163Z" fill="white"/>
<path d="M21.6396 5.4163L21.0569 5.81815L21.2271 5.09909L20.6889 4.62595H21.3777L21.6298 3.90332L21.9087 4.62595H22.5904L22.0718 5.09909L22.2634 5.81815L21.6396 5.4163Z" fill="white"/>
<path d="M3.95442 7.14001L3.37258 7.54187L3.54276 6.8228L3.00458 6.34967H3.69246L3.94462 5.62793L4.22351 6.34967H4.90515L4.38746 6.8228L4.57814 7.54187L3.95442 7.14001Z" fill="white"/>
<path d="M7.82415 7.14001L7.24141 7.54187L7.4116 6.8228L6.87341 6.34967H7.56129L7.81345 5.62793L8.09324 6.34967H8.77399L8.2563 6.8228L8.44787 7.54187L7.82415 7.14001Z" fill="white"/>
<path d="M11.8294 7.14001L11.2475 7.54187L11.4177 6.8228L10.8795 6.34967H11.5674L11.8196 5.62793L12.0985 6.34967H12.7801L12.2624 6.8228L12.4531 7.54187L11.8294 7.14001Z" fill="white"/>
<path d="M15.6991 7.14001L15.1164 7.54187L15.2875 6.8228L14.7493 6.34967H15.4372L15.6893 5.62793L15.9682 6.34967H16.6499L16.1322 6.8228L16.3229 7.54187L15.6991 7.14001Z" fill="white"/>
<path d="M19.5956 7.14001L19.0138 7.54187L19.184 6.8228L18.6458 6.34967H19.3337L19.5858 5.62793L19.8647 6.34967H20.5464L20.0287 6.8228L20.2193 7.54187L19.5956 7.14001Z" fill="white"/>
<path d="M2.01998 8.71326L1.43724 9.11511L1.60743 8.39605L1.06924 7.92291H1.75712L2.00929 7.20117L2.28907 7.92291H2.96982L2.45213 8.39605L2.64281 9.11511L2.01998 8.71326Z" fill="white"/>
<path d="M5.88976 8.71326L5.30702 9.11511L5.47721 8.39605L4.93903 7.92291H5.6269L5.87907 7.20117L6.15885 7.92291H6.8396L6.32191 8.39605L6.51259 9.11511L5.88976 8.71326Z" fill="white"/>
<path d="M9.89494 8.71326L9.31221 9.11511L9.48328 8.39605L8.9451 7.92291H9.63298L9.88514 7.20117L10.164 7.92291H10.8457L10.328 8.39605L10.5187 9.11511L9.89494 8.71326Z" fill="white"/>
<path d="M13.7647 8.71326L13.182 9.11511L13.3522 8.39605L12.814 7.92291H13.5019L13.754 7.20117L14.0338 7.92291H14.7146L14.1969 8.39605L14.3876 9.11511L13.7647 8.71326Z" fill="white"/>
<path d="M17.6612 8.71326L17.0784 9.11511L17.2486 8.39605L16.7104 7.92291H17.3992L17.6514 7.20117L17.9303 7.92291H18.6119L18.0942 8.39605L18.2849 9.11511L17.6612 8.71326Z" fill="white"/>
<path d="M21.6396 8.71326L21.0569 9.11511L21.2271 8.39605L20.6889 7.92291H21.3777L21.6298 7.20117L21.9087 7.92291H22.5904L22.0718 8.39605L22.2634 9.11511L21.6396 8.71326Z" fill="white"/>
<path d="M3.95442 10.4369L3.37258 10.8387L3.54276 10.1206L3.00458 9.64654H3.69246L3.94462 8.9248L4.22351 9.64654H4.90515L4.38746 10.1206L4.57814 10.8387L3.95442 10.4369Z" fill="white"/>
<path d="M7.82415 10.4369L7.24141 10.8387L7.4116 10.1206L6.87341 9.64654H7.56129L7.81345 8.9248L8.09324 9.64654H8.77399L8.2563 10.1206L8.44787 10.8387L7.82415 10.4369Z" fill="white"/>
<path d="M11.8294 10.4369L11.2475 10.8387L11.4177 10.1206L10.8795 9.64654H11.5674L11.8196 8.9248L12.0985 9.64654H12.7801L12.2624 10.1206L12.4531 10.8387L11.8294 10.4369Z" fill="white"/>
<path d="M15.6991 10.4369L15.1164 10.8387L15.2875 10.1206L14.7493 9.64654H15.4372L15.6893 8.9248L15.9682 9.64654H16.6499L16.1322 10.1206L16.3229 10.8387L15.6991 10.4369Z" fill="white"/>
<path d="M19.5956 10.4369L19.0138 10.8387L19.184 10.1206L18.6458 9.64654H19.3337L19.5858 8.9248L19.8647 9.64654H20.5464L20.0287 10.1206L20.2193 10.8387L19.5956 10.4369Z" fill="white"/>
<path d="M2.01998 11.9633L1.43724 12.3651L1.60743 11.646L1.06924 11.1729H1.75712L2.00929 10.4512L2.28907 11.1729H2.96982L2.45213 11.646L2.64281 12.3651L2.01998 11.9633Z" fill="white"/>
<path d="M5.88976 11.9633L5.30702 12.3651L5.47721 11.646L4.93903 11.1729H5.6269L5.87907 10.4512L6.15885 11.1729H6.8396L6.32191 11.646L6.51259 12.3651L5.88976 11.9633Z" fill="white"/>
<path d="M9.89494 11.9633L9.31221 12.3651L9.48328 11.646L8.9451 11.1729H9.63298L9.88514 10.4512L10.164 11.1729H10.8457L10.328 11.646L10.5187 12.3651L9.89494 11.9633Z" fill="white"/>
<path d="M13.7647 11.9633L13.182 12.3651L13.3522 11.646L12.814 11.1729H13.5019L13.754 10.4512L14.0338 11.1729H14.7146L14.1969 11.646L14.3876 12.3651L13.7647 11.9633Z" fill="white"/>
<path d="M17.6612 11.9633L17.0784 12.3651L17.2486 11.646L16.7104 11.1729H17.3992L17.6514 10.4512L17.9303 11.1729H18.6119L18.0942 11.646L18.2849 12.3651L17.6612 11.9633Z" fill="white"/>
<path d="M21.6396 11.9633L21.0569 12.3651L21.2271 11.646L20.6889 11.1729H21.3777L21.6298 10.4512L21.9087 11.1729H22.5904L22.0718 11.646L22.2634 12.3651L21.6396 11.9633Z" fill="white"/>
<path d="M2.01998 15.179L1.43724 15.5808L1.60743 14.8618L1.06924 14.3886H1.75712L2.00929 13.666L2.28907 14.3886H2.96982L2.45213 14.8618L2.64281 15.5808L2.01998 15.179Z" fill="white"/>
<path d="M5.88976 15.179L5.30702 15.5808L5.47721 14.8618L4.93903 14.3886H5.6269L5.87907 13.666L6.15885 14.3886H6.8396L6.32191 14.8618L6.51259 15.5808L5.88976 15.179Z" fill="white"/>
<path d="M9.89494 15.179L9.31221 15.5808L9.48328 14.8618L8.9451 14.3886H9.63298L9.88514 13.666L10.164 14.3886H10.8457L10.328 14.8618L10.5187 15.5808L9.89494 15.179Z" fill="white"/>
<path d="M13.7647 15.179L13.182 15.5808L13.3522 14.8618L12.814 14.3886H13.5019L13.754 13.666L14.0338 14.3886H14.7146L14.1969 14.8618L14.3876 15.5808L13.7647 15.179Z" fill="white"/>
<path d="M17.6612 15.179L17.0784 15.5808L17.2486 14.8618L16.7104 14.3886H17.3992L17.6514 13.666L17.9303 14.3886H18.6119L18.0942 14.8618L18.2849 15.5808L17.6612 15.179Z" fill="white"/>
<path d="M21.6396 15.179L21.0569 15.5808L21.2271 14.8618L20.6889 14.3886H21.3777L21.6298 13.666L21.9087 14.3886H22.5904L22.0718 14.8618L22.2634 15.5808L21.6396 15.179Z" fill="white"/>
<path d="M3.95442 13.6859L3.37258 14.0878L3.54276 13.3696L3.00458 12.8956H3.69246L3.94462 12.1738L4.22351 12.8956H4.90515L4.38746 13.3696L4.57814 14.0878L3.95442 13.6859Z" fill="white"/>
<path d="M7.82415 13.6859L7.24141 14.0878L7.4116 13.3696L6.87341 12.8956H7.56129L7.81345 12.1738L8.09324 12.8956H8.77399L8.2563 13.3696L8.44787 14.0878L7.82415 13.6859Z" fill="white"/>
<path d="M11.8294 13.6859L11.2475 14.0878L11.4177 13.3696L10.8795 12.8956H11.5674L11.8196 12.1738L12.0985 12.8956H12.7801L12.2624 13.3696L12.4531 14.0878L11.8294 13.6859Z" fill="white"/>
<path d="M15.6991 13.6859L15.1164 14.0878L15.2875 13.3696L14.7493 12.8956H15.4372L15.6893 12.1738L15.9682 12.8956H16.6499L16.1322 13.3696L16.3229 14.0878L15.6991 13.6859Z" fill="white"/>
<path d="M19.5956 13.6859L19.0138 14.0878L19.184 13.3696L18.6458 12.8956H19.3337L19.5858 12.1738L19.8647 12.8956H20.5464L20.0287 13.3696L20.2193 14.0878L19.5956 13.6859Z" fill="white"/>
</svg>
