<svg width="159" height="161" viewBox="0 0 159 161" fill="none" xmlns="http://www.w3.org/2000/svg">
<path d="M68.8213 160.575C56.8994 158.418 47.4093 148.732 45.054 136.315C43.6671 129.004 45.8126 120.696 51.1345 112.769C54.1581 108.266 57.3717 104.501 65.3914 96.0674C67.4141 93.9405 69.0689 92.1106 69.0689 92.0011C69.0689 91.8915 67.2287 89.8907 64.9796 87.5548C59.6777 82.0485 57.0382 79.1277 53.277 74.6048C51.5904 72.5767 49.909 70.6802 49.5406 70.3905C47.7499 68.9818 45.4679 69.1285 38.1019 71.1255C31.1846 73.0009 28.5226 73.4566 25.1802 73.3374C22.7245 73.2498 22.2126 73.1507 20.9441 72.5176C19.5363 71.815 17.1324 69.6042 15.4571 67.4712L14.6664 66.4646H11.7285C8.91605 66.4646 8.71869 66.4293 7.10867 65.6374C5.15697 64.6776 3.63227 63.1059 2.66236 61.054C2.10143 59.8673 2.00775 59.3282 2.00553 57.2739C2.00339 55.0765 2.07074 54.7401 2.8208 53.2165C3.79042 51.247 5.36987 49.7006 7.36943 48.7633C8.61747 48.1782 9.11503 48.0938 11.3142 48.0938C13.5854 48.0938 13.9766 48.1654 15.3269 48.8284C19.6779 50.9647 21.6828 55.8364 20.0863 60.3936C19.8984 60.93 19.7446 61.5639 19.7446 61.8022C19.7446 62.412 22.8588 65.9928 23.8226 66.4912C25.0305 67.1159 28.6965 66.8438 32.3274 65.86C33.9191 65.4288 36.9726 64.6186 39.113 64.0596C41.2534 63.5006 43.0511 62.9969 43.1077 62.9403C43.1643 62.8836 43.1501 62.6908 43.076 62.5119C42.9474 62.2014 11.38 24.4304 10.4516 23.4762C10.0213 23.0339 9.93615 23.0743 8.06349 24.6087C6.99545 25.4838 5.78722 26.4097 5.37854 26.6662C4.48466 27.2273 3.54847 27.0645 3.03559 26.2587C2.66915 25.683 0.0195948 9.62142 0.000355713 7.85918C-0.00806184 7.08484 0.130539 6.77698 0.670168 6.37168L1.35065 5.86061L9.22643 8.57814C19.9132 12.2656 19.6133 12.1465 19.991 12.8522C20.5131 13.8277 19.9721 14.6804 17.6001 16.6208C16.4266 17.5808 15.4665 18.547 15.4665 18.7679C15.4665 19.2813 40.3158 48.9746 40.7455 48.9746C40.9223 48.9746 41.27 48.4366 41.5183 47.7792C41.7666 47.1217 43.0132 44.3756 44.2886 41.6766C45.5639 38.9776 46.8514 36.1058 47.1496 35.2949C47.8051 33.5121 48.0701 31.2185 47.7233 30.3284C47.3919 29.4779 44.7152 26.3247 44.3281 26.3288C44.1638 26.3302 43.2573 26.9534 42.3138 27.7129C40.2095 29.4067 39.5902 29.4745 38.3167 28.1501C36.6517 26.4187 28.7717 16.8963 28.5512 16.3494C28.4317 16.0528 28.399 15.5612 28.4785 15.257C28.6293 14.6806 40.1229 4.90446 41.2577 4.38743C41.7081 4.1822 42.057 4.17518 42.4692 4.36303C43.103 4.65178 52.7818 16.0897 53.236 17.0866C53.6313 17.9541 53.1795 18.6856 51.2644 20.2791C50.3993 20.9988 49.6915 21.6771 49.6915 21.7863C49.6915 21.8955 50.4601 22.9377 51.3994 24.1023C53.9317 27.2421 54.3508 28.3333 54.3313 31.7362C54.3169 34.248 54.2286 34.7595 53.3784 37.2579C52.8631 38.7723 51.3236 42.3395 49.9573 45.185C46.5796 52.2196 45.892 54.6254 46.775 56.3179C46.9685 56.6888 48.6382 58.7582 50.4854 60.9165C54.1454 65.1931 54.8083 65.9872 58.4784 70.491C63.4873 76.638 73.0269 86.2037 74.3694 86.4256C74.9226 86.517 80.2297 81.3493 84.8503 76.22C88.5925 72.0658 97.0166 62.0934 97.0166 61.5802C97.8001 61.1597 100.888 64.7053 101.979 65.7931C100.536 67.6272 100.337 66.9637 95.3068 73.4766C91.4487 78.4263 89.3039 81.5113 84.0082 87.1021C81.6037 89.6407 79.6363 91.8544 79.6363 92.0215C79.6363 92.1886 81.0801 93.8477 82.8449 95.7085C95.4174 108.965 100.627 116.341 102.715 123.842C103.38 126.228 103.416 126.625 103.404 131.517C103.394 136.027 103.324 136.925 102.843 138.65C101.996 141.695 100.748 144.591 99.2483 146.997C97.6706 149.527 93.9356 153.591 91.5042 155.423C88.1312 157.963 83.7999 159.813 79.4345 160.576C76.758 161.045 71.4117 161.044 68.8192 160.575L68.8213 160.575ZM77.9626 154.04C84.1699 152.958 89.6734 149.39 93.1163 144.215C95.4615 140.691 96.5464 137.823 96.9718 134.026C97.4424 129.825 96.5997 125.627 94.3721 121.074C91.8872 115.994 89.3872 112.695 82.1993 105.011C77.5105 99.9991 74.876 97.5439 74.1865 97.5439C73.6233 97.5439 64.6463 106.57 61.1716 110.63C55.2965 117.495 51.9531 124.055 51.3439 129.913C50.9502 133.698 52.3534 139.344 54.6291 143.129C56.0536 145.499 59.2217 148.867 61.3935 150.319C66.6224 153.817 72.14 155.056 77.9626 154.04V154.04ZM97.0166 61.5802C97.0166 61.3607 96.6841 60.6977 96.2777 60.1071C95.1562 58.4769 93.9356 55.7462 93.3641 53.5888C92.6493 50.8903 92.6487 46.6078 93.3641 43.9049C94.4557 39.7727 95.8726 37.5627 101.556 31.1288C107.227 24.7091 118.523 12.1716 119.264 11.476C120.334 10.4703 121.306 10.5194 122.856 11.6576C123.528 12.1502 124.171 12.5532 124.286 12.5531C124.402 12.553 126.986 9.7778 130.028 6.38599C134.725 1.15004 135.685 0.195731 136.384 0.064531C137.433 -0.132097 137.401 -0.154012 142.422 4.22979C153.316 13.7421 158.77 18.7099 158.904 19.245C158.983 19.5592 158.984 20.0614 158.904 20.361C158.826 20.6606 156.844 23.0845 154.498 25.7476C152.152 28.4107 149.696 31.2241 149.04 31.9997L147.847 33.4099L148.825 34.5216C149.364 35.133 149.87 35.8955 149.95 36.216C150.23 37.3301 151.067 36.3132 135.613 53.6227C125.274 65.2026 125.23 65.2432 121.441 67.0162C116.125 69.5041 109.098 69.4011 103.885 66.7591L101.979 65.7931L97.0166 61.5802ZM116.384 64.0193C118.184 63.6368 120.342 62.7327 122.012 61.6606C123.047 60.9969 128.798 54.7337 139.762 42.331C143.803 37.7599 144.225 37.2578 144.225 37.0234C144.225 36.6762 124.711 19.2697 122.025 17.221L121.21 16.5994L120.584 17.1789C119.97 17.7462 113.062 25.4656 104.394 35.2687C102.001 37.9753 99.8007 40.6444 99.5049 41.2C99.2092 41.7556 98.6747 43.0818 98.3173 44.147C97.762 45.8015 97.6673 46.4895 97.6673 48.8679C97.6673 51.2294 97.7646 51.946 98.308 53.5888C99.7479 57.9417 102.469 61.0214 106.569 62.9403C109.45 64.2886 113.185 64.6991 116.384 64.0193V64.0193ZM146.696 27.5028C150.465 23.3951 152.941 20.5017 152.941 20.2042C152.941 19.5065 137.808 6.01669 137.025 6.01669C136.633 6.01669 135.641 7.05504 130.941 12.3843C128.987 14.6003 128.058 15.831 128.181 16.0383C128.647 16.8181 143.676 29.9843 144.1 29.9843C144.276 29.9843 145.444 28.8676 146.696 27.5028V27.5028ZM141.815 22.5214C140.975 21.6815 141.1 21.078 142.457 19.4172C144.073 17.4384 144.908 17.0907 145.945 17.9636C146.36 18.3127 146.474 18.5463 146.474 19.0438C146.474 19.759 146.259 20.1239 145.042 21.4758C143.52 23.1666 142.72 23.4259 141.815 22.5214ZM135.671 16.9272C134.831 16.0873 134.956 15.4838 136.312 13.823C137.929 11.8442 138.763 11.4965 139.8 12.3694C140.216 12.7186 140.33 12.952 140.33 13.4496C140.33 14.1648 140.115 14.5297 138.898 15.8816C137.375 17.5724 136.575 17.8317 135.671 16.9272V16.9272Z" fill="#146495"/>
</svg>
