<svg width="29" height="32" viewBox="0 0 29 32" fill="none" xmlns="http://www.w3.org/2000/svg">
<g clip-path="url(#clip0)">
<path d="M0.0602119 31.9246C-0.0303804 31.8599 -0.0272819 31.7776 0.128455 30.1119C0.218185 29.1522 0.376857 27.428 0.481057 26.2804C0.585257 25.1328 0.717749 23.7009 0.775482 23.0984C0.833215 22.4959 0.928563 21.463 0.987364 20.8031C1.10208 19.5157 1.26118 17.7842 1.39235 16.3953C1.43706 15.9219 1.53313 14.8655 1.60584 14.0479C1.67855 13.2302 1.77276 12.2091 1.8152 11.7787C1.85765 11.3483 1.931 10.5268 1.97821 9.95294C2.02542 9.37913 2.08588 8.85716 2.11255 8.79299L2.16105 8.67632L3.93816 8.66259L5.71527 8.64884L5.74836 8.10112C5.96427 4.52665 8.33466 1.51552 11.8073 0.40433C13.491 -0.134417 15.5077 -0.134807 17.1894 0.403345C20.6574 1.51305 23.0361 4.53352 23.2516 8.10117L23.2847 8.6489L25.0618 8.66264L26.8389 8.67638L26.8874 8.79305C26.9141 8.85721 26.9746 9.37919 27.0218 9.953C27.069 10.5268 27.1424 11.3484 27.1848 11.7788C27.2272 12.2091 27.3215 13.2302 27.3942 14.0479C27.4669 14.8656 27.5629 15.9219 27.6076 16.3953C27.7388 17.7842 27.8979 19.5158 28.0126 20.8032C28.0714 21.4631 28.1668 22.4959 28.2245 23.0984C28.2822 23.7009 28.4147 25.1329 28.5189 26.2805C28.6231 27.4281 28.7818 29.1523 28.8715 30.112C29.0273 31.7777 29.0304 31.86 28.9398 31.9247C28.7992 32.0251 0.200789 32.0251 0.0602119 31.9247V31.9246ZM21.4423 8.62544C21.4423 8.59824 21.3802 8.3839 21.3043 8.14915C20.7493 6.43283 19.4511 4.92311 17.8188 4.09555C17.2156 3.78973 16.7023 3.60364 16.0279 3.4463C15.6195 3.351 15.3784 3.33239 14.5267 3.33042C13.1447 3.3272 12.5148 3.46592 11.3225 4.03596C9.91827 4.70738 8.80036 5.80391 8.09211 7.2046C7.87119 7.64149 7.55766 8.47503 7.55766 8.62544C7.55766 8.65638 10.1593 8.67491 14.5 8.67491C18.8407 8.67491 21.4423 8.65638 21.4423 8.62544ZM9.21314 3.73756C10.7917 2.52921 12.5133 1.9457 14.5 1.9457C16.8028 1.9457 18.7963 2.74643 20.5268 4.36655C20.7952 4.61777 20.8491 4.65156 20.7843 4.52784C20.6414 4.25496 20.014 3.5315 19.5859 3.14598C16.7291 0.573324 12.2709 0.573324 9.41413 3.14598C8.99832 3.52043 8.41919 4.18779 8.23006 4.51044C8.14683 4.65243 8.19582 4.62186 8.49708 4.34381C8.7 4.15652 9.02223 3.88371 9.21314 3.73756Z" fill="#D0D0D0"/>
<path d="M0.0477427 31.8634C0.0311114 31.8211 0.105224 30.8411 0.212417 29.6856C0.506576 26.5146 0.694968 24.4667 0.962343 21.5336C1.09572 20.0703 1.25229 18.3685 1.31027 17.7516C1.36825 17.1348 1.56012 15.0456 1.73665 13.109C1.91317 11.1724 2.07261 9.42358 2.09095 9.22275C2.1093 9.02192 2.14819 8.82826 2.1774 8.79239C2.21795 8.7426 2.64557 8.72719 3.98624 8.72719C4.95191 8.72719 5.74269 8.72131 5.74355 8.71414C5.74436 8.70696 5.76728 8.40516 5.79438 8.04346C5.96963 5.70465 6.98913 3.66596 8.73254 2.16806C10.7973 0.394061 13.5708 -0.329846 16.2597 0.203415C18.9504 0.737046 21.3313 2.60477 22.45 5.05939C22.8992 6.04516 23.1218 6.9241 23.2057 8.04346C23.2328 8.40516 23.2556 8.70696 23.2565 8.71414C23.2573 8.72131 24.0481 8.72719 25.0138 8.72719C26.3545 8.72719 26.7821 8.74261 26.8226 8.79239C26.8518 8.82826 26.8907 9.02192 26.9091 9.22275C26.9274 9.42358 27.0869 11.1724 27.2634 13.109C27.4399 15.0456 27.6318 17.1348 27.6898 17.7516C27.7477 18.3685 27.9043 20.0703 28.0377 21.5336C28.3051 24.4667 28.4935 26.5146 28.7876 29.6856C28.8948 30.8411 28.9689 31.8211 28.9523 31.8634C28.9258 31.931 27.1609 31.9404 14.5 31.9404C1.83909 31.9404 0.0742741 31.931 0.0477427 31.8634ZM21.4725 8.65896C21.5092 8.56546 21.2236 7.72804 20.9931 7.25368C20.3694 5.96983 19.1945 4.76204 17.9178 4.09222C15.9038 3.03563 13.5025 2.97358 11.4245 3.92444C9.59431 4.76194 8.12295 6.46942 7.58172 8.38392C7.54181 8.52507 7.5215 8.66004 7.53658 8.68387C7.55165 8.70769 10.6874 8.72719 14.5048 8.72719C20.1723 8.72719 21.4506 8.71467 21.4725 8.65896ZM9.18851 3.81335C10.7613 2.58668 12.512 1.98357 14.5 1.98357C16.8871 1.98357 18.9597 2.86098 20.6846 4.60175L21.1283 5.04959L20.9872 4.78293C20.7532 4.34103 20.1909 3.65269 19.6807 3.18353C18.6402 2.22674 17.3912 1.59341 15.9419 1.28775C15.2992 1.15219 13.7009 1.15219 13.0581 1.28775C12.0533 1.49968 11.0999 1.89455 10.2278 2.46003C9.42612 2.97986 8.32382 4.14665 7.97852 4.84094C7.88665 5.02565 7.92548 4.99789 8.31699 4.59887C8.56023 4.35098 8.95241 3.99749 9.18851 3.81335Z" fill="#ADACAD"/>
<path d="M0.06322 31.8489C0.0498383 31.8274 0.0837806 31.3403 0.13867 30.7665C0.19356 30.1927 0.335715 28.6552 0.454573 27.3498C0.57343 26.0443 0.729851 24.3425 0.802175 23.5678C0.874499 22.7932 1.03071 21.0913 1.14932 19.7859C1.26792 18.4805 1.42413 16.7786 1.49646 16.004C1.56878 15.2293 1.72459 13.5275 1.84271 12.2221C2.13297 9.01402 2.15518 8.81693 2.23166 8.76948C2.26786 8.74702 3.07323 8.72828 4.02138 8.72785C5.35423 8.72725 5.74959 8.71225 5.76425 8.66184C5.77469 8.62598 5.81041 8.27973 5.84365 7.89241C5.93944 6.77631 6.13453 6.02258 6.57642 5.06132C7.71084 2.59361 10.0064 0.803876 12.7911 0.216025C13.2761 0.11363 13.5068 0.0976562 14.5 0.0976562C15.4932 0.0976562 15.7238 0.113626 16.2088 0.216025C19.309 0.870476 21.7744 3.00509 22.752 5.88139C22.9898 6.58103 23.0839 7.04893 23.1563 7.89241C23.1895 8.27973 23.2253 8.62598 23.2357 8.66184C23.2503 8.71225 23.6457 8.72723 24.9785 8.72785C25.9267 8.72824 26.7321 8.74703 26.7683 8.76948C26.8448 8.81693 26.867 9.01402 27.1572 12.2221C27.2753 13.5275 27.4312 15.2293 27.5035 16.004C27.5758 16.7786 27.732 18.4805 27.8506 19.7859C27.9692 21.0913 28.1254 22.7932 28.1978 23.5678C28.2701 24.3425 28.4265 26.0443 28.5454 27.3498C28.6642 28.6552 28.8064 30.1927 28.8613 30.7665C28.9162 31.3403 28.9501 31.8274 28.9367 31.8489C28.9233 31.8705 22.4268 31.8881 14.5 31.8881C6.57315 31.8881 0.0766119 31.8705 0.06322 31.8489ZM21.4957 8.60642C21.4957 8.54008 21.427 8.28773 21.343 8.04565C20.722 6.25572 19.4315 4.80372 17.7084 3.95608C17.1821 3.6972 16.3416 3.42887 15.7282 3.32394C15.0633 3.21018 13.9366 3.21018 13.2717 3.32394C11.0015 3.71233 9.08047 5.11684 8.04476 7.14551C7.78792 7.64858 7.50423 8.42529 7.50423 8.62541C7.50423 8.72563 7.60161 8.72705 14.5 8.72705H21.4957V8.60642ZM21.0672 4.83854C20.1399 3.25549 18.5457 2.01785 16.7162 1.46076C15.7161 1.15623 14.2994 1.06814 13.2323 1.24412C11.4673 1.53521 9.74692 2.50817 8.65597 3.8323C8.29525 4.27013 7.77124 5.05121 7.77124 5.15108C7.77124 5.18068 7.9874 4.97844 8.2516 4.70165C9.64917 3.23746 11.4198 2.32743 13.3624 2.07486C16.1222 1.71605 18.7994 2.6613 20.7212 4.67309C20.971 4.93451 21.1772 5.17309 21.1795 5.20326C21.1818 5.23343 21.1958 5.22902 21.2105 5.19348C21.2252 5.15793 21.1607 4.99821 21.0672 4.83854Z" fill="#8F8F8F"/>
<path d="M0.106113 31.8328C0.0868574 31.8024 0.0859689 31.6204 0.104094 31.4284C0.122279 31.2365 0.207811 30.3048 0.294183 29.358C0.784261 23.9859 0.94772 22.2026 1.04249 21.1942C1.10046 20.5774 1.25683 18.8755 1.38999 17.4123C1.52314 15.9491 1.67926 14.2472 1.73692 13.6304C1.79459 13.0136 1.91541 11.699 2.00541 10.7092C2.09542 9.71937 2.17917 8.88018 2.19153 8.84432C2.2089 8.79391 2.61374 8.77911 3.9748 8.77911C5.03818 8.77911 5.74812 8.75934 5.7672 8.72919C5.78457 8.70174 5.82113 8.37897 5.84844 8.01193C5.9017 7.29623 5.94401 7.03654 6.11213 6.39333C6.64459 4.35626 8.02121 2.53516 9.92061 1.35519C10.6619 0.894691 11.4933 0.555123 12.4367 0.327592C16.1216 -0.561115 19.9699 1.00914 21.9408 4.20561C22.6659 5.38165 23.0442 6.57097 23.1514 8.01193C23.1788 8.37897 23.2153 8.70174 23.2327 8.72919C23.2518 8.75934 23.9617 8.77911 25.0251 8.77911C26.3861 8.77911 26.791 8.79392 26.8084 8.84432C26.8207 8.88018 26.9037 9.70764 26.9928 10.6831C27.3879 15.0088 27.5388 16.6515 27.6371 17.6992C27.6949 18.3161 27.8391 19.8888 27.9574 21.1942C28.0757 22.4997 28.22 24.0724 28.2781 24.6893C28.5904 28.0047 28.8667 31.126 28.8785 31.4706L28.8919 31.8619L14.5165 31.875C4.42624 31.8842 0.130636 31.8717 0.106058 31.8328L0.106113 31.8328ZM21.5078 8.5755C21.4865 8.3181 21.2511 7.67448 20.9864 7.15017C19.3992 4.00637 15.6931 2.4684 12.2871 3.54017C10.0802 4.23466 8.32388 5.9571 7.61507 8.12223C7.52202 8.40647 7.4583 8.67064 7.47347 8.70927C7.49644 8.76773 8.67568 8.77728 14.5118 8.76626L21.5224 8.75303L21.5078 8.5755ZM7.77127 5.28922C7.77127 5.20779 8.78785 4.19381 9.19652 3.86761C11.9685 1.65502 15.9066 1.40308 18.9088 3.24626C19.1857 3.41629 19.5867 3.69529 19.7999 3.86626C20.1861 4.17611 20.9403 4.91324 21.1652 5.20077C21.3914 5.49002 21.3497 5.28371 21.0952 4.85478C20.7133 4.21109 20.3288 3.73726 19.7413 3.18643C18.7064 2.21614 17.561 1.61565 16.1173 1.28649C15.5521 1.15763 15.3872 1.14288 14.5 1.14183C13.6047 1.14084 13.453 1.15423 12.8827 1.28532C12.1572 1.45208 11.7384 1.59797 11.1212 1.89897C9.80842 2.53918 8.71926 3.53404 7.93435 4.8099C7.65675 5.26113 7.62585 5.33626 7.71787 5.33626C7.74724 5.33626 7.77127 5.31509 7.77127 5.28922Z" fill="#6F6F70"/>
<path d="M0.189015 31.562C0.189621 31.4401 0.214386 31.1173 0.244266 30.8448C0.274146 30.5722 0.369832 29.5628 0.456905 28.6017C0.820596 24.5872 1.05236 22.0591 1.23165 20.151C1.27613 19.6777 1.38431 18.504 1.47204 17.5428C1.55977 16.5817 1.70473 14.9972 1.79418 14.0217C1.88363 13.0463 2.02464 11.5009 2.10754 10.5876C2.19044 9.6743 2.27997 8.90586 2.3065 8.87994C2.33304 8.85402 3.14662 8.82662 4.11445 8.81905L5.87416 8.80529L5.93687 8.06126C6.0146 7.13903 6.11724 6.6293 6.38169 5.85214C7.30058 3.15174 9.69329 1.03339 12.5508 0.390438C16.1065 -0.409615 19.7416 1.03603 21.7247 4.03885C22.1442 4.67407 22.3807 5.1539 22.6181 5.85167C22.8827 6.6293 22.9854 7.1389 23.0631 8.06126L23.1258 8.80529L24.8855 8.81905C25.8534 8.82662 26.6669 8.85402 26.6935 8.87994C26.72 8.90586 26.8095 9.6743 26.8924 10.5876C26.9753 11.5009 27.1163 13.0463 27.2058 14.0217C27.2952 14.9972 27.4402 16.5817 27.5279 17.5428C27.6157 18.504 27.7238 19.6777 27.7683 20.151C27.9476 22.0591 28.1794 24.5872 28.5431 28.6017C28.6301 29.5628 28.7258 30.5722 28.7557 30.8448C28.7856 31.1173 28.8104 31.4401 28.811 31.562L28.812 31.7837H14.5001H0.188171L0.189181 31.562H0.189015ZM21.6347 8.75806C21.7021 8.58637 21.2297 7.33786 20.8631 6.7187C20.5429 6.17806 19.9621 5.46337 19.5056 5.04834C18.5024 4.13627 17.312 3.53427 15.9419 3.24614C15.1476 3.07912 13.8619 3.07957 13.0581 3.24712C10.7338 3.73173 8.86941 5.17656 7.84909 7.28396C7.60304 7.79216 7.32344 8.65152 7.36759 8.76389C7.40883 8.86887 21.5934 8.86305 21.6347 8.75803V8.75806ZM7.86477 5.32356C8.98434 3.8854 10.6301 2.81981 12.4332 2.36569C15.6526 1.55485 19.1184 2.7329 21.1352 5.32356C21.4083 5.67434 21.5883 5.75866 21.5245 5.50588C21.5046 5.42698 21.3813 5.17018 21.2506 4.93522C20.3465 3.3097 18.7062 1.98223 16.8794 1.39769C16.0918 1.14568 15.4281 1.0482 14.5 1.0482C13.5743 1.0482 12.9083 1.14565 12.1284 1.39519C10.202 2.01161 8.60428 3.3409 7.65452 5.11745C7.5425 5.327 7.45084 5.5324 7.45084 5.57389C7.45084 5.73792 7.62347 5.63351 7.86477 5.32356Z" fill="white"/>
<path d="M14.27 25.14C13.1687 25.14 12.296 24.7293 11.652 23.908C11.0173 23.0867 10.7 21.8173 10.7 20.1C10.7 18.3827 11.0173 17.1133 11.652 16.292C12.296 15.4707 13.1687 15.06 14.27 15.06C15.3713 15.06 16.2393 15.4753 16.874 16.306C17.518 17.1273 17.84 18.392 17.84 20.1C17.84 21.808 17.518 23.0773 16.874 23.908C16.2393 24.7293 15.3713 25.14 14.27 25.14ZM14.27 23.88C15.3433 23.88 15.88 22.62 15.88 20.1C15.88 17.58 15.3433 16.32 14.27 16.32C13.1967 16.32 12.66 17.58 12.66 20.1C12.66 22.62 13.1967 23.88 14.27 23.88Z" fill="white"/>
</g>
<defs>
<clipPath id="clip0">
<rect width="29" height="32" fill="white"/>
</clipPath>
</defs>
</svg>
