<?xml version="1.0" encoding="UTF-8" standalone="no"?>
<!-- Created with Inkscape (http://www.inkscape.org/) -->

<svg
   xmlns:dc="http://purl.org/dc/elements/1.1/"
   xmlns:cc="http://creativecommons.org/ns#"
   xmlns:rdf="http://www.w3.org/1999/02/22-rdf-syntax-ns#"
   xmlns:svg="http://www.w3.org/2000/svg"
   xmlns="http://www.w3.org/2000/svg"
   xmlns:sodipodi="http://sodipodi.sourceforge.net/DTD/sodipodi-0.dtd"
   xmlns:inkscape="http://www.inkscape.org/namespaces/inkscape"
   width="440.26666mm"
   height="372.53333mm"
   viewBox="0 0 440.26666 372.53333"
   version="1.1"
   id="svg8"
   inkscape:version="0.92.4 (5da689c313, 2019-01-14)"
   sodipodi:docname="cartWhite.svg">
  <defs
     id="defs2" />
  <sodipodi:namedview
     id="base"
     pagecolor="#ffffff"
     bordercolor="#666666"
     borderopacity="1.0"
     inkscape:pageopacity="0.0"
     inkscape:pageshadow="2"
     inkscape:zoom="0.056568542"
     inkscape:cx="9046.9889"
     inkscape:cy="2827.6763"
     inkscape:document-units="mm"
     inkscape:current-layer="g3568"
     showgrid="false"
     fit-margin-top="0"
     fit-margin-left="0"
     fit-margin-right="0"
     fit-margin-bottom="0"
     inkscape:window-width="1920"
     inkscape:window-height="1001"
     inkscape:window-x="-9"
     inkscape:window-y="-9"
     inkscape:window-maximized="1" />
  <metadata
     id="metadata5">
    <rdf:RDF>
      <cc:Work
         rdf:about="">
        <dc:format>image/svg+xml</dc:format>
        <dc:type
           rdf:resource="http://purl.org/dc/dcmitype/StillImage" />
        <dc:title></dc:title>
      </cc:Work>
    </rdf:RDF>
  </metadata>
  <g
     inkscape:label="Layer 1"
     inkscape:groupmode="layer"
     id="layer1"
     transform="translate(15221.638,-1919.4715)">
    <g
       id="layer1-7"
       inkscape:label="Layer 1"
       transform="translate(-7906.4108,577.92945)">
      <g
         inkscape:label="Layer 1"
         id="layer1-3"
         transform="translate(121.35818,355.24204)">
        <g
           style="stroke-width:0.21218343"
           transform="matrix(4.7129033,0,0,4.7129033,7906.5091,29215.131)"
           id="layer1-8"
           inkscape:label="Layer 1" />
        <path
           style="opacity:1;fill:#e32201;fill-opacity:1;stroke:none;stroke-width:0.01852199;stroke-linecap:round;stroke-linejoin:round;stroke-miterlimit:4;stroke-dasharray:none;stroke-dashoffset:0;stroke-opacity:1"
           d=""
           id="path1110"
           inkscape:connector-curvature="0" />
        <g
           style="stroke-width:0.21218343"
           transform="matrix(4.7129033,0,0,4.7129033,31606.636,26561.705)"
           id="layer1-8-4"
           inkscape:label="Layer 1" />
        <path
           style="opacity:1;fill:#e32201;fill-opacity:1;stroke:none;stroke-width:0.01852198;stroke-linecap:round;stroke-linejoin:round;stroke-miterlimit:4;stroke-dasharray:none;stroke-dashoffset:0;stroke-opacity:1"
           d=""
           id="path1110-9"
           inkscape:connector-curvature="0" />
        <g
           transform="translate(-10258.776,-3224.21)"
           id="g3568"
           inkscape:label="Layer 1">
          <g
             transform="translate(4218.4579,7623.4004)"
             id="g3448"
             inkscape:label="Layer 1">
            <g
               transform="matrix(0.26458333,0,0,0.26458333,-563.7354,1044.2302)"
               style="fill:#e32201;fill-opacity:1;stroke:none;stroke-width:0.87323093;stroke-opacity:1"
               id="g3410" />
            <g
               transform="matrix(0.26458333,0,0,0.26458333,-563.7354,1044.2302)"
               style="fill:#e32201;fill-opacity:1;stroke:none;stroke-width:0.87323093;stroke-opacity:1"
               id="g3412" />
            <g
               transform="matrix(0.26458333,0,0,0.26458333,-563.7354,1044.2302)"
               style="fill:#e32201;fill-opacity:1;stroke:none;stroke-width:0.87323093;stroke-opacity:1"
               id="g3414" />
            <g
               transform="matrix(0.26458333,0,0,0.26458333,-563.7354,1044.2302)"
               style="fill:#e32201;fill-opacity:1;stroke:none;stroke-width:0.87323093;stroke-opacity:1"
               id="g3416" />
            <g
               transform="matrix(0.26458333,0,0,0.26458333,-563.7354,1044.2302)"
               style="fill:#e32201;fill-opacity:1;stroke:none;stroke-width:0.87323093;stroke-opacity:1"
               id="g3418" />
            <g
               transform="matrix(0.26458333,0,0,0.26458333,-563.7354,1044.2302)"
               style="fill:#e32201;fill-opacity:1;stroke:none;stroke-width:0.87323093;stroke-opacity:1"
               id="g3420" />
            <g
               transform="matrix(0.26458333,0,0,0.26458333,-563.7354,1044.2302)"
               style="fill:#e32201;fill-opacity:1;stroke:none;stroke-width:0.87323093;stroke-opacity:1"
               id="g3422" />
            <g
               transform="matrix(0.26458333,0,0,0.26458333,-563.7354,1044.2302)"
               style="fill:#e32201;fill-opacity:1;stroke:none;stroke-width:0.87323093;stroke-opacity:1"
               id="g3424" />
            <g
               transform="matrix(0.26458333,0,0,0.26458333,-563.7354,1044.2302)"
               style="fill:#e32201;fill-opacity:1;stroke:none;stroke-width:0.87323093;stroke-opacity:1"
               id="g3426" />
            <g
               transform="matrix(0.26458333,0,0,0.26458333,-563.7354,1044.2302)"
               style="fill:#e32201;fill-opacity:1;stroke:none;stroke-width:0.87323093;stroke-opacity:1"
               id="g3428" />
            <g
               transform="matrix(0.26458333,0,0,0.26458333,-563.7354,1044.2302)"
               style="fill:#e32201;fill-opacity:1;stroke:none;stroke-width:0.87323093;stroke-opacity:1"
               id="g3430" />
            <g
               transform="matrix(0.26458333,0,0,0.26458333,-563.7354,1044.2302)"
               style="fill:#e32201;fill-opacity:1;stroke:none;stroke-width:0.87323093;stroke-opacity:1"
               id="g3432" />
            <g
               transform="matrix(0.26458333,0,0,0.26458333,-563.7354,1044.2302)"
               style="fill:#e32201;fill-opacity:1;stroke:none;stroke-width:0.87323093;stroke-opacity:1"
               id="g3434" />
            <g
               transform="matrix(0.26458333,0,0,0.26458333,-563.7354,1044.2302)"
               style="fill:#e32201;fill-opacity:1;stroke:none;stroke-width:0.87323093;stroke-opacity:1"
               id="g3436" />
            <g
               transform="matrix(0.26458333,0,0,0.26458333,-563.7354,1044.2302)"
               style="fill:#e32201;fill-opacity:1;stroke:none;stroke-width:0.87323093;stroke-opacity:1"
               id="g3438" />
            <flowRoot
               transform="matrix(0.26458333,0,0,0.26458333,-5143.7417,2211.7211)"
               style="font-style:normal;font-weight:normal;font-size:40px;line-height:1.25;font-family:sans-serif;letter-spacing:0px;word-spacing:0px;fill:#000000;fill-opacity:1;stroke:none"
               id="flowRoot3446"
               xml:space="preserve"><flowRegion
                 id="flowRegion3442"><rect
                   y="-591.76605"
                   x="-67.14286"
                   height="127.14286"
                   width="48.57143"
                   id="rect3440" /></flowRegion><flowPara
                 id="flowPara3444" /></flowRoot>          </g>
          <g
             id="g2991"
             transform="matrix(0.26458333,0,0,-0.26458333,2822.1903,4549.1767)"
             style="fill:#ffffff;fill-opacity:1">
            <path
               style="fill:#ffffff;fill-opacity:1"
               inkscape:connector-curvature="0"
               id="path2993"
               d="M 640,0 Q 640,-53 602.5,-90.5 565,-128 512,-128 459,-128 421.5,-90.5 384,-53 384,0 384,53 421.5,90.5 459,128 512,128 565,128 602.5,90.5 640,53 640,0 Z m 896,0 q 0,-53 -37.5,-90.5 -37.5,-37.5 -90.5,-37.5 -53,0 -90.5,37.5 Q 1280,-53 1280,0 q 0,53 37.5,90.5 37.5,37.5 90.5,37.5 53,0 90.5,-37.5 Q 1536,53 1536,0 Z m 128,1088 V 576 q 0,-24 -16,-42.5 Q 1632,515 1607,512 L 563,390 q 1,-7 4.5,-21.5 3.5,-14.5 6,-26.5 2.5,-12 2.5,-22 0,-16 -24,-64 h 920 q 26,0 45,-19 19,-19 19,-45 0,-26 -19,-45 -19,-19 -45,-19 H 448 q -26,0 -45,19 -19,19 -19,45 0,14 11,39.5 11,25.5 29.5,59.5 18.5,34 20.5,38 L 268,1152 H 64 q -26,0 -45,19 -19,19 -19,45 0,26 19,45 19,19 45,19 h 256 q 16,0 28.5,-6.5 12.5,-6.5 20,-15.5 7.5,-9 13,-24.5 5.5,-15.5 7.5,-26.5 2,-11 5.5,-29.5 3.5,-18.5 4.5,-25.5 h 1201 q 26,0 45,-19 19,-19 19,-45 z" />
          </g>
        </g>
      </g>
    </g>
  </g>
</svg>
