<?xml version="1.0" encoding="UTF-8" standalone="no"?>
<!-- Created with Inkscape (http://www.inkscape.org/) -->

<svg
   xmlns:dc="http://purl.org/dc/elements/1.1/"
   xmlns:cc="http://creativecommons.org/ns#"
   xmlns:rdf="http://www.w3.org/1999/02/22-rdf-syntax-ns#"
   xmlns:svg="http://www.w3.org/2000/svg"
   xmlns="http://www.w3.org/2000/svg"
   xmlns:sodipodi="http://sodipodi.sourceforge.net/DTD/sodipodi-0.dtd"
   xmlns:inkscape="http://www.inkscape.org/namespaces/inkscape"
   width="440.26669mm"
   height="372.53339mm"
   viewBox="0 0 440.26669 372.53339"
   version="1.1"
   id="svg8"
   inkscape:version="0.92.4 (5da689c313, 2019-01-14)"
   sodipodi:docname="cart.svg">
  <defs
     id="defs2" />
  <sodipodi:namedview
     id="base"
     pagecolor="#ffffff"
     bordercolor="#666666"
     borderopacity="1.0"
     inkscape:pageopacity="0.0"
     inkscape:pageshadow="2"
     inkscape:zoom="0.04375"
     inkscape:cx="5263.5319"
     inkscape:cy="-1167.8051"
     inkscape:document-units="mm"
     inkscape:current-layer="svg8"
     showgrid="false"
     fit-margin-top="0"
     fit-margin-left="0"
     fit-margin-right="0"
     fit-margin-bottom="0"
     inkscape:window-width="1920"
     inkscape:window-height="1001"
     inkscape:window-x="-9"
     inkscape:window-y="-9"
     inkscape:window-maximized="1" />
  <metadata
     id="metadata5">
    <rdf:RDF>
      <cc:Work
         rdf:about="">
        <dc:format>image/svg+xml</dc:format>
        <dc:type
           rdf:resource="http://purl.org/dc/dcmitype/StillImage" />
        <dc:title></dc:title>
      </cc:Work>
    </rdf:RDF>
  </metadata>
  <flowRoot
     transform="matrix(0.26458333,0,0,0.26458333,-370.5481,5521.9307)"
     style="font-style:normal;font-weight:normal;font-size:40px;line-height:1.25;font-family:sans-serif;letter-spacing:0px;word-spacing:0px;fill:#000000;fill-opacity:1;stroke:none"
     id="flowRoot900-88"
     xml:space="preserve"><flowRegion
       id="flowRegion902-1"><rect
         y="-591.76605"
         x="-67.14286"
         height="127.14286"
         width="48.57143"
         id="rect904-1" /></flowRegion><flowPara
       id="flowPara906-5" /></flowRoot>  <path
     d="m 169.3333,338.6667 q 0,14.0229 -9.9218,23.9448 -9.9219,9.9219 -23.9448,9.9219 -14.023,0 -23.9448,-9.9219 -9.9219,-9.9219 -9.9219,-23.9448 0,-14.0229 9.9219,-23.9448 9.9218,-9.9219 23.9448,-9.9219 14.0229,0 23.9448,9.9219 9.9218,9.9219 9.9218,23.9448 z m 237.0667,0 q 0,14.0229 -9.9219,23.9448 -9.9219,9.9219 -23.9448,9.9219 -14.0229,0 -23.9448,-9.9219 -9.9218,-9.9219 -9.9218,-23.9448 0,-14.0229 9.9218,-23.9448 9.9219,-9.9219 23.9448,-9.9219 14.0229,0 23.9448,9.9219 9.9219,9.9219 9.9219,23.9448 z M 440.2667,50.8 v 135.4667 q 0,6.35 -4.2334,11.2448 -4.2333,4.8948 -10.8479,5.6885 l -276.225,32.2792 q 0.2646,1.8521 1.1906,5.6885 0.9261,3.8365 1.5875,7.0115 0.6615,3.175 0.6615,5.8208 0,4.2334 -6.35,16.9334 h 243.4167 q 6.8791,0 11.9062,5.0271 5.0271,5.027 5.0271,11.9062 0,6.8792 -5.0271,11.9063 -5.0271,5.027 -11.9062,5.027 H 118.5333 q -6.8791,0 -11.9062,-5.027 -5.0271,-5.0271 -5.0271,-11.9063 0,-3.7042 2.9104,-10.451 2.9104,-6.7469 7.8052,-15.7427 4.8948,-8.9959 5.424,-10.0542 L 70.9083,33.8667 h -53.975 q -6.8791,0 -11.9062,-5.0271 Q 0,23.8125 0,16.9334 0,10.0542 5.0271,5.0271 10.0542,0 16.9333,0 h 67.7334 q 4.2333,0 7.5406,1.7198 3.3073,1.7198 5.2917,4.1011 1.9843,2.3812 3.4395,6.4823 1.4552,4.101 1.9844,7.0114 0.5292,2.9104 1.4552,7.8052 0.9261,4.8948 1.1906,6.7469 h 317.7646 q 6.8792,0 11.9063,5.0271 5.0271,5.0271 5.0271,11.9062 z"
     id="path2993"
     inkscape:connector-curvature="0"
     style="fill:#674b42;fill-opacity:1;stroke-width:0.26458332" />
</svg>
