<?xml version="1.0" encoding="UTF-8" standalone="no"?>
<!-- Created with Inkscape (http://www.inkscape.org/) -->

<svg
   xmlns:dc="http://purl.org/dc/elements/1.1/"
   xmlns:cc="http://creativecommons.org/ns#"
   xmlns:rdf="http://www.w3.org/1999/02/22-rdf-syntax-ns#"
   xmlns:svg="http://www.w3.org/2000/svg"
   xmlns="http://www.w3.org/2000/svg"
   xmlns:sodipodi="http://sodipodi.sourceforge.net/DTD/sodipodi-0.dtd"
   xmlns:inkscape="http://www.inkscape.org/namespaces/inkscape"
   width="417.64633mm"
   height="301.01358mm"
   viewBox="0 0 417.64634 301.01358"
   version="1.1"
   id="svg8"
   inkscape:version="0.92.4 (5da689c313, 2019-01-14)"
   sodipodi:docname="cart5.svg">
  <defs
     id="defs2" />
  <sodipodi:namedview
     id="base"
     pagecolor="#ffffff"
     bordercolor="#666666"
     borderopacity="1.0"
     inkscape:pageopacity="0.0"
     inkscape:pageshadow="2"
     inkscape:zoom="0.175"
     inkscape:cx="497.06708"
     inkscape:cy="1029.5405"
     inkscape:document-units="mm"
     inkscape:current-layer="layer1"
     showgrid="false"
     fit-margin-top="0"
     fit-margin-left="0"
     fit-margin-right="0"
     fit-margin-bottom="0"
     inkscape:window-width="1920"
     inkscape:window-height="1001"
     inkscape:window-x="-9"
     inkscape:window-y="-9"
     inkscape:window-maximized="1" />
  <metadata
     id="metadata5">
    <rdf:RDF>
      <cc:Work
         rdf:about="">
        <dc:format>image/svg+xml</dc:format>
        <dc:type
           rdf:resource="http://purl.org/dc/dcmitype/StillImage" />
        <dc:title></dc:title>
      </cc:Work>
    </rdf:RDF>
  </metadata>
  <g
     inkscape:label="Layer 1"
     inkscape:groupmode="layer"
     id="layer1"
     transform="translate(114.63264,10.763315)">
    <g
       transform="translate(737.06244,31.568366)"
       id="layer1-1"
       inkscape:label="Layer 1"
       style="fill:#ffffff;fill-opacity:1">
      <g
         style="fill:#ffffff;fill-opacity:1"
         transform="translate(-710.74645,-124.36789)"
         id="g829">
        <flowRoot
           transform="matrix(0.26458333,0,0,0.26458333,-370.5481,5521.9307)"
           style="font-style:normal;font-weight:normal;font-size:40px;line-height:1.25;font-family:sans-serif;letter-spacing:0px;word-spacing:0px;fill:#ffffff;fill-opacity:1;stroke:none"
           id="flowRoot900-88"
           xml:space="preserve"><flowRegion
             style="fill:#ffffff;fill-opacity:1"
             id="flowRegion902-1"><rect
               style="fill:#ffffff;fill-opacity:1"
               y="-591.76605"
               x="-67.14286"
               height="127.14286"
               width="48.57143"
               id="rect904-1" /></flowRegion><flowPara
             id="flowPara906-5" /></flowRoot>        <path
           style="fill:#ffffff;fill-opacity:1;stroke-width:0.99999994"
           d="M 150,54 C 117.45071,54.456283 87.494456,46.128852 85.494141,82.363281 85.558846,86.673628 88.619376,127.77096 150,128 h 142 l 175,835 c -1.64812,31.71683 -54.3084,-4.82741 -59.12183,35.70813 0,15.48347 15.92767,19.50317 27.29761,20.15127 0.60203,32.3034 42.05953,21.8516 235.41602,23.1406 h 628.8164 c 235.3167,-2.3816 235.416,-23.1406 235.416,-23.1406 0,0 12.3186,-10.0188 11.9615,-26.57369 C 1544.7854,974.97979 1518.5494,972.45628 1486,972 H 566 c 0,0 11.16142,-15.43195 5,-20 l 1036,-56 c 16.6667,-1.9999 30.3334,-9.16665 41,-21.5 10.6668,-12.33335 16,-26.50001 16,-42.5 V 192 c 0,-17.33318 -6.3333,-32.33329 -19,-45 -12.6667,-12.66671 -27.6666,-19 -45,-19 H 388.3934 C 383.86734,96.802415 387.88008,98.461751 368.5,76 363.49991,69.999871 356.83333,64.833353 348.5,60.5 340.16663,56.166643 330.66658,54 320,54 Z M 404.06055,207.46094 H 1589.8379 V 829.61523 L 543.46289,886.18359 Z"
           transform="matrix(0.26458333,0,0,0.26458333,-163.56895,67.88646)"
           id="path2993"
           inkscape:connector-curvature="0"
           sodipodi:nodetypes="ccccccccccccccccsssscccscccccc" />
      </g>
    </g>
    <path
       style="opacity:1;fill:#ffffff;fill-opacity:1;stroke:none;stroke-width:29.70590973;stroke-linecap:round;stroke-linejoin:miter;stroke-miterlimit:4;stroke-dasharray:none;stroke-dashoffset:0;stroke-opacity:1"
       d="M 27.711232,262.73212 A 27.518166,27.518166 0 0 1 0.19306655,290.25028 27.518166,27.518166 0 0 1 -27.325099,262.73212 27.518166,27.518166 0 0 1 0.19306655,235.21395 27.518166,27.518166 0 0 1 27.711232,262.73212 Z"
       id="path875"
       inkscape:connector-curvature="0" />
    <path
       style="opacity:1;fill:#ffffff;fill-opacity:1;stroke:none;stroke-width:29.70590973;stroke-linecap:round;stroke-linejoin:miter;stroke-miterlimit:4;stroke-dasharray:none;stroke-dashoffset:0;stroke-opacity:1"
       d="m 270.84026,262.73212 a 27.518166,27.518166 0 0 1 -27.51816,27.51816 27.518166,27.518166 0 0 1 -27.51817,-27.51816 27.518166,27.518166 0 0 1 27.51817,-27.51817 27.518166,27.518166 0 0 1 27.51816,27.51817 z"
       id="circle877"
       inkscape:connector-curvature="0" />
    <path
       style="opacity:1;fill:#ffffff;fill-opacity:1;stroke:none;stroke-width:17.05710411;stroke-linecap:round;stroke-linejoin:miter;stroke-miterlimit:4;stroke-dasharray:none;stroke-dashoffset:0;stroke-opacity:1"
       d="M 16.447541,263.11011 A 15.800903,15.800903 0 0 1 0.64663762,278.91101 15.800903,15.800903 0 0 1 -15.154266,263.11011 15.800903,15.800903 0 0 1 0.64663762,247.3092 15.800903,15.800903 0 0 1 16.447541,263.11011 Z"
       id="circle881"
       inkscape:connector-curvature="0" />
    <path
       style="opacity:1;fill:#ffffff;fill-opacity:1;stroke:none;stroke-width:17.05710411;stroke-linecap:round;stroke-linejoin:miter;stroke-miterlimit:4;stroke-dasharray:none;stroke-dashoffset:0;stroke-opacity:1"
       d="m 259.03265,263.11011 a 15.800903,15.800903 0 0 1 -15.8009,15.8009 15.800903,15.800903 0 0 1 -15.8009,-15.8009 15.800903,15.800903 0 0 1 15.8009,-15.80091 15.800903,15.800903 0 0 1 15.8009,15.80091 z"
       id="circle883"
       inkscape:connector-curvature="0" />
  </g>
</svg>
