<?xml version="1.0" encoding="UTF-8" standalone="no"?>
<!-- Created with Inkscape (http://www.inkscape.org/) -->

<svg
   xmlns:dc="http://purl.org/dc/elements/1.1/"
   xmlns:cc="http://creativecommons.org/ns#"
   xmlns:rdf="http://www.w3.org/1999/02/22-rdf-syntax-ns#"
   xmlns:svg="http://www.w3.org/2000/svg"
   xmlns="http://www.w3.org/2000/svg"
   xmlns:sodipodi="http://sodipodi.sourceforge.net/DTD/sodipodi-0.dtd"
   xmlns:inkscape="http://www.inkscape.org/namespaces/inkscape"
   width="440.26669mm"
   height="334.96255mm"
   viewBox="0 0 440.2667 334.96256"
   version="1.1"
   id="svg8"
   inkscape:version="0.92.4 (5da689c313, 2019-01-14)"
   sodipodi:docname="cart2.svg">
  <defs
     id="defs2" />
  <sodipodi:namedview
     id="base"
     pagecolor="#ffffff"
     bordercolor="#666666"
     borderopacity="1.0"
     inkscape:pageopacity="0.0"
     inkscape:pageshadow="2"
     inkscape:zoom="0.49497475"
     inkscape:cx="966.14001"
     inkscape:cy="657.99044"
     inkscape:document-units="mm"
     inkscape:current-layer="layer1"
     showgrid="false"
     fit-margin-top="0"
     fit-margin-left="0"
     fit-margin-right="0"
     fit-margin-bottom="0"
     inkscape:window-width="1920"
     inkscape:window-height="1001"
     inkscape:window-x="-9"
     inkscape:window-y="-9"
     inkscape:window-maximized="1" />
  <metadata
     id="metadata5">
    <rdf:RDF>
      <cc:Work
         rdf:about="">
        <dc:format>image/svg+xml</dc:format>
        <dc:type
           rdf:resource="http://purl.org/dc/dcmitype/StillImage" />
        <dc:title></dc:title>
      </cc:Work>
    </rdf:RDF>
  </metadata>
  <g
     inkscape:label="Layer 1"
     inkscape:groupmode="layer"
     id="layer1"
     transform="translate(137.25296,24.913064)">
    <g
       transform="translate(737.06244,31.568366)"
       id="layer1-1"
       inkscape:label="Layer 1"
       style="fill:#ffffff;fill-opacity:1">
      <g
         style="fill:#ffffff;fill-opacity:1"
         transform="translate(-710.74645,-124.36789)"
         id="g829">
        <flowRoot
           transform="matrix(0.26458333,0,0,0.26458333,-370.5481,5521.9307)"
           style="font-style:normal;font-weight:normal;font-size:40px;line-height:1.25;font-family:sans-serif;letter-spacing:0px;word-spacing:0px;fill:#ffffff;fill-opacity:1;stroke:none"
           id="flowRoot900-88"
           xml:space="preserve"><flowRegion
             style="fill:#ffffff;fill-opacity:1"
             id="flowRegion902-1"><rect
               style="fill:#ffffff;fill-opacity:1"
               y="-591.76605"
               x="-67.14286"
               height="127.14286"
               width="48.57143"
               id="rect904-1" /></flowRegion><flowPara
             id="flowPara906-5" /></flowRoot>        <path
           d="m 9.4685227,368.98232 c 0,9.3486 -3.30727,17.3302 -9.92179995,23.9448 -6.61460005,6.6146 -14.59619975,9.9219 -23.94479975,9.9219 -9.34867,0 -17.33027,-3.3073 -23.9448,-9.9219 -6.6146,-6.6146 -9.9219,-14.5962 -9.9219,-23.9448 0,-9.3486 3.3073,-17.3302 9.9219,-23.9448 6.61453,-6.6146 14.59613,-9.9219 23.9448,-9.9219 9.3486,0 17.3301997,3.3073 23.94479975,9.9219 6.61452995,6.6146 9.92179995,14.5962 9.92179995,23.9448 z m 237.0666973,0 c 0,9.3486 -3.3073,17.3302 -9.9219,23.9448 -6.6146,6.6146 -14.5962,9.9219 -23.9448,9.9219 -9.3486,0 -17.3302,-3.3073 -23.9448,-9.9219 -6.61454,-6.6146 -9.9218,-14.5962 -9.9218,-23.9448 0,-9.3486 3.30726,-17.3302 9.9218,-23.9448 6.6146,-6.6146 14.5962,-9.9219 23.9448,-9.9219 9.3486,0 17.3302,3.3073 23.9448,9.9219 6.6146,6.6146 9.9219,14.5962 9.9219,23.9448 z m 30.16253,-250.29586 v 169.33337 c 0,4.23333 -1.41113,7.9816 -4.2334,11.2448 -2.8222,3.2632 -6.43817,5.15936 -10.8479,5.6885 l -265.6416673,14.8167 c 1.63021,1.20863 2.38127,5.29169 2.38127,5.29169 H 229.60192 c 4.58606,0 8.5548,1.6757 11.9062,5.0271 3.3514,3.35134 5.0271,7.32007 5.0271,11.9062 0,4.58614 -1.6757,8.5549 -5.0271,11.9063 -3.3514,3.35134 -7.32014,5.027 -11.9062,5.027 H -41.331477 c -4.58607,0 -8.5548,-1.67566 -11.9062,-5.027 -3.3514,-3.3514 -5.0271,-7.32016 -5.0271,-11.9063 2.14218,-13.46454 12.133,-9.78692 12.43543,-19.31456 l -46.8313,-220.9271 h -53.975003 c -4.58607,0 -8.5548,-1.6757 -11.9062,-5.0271 -3.3514,-3.3514 -5.0271,-7.320133 -5.0271,-11.9062 0,-4.586133 1.6757,-8.5549 5.0271,-11.9063 3.3514,-3.3514 7.32013,-5.0271 11.9062,-5.0271 h 67.733403 c 2.8222,0 5.33573,0.573266 7.5406,1.7198 2.20486,1.146533 3.96876,2.513566 5.2917,4.1011 1.32286,1.587466 2.46936,3.748233 3.4395,6.4823 0.97013,2.734 1.6316,5.071133 1.9844,7.0114 0.3528,1.940267 0.83787,4.542 1.4552,7.8052 0.6174,3.2632 1.01427,5.51217 1.1906,6.7469 H 259.76435 c 4.58613,0 8.5549,1.6757 11.9063,5.0271 3.3514,3.3514 5.0271,7.32013 5.0271,11.9062 z"
           id="path2993"
           inkscape:connector-curvature="0"
           style="fill:#ffffff;fill-opacity:1;stroke-width:0.26458332"
           sodipodi:nodetypes="scscscscsssscscsssssccccscscssccccsssssssccsccsss" />
      </g>
    </g>
  </g>
</svg>
