<?xml version="1.0" encoding="UTF-8" standalone="no"?>
<!-- Created with Inkscape (http://www.inkscape.org/) -->

<svg
   xmlns:dc="http://purl.org/dc/elements/1.1/"
   xmlns:cc="http://creativecommons.org/ns#"
   xmlns:rdf="http://www.w3.org/1999/02/22-rdf-syntax-ns#"
   xmlns:svg="http://www.w3.org/2000/svg"
   xmlns="http://www.w3.org/2000/svg"
   xmlns:sodipodi="http://sodipodi.sourceforge.net/DTD/sodipodi-0.dtd"
   xmlns:inkscape="http://www.inkscape.org/namespaces/inkscape"
   width="417.64633mm"
   height="276.93707mm"
   viewBox="0 0 417.64634 276.93707"
   version="1.1"
   id="svg8"
   inkscape:version="0.92.4 (5da689c313, 2019-01-14)"
   sodipodi:docname="cart6.svg">
  <defs
     id="defs2" />
  <sodipodi:namedview
     id="base"
     pagecolor="#ffffff"
     bordercolor="#666666"
     borderopacity="1.0"
     inkscape:pageopacity="0.0"
     inkscape:pageshadow="2"
     inkscape:zoom="0.0875"
     inkscape:cx="-1983.7514"
     inkscape:cy="1391.1691"
     inkscape:document-units="mm"
     inkscape:current-layer="layer1"
     showgrid="false"
     fit-margin-top="0"
     fit-margin-left="0"
     fit-margin-right="0"
     fit-margin-bottom="0"
     inkscape:window-width="1920"
     inkscape:window-height="1001"
     inkscape:window-x="-9"
     inkscape:window-y="-9"
     inkscape:window-maximized="1" />
  <metadata
     id="metadata5">
    <rdf:RDF>
      <cc:Work
         rdf:about="">
        <dc:format>image/svg+xml</dc:format>
        <dc:type
           rdf:resource="http://purl.org/dc/dcmitype/StillImage" />
        <dc:title></dc:title>
      </cc:Work>
    </rdf:RDF>
  </metadata>
  <g
     inkscape:label="Layer 1"
     inkscape:groupmode="layer"
     id="layer1"
     transform="translate(114.63264,10.763315)">
    <g
       transform="translate(737.06244,31.568366)"
       id="layer1-1"
       inkscape:label="Layer 1"
       style="fill:#ffffff;fill-opacity:1">
      <g
         style="fill:#ffffff;fill-opacity:1"
         transform="translate(-710.74645,-124.36789)"
         id="g829">
        <flowRoot
           transform="matrix(0.26458333,0,0,0.26458333,-370.5481,5521.9307)"
           style="font-style:normal;font-weight:normal;font-size:40px;line-height:1.25;font-family:sans-serif;letter-spacing:0px;word-spacing:0px;fill:#ffffff;fill-opacity:1;stroke:none"
           id="flowRoot900-88"
           xml:space="preserve"><flowRegion
             style="fill:#ffffff;fill-opacity:1"
             id="flowRegion902-1"><rect
               style="fill:#ffffff;fill-opacity:1"
               y="-591.76605"
               x="-67.14286"
               height="127.14286"
               width="48.57143"
               id="rect904-1" /></flowRegion><flowPara
             id="flowPara906-5" /></flowRoot>        <path
           style="fill:#ffffff;fill-opacity:1;stroke-width:0.99999994"
           d="M 150,54 C 117.45071,54.456283 87.494456,46.128852 85.494141,82.363281 85.558846,86.673628 88.619376,127.77096 150,128 h 142 l 175,785 c 25.88975,-4.10183 104,-11 104,-11 l 966,-6 c 16.6667,-1.9999 30.3334,-9.16665 41,-21.5 10.6668,-12.33335 14.2604,-26.59486 16,-42.5 l 70,-640 c 1.8846,-17.23042 -6.3333,-32.33329 -19,-45 -12.6667,-12.66671 -27.6666,-19 -45,-19 H 388.3934 C 383.86734,96.802415 387.88008,98.461751 368.5,76 363.49991,69.999871 356.83333,64.833353 348.5,60.5 340.16663,56.166643 330.66658,54 320,54 Z M 404.06055,207.46094 H 1589.8379 l -70,622.15429 -976.37501,6.56836 z"
           transform="matrix(0.26458333,0,0,0.26458333,-163.56895,67.88646)"
           id="path2993"
           inkscape:connector-curvature="0"
           sodipodi:nodetypes="ccccccccsssscccscccccc" />
      </g>
    </g>
    <path
       style="opacity:1;fill:#ffffff;fill-opacity:1;stroke:none;stroke-width:27.10924911;stroke-linecap:round;stroke-linejoin:miter;stroke-miterlimit:4;stroke-dasharray:none;stroke-dashoffset:0;stroke-opacity:1"
       d="m 267.64947,241.06103 a 25.11274,25.11274 0 0 1 -25.11274,25.11274 25.11274,25.11274 0 0 1 -25.11274,-25.11274 25.11274,25.11274 0 0 1 25.11274,-25.11274 25.11274,25.11274 0 0 1 25.11274,25.11274 z"
       id="circle877"
       inkscape:connector-curvature="0" />
    <path
       inkscape:connector-curvature="0"
       id="path890"
       d="m 48.937092,241.06103 a 25.11274,25.11274 0 0 1 -25.11274,25.11274 25.11274,25.11274 0 0 1 -25.1127404,-25.11274 25.11274,25.11274 0 0 1 25.1127404,-25.11274 25.11274,25.11274 0 0 1 25.11274,25.11274 z"
       style="opacity:1;fill:#ffffff;fill-opacity:1;stroke:none;stroke-width:27.10924911;stroke-linecap:round;stroke-linejoin:miter;stroke-miterlimit:4;stroke-dasharray:none;stroke-dashoffset:0;stroke-opacity:1" />
  </g>
</svg>
