<?xml version="1.0" encoding="UTF-8" standalone="no"?>
<!-- Created with Inkscape (http://www.inkscape.org/) -->

<svg
   xmlns:dc="http://purl.org/dc/elements/1.1/"
   xmlns:cc="http://creativecommons.org/ns#"
   xmlns:rdf="http://www.w3.org/1999/02/22-rdf-syntax-ns#"
   xmlns:svg="http://www.w3.org/2000/svg"
   xmlns="http://www.w3.org/2000/svg"
   xmlns:sodipodi="http://sodipodi.sourceforge.net/DTD/sodipodi-0.dtd"
   xmlns:inkscape="http://www.inkscape.org/namespaces/inkscape"
   width="426.11301mm"
   height="326.49582mm"
   viewBox="0 0 426.11301 326.49582"
   version="1.1"
   id="svg8"
   inkscape:version="0.92.4 (5da689c313, 2019-01-14)"
   sodipodi:docname="cart3.svg">
  <defs
     id="defs2" />
  <sodipodi:namedview
     id="base"
     pagecolor="#ffffff"
     bordercolor="#666666"
     borderopacity="1.0"
     inkscape:pageopacity="0.0"
     inkscape:pageshadow="2"
     inkscape:zoom="0.35"
     inkscape:cx="1198.601"
     inkscape:cy="447.51967"
     inkscape:document-units="mm"
     inkscape:current-layer="layer1"
     showgrid="false"
     fit-margin-top="0"
     fit-margin-left="0"
     fit-margin-right="0"
     fit-margin-bottom="0"
     inkscape:window-width="1920"
     inkscape:window-height="1001"
     inkscape:window-x="-9"
     inkscape:window-y="-9"
     inkscape:window-maximized="1" />
  <metadata
     id="metadata5">
    <rdf:RDF>
      <cc:Work
         rdf:about="">
        <dc:format>image/svg+xml</dc:format>
        <dc:type
           rdf:resource="http://purl.org/dc/dcmitype/StillImage" />
        <dc:title></dc:title>
      </cc:Work>
    </rdf:RDF>
  </metadata>
  <g
     inkscape:label="Layer 1"
     inkscape:groupmode="layer"
     id="layer1"
     transform="translate(123.0993,16.446397)">
    <g
       transform="translate(737.06244,31.568366)"
       id="layer1-1"
       inkscape:label="Layer 1"
       style="fill:#ffffff;fill-opacity:1">
      <g
         style="fill:#ffffff;fill-opacity:1"
         transform="translate(-710.74645,-124.36789)"
         id="g829">
        <flowRoot
           transform="matrix(0.26458333,0,0,0.26458333,-370.5481,5521.9307)"
           style="font-style:normal;font-weight:normal;font-size:40px;line-height:1.25;font-family:sans-serif;letter-spacing:0px;word-spacing:0px;fill:#ffffff;fill-opacity:1;stroke:none"
           id="flowRoot900-88"
           xml:space="preserve"><flowRegion
             style="fill:#ffffff;fill-opacity:1"
             id="flowRegion902-1"><rect
               style="fill:#ffffff;fill-opacity:1"
               y="-591.76605"
               x="-67.14286"
               height="127.14286"
               width="48.57143"
               id="rect904-1" /></flowRegion><flowPara
             id="flowPara906-5" /></flowRoot>        <path
           style="fill:#ffffff;fill-opacity:1;stroke-width:0.99999994"
           d="M 118,32 C 85.450709,32.456283 55.494456,46.128852 53.494141,82.363281 53.558846,86.673628 56.619376,127.77096 118,128 h 174 l 175,835 c -1.14304,36.00998 -38.90357,22.1104 -47,73 0,15.4835 5.06853,29.0996 15.17578,40.8594 C 425.06415,1095.151 420,1115.5289 420,1138 c 0,35.3333 12.49994,65.4999 37.5,90.5 24.9998,25.0001 55.16644,37.5 90.5,37.5 35.33329,0 65.49994,-12.4999 90.5,-37.5 24.9998,-25.0001 37.5,-55.1667 37.5,-90.5 0,-13.4118 -1.80622,-26.077 -5.4082,-38 h 628.8164 c -3.602,11.923 -5.4082,24.5882 -5.4082,38 0,35.3333 12.5002,65.4999 37.5,90.5 25.0001,25.0001 55.1667,37.5 90.5,37.5 35.3333,0 65.4999,-12.4999 90.5,-37.5 25.0001,-25.0001 37.5,-55.1667 37.5,-90.5 0,-22.4711 -5.0641,-42.849 -15.1758,-61.1406 C 1544.9315,1065.0996 1550,1051.4835 1550,1036 c 0,-17.3334 -6.3333,-32.3335 -19,-45 -12.6667,-12.66671 -27.6669,-19 -45,-19 H 612 c 0,0 -2.83858,-15.43195 -9,-20 l 1004,-56 c 16.6667,-1.9999 30.3334,-9.16665 41,-21.5 10.6668,-12.33335 16,-26.50001 16,-42.5 V 192 c 0,-17.33318 -6.3333,-32.33329 -19,-45 -12.6667,-12.66671 -27.6666,-19 -45,-19 H 399 C 394.47394,96.802415 387.88008,76.461751 368.5,54 363.49991,47.999871 356.83333,42.833353 348.5,38.5 340.16663,34.166643 330.66658,32 320,32 Z M 404.06055,207.46094 H 1589.8379 V 829.61523 L 543.46289,886.18359 Z"
           transform="matrix(0.26458333,0,0,0.26458333,-163.56895,67.88646)"
           id="path2993"
           inkscape:connector-curvature="0" />
      </g>
    </g>
  </g>
</svg>
