<?xml version="1.0" encoding="UTF-8" standalone="no"?>
<!-- Created with Inkscape (http://www.inkscape.org/) -->

<svg
   xmlns:dc="http://purl.org/dc/elements/1.1/"
   xmlns:cc="http://creativecommons.org/ns#"
   xmlns:rdf="http://www.w3.org/1999/02/22-rdf-syntax-ns#"
   xmlns:svg="http://www.w3.org/2000/svg"
   xmlns="http://www.w3.org/2000/svg"
   xmlns:sodipodi="http://sodipodi.sourceforge.net/DTD/sodipodi-0.dtd"
   xmlns:inkscape="http://www.inkscape.org/namespaces/inkscape"
   width="5449.6777mm"
   height="1447.8928mm"
   viewBox="0 0 5449.6777 1447.8928"
   version="1.1"
   id="svg8"
   inkscape:version="0.92.4 (5da689c313, 2019-01-14)"
   sodipodi:docname="kogoWhite.svg">
  <defs
     id="defs2" />
  <sodipodi:namedview
     id="base"
     pagecolor="#ffffff"
     bordercolor="#666666"
     borderopacity="1.0"
     inkscape:pageopacity="0.0"
     inkscape:pageshadow="2"
     inkscape:zoom="0.01"
     inkscape:cx="50916.365"
     inkscape:cy="26674.577"
     inkscape:document-units="mm"
     inkscape:current-layer="layer1-4"
     showgrid="false"
     fit-margin-top="0"
     fit-margin-left="0"
     fit-margin-right="0"
     fit-margin-bottom="0"
     inkscape:window-width="1920"
     inkscape:window-height="1001"
     inkscape:window-x="-9"
     inkscape:window-y="-9"
     inkscape:window-maximized="1" />
  <metadata
     id="metadata5">
    <rdf:RDF>
      <cc:Work
         rdf:about="">
        <dc:format>image/svg+xml</dc:format>
        <dc:type
           rdf:resource="http://purl.org/dc/dcmitype/StillImage" />
        <dc:title></dc:title>
      </cc:Work>
    </rdf:RDF>
  </metadata>
  <g
     inkscape:label="Layer 1"
     inkscape:groupmode="layer"
     id="layer1"
     transform="translate(10474.795,-7321.3542)">
    <g
       id="layer1-4"
       inkscape:label="Layer 1"
       transform="translate(-4012.878,42.71524)">
      <g
         inkscape:label="Layer 1"
         id="layer1-8"
         transform="matrix(4.7129033,0,0,4.7129033,9370.6277,29133.811)"
         style="stroke-width:0.21218343" />
      <path
         inkscape:connector-curvature="0"
         id="path1110"
         d=""
         style="opacity:1;fill:#e32201;fill-opacity:1;stroke:none;stroke-width:0.01852199;stroke-linecap:round;stroke-linejoin:round;stroke-miterlimit:4;stroke-dasharray:none;stroke-dashoffset:0;stroke-opacity:1" />
      <g
         inkscape:label="Layer 1"
         id="layer1-8-4"
         transform="matrix(4.7129033,0,0,4.7129033,33070.755,26480.385)"
         style="stroke-width:0.21218343" />
      <path
         inkscape:connector-curvature="0"
         id="path1110-9"
         d=""
         style="opacity:1;fill:#e32201;fill-opacity:1;stroke:none;stroke-width:0.01852198;stroke-linecap:round;stroke-linejoin:round;stroke-miterlimit:4;stroke-dasharray:none;stroke-dashoffset:0;stroke-opacity:1" />
      <g
         style="fill:#ffffff;fill-opacity:1"
         inkscape:label="Layer 1"
         id="g4616"
         transform="translate(-7577.045,7814.8274)">
        <g
           style="fill:#ffffff;fill-opacity:1"
           inkscape:label="Layer 1"
           id="g4502"
           transform="translate(4218.4579,7623.4004)">
          <g
             id="g4464"
             style="fill:#ffffff;fill-opacity:1;stroke:none;stroke-width:0.87323093;stroke-opacity:1"
             transform="matrix(0.26458333,0,0,0.26458333,-563.7354,1044.2302)" />
          <g
             id="g4466"
             style="fill:#ffffff;fill-opacity:1;stroke:none;stroke-width:0.87323093;stroke-opacity:1"
             transform="matrix(0.26458333,0,0,0.26458333,-563.7354,1044.2302)" />
          <g
             id="g4468"
             style="fill:#ffffff;fill-opacity:1;stroke:none;stroke-width:0.87323093;stroke-opacity:1"
             transform="matrix(0.26458333,0,0,0.26458333,-563.7354,1044.2302)" />
          <g
             id="g4470"
             style="fill:#ffffff;fill-opacity:1;stroke:none;stroke-width:0.87323093;stroke-opacity:1"
             transform="matrix(0.26458333,0,0,0.26458333,-563.7354,1044.2302)" />
          <g
             id="g4472"
             style="fill:#ffffff;fill-opacity:1;stroke:none;stroke-width:0.87323093;stroke-opacity:1"
             transform="matrix(0.26458333,0,0,0.26458333,-563.7354,1044.2302)" />
          <g
             id="g4474"
             style="fill:#ffffff;fill-opacity:1;stroke:none;stroke-width:0.87323093;stroke-opacity:1"
             transform="matrix(0.26458333,0,0,0.26458333,-563.7354,1044.2302)" />
          <g
             id="g4476"
             style="fill:#ffffff;fill-opacity:1;stroke:none;stroke-width:0.87323093;stroke-opacity:1"
             transform="matrix(0.26458333,0,0,0.26458333,-563.7354,1044.2302)" />
          <g
             id="g4478"
             style="fill:#ffffff;fill-opacity:1;stroke:none;stroke-width:0.87323093;stroke-opacity:1"
             transform="matrix(0.26458333,0,0,0.26458333,-563.7354,1044.2302)" />
          <g
             id="g4480"
             style="fill:#ffffff;fill-opacity:1;stroke:none;stroke-width:0.87323093;stroke-opacity:1"
             transform="matrix(0.26458333,0,0,0.26458333,-563.7354,1044.2302)" />
          <g
             id="g4482"
             style="fill:#ffffff;fill-opacity:1;stroke:none;stroke-width:0.87323093;stroke-opacity:1"
             transform="matrix(0.26458333,0,0,0.26458333,-563.7354,1044.2302)" />
          <g
             id="g4484"
             style="fill:#ffffff;fill-opacity:1;stroke:none;stroke-width:0.87323093;stroke-opacity:1"
             transform="matrix(0.26458333,0,0,0.26458333,-563.7354,1044.2302)" />
          <g
             id="g4486"
             style="fill:#ffffff;fill-opacity:1;stroke:none;stroke-width:0.87323093;stroke-opacity:1"
             transform="matrix(0.26458333,0,0,0.26458333,-563.7354,1044.2302)" />
          <g
             id="g4488"
             style="fill:#ffffff;fill-opacity:1;stroke:none;stroke-width:0.87323093;stroke-opacity:1"
             transform="matrix(0.26458333,0,0,0.26458333,-563.7354,1044.2302)" />
          <g
             id="g4490"
             style="fill:#ffffff;fill-opacity:1;stroke:none;stroke-width:0.87323093;stroke-opacity:1"
             transform="matrix(0.26458333,0,0,0.26458333,-563.7354,1044.2302)" />
          <g
             id="g4492"
             style="fill:#ffffff;fill-opacity:1;stroke:none;stroke-width:0.87323093;stroke-opacity:1"
             transform="matrix(0.26458333,0,0,0.26458333,-563.7354,1044.2302)" />
          <flowRoot
             xml:space="preserve"
             id="flowRoot4500"
             style="font-style:normal;font-weight:normal;font-size:40px;line-height:1.25;font-family:sans-serif;letter-spacing:0px;word-spacing:0px;fill:#ffffff;fill-opacity:1;stroke:none"
             transform="matrix(0.26458333,0,0,0.26458333,-5143.7417,2211.7211)"><flowRegion
               style="fill:#ffffff;fill-opacity:1"
               id="flowRegion4496"><rect
                 style="fill:#ffffff;fill-opacity:1"
                 id="rect4494"
                 width="48.57143"
                 height="127.14286"
                 x="-67.14286"
                 y="-591.76605" /></flowRegion><flowPara
               id="flowPara4498" /></flowRoot>        </g>
        <g
           style="fill:#ffffff;fill-opacity:1"
           inkscape:label="Layer 1"
           id="g4552"
           transform="translate(4162.3313,3975.1713)">
          <g
             id="g4504"
             style="fill:#ffffff;fill-opacity:1;stroke:none;stroke-width:0.87323093;stroke-opacity:1"
             transform="matrix(0.26458333,0,0,0.26458333,-563.7354,1044.2302)" />
          <g
             id="g4506"
             style="fill:#ffffff;fill-opacity:1;stroke:none;stroke-width:0.87323093;stroke-opacity:1"
             transform="matrix(0.26458333,0,0,0.26458333,-563.7354,1044.2302)" />
          <g
             id="g4508"
             style="fill:#ffffff;fill-opacity:1;stroke:none;stroke-width:0.87323093;stroke-opacity:1"
             transform="matrix(0.26458333,0,0,0.26458333,-563.7354,1044.2302)" />
          <g
             id="g4510"
             style="fill:#ffffff;fill-opacity:1;stroke:none;stroke-width:0.87323093;stroke-opacity:1"
             transform="matrix(0.26458333,0,0,0.26458333,-563.7354,1044.2302)" />
          <g
             id="g4512"
             style="fill:#ffffff;fill-opacity:1;stroke:none;stroke-width:0.87323093;stroke-opacity:1"
             transform="matrix(0.26458333,0,0,0.26458333,-563.7354,1044.2302)" />
          <g
             id="g4514"
             style="fill:#ffffff;fill-opacity:1;stroke:none;stroke-width:0.87323093;stroke-opacity:1"
             transform="matrix(0.26458333,0,0,0.26458333,-563.7354,1044.2302)" />
          <g
             id="g4516"
             style="fill:#ffffff;fill-opacity:1;stroke:none;stroke-width:0.87323093;stroke-opacity:1"
             transform="matrix(0.26458333,0,0,0.26458333,-563.7354,1044.2302)" />
          <g
             id="g4518"
             style="fill:#ffffff;fill-opacity:1;stroke:none;stroke-width:0.87323093;stroke-opacity:1"
             transform="matrix(0.26458333,0,0,0.26458333,-563.7354,1044.2302)" />
          <g
             id="g4520"
             style="fill:#ffffff;fill-opacity:1;stroke:none;stroke-width:0.87323093;stroke-opacity:1"
             transform="matrix(0.26458333,0,0,0.26458333,-563.7354,1044.2302)" />
          <g
             id="g4522"
             style="fill:#ffffff;fill-opacity:1;stroke:none;stroke-width:0.87323093;stroke-opacity:1"
             transform="matrix(0.26458333,0,0,0.26458333,-563.7354,1044.2302)" />
          <g
             id="g4524"
             style="fill:#ffffff;fill-opacity:1;stroke:none;stroke-width:0.87323093;stroke-opacity:1"
             transform="matrix(0.26458333,0,0,0.26458333,-563.7354,1044.2302)" />
          <g
             id="g4526"
             style="fill:#ffffff;fill-opacity:1;stroke:none;stroke-width:0.87323093;stroke-opacity:1"
             transform="matrix(0.26458333,0,0,0.26458333,-563.7354,1044.2302)" />
          <g
             id="g4528"
             style="fill:#ffffff;fill-opacity:1;stroke:none;stroke-width:0.87323093;stroke-opacity:1"
             transform="matrix(0.26458333,0,0,0.26458333,-563.7354,1044.2302)" />
          <g
             id="g4530"
             style="fill:#ffffff;fill-opacity:1;stroke:none;stroke-width:0.87323093;stroke-opacity:1"
             transform="matrix(0.26458333,0,0,0.26458333,-563.7354,1044.2302)" />
          <g
             id="g4532"
             style="fill:#ffffff;fill-opacity:1;stroke:none;stroke-width:0.87323093;stroke-opacity:1"
             transform="matrix(0.26458333,0,0,0.26458333,-563.7354,1044.2302)" />
          <flowRoot
             xml:space="preserve"
             id="flowRoot4540"
             style="font-style:normal;font-weight:normal;font-size:40px;line-height:1.25;font-family:sans-serif;letter-spacing:0px;word-spacing:0px;fill:#ffffff;fill-opacity:1;stroke:none"
             transform="matrix(0.26458333,0,0,0.26458333,-5143.7417,2211.7211)"><flowRegion
               style="fill:#ffffff;fill-opacity:1"
               id="flowRegion4536"><rect
                 style="fill:#ffffff;fill-opacity:1"
                 id="rect4534"
                 width="48.57143"
                 height="127.14286"
                 x="-67.14286"
                 y="-591.76605" /></flowRegion><flowPara
               id="flowPara4538" /></flowRoot>          <g
             style="fill:#ffffff;fill-opacity:1;stroke-width:0.66977066"
             transform="matrix(1.4930483,0,0,1.4930483,-2700.9307,-4054.3323)"
             id="g4550">
            <g
               style="fill:#ffffff;fill-opacity:1;stroke-width:0.03960514"
               transform="matrix(11.326629,0,0,11.326629,96.266374,-6717.9453)"
               inkscape:label="Layer 1"
               id="g4548">
              <path
                 sodipodi:nodetypes="cccccccc"
                 inkscape:connector-curvature="0"
                 id="path4542"
                 d="m -17.033471,617.05881 25.7881209,33.94891 c 0,0 11.9211481,1.03871 8.8784931,-4.93369 -8.1323191,-11.75217 -16.2674201,-23.50241 -24.3980241,-35.25576 8.310856,-10.6095 16.623865,-21.21732 24.9355471,-31.82617 0,0 -10.2901085,-2.08288 -16.0509941,4.71151 -6.624314,8.40082 -12.5283649,16.80209 -19.1531429,25.20255 z"
                 style="font-style:normal;font-variant:normal;font-weight:bold;font-stretch:normal;font-size:105.83333588px;line-height:1.25;font-family:'Century Gothic';-inkscape-font-specification:'Century Gothic Bold';letter-spacing:2.64583325px;word-spacing:0px;fill:#ffffff;fill-opacity:1;stroke:none;stroke-width:0.01047886" />
              <path
                 sodipodi:nodetypes="cccccccccccc"
                 inkscape:connector-curvature="0"
                 id="path4544"
                 d="m 164.57522,575.35868 c -19.98203,-0.61296 -38.40545,17.49062 -37.61914,37.54101 -0.53825,18.83516 14.63565,36.68421 33.68359,37.98047 14.59249,2.31211 30.50216,-4.48518 37.04297,-18.13867 2.9733,-5.48924 5.01189,-11.73641 4.73206,-17.98496 0.029,7.16168 -9.18307,4.77289 -12.4168,10.6731 -4.03861,10.50623 -16.2731,17.42177 -27.03596,15.70639 -15.77065,-1.20961 -28.34194,-17.31412 -25.09571,-32.93554 2.21767,-15.04859 18.34089,-25.31859 33.01172,-22.3086 6.62129,0.99352 12.73621,4.3681 17.49805,9.01758 0,0 7.78938,-6.58889 5.3971,-9.4817 -8.2717,-7.10065 -18.67718,-10.34072 -29.19788,-10.06908 z"
                 style="font-style:normal;font-variant:normal;font-weight:bold;font-stretch:normal;font-size:105.83333588px;line-height:1.25;font-family:'Century Gothic';-inkscape-font-specification:'Century Gothic Bold';letter-spacing:2.64583325px;word-spacing:0px;fill:#ffffff;fill-opacity:1;stroke:none;stroke-width:0.01047886" />
              <path
                 inkscape:connector-curvature="0"
                 id="path4546"
                 d="m 254.58303,575.40283 c -20.48053,0.13213 -38.12403,19.37879 -36.36523,39.82617 0.35439,20.24861 19.23217,37.88063 39.65234,35.95117 20.81719,-0.281 37.96466,-21.00686 35.0918,-41.60742 -1.34959,-19.0282 -19.14313,-35.36103 -38.37891,-34.16992 z m 1.07617,10.14062 c 16.26846,-0.58381 29.57068,15.98616 26.7768,31.7715 -1.33387,15.25797 -17.3537,27.17821 -32.37445,23.30858 -13.58365,-2.56203 -23.12885,-16.4706 -21.18946,-30.06445 0.69016,-13.72435 12.90376,-25.52284 26.78711,-25.01563 z"
                 style="font-style:normal;font-variant:normal;font-weight:bold;font-stretch:normal;font-size:105.83333588px;line-height:1.25;font-family:'Century Gothic';-inkscape-font-specification:'Century Gothic Bold';letter-spacing:2.64583325px;word-spacing:0px;fill:#ffffff;fill-opacity:1;stroke:none;stroke-width:0.01047886" />
            </g>
          </g>
        </g>
        <g
           style="fill:#ffffff;fill-opacity:1"
           transform="translate(4162.3313,3975.1713)"
           id="g4614"
           inkscape:label="Layer 1">
          <g
             transform="matrix(0.26458333,0,0,0.26458333,-563.7354,1044.2302)"
             style="fill:#ffffff;fill-opacity:1;stroke:none;stroke-width:0.87323093;stroke-opacity:1"
             id="g4554" />
          <g
             transform="matrix(0.26458333,0,0,0.26458333,-563.7354,1044.2302)"
             style="fill:#ffffff;fill-opacity:1;stroke:none;stroke-width:0.87323093;stroke-opacity:1"
             id="g4556" />
          <g
             transform="matrix(0.26458333,0,0,0.26458333,-563.7354,1044.2302)"
             style="fill:#ffffff;fill-opacity:1;stroke:none;stroke-width:0.87323093;stroke-opacity:1"
             id="g4558" />
          <g
             transform="matrix(0.26458333,0,0,0.26458333,-563.7354,1044.2302)"
             style="fill:#ffffff;fill-opacity:1;stroke:none;stroke-width:0.87323093;stroke-opacity:1"
             id="g4560" />
          <g
             transform="matrix(0.26458333,0,0,0.26458333,-563.7354,1044.2302)"
             style="fill:#ffffff;fill-opacity:1;stroke:none;stroke-width:0.87323093;stroke-opacity:1"
             id="g4562" />
          <g
             transform="matrix(0.26458333,0,0,0.26458333,-563.7354,1044.2302)"
             style="fill:#ffffff;fill-opacity:1;stroke:none;stroke-width:0.87323093;stroke-opacity:1"
             id="g4564" />
          <g
             transform="matrix(0.26458333,0,0,0.26458333,-563.7354,1044.2302)"
             style="fill:#ffffff;fill-opacity:1;stroke:none;stroke-width:0.87323093;stroke-opacity:1"
             id="g4566" />
          <g
             transform="matrix(0.26458333,0,0,0.26458333,-563.7354,1044.2302)"
             style="fill:#ffffff;fill-opacity:1;stroke:none;stroke-width:0.87323093;stroke-opacity:1"
             id="g4568" />
          <g
             transform="matrix(0.26458333,0,0,0.26458333,-563.7354,1044.2302)"
             style="fill:#ffffff;fill-opacity:1;stroke:none;stroke-width:0.87323093;stroke-opacity:1"
             id="g4570" />
          <g
             transform="matrix(0.26458333,0,0,0.26458333,-563.7354,1044.2302)"
             style="fill:#ffffff;fill-opacity:1;stroke:none;stroke-width:0.87323093;stroke-opacity:1"
             id="g4572" />
          <g
             transform="matrix(0.26458333,0,0,0.26458333,-563.7354,1044.2302)"
             style="fill:#ffffff;fill-opacity:1;stroke:none;stroke-width:0.87323093;stroke-opacity:1"
             id="g4574" />
          <g
             transform="matrix(0.26458333,0,0,0.26458333,-563.7354,1044.2302)"
             style="fill:#ffffff;fill-opacity:1;stroke:none;stroke-width:0.87323093;stroke-opacity:1"
             id="g4576" />
          <g
             transform="matrix(0.26458333,0,0,0.26458333,-563.7354,1044.2302)"
             style="fill:#ffffff;fill-opacity:1;stroke:none;stroke-width:0.87323093;stroke-opacity:1"
             id="g4578" />
          <g
             transform="matrix(0.26458333,0,0,0.26458333,-563.7354,1044.2302)"
             style="fill:#ffffff;fill-opacity:1;stroke:none;stroke-width:0.87323093;stroke-opacity:1"
             id="g4580" />
          <g
             transform="matrix(0.26458333,0,0,0.26458333,-563.7354,1044.2302)"
             style="fill:#ffffff;fill-opacity:1;stroke:none;stroke-width:0.87323093;stroke-opacity:1"
             id="g4582" />
          <flowRoot
             transform="matrix(0.26458333,0,0,0.26458333,-5143.7417,2211.7211)"
             style="font-style:normal;font-weight:normal;font-size:40px;line-height:1.25;font-family:sans-serif;letter-spacing:0px;word-spacing:0px;fill:#ffffff;fill-opacity:1;stroke:none"
             id="flowRoot4590"
             xml:space="preserve"><flowRegion
               style="fill:#ffffff;fill-opacity:1"
               id="flowRegion4586"><rect
                 style="fill:#ffffff;fill-opacity:1"
                 y="-591.76605"
                 x="-67.14286"
                 height="127.14286"
                 width="48.57143"
                 id="rect4584" /></flowRegion><flowPara
               id="flowPara4588" /></flowRoot>          <g
             id="g4612"
             transform="matrix(1.4930483,0,0,1.4930483,-2700.9307,-4054.3323)"
             style="fill:#ffffff;fill-opacity:1;stroke-width:0.66977066">
            <g
               id="g4610"
               inkscape:label="Layer 1"
               transform="matrix(11.326629,0,0,11.326629,96.266374,-6717.9453)"
               style="fill:#ffffff;fill-opacity:1;stroke-width:0.03960514">
              <g
                 style="fill:#ffffff;fill-opacity:1"
                 id="g4602">
                <g
                   style="fill:#ffffff;fill-opacity:1"
                   id="g4594">
                  <path
                     style="fill:#ffffff;fill-opacity:1;stroke-width:3.77952719"
                     d="m 57.072266,-6728.6758 -135.679688,8.1133 c -260.794738,15.5911 -498.593648,64.7474 -728.263668,150.5449 -804.87571,300.6722 -1391.28711,983.4826 -1560.11131,1816.5723 -36.0469,177.8831 -49.6403,576.3079 -25.8711,758.3027 147.4761,1129.2072 1057.2113,2004.8733 2208.23631,2125.5391 150.907173,15.8206 475.62298,5.8178 630.91992,-19.4356 458.27265,-74.5245 868.81247,-259.9995 1215.63677,-549.207 843.8333,-703.652 1109.7217,-1892.1799 643.455,-2876.2676 -315.7794,-666.4731 -902.511,-1145.9237 -1635.88864,-1336.7773 -67.89324,-17.6691 -125.48187,-34.1674 -127.97461,-36.6602 -109.32574,-18.9052 -267.00555,-41.6322 -484.458984,-40.7246 z m -113.576172,584.1602 c 159.177126,-3.0978 281.376196,1.3642 479.205076,28.5957 373.37255,33.0115 761.34063,225.1013 1059.44143,524.5469 376.328,378.025 583.8882,936.3587 533.2441,1434.4199 -44.2691,435.3644 -185.183,771.2972 -449.1562,1070.7793 -318.6384,361.5001 -720.87216,565.6953 -1237.31253,628.123 -60.96535,7.3721 -112.04306,13.3985 -113.51953,13.3985 -224.9803529,18.057 -445.20471,4.1562 -656.55078,-33.4493 -629.23746,-114.8858 -1168.78776,-633.6692 -1336.07226,-1284.6504 -41.267,-160.5892 -53.1252,-279.1232 -53.3809,-532.0703 -0.2307,-262.6106 16.0564,-377.9511 81.17,-574.8339 203.6835,-615.863 723.8968,-1088.1909 1357.09956,-1232.1836 122.59562,-27.8776 256.98627,-43.7842 335.832034,-42.6758 z"
                     id="path4592"
                     transform="matrix(0.01564545,0,0,0.01564545,71.558349,680.83477)"
                     inkscape:connector-curvature="0"
                     sodipodi:nodetypes="ccccccccscccccssscccscccc" />
                </g>
                <g
                   style="fill:#ffffff;fill-opacity:1"
                   id="g4600">
                  <path
                     style="fill:#ffffff;fill-opacity:1;stroke-width:3.77952719"
                     d="m -10678.279,-7387.3245 c 23.864,24.3633 73.241,397.9474 98.711,783.1116 28.973,438.1126 -13.054,589.51 -245.998,886.1953 -200.993,255.991 -240.814,312.6674 -291.832,415.3633 -57.422,115.5844 -90.152,247.3929 -90.536,364.2129 -0.55,185.2936 85.618,472.7622 269.034,897.5352 60.55,140.228 117.698,242.0055 121.807,250.2207 54.333,19.4491 227.358,8.9929 319.861,3.2148 -8.195,0 -60.749,-112.97 -89.202,-225.2148 -85.585,-337.5024 -105.582,-502.8866 -85.197,-703.3125 24.867,-244.4932 91.428,-399.6994 279.647,-652.0606 135.73,-181.9835 174.953,-244.8325 248.976,-398.9707 122.753,-255.6038 142.916,-467.992 73.889,-778.3184 -59.979,-269.6461 -138.266,-478.6765 -294.604,-821.8911 -141.422,-23.6365 -260.289,-23.3833 -314.556,-20.0857 z"
                     id="path4596"
                     transform="matrix(0.01564545,0,0,0.01564545,239.16202,701.09276)"
                     inkscape:connector-curvature="0"
                     sodipodi:nodetypes="ccsccscccsccccc" />
                  <path
                     inkscape:export-ydpi="163.86685"
                     inkscape:export-xdpi="163.86685"
                     sodipodi:nodetypes="cccccsccc"
                     inkscape:connector-curvature="0"
                     id="path4598"
                     d="m 72.607745,574.90454 c 0.449803,-1.11111 0.903336,-2.51508 0.903336,-2.51508 1.2564,-3.76075 1.7002,-4.78332 2.4728,-5.69746 0.54168,-0.64094 0.63419,-0.67485 1.49037,-0.54646 1.21354,0.18198 3.86902,1.07261 4.69938,1.57616 0.46794,0.28375 0.66514,0.55635 0.66514,0.91943 0,0.28384 -0.49853,1.63474 -1.10784,3.002 -1.1136,2.49884 -1.675496,3.7667 -1.543636,3.89855 -3.166623,-0.64391 -6.558452,-0.81 -7.57955,-0.63714 z"
                     style="fill:#ffffff;fill-opacity:1;stroke-width:0.05913239" />
                </g>
              </g>
              <path
                 style="font-style:normal;font-variant:normal;font-weight:bold;font-stretch:normal;font-size:105.83333588px;line-height:1.25;font-family:'Century Gothic';-inkscape-font-specification:'Century Gothic Bold';letter-spacing:2.64583325px;word-spacing:0px;fill:#ffffff;fill-opacity:1;stroke:none;stroke-width:0.01047886"
                 d="m -28.378162,651.00772 c 9.607791,-0.0583 10.51946,-1.47959 10.625,-8 v -25.94891 -8.15265 -29.91406 c -6.985209,-0.77688 -13.20886,-0.7922 -10.625,8 z"
                 id="path4604"
                 inkscape:connector-curvature="0"
                 sodipodi:nodetypes="ccccccc" />
              <path
                 style="font-style:normal;font-variant:normal;font-weight:bold;font-stretch:normal;font-size:105.83333588px;line-height:1.25;font-family:'Century Gothic';-inkscape-font-specification:'Century Gothic Bold';letter-spacing:2.64583325px;word-spacing:0px;fill:#ffffff;fill-opacity:1;stroke:none;stroke-width:0.01047886"
                 d="m 189.9979,624.5999 c 2.9733,-5.48924 11.8669,-3.4911 11.93279,-9.87794 H 167.626 c -0.6919,7.7396 3.40876,9.60891 9,9.5918 l 9.75389,0.38392 z"
                 id="path4606"
                 inkscape:connector-curvature="0"
                 sodipodi:nodetypes="cccccc" />
              <path
                 style="font-style:normal;font-variant:normal;font-weight:bold;font-stretch:normal;font-size:105.83333588px;line-height:1.25;font-family:'Century Gothic';-inkscape-font-specification:'Century Gothic Bold';letter-spacing:2.64583325px;word-spacing:0px;fill:#ffffff;fill-opacity:1;stroke:none;stroke-width:0.01047886"
                 d="m 254.58303,575.40283 c -20.48053,0.13213 -38.12403,19.37879 -36.36523,39.82617 0.35439,20.24861 19.23217,37.88063 39.65234,35.95117 20.81719,-0.281 37.96466,-21.00686 35.0918,-41.60742 -1.34959,-19.0282 -19.14313,-35.36103 -38.37891,-34.16992 z m 1.07617,10.14062 c 16.26846,-0.58381 29.57068,15.98616 26.7768,31.7715 -1.33387,15.25797 -17.3537,27.17821 -32.37445,23.30858 -13.58365,-2.56203 -23.12885,-16.4706 -21.18946,-30.06445 0.69016,-13.72435 12.90376,-25.52284 26.78711,-25.01563 z"
                 id="path4608"
                 inkscape:connector-curvature="0" />
            </g>
          </g>
        </g>
      </g>
    </g>
  </g>
</svg>
