<?xml version="1.0" encoding="UTF-8" standalone="no"?>
<!-- Created with Inkscape (http://www.inkscape.org/) -->

<svg
   xmlns:dc="http://purl.org/dc/elements/1.1/"
   xmlns:cc="http://creativecommons.org/ns#"
   xmlns:rdf="http://www.w3.org/1999/02/22-rdf-syntax-ns#"
   xmlns:svg="http://www.w3.org/2000/svg"
   xmlns="http://www.w3.org/2000/svg"
   xmlns:xlink="http://www.w3.org/1999/xlink"
   xmlns:sodipodi="http://sodipodi.sourceforge.net/DTD/sodipodi-0.dtd"
   xmlns:inkscape="http://www.inkscape.org/namespaces/inkscape"
   width="5449.6777mm"
   height="1447.8931mm"
   viewBox="0 0 5449.6777 1447.893"
   version="1.1"
   id="svg8"
   inkscape:version="0.92.4 (5da689c313, 2019-01-14)"
   sodipodi:docname="kogoGradient.svg">
  <defs
     id="defs2">
    <linearGradient
       id="linearGradient943"
       inkscape:collect="always">
      <stop
         id="stop939"
         offset="0"
         style="stop-color:#fb604e;stop-opacity:1;" />
      <stop
         id="stop941"
         offset="1"
         style="stop-color:#8a120f;stop-opacity:1" />
    </linearGradient>
    <linearGradient
       inkscape:collect="always"
       xlink:href="#linearGradient943"
       id="linearGradient3382"
       gradientUnits="userSpaceOnUse"
       x1="17.766144"
       y1="614.32269"
       x2="-28.29394"
       y2="613.21643" />
    <linearGradient
       inkscape:collect="always"
       xlink:href="#linearGradient943"
       id="linearGradient3384"
       gradientUnits="userSpaceOnUse"
       x1="126.93179"
       y1="613.33398"
       x2="201.96289"
       y2="613.33398" />
    <linearGradient
       inkscape:collect="always"
       xlink:href="#linearGradient943"
       id="linearGradient3386"
       gradientUnits="userSpaceOnUse"
       x1="218.2178"
       y1="615.229"
       x2="293.21481"
       y2="614.883" />
    <linearGradient
       inkscape:collect="always"
       xlink:href="#linearGradient943"
       id="linearGradient3388"
       gradientUnits="userSpaceOnUse"
       x1="33.935322"
       y1="608.89429"
       x2="111.19366"
       y2="608.89429" />
    <linearGradient
       inkscape:collect="always"
       xlink:href="#linearGradient943"
       id="linearGradient3390"
       gradientUnits="userSpaceOnUse"
       gradientTransform="matrix(63.916426,0,0,63.916426,-15286.383,-44811.343)"
       x1="71.679909"
       y1="614.76129"
       x2="74.329124"
       y2="584.35052" />
    <linearGradient
       inkscape:collect="always"
       xlink:href="#linearGradient943"
       id="linearGradient3392"
       gradientUnits="userSpaceOnUse"
       x1="76.764725"
       y1="576.91888"
       x2="75.893616"
       y2="564.10919" />
    <linearGradient
       inkscape:collect="always"
       xlink:href="#linearGradient943"
       id="linearGradient3394"
       gradientUnits="userSpaceOnUse"
       x1="33.935322"
       y1="608.89429"
       x2="111.19366"
       y2="608.89429" />
    <linearGradient
       inkscape:collect="always"
       xlink:href="#linearGradient943"
       id="linearGradient3396"
       gradientUnits="userSpaceOnUse"
       gradientTransform="matrix(63.916426,0,0,63.916426,-15286.383,-44811.343)"
       x1="71.679909"
       y1="614.76129"
       x2="74.329124"
       y2="584.35052" />
    <linearGradient
       inkscape:collect="always"
       xlink:href="#linearGradient943"
       id="linearGradient3398"
       gradientUnits="userSpaceOnUse"
       x1="76.764725"
       y1="576.91888"
       x2="75.893616"
       y2="564.10919" />
    <linearGradient
       inkscape:collect="always"
       xlink:href="#linearGradient943"
       id="linearGradient3400"
       gradientUnits="userSpaceOnUse"
       x1="-17.753162"
       y1="617.05884"
       x2="-28.570513"
       y2="616.53528" />
    <linearGradient
       inkscape:collect="always"
       xlink:href="#linearGradient943"
       id="linearGradient3402"
       gradientUnits="userSpaceOnUse"
       x1="201.93069"
       y1="614.72198"
       x2="126.95608"
       y2="612.89972" />
    <linearGradient
       inkscape:collect="always"
       xlink:href="#linearGradient943"
       id="linearGradient3404"
       gradientUnits="userSpaceOnUse"
       x1="218.2178"
       y1="615.229"
       x2="293.21481"
       y2="614.883" />
  </defs>
  <sodipodi:namedview
     id="base"
     pagecolor="#ffffff"
     bordercolor="#666666"
     borderopacity="1.0"
     inkscape:pageopacity="0.0"
     inkscape:pageshadow="2"
     inkscape:zoom="0.01"
     inkscape:cx="38290.915"
     inkscape:cy="-28306.701"
     inkscape:document-units="mm"
     inkscape:current-layer="layer1-3"
     showgrid="false"
     showguides="false"
     inkscape:window-width="1920"
     inkscape:window-height="1001"
     inkscape:window-x="-9"
     inkscape:window-y="-9"
     inkscape:window-maximized="1"
     fit-margin-top="0"
     fit-margin-left="0"
     fit-margin-right="0"
     fit-margin-bottom="0" />
  <metadata
     id="metadata5">
    <rdf:RDF>
      <cc:Work
         rdf:about="">
        <dc:format>image/svg+xml</dc:format>
        <dc:type
           rdf:resource="http://purl.org/dc/dcmitype/StillImage" />
        <dc:title></dc:title>
      </cc:Work>
    </rdf:RDF>
  </metadata>
  <g
     inkscape:label="Layer 1"
     inkscape:groupmode="layer"
     id="layer1"
     transform="translate(1825.623,9146.6148)">
    <g
       transform="translate(1464.1186,-81.320456)"
       id="layer1-3"
       inkscape:label="Layer 1">
      <g
         inkscape:label="Layer 1"
         id="layer1-8"
         transform="matrix(4.7129033,0,0,4.7129033,7906.5091,29215.131)"
         style="stroke-width:0.21218343" />
      <path
         inkscape:connector-curvature="0"
         id="path1110"
         d=""
         style="opacity:1;fill:#e32201;fill-opacity:1;stroke:none;stroke-width:0.01852199;stroke-linecap:round;stroke-linejoin:round;stroke-miterlimit:4;stroke-dasharray:none;stroke-dashoffset:0;stroke-opacity:1" />
      <g
         inkscape:label="Layer 1"
         id="layer1-8-4"
         transform="matrix(4.7129033,0,0,4.7129033,31606.636,26561.705)"
         style="stroke-width:0.21218343" />
      <path
         inkscape:connector-curvature="0"
         id="path1110-9"
         d=""
         style="opacity:1;fill:#e32201;fill-opacity:1;stroke:none;stroke-width:0.01852198;stroke-linecap:round;stroke-linejoin:round;stroke-miterlimit:4;stroke-dasharray:none;stroke-dashoffset:0;stroke-opacity:1" />
      <g
         transform="translate(-4404.8698,-8529.1058)"
         id="g3380"
         inkscape:label="Layer 1"
         inkscape:export-xdpi="9.3216524"
         inkscape:export-ydpi="9.3216524">
        <g
           transform="translate(4218.4579,7623.4004)"
           id="g3260"
           inkscape:label="Layer 1">
          <g
             transform="matrix(0.26458333,0,0,0.26458333,-563.7354,1044.2302)"
             style="fill:#e32201;fill-opacity:1;stroke:none;stroke-width:0.87323093;stroke-opacity:1"
             id="g3222" />
          <g
             transform="matrix(0.26458333,0,0,0.26458333,-563.7354,1044.2302)"
             style="fill:#e32201;fill-opacity:1;stroke:none;stroke-width:0.87323093;stroke-opacity:1"
             id="g3224" />
          <g
             transform="matrix(0.26458333,0,0,0.26458333,-563.7354,1044.2302)"
             style="fill:#e32201;fill-opacity:1;stroke:none;stroke-width:0.87323093;stroke-opacity:1"
             id="g3226" />
          <g
             transform="matrix(0.26458333,0,0,0.26458333,-563.7354,1044.2302)"
             style="fill:#e32201;fill-opacity:1;stroke:none;stroke-width:0.87323093;stroke-opacity:1"
             id="g3228" />
          <g
             transform="matrix(0.26458333,0,0,0.26458333,-563.7354,1044.2302)"
             style="fill:#e32201;fill-opacity:1;stroke:none;stroke-width:0.87323093;stroke-opacity:1"
             id="g3230" />
          <g
             transform="matrix(0.26458333,0,0,0.26458333,-563.7354,1044.2302)"
             style="fill:#e32201;fill-opacity:1;stroke:none;stroke-width:0.87323093;stroke-opacity:1"
             id="g3232" />
          <g
             transform="matrix(0.26458333,0,0,0.26458333,-563.7354,1044.2302)"
             style="fill:#e32201;fill-opacity:1;stroke:none;stroke-width:0.87323093;stroke-opacity:1"
             id="g3234" />
          <g
             transform="matrix(0.26458333,0,0,0.26458333,-563.7354,1044.2302)"
             style="fill:#e32201;fill-opacity:1;stroke:none;stroke-width:0.87323093;stroke-opacity:1"
             id="g3236" />
          <g
             transform="matrix(0.26458333,0,0,0.26458333,-563.7354,1044.2302)"
             style="fill:#e32201;fill-opacity:1;stroke:none;stroke-width:0.87323093;stroke-opacity:1"
             id="g3238" />
          <g
             transform="matrix(0.26458333,0,0,0.26458333,-563.7354,1044.2302)"
             style="fill:#e32201;fill-opacity:1;stroke:none;stroke-width:0.87323093;stroke-opacity:1"
             id="g3240" />
          <g
             transform="matrix(0.26458333,0,0,0.26458333,-563.7354,1044.2302)"
             style="fill:#e32201;fill-opacity:1;stroke:none;stroke-width:0.87323093;stroke-opacity:1"
             id="g3242" />
          <g
             transform="matrix(0.26458333,0,0,0.26458333,-563.7354,1044.2302)"
             style="fill:#e32201;fill-opacity:1;stroke:none;stroke-width:0.87323093;stroke-opacity:1"
             id="g3244" />
          <g
             transform="matrix(0.26458333,0,0,0.26458333,-563.7354,1044.2302)"
             style="fill:#e32201;fill-opacity:1;stroke:none;stroke-width:0.87323093;stroke-opacity:1"
             id="g3246" />
          <g
             transform="matrix(0.26458333,0,0,0.26458333,-563.7354,1044.2302)"
             style="fill:#e32201;fill-opacity:1;stroke:none;stroke-width:0.87323093;stroke-opacity:1"
             id="g3248" />
          <g
             transform="matrix(0.26458333,0,0,0.26458333,-563.7354,1044.2302)"
             style="fill:#e32201;fill-opacity:1;stroke:none;stroke-width:0.87323093;stroke-opacity:1"
             id="g3250" />
          <flowRoot
             transform="matrix(0.26458333,0,0,0.26458333,-5143.7417,2211.7211)"
             style="font-style:normal;font-weight:normal;font-size:40px;line-height:1.25;font-family:sans-serif;letter-spacing:0px;word-spacing:0px;fill:#000000;fill-opacity:1;stroke:none"
             id="flowRoot3258"
             xml:space="preserve"><flowRegion
               id="flowRegion3254"><rect
                 y="-591.76605"
                 x="-67.14286"
                 height="127.14286"
                 width="48.57143"
                 id="rect3252" /></flowRegion><flowPara
               id="flowPara3256" /></flowRoot>        </g>
        <g
           transform="translate(4162.3313,3975.1713)"
           id="g3310"
           inkscape:label="Layer 1">
          <g
             transform="matrix(0.26458333,0,0,0.26458333,-563.7354,1044.2302)"
             style="fill:#e32201;fill-opacity:1;stroke:none;stroke-width:0.87323093;stroke-opacity:1"
             id="g3262" />
          <g
             transform="matrix(0.26458333,0,0,0.26458333,-563.7354,1044.2302)"
             style="fill:#e32201;fill-opacity:1;stroke:none;stroke-width:0.87323093;stroke-opacity:1"
             id="g3264" />
          <g
             transform="matrix(0.26458333,0,0,0.26458333,-563.7354,1044.2302)"
             style="fill:#e32201;fill-opacity:1;stroke:none;stroke-width:0.87323093;stroke-opacity:1"
             id="g3266" />
          <g
             transform="matrix(0.26458333,0,0,0.26458333,-563.7354,1044.2302)"
             style="fill:#e32201;fill-opacity:1;stroke:none;stroke-width:0.87323093;stroke-opacity:1"
             id="g3268" />
          <g
             transform="matrix(0.26458333,0,0,0.26458333,-563.7354,1044.2302)"
             style="fill:#e32201;fill-opacity:1;stroke:none;stroke-width:0.87323093;stroke-opacity:1"
             id="g3270" />
          <g
             transform="matrix(0.26458333,0,0,0.26458333,-563.7354,1044.2302)"
             style="fill:#e32201;fill-opacity:1;stroke:none;stroke-width:0.87323093;stroke-opacity:1"
             id="g3272" />
          <g
             transform="matrix(0.26458333,0,0,0.26458333,-563.7354,1044.2302)"
             style="fill:#e32201;fill-opacity:1;stroke:none;stroke-width:0.87323093;stroke-opacity:1"
             id="g3274" />
          <g
             transform="matrix(0.26458333,0,0,0.26458333,-563.7354,1044.2302)"
             style="fill:#e32201;fill-opacity:1;stroke:none;stroke-width:0.87323093;stroke-opacity:1"
             id="g3276" />
          <g
             transform="matrix(0.26458333,0,0,0.26458333,-563.7354,1044.2302)"
             style="fill:#e32201;fill-opacity:1;stroke:none;stroke-width:0.87323093;stroke-opacity:1"
             id="g3278" />
          <g
             transform="matrix(0.26458333,0,0,0.26458333,-563.7354,1044.2302)"
             style="fill:#e32201;fill-opacity:1;stroke:none;stroke-width:0.87323093;stroke-opacity:1"
             id="g3280" />
          <g
             transform="matrix(0.26458333,0,0,0.26458333,-563.7354,1044.2302)"
             style="fill:#e32201;fill-opacity:1;stroke:none;stroke-width:0.87323093;stroke-opacity:1"
             id="g3282" />
          <g
             transform="matrix(0.26458333,0,0,0.26458333,-563.7354,1044.2302)"
             style="fill:#e32201;fill-opacity:1;stroke:none;stroke-width:0.87323093;stroke-opacity:1"
             id="g3284" />
          <g
             transform="matrix(0.26458333,0,0,0.26458333,-563.7354,1044.2302)"
             style="fill:#e32201;fill-opacity:1;stroke:none;stroke-width:0.87323093;stroke-opacity:1"
             id="g3286" />
          <g
             transform="matrix(0.26458333,0,0,0.26458333,-563.7354,1044.2302)"
             style="fill:#e32201;fill-opacity:1;stroke:none;stroke-width:0.87323093;stroke-opacity:1"
             id="g3288" />
          <g
             transform="matrix(0.26458333,0,0,0.26458333,-563.7354,1044.2302)"
             style="fill:#e32201;fill-opacity:1;stroke:none;stroke-width:0.87323093;stroke-opacity:1"
             id="g3290" />
          <flowRoot
             transform="matrix(0.26458333,0,0,0.26458333,-5143.7417,2211.7211)"
             style="font-style:normal;font-weight:normal;font-size:40px;line-height:1.25;font-family:sans-serif;letter-spacing:0px;word-spacing:0px;fill:#000000;fill-opacity:1;stroke:none"
             id="flowRoot3298"
             xml:space="preserve"><flowRegion
               id="flowRegion3294"><rect
                 y="-591.76605"
                 x="-67.14286"
                 height="127.14286"
                 width="48.57143"
                 id="rect3292" /></flowRegion><flowPara
               id="flowPara3296" /></flowRoot>          <g
             id="g3308"
             transform="matrix(1.4930483,0,0,1.4930483,-2700.9307,-4054.3323)"
             style="fill:#fb604e;fill-opacity:1;stroke-width:0.66977066">
            <g
               id="g3306"
               inkscape:label="Layer 1"
               transform="matrix(11.326629,0,0,11.326629,96.266374,-6717.9453)"
               style="fill:#fb604e;fill-opacity:1;stroke-width:0.03960514">
              <path
                 style="font-style:normal;font-variant:normal;font-weight:bold;font-stretch:normal;font-size:105.83333588px;line-height:1.25;font-family:'Century Gothic';-inkscape-font-specification:'Century Gothic Bold';letter-spacing:2.64583325px;word-spacing:0px;fill:url(#linearGradient3382);fill-opacity:1;stroke:none;stroke-width:0.01047886"
                 d="m -28.378162,651.00772 c 9.607791,-0.0583 10.51946,-1.47959 10.625,-8 v -25.94891 l 26.5078119,33.94891 c 0,0 11.9211481,1.03871 8.8784931,-4.93369 -8.1323191,-11.75217 -16.2674201,-23.50241 -24.3980241,-35.25576 8.310856,-10.6095 16.623865,-21.21732 24.9355471,-31.82617 0,0 -10.2901085,-2.08288 -16.0509941,4.71151 -6.624314,8.40082 -13.2480559,16.80209 -19.8728339,25.20255 V 578.9921 c -6.985209,-0.77688 -13.20886,-0.7922 -10.625,8 z"
                 id="path3300"
                 inkscape:connector-curvature="0"
                 sodipodi:nodetypes="cccccccccccc" />
              <path
                 style="font-style:normal;font-variant:normal;font-weight:bold;font-stretch:normal;font-size:105.83333588px;line-height:1.25;font-family:'Century Gothic';-inkscape-font-specification:'Century Gothic Bold';letter-spacing:2.64583325px;word-spacing:0px;fill:url(#linearGradient3384);fill-opacity:1;stroke:none;stroke-width:0.01047886"
                 d="m 164.57522,575.35868 c -19.98203,-0.61296 -38.40545,17.49062 -37.61914,37.54101 -0.53825,18.83516 14.63565,36.68421 33.68359,37.98047 14.59249,2.31211 30.50216,-4.48518 37.04297,-18.13867 2.9733,-5.48924 4.52788,-11.77098 4.24805,-18.01953 H 167.626 c -0.6919,7.7396 3.40876,9.60891 9,9.5918 l 13.3719,0.28614 c -4.03861,10.50623 -16.2731,18.2515 -27.03596,16.53612 -15.77065,-1.20961 -28.34194,-17.31412 -25.09571,-32.93554 2.21767,-15.04859 18.34089,-25.31859 33.01172,-22.3086 6.62129,0.99352 12.73621,4.3681 17.49805,9.01758 0,0 7.78938,-6.58889 5.3971,-9.4817 -8.2717,-7.10065 -18.67718,-10.34072 -29.19788,-10.06908 z"
                 id="path3302"
                 inkscape:connector-curvature="0"
                 sodipodi:nodetypes="cccccccccccccc" />
              <path
                 style="font-style:normal;font-variant:normal;font-weight:bold;font-stretch:normal;font-size:105.83333588px;line-height:1.25;font-family:'Century Gothic';-inkscape-font-specification:'Century Gothic Bold';letter-spacing:2.64583325px;word-spacing:0px;fill:url(#linearGradient3386);fill-opacity:1;stroke:none;stroke-width:0.01047886"
                 d="m 254.58303,575.40283 c -20.48053,0.13213 -38.12403,19.37879 -36.36523,39.82617 0.35439,20.24861 19.23217,37.88063 39.65234,35.95117 20.81719,-0.281 37.96466,-21.00686 35.0918,-41.60742 -1.34959,-19.0282 -19.14313,-35.36103 -38.37891,-34.16992 z m 1.07617,10.14062 c 16.26846,-0.58381 29.57068,15.98616 26.7768,31.7715 -1.33387,15.25797 -17.3537,27.17821 -32.37445,23.30858 -13.58365,-2.56203 -23.12885,-16.4706 -21.18946,-30.06445 0.69016,-13.72435 12.90376,-25.52284 26.78711,-25.01563 z"
                 id="path3304"
                 inkscape:connector-curvature="0" />
            </g>
          </g>
        </g>
        <g
           inkscape:label="Layer 1"
           id="g3378"
           transform="translate(4162.3313,3975.1713)">
          <g
             id="g3312"
             style="fill:#e32201;fill-opacity:1;stroke:none;stroke-width:0.87323093;stroke-opacity:1"
             transform="matrix(0.26458333,0,0,0.26458333,-563.7354,1044.2302)" />
          <g
             id="g3314"
             style="fill:#e32201;fill-opacity:1;stroke:none;stroke-width:0.87323093;stroke-opacity:1"
             transform="matrix(0.26458333,0,0,0.26458333,-563.7354,1044.2302)" />
          <g
             id="g3316"
             style="fill:#e32201;fill-opacity:1;stroke:none;stroke-width:0.87323093;stroke-opacity:1"
             transform="matrix(0.26458333,0,0,0.26458333,-563.7354,1044.2302)" />
          <g
             id="g3318"
             style="fill:#e32201;fill-opacity:1;stroke:none;stroke-width:0.87323093;stroke-opacity:1"
             transform="matrix(0.26458333,0,0,0.26458333,-563.7354,1044.2302)" />
          <g
             id="g3320"
             style="fill:#e32201;fill-opacity:1;stroke:none;stroke-width:0.87323093;stroke-opacity:1"
             transform="matrix(0.26458333,0,0,0.26458333,-563.7354,1044.2302)" />
          <g
             id="g3322"
             style="fill:#e32201;fill-opacity:1;stroke:none;stroke-width:0.87323093;stroke-opacity:1"
             transform="matrix(0.26458333,0,0,0.26458333,-563.7354,1044.2302)" />
          <g
             id="g3324"
             style="fill:#e32201;fill-opacity:1;stroke:none;stroke-width:0.87323093;stroke-opacity:1"
             transform="matrix(0.26458333,0,0,0.26458333,-563.7354,1044.2302)" />
          <g
             id="g3326"
             style="fill:#e32201;fill-opacity:1;stroke:none;stroke-width:0.87323093;stroke-opacity:1"
             transform="matrix(0.26458333,0,0,0.26458333,-563.7354,1044.2302)" />
          <g
             id="g3328"
             style="fill:#e32201;fill-opacity:1;stroke:none;stroke-width:0.87323093;stroke-opacity:1"
             transform="matrix(0.26458333,0,0,0.26458333,-563.7354,1044.2302)" />
          <g
             id="g3330"
             style="fill:#e32201;fill-opacity:1;stroke:none;stroke-width:0.87323093;stroke-opacity:1"
             transform="matrix(0.26458333,0,0,0.26458333,-563.7354,1044.2302)" />
          <g
             id="g3332"
             style="fill:#e32201;fill-opacity:1;stroke:none;stroke-width:0.87323093;stroke-opacity:1"
             transform="matrix(0.26458333,0,0,0.26458333,-563.7354,1044.2302)" />
          <g
             id="g3334"
             style="fill:#e32201;fill-opacity:1;stroke:none;stroke-width:0.87323093;stroke-opacity:1"
             transform="matrix(0.26458333,0,0,0.26458333,-563.7354,1044.2302)" />
          <g
             id="g3336"
             style="fill:#e32201;fill-opacity:1;stroke:none;stroke-width:0.87323093;stroke-opacity:1"
             transform="matrix(0.26458333,0,0,0.26458333,-563.7354,1044.2302)" />
          <g
             id="g3338"
             style="fill:#e32201;fill-opacity:1;stroke:none;stroke-width:0.87323093;stroke-opacity:1"
             transform="matrix(0.26458333,0,0,0.26458333,-563.7354,1044.2302)" />
          <g
             id="g3340"
             style="fill:#e32201;fill-opacity:1;stroke:none;stroke-width:0.87323093;stroke-opacity:1"
             transform="matrix(0.26458333,0,0,0.26458333,-563.7354,1044.2302)" />
          <flowRoot
             xml:space="preserve"
             id="flowRoot3348"
             style="font-style:normal;font-weight:normal;font-size:40px;line-height:1.25;font-family:sans-serif;letter-spacing:0px;word-spacing:0px;fill:#000000;fill-opacity:1;stroke:none"
             transform="matrix(0.26458333,0,0,0.26458333,-5143.7417,2211.7211)"><flowRegion
               id="flowRegion3344"><rect
                 id="rect3342"
                 width="48.57143"
                 height="127.14286"
                 x="-67.14286"
                 y="-591.76605" /></flowRegion><flowPara
               id="flowPara3346" /></flowRoot>          <g
             style="fill:#fb604e;fill-opacity:1;stroke-width:0.66977066"
             transform="matrix(1.4930483,0,0,1.4930483,-2700.9307,-4054.3323)"
             id="g3376">
            <g
               style="fill:#fb604e;fill-opacity:1;stroke-width:0.03960514"
               transform="matrix(11.326629,0,0,11.326629,96.266374,-6717.9453)"
               inkscape:label="Layer 1"
               id="g3374">
              <g
                 id="g3366">
                <g
                   id="g3356">
                  <path
                     transform="translate(-7.1578502e-6,-4.24819e-6)"
                     style="fill:url(#linearGradient3388);fill-opacity:1;stroke-width:0.05913239"
                     d="m 68.669951,651.584 c -18.0083,-1.88787 -32.24154,-15.58807 -34.54887,-33.25502 -0.37188,-2.84739 -0.15919,-9.08092 0.40478,-11.86398 2.64133,-13.03406 11.816,-23.71694 24.40864,-28.42109 3.59329,-1.34234 7.31376,-2.11142 11.39401,-2.35535 l 2.12278,-0.12691 1.05979,-3.17219 c 1.2564,-3.76075 1.7002,-4.78332 2.4728,-5.69746 0.54168,-0.64094 0.63419,-0.67485 1.49037,-0.54646 1.21354,0.18198 3.86902,1.07261 4.69938,1.57616 0.46794,0.28375 0.66514,0.55635 0.66514,0.91943 0,0.28384 -0.49853,1.63474 -1.10784,3.002 -1.1136,2.49884 -1.83195,4.42381 -1.70009,4.55566 0.039,0.039 0.94002,0.29712 2.00224,0.57356 11.47402,2.98599 20.653679,10.48723 25.594189,20.9145 7.29495,15.39649 3.13501,33.99151 -10.067139,45.00046 -5.42622,4.52478 -11.8493,7.42662 -19.01918,8.59259 -2.42969,0.3951 -7.50999,0.55162 -9.871,0.3041 z m 8.03446,-9.20653 c 8.07994,-0.97671 14.37308,-4.17142 19.35832,-9.82725 4.129979,-4.68553 6.334629,-9.94136 7.027239,-16.75283 0.79235,-7.79239 -2.455,-16.52777 -8.342819,-22.44214 -4.66392,-4.68496 -10.73387,-7.69028 -16.57545,-8.20676 l -1.4949,-0.13218 0.55016,1.20777 c 2.44597,5.36974 3.46091,8.2452 4.3993,12.46393 1.07996,4.85519 0.76452,8.1781 -1.15601,12.17713 -1.15813,2.41156 -1.77177,3.39486 -3.8953,6.24207 -2.94477,3.9483 -3.98619,6.37657 -4.37524,10.20177 -0.31893,3.13575 -0.006,5.72318 1.33302,11.00355 0.44516,1.75612 1.26741,4.27458 1.39563,4.27458 0.0231,0 0.82222,-0.0943 1.77605,-0.20964 z m -6.96374,-0.25627 c -0.06427,-0.12853 -0.77509,-2.05627 -1.72242,-4.2502 -2.86962,-6.64575 -4.21771,-11.14323 -4.2091,-14.04223 0.006,-1.8277 0.51804,-3.8899 1.41644,-5.69827 0.79819,-1.60672 1.42121,-2.49346 4.56583,-6.49855 3.6445,-4.64177 4.30202,-7.01046 3.84873,-13.86492 -0.3985,-6.02606 -1.30855,-12.12213 -1.92127,-12.86989 -0.32851,-0.40093 -3.50889,-0.16279 -6.2988,0.47162 -9.90674,2.25283 -18.0457,9.64262 -21.23242,19.27807 -1.01873,3.08032 -1.27356,4.88486 -1.26995,8.99352 0.004,3.95747 0.18953,5.81199 0.83517,8.32448 2.61724,10.18489 11.05874,18.30151 20.90344,20.09895 2.04037,0.37253 5.419468,0.72762 5.263155,0.41501 z"
                     id="path3350"
                     inkscape:connector-curvature="0"
                     sodipodi:nodetypes="scccscccccscscsscsccssccccscccscscccssccscscss"
                     inkscape:export-xdpi="163.86685"
                     inkscape:export-ydpi="163.86685" />
                  <path
                     style="fill:url(#linearGradient3390);fill-opacity:1;stroke-width:3.77952719"
                     d="m -10751.046,-7438.8691 c 100.099,47.0128 146.008,449.492 171.478,834.6562 28.973,438.1126 -13.054,589.51 -245.998,886.1953 -200.993,255.991 -240.814,312.6674 -291.832,415.3633 -57.422,115.5844 -90.152,247.3929 -90.536,364.2129 -0.55,185.2936 85.618,472.7622 269.034,897.5352 60.55,140.228 117.698,290.0055 121.807,298.2207 54.333,19.4491 227.358,8.9929 319.861,3.2148 -8.195,0 -60.749,-160.97 -89.202,-273.2148 -85.585,-337.5024 -105.582,-502.8866 -85.197,-703.3125 24.867,-244.4932 91.428,-399.6994 279.647,-652.0606 135.73,-181.9835 174.953,-244.8325 248.976,-398.9707 122.753,-255.6038 142.916,-467.992 73.889,-778.3184 -59.979,-269.6461 -160.21,-531.8784 -316.548,-875.093 -139.809,-29.7819 -289.924,-19.8998 -365.379,-18.4284 z"
                     id="path3352"
                     transform="matrix(0.01564545,0,0,0.01564545,239.16202,701.09276)"
                     inkscape:connector-curvature="0"
                     sodipodi:nodetypes="ccsccscccsccccc" />
                  <path
                     inkscape:export-ydpi="163.86685"
                     inkscape:export-xdpi="163.86685"
                     sodipodi:nodetypes="cccccsccc"
                     inkscape:connector-curvature="0"
                     id="path3354"
                     d="m 72.451291,575.56165 1.05979,-3.17219 c 1.2564,-3.76075 1.7002,-4.78332 2.4728,-5.69746 0.54168,-0.64094 0.63419,-0.67485 1.49037,-0.54646 1.21354,0.18198 3.86902,1.07261 4.69938,1.57616 0.46794,0.28375 0.66514,0.55635 0.66514,0.91943 0,0.28384 -0.49853,1.63474 -1.10784,3.002 -1.1136,2.49884 -1.83195,4.42381 -1.70009,4.55566 -3.166623,-0.50562 -7.612894,-0.63714 -7.57955,-0.63714 z"
                     style="fill:url(#linearGradient3392);fill-opacity:1;stroke-width:0.05913239" />
                </g>
                <g
                   id="g3364">
                  <path
                     inkscape:export-ydpi="163.86685"
                     inkscape:export-xdpi="163.86685"
                     sodipodi:nodetypes="scccscccccscscsscsccssccccscccscscccssccscscss"
                     inkscape:connector-curvature="0"
                     id="path3358"
                     d="m 68.669951,651.584 c -18.0083,-1.88787 -32.24154,-15.58807 -34.54887,-33.25502 -0.37188,-2.84739 -0.15919,-9.08092 0.40478,-11.86398 2.64133,-13.03406 11.816,-23.71694 24.40864,-28.42109 3.59329,-1.34234 7.31376,-2.11142 11.39401,-2.35535 l 2.12278,-0.12691 1.05979,-3.17219 c 1.2564,-3.76075 1.7002,-4.78332 2.4728,-5.69746 0.54168,-0.64094 0.63419,-0.67485 1.49037,-0.54646 1.21354,0.18198 3.86902,1.07261 4.69938,1.57616 0.46794,0.28375 0.66514,0.55635 0.66514,0.91943 0,0.28384 -0.49853,1.63474 -1.10784,3.002 -1.1136,2.49884 -1.83195,4.42381 -1.70009,4.55566 0.039,0.039 0.94002,0.29712 2.00224,0.57356 11.47402,2.98599 20.653679,10.48723 25.594189,20.9145 7.29495,15.39649 3.13501,33.99151 -10.067139,45.00046 -5.42622,4.52478 -11.8493,7.42662 -19.01918,8.59259 -2.42969,0.3951 -7.50999,0.55162 -9.871,0.3041 z m 8.03446,-9.20653 c 8.07994,-0.97671 14.37308,-4.17142 19.35832,-9.82725 4.129979,-4.68553 6.334629,-9.94136 7.027239,-16.75283 0.79235,-7.79239 -2.455,-16.52777 -8.342819,-22.44214 -4.66392,-4.68496 -10.73387,-7.69028 -16.57545,-8.20676 l -1.4949,-0.13218 0.55016,1.20777 c 2.44597,5.36974 3.46091,8.2452 4.3993,12.46393 1.07996,4.85519 0.76452,8.1781 -1.15601,12.17713 -1.15813,2.41156 -1.77177,3.39486 -3.8953,6.24207 -2.94477,3.9483 -3.98619,6.37657 -4.37524,10.20177 -0.31893,3.13575 -0.006,5.72318 1.33302,11.00355 0.44516,1.75612 1.26741,4.27458 1.39563,4.27458 0.0231,0 0.82222,-0.0943 1.77605,-0.20964 z m -6.96374,-0.25627 c -0.06427,-0.12853 -0.77509,-2.05627 -1.72242,-4.2502 -2.86962,-6.64575 -4.21771,-11.14323 -4.2091,-14.04223 0.006,-1.8277 0.51804,-3.8899 1.41644,-5.69827 0.79819,-1.60672 1.42121,-2.49346 4.56583,-6.49855 3.6445,-4.64177 4.30202,-7.01046 3.84873,-13.86492 -0.3985,-6.02606 -1.30855,-12.12213 -1.92127,-12.86989 -0.32851,-0.40093 -3.50889,-0.16279 -6.2988,0.47162 -9.90674,2.25283 -18.0457,9.64262 -21.23242,19.27807 -1.01873,3.08032 -1.27356,4.88486 -1.26995,8.99352 0.004,3.95747 0.18953,5.81199 0.83517,8.32448 2.61724,10.18489 11.05874,18.30151 20.90344,20.09895 2.04037,0.37253 5.419468,0.72762 5.263155,0.41501 z"
                     style="fill:url(#linearGradient3394);fill-opacity:1;stroke-width:0.05913239"
                     transform="translate(-7.1578502e-6,-4.24819e-6)" />
                  <path
                     sodipodi:nodetypes="ccsccscccsccccc"
                     inkscape:connector-curvature="0"
                     transform="matrix(0.01564545,0,0,0.01564545,239.16202,701.09276)"
                     id="path3360"
                     d="m -10751.046,-7438.8691 c 100.099,47.0128 146.008,449.492 171.478,834.6562 28.973,438.1126 -13.054,589.51 -245.998,886.1953 -200.993,255.991 -240.814,312.6674 -291.832,415.3633 -57.422,115.5844 -90.152,247.3929 -90.536,364.2129 -0.55,185.2936 85.618,472.7622 269.034,897.5352 60.55,140.228 117.698,290.0055 121.807,298.2207 54.333,19.4491 227.358,8.9929 319.861,3.2148 -8.195,0 -60.749,-160.97 -89.202,-273.2148 -85.585,-337.5024 -105.582,-502.8866 -85.197,-703.3125 24.867,-244.4932 91.428,-399.6994 279.647,-652.0606 135.73,-181.9835 174.953,-244.8325 248.976,-398.9707 122.753,-255.6038 142.916,-467.992 73.889,-778.3184 -59.979,-269.6461 -160.21,-531.8784 -316.548,-875.093 -139.809,-29.7819 -289.924,-19.8998 -365.379,-18.4284 z"
                     style="fill:url(#linearGradient3396);fill-opacity:1;stroke-width:3.77952719" />
                  <path
                     style="fill:url(#linearGradient3398);fill-opacity:1;stroke-width:0.05913239"
                     d="m 72.451291,575.56165 1.05979,-3.17219 c 1.2564,-3.76075 1.7002,-4.78332 2.4728,-5.69746 0.54168,-0.64094 0.63419,-0.67485 1.49037,-0.54646 1.21354,0.18198 3.86902,1.07261 4.69938,1.57616 0.46794,0.28375 0.66514,0.55635 0.66514,0.91943 0,0.28384 -0.49853,1.63474 -1.10784,3.002 -1.1136,2.49884 -1.83195,4.42381 -1.70009,4.55566 -3.166623,-0.50562 -7.612894,-0.63714 -7.57955,-0.63714 z"
                     id="path3362"
                     inkscape:connector-curvature="0"
                     sodipodi:nodetypes="cccccsccc"
                     inkscape:export-xdpi="163.86685"
                     inkscape:export-ydpi="163.86685" />
                </g>
              </g>
              <path
                 sodipodi:nodetypes="ccccccc"
                 inkscape:connector-curvature="0"
                 id="path3368"
                 d="m -28.378162,651.00772 c 9.607791,-0.0583 10.51946,-1.47959 10.625,-8 v -25.94891 -8.15265 -29.91406 c -6.985209,-0.77688 -13.20886,-0.7922 -10.625,8 z"
                 style="font-style:normal;font-variant:normal;font-weight:bold;font-stretch:normal;font-size:105.83333588px;line-height:1.25;font-family:'Century Gothic';-inkscape-font-specification:'Century Gothic Bold';letter-spacing:2.64583325px;word-spacing:0px;fill:url(#linearGradient3400);fill-opacity:1;stroke:none;stroke-width:0.01047886" />
              <path
                 sodipodi:nodetypes="cccccc"
                 inkscape:connector-curvature="0"
                 id="path3370"
                 d="m 189.9979,624.5999 c 2.9733,-5.48924 11.8669,-3.4911 11.93279,-9.87794 H 167.626 c -0.6919,7.7396 3.40876,9.60891 9,9.5918 l 9.75389,0.38392 z"
                 style="font-style:normal;font-variant:normal;font-weight:bold;font-stretch:normal;font-size:105.83333588px;line-height:1.25;font-family:'Century Gothic';-inkscape-font-specification:'Century Gothic Bold';letter-spacing:2.64583325px;word-spacing:0px;fill:url(#linearGradient3402);fill-opacity:1;stroke:none;stroke-width:0.01047886" />
              <path
                 inkscape:connector-curvature="0"
                 id="path3372"
                 d="m 254.58303,575.40283 c -20.48053,0.13213 -38.12403,19.37879 -36.36523,39.82617 0.35439,20.24861 19.23217,37.88063 39.65234,35.95117 20.81719,-0.281 37.96466,-21.00686 35.0918,-41.60742 -1.34959,-19.0282 -19.14313,-35.36103 -38.37891,-34.16992 z m 1.07617,10.14062 c 16.26846,-0.58381 29.57068,15.98616 26.7768,31.7715 -1.33387,15.25797 -17.3537,27.17821 -32.37445,23.30858 -13.58365,-2.56203 -23.12885,-16.4706 -21.18946,-30.06445 0.69016,-13.72435 12.90376,-25.52284 26.78711,-25.01563 z"
                 style="font-style:normal;font-variant:normal;font-weight:bold;font-stretch:normal;font-size:105.83333588px;line-height:1.25;font-family:'Century Gothic';-inkscape-font-specification:'Century Gothic Bold';letter-spacing:2.64583325px;word-spacing:0px;fill:url(#linearGradient3404);fill-opacity:1;stroke:none;stroke-width:0.01047886" />
            </g>
          </g>
        </g>
      </g>
    </g>
  </g>
</svg>
