<?xml version="1.0" encoding="UTF-8" standalone="no"?>
<!-- Created with Inkscape (http://www.inkscape.org/) -->

<svg
   xmlns:dc="http://purl.org/dc/elements/1.1/"
   xmlns:cc="http://creativecommons.org/ns#"
   xmlns:rdf="http://www.w3.org/1999/02/22-rdf-syntax-ns#"
   xmlns:svg="http://www.w3.org/2000/svg"
   xmlns="http://www.w3.org/2000/svg"
   xmlns:sodipodi="http://sodipodi.sourceforge.net/DTD/sodipodi-0.dtd"
   xmlns:inkscape="http://www.inkscape.org/namespaces/inkscape"
   width="210.60834mm"
   height="233.32767mm"
   viewBox="0 0 210.60834 233.32767"
   version="1.1"
   id="svg8"
   inkscape:version="0.92.4 (5da689c313, 2019-01-14)"
   sodipodi:docname="shoppingBag.svg">
  <defs
     id="defs2" />
  <sodipodi:namedview
     id="base"
     pagecolor="#ffffff"
     bordercolor="#666666"
     borderopacity="1.0"
     inkscape:pageopacity="0.0"
     inkscape:pageshadow="2"
     inkscape:zoom="0.35"
     inkscape:cx="-129.14284"
     inkscape:cy="361.35695"
     inkscape:document-units="mm"
     inkscape:current-layer="layer1"
     showgrid="false"
     fit-margin-top="0"
     fit-margin-left="0"
     fit-margin-right="0"
     fit-margin-bottom="0"
     inkscape:window-width="1920"
     inkscape:window-height="1001"
     inkscape:window-x="-9"
     inkscape:window-y="-9"
     inkscape:window-maximized="1" />
  <metadata
     id="metadata5">
    <rdf:RDF>
      <cc:Work
         rdf:about="">
        <dc:format>image/svg+xml</dc:format>
        <dc:type
           rdf:resource="http://purl.org/dc/dcmitype/StillImage" />
        <dc:title></dc:title>
      </cc:Work>
    </rdf:RDF>
  </metadata>
  <g
     inkscape:label="Layer 1"
     inkscape:groupmode="layer"
     id="layer1"
     transform="translate(-5.8208286,-11.114689)">
    <path
       inkscape:connector-curvature="0"
       id="path828"
       d="m 5.8208286,244.35352 c 0,-0.15298 3.10667,-27.85096 4.3524404,-38.80487 0.65372,-5.74807 1.78977,-15.74932 2.52457,-22.225 3.03953,-26.78723 4.01619,-35.36296 5.28826,-46.43438 0.73567,-6.40292 1.74937,-15.27307 2.25266,-19.71146 0.5033,-4.43838 1.62864,-14.26104 2.50077,-21.82812 0.87212,-7.56709 1.89379,-16.49677 2.27038,-19.84375 0.37659,-3.34698 0.79446,-6.3533 0.9286,-6.68073 l 0.2439,-0.59531 h 18.6671 c 14.69781,0 18.69081,-0.0703 18.77861,-0.33073 0.0613,-0.1819 0.23577,-3.78354 0.38764,-8.00364 0.38672,-10.74618 1.02952,-14.46109 3.46061,-19.99973 2.90895,-6.62736 7.31074,-12.66082 12.39879,-16.99485 6.09399,-5.19091 12.29679,-8.44735 19.74046,-10.36367 4.689871,-1.20737 8.076811,-1.56008 13.225331,-1.37726 6.58246,0.23374 12.39671,1.63452 18.26008,4.39926 5.10214,2.4058 8.71209,4.93127 13.06301,9.13873 5.80911,5.61756 9.41867,11.31585 11.9293,18.83241 1.47771,4.4241 1.82385,7.0294 2.13915,16.10052 0.15174,4.36563 0.32652,8.08633 0.38839,8.26823 0.0886,0.2604 4.08231,0.33073 18.7796,0.33073 h 18.66711 l 0.23894,0.59531 c 0.13142,0.32743 0.55002,3.33375 0.93023,6.68073 0.38021,3.34698 1.40396,12.27666 2.27499,19.84375 0.87104,7.56708 1.93487,16.85395 2.36407,20.6375 0.42921,3.78354 1.44159,12.65369 2.24975,19.71146 2.63865,23.04365 3.83698,33.55056 5.16011,45.24375 0.71629,6.33015 1.96524,17.34344 2.77544,24.47396 1.48811,13.09657 4.36804,38.76726 4.36804,38.9351 0,0.05 -47.38688,0.0909 -105.30417,0.0909 -57.917281,0 -105.3041614,-0.04 -105.3041614,-0.0889 z m 200.5362114,-8.8734 c 0.30047,-0.56144 -0.80685,-10.69744 -9.51328,-87.08147 -0.73811,-6.47568 -1.80965,-15.88162 -2.3812,-20.90209 -0.57154,-5.02047 -1.75219,-15.31937 -2.62367,-22.88646 -0.87147,-7.56708 -1.8993,-16.49677 -2.28406,-19.84374 -0.38477,-3.34698 -0.83711,-6.38307 -1.00521,-6.74687 L 188.24398,77.35803 173.96,77.28483 c -7.85618,-0.0403 -14.55186,-0.008 -14.87928,0.0712 -0.59371,0.144 -0.59531,0.15927 -0.59531,5.6602 v 5.51581 l 1.22111,0.95136 c 2.38033,1.8545 3.41238,4.0516 3.37701,7.18922 -0.0393,3.48673 -1.88279,6.53639 -4.89215,8.09309 -1.73467,0.89731 -5.13923,1.01722 -7.16765,0.25244 -1.97738,-0.74552 -3.95774,-2.54833 -4.89427,-4.45547 -0.64846,-1.32052 -0.7397,-1.80598 -0.73106,-3.89006 0.0125,-3.02239 0.52402,-4.21649 2.88118,-6.72626 l 1.73916,-1.85175 v -4.92266 c 0,-2.88734 -0.11324,-5.13426 -0.27389,-5.43444 -0.26886,-0.50236 -0.97912,-0.51177 -38.61986,-0.51177 H 72.779029 l -0.28981,0.54151 c -0.18958,0.35423 -0.26142,2.26727 -0.20775,5.5317 l 0.0821,4.9902 1.66245,1.7306 c 2.30152,2.39586 2.83547,3.64868 2.83547,6.65286 0,2.07252 -0.0961,2.57686 -0.74093,3.89006 -0.93653,1.90714 -2.91689,3.70995 -4.89427,4.45547 -2.02842,0.76478 -5.43297,0.64487 -7.16764,-0.25244 -3.00936,-1.5567 -4.85283,-4.60636 -4.89215,-8.09309 -0.0326,-2.89017 0.61262,-4.40744 2.7854,-6.55014 l 1.81272,-1.78764 v -5.41721 c 0,-5.39868 -0.002,-5.41771 -0.59531,-5.5616 -0.32742,-0.0794 -7.0231,-0.11145 -14.87928,-0.0712 l -14.28398,0.0732 -0.30458,0.66146 c -0.16752,0.3638 -0.7387,4.41192 -1.26929,8.99582 -1.25567,10.84798 -3.30487,28.71219 -4.78018,41.67188 -0.64607,5.67531 -1.65796,14.54547 -2.24865,19.71146 -0.59069,5.16599 -1.72901,15.16724 -2.5296,22.225 -6.65433,58.66278 -7.26401,64.3272 -6.98075,64.85647 0.2585,0.48302 2.6789,0.49561 95.232031,0.49561 92.55314,0 94.97354,-0.0126 95.23205,-0.49561 z M 149.85814,67.81139 c 0.51178,-1.33369 -0.12967,-13.53963 -0.91374,-17.38711 -2.3171,-11.3702 -10.81027,-22.06884 -21.43489,-27.00101 -4.65739,-2.16206 -7.56361,-2.93156 -12.77445,-3.3824 -10.236,-0.8856 -18.924001,1.5623 -26.965861,7.59781 -7.19119,5.39708 -12.97707,14.69233 -14.60286,23.46008 -0.80755,4.3551 -1.25161,15.5162 -0.66121,16.61937 0.26886,0.50237 0.9804,0.51177 38.733151,0.51177 34.82574,0 38.47443,-0.0395 38.61986,-0.41851 z"
       style="fill:#ffffff;fill-opacity:1;stroke-width:0.26458335" />
  </g>
</svg>
