<?xml version="1.0" encoding="UTF-8" standalone="no"?>
<!-- Created with Inkscape (http://www.inkscape.org/) -->

<svg
   xmlns:dc="http://purl.org/dc/elements/1.1/"
   xmlns:cc="http://creativecommons.org/ns#"
   xmlns:rdf="http://www.w3.org/1999/02/22-rdf-syntax-ns#"
   xmlns:svg="http://www.w3.org/2000/svg"
   xmlns="http://www.w3.org/2000/svg"
   xmlns:sodipodi="http://sodipodi.sourceforge.net/DTD/sodipodi-0.dtd"
   xmlns:inkscape="http://www.inkscape.org/namespaces/inkscape"
   width="215.07422mm"
   height="237.37547mm"
   viewBox="0 0 215.07422 237.37548"
   version="1.1"
   id="svg8"
   inkscape:version="0.92.4 (5da689c313, 2019-01-14)"
   sodipodi:docname="shoppingBag2.svg">
  <defs
     id="defs2" />
  <sodipodi:namedview
     id="base"
     pagecolor="#ffffff"
     bordercolor="#666666"
     borderopacity="1.0"
     inkscape:pageopacity="0.0"
     inkscape:pageshadow="2"
     inkscape:zoom="0.35"
     inkscape:cx="-120.70339"
     inkscape:cy="368.95968"
     inkscape:document-units="mm"
     inkscape:current-layer="layer1"
     showgrid="false"
     fit-margin-top="0"
     fit-margin-left="0"
     fit-margin-right="0"
     fit-margin-bottom="0"
     inkscape:window-width="1920"
     inkscape:window-height="1001"
     inkscape:window-x="-9"
     inkscape:window-y="-9"
     inkscape:window-maximized="1" />
  <metadata
     id="metadata5">
    <rdf:RDF>
      <cc:Work
         rdf:about="">
        <dc:format>image/svg+xml</dc:format>
        <dc:type
           rdf:resource="http://purl.org/dc/dcmitype/StillImage" />
        <dc:title></dc:title>
      </cc:Work>
    </rdf:RDF>
  </metadata>
  <g
     inkscape:label="Layer 1"
     inkscape:groupmode="layer"
     id="layer1"
     transform="translate(-3.5878906,-9.0784386)">
    <path
       style="fill:#ffffff;fill-opacity:1;stroke-width:0.26458335"
       d="M 109.24805,9.1289062 C 84.316319,9.6007726 61.431747,31.774539 62.130689,57.082877 c -0.965643,2.611274 1.464528,8.658884 -1.704628,9.061859 -11.86244,0.15841 -23.726895,0.05406 -35.590123,0.08573 C 21.694787,76.801574 22.143581,88.2269 20.298366,99.097023 14.684006,148.17205 9.052033,197.24455 3.5878906,246.33594 c 71.6909834,0.15638 143.3832394,0.15888 215.0742194,-0.002 -6.77998,-59.41718 -13.15307,-118.9143 -20.49805,-178.249996 -2.88933,-4.276202 -11.11766,-0.66359 -16.0957,-1.853515 -7.18794,-0.02848 -14.37838,0.06062 -21.56445,-0.125 0.0129,-12.074493 -0.81488,-24.887074 -8.25,-34.990235 C 142.70765,17.103229 126.30668,8.3287972 109.24805,9.1289062 Z m 1.69922,12.7363278 c 20.0503,-0.84101 37.67549,17.700204 36.89588,37.548862 -0.53397,2.249237 2.09247,7.81284 -2.11646,6.713161 -23.80373,0.09375 -47.708074,0.284162 -71.453252,-0.09405 C 73.413552,53.820146 76.521576,40.517245 85.923828,31.85352 92.56399,25.453176 101.69429,21.680161 110.94727,21.865238 Z m 0.17773,57.361328 c 12.17957,0.229395 24.9896,-0.43734 36.82031,0.376954 0.22059,4.043758 0.76482,8.190078 -2.74609,10.878906 -7.67382,9.991868 7.54916,23.162048 16.39062,14.310548 4.96548,-4.47128 4.68578,-13.562715 -1.10351,-17.236329 -0.23952,-4.698953 -1.23466,-10.244132 5.23046,-8.284615 7.02547,-0.01335 14.05081,0.05023 21.07618,0.07758 6.11469,51.405614 12.06558,103.084254 17.53125,154.412114 -62.13607,0.34338 -124.281895,0.34085 -186.41797,0 5.542214,-51.45511 11.399349,-103.02649 17.560547,-154.412114 8.555145,0.359395 18.584127,-0.864685 26.289062,0.490235 0.387105,4.318835 0.239694,8.191383 -3.115234,11.109375 -4.679573,7.153784 1.883538,18.144464 10.583984,16.517584 8.49441,-0.36136 12.922943,-11.912166 7.056641,-17.949225 -3.211926,-2.398867 -1.687962,-6.764466 -1.972656,-10.291016 12.272135,1e-6 24.544271,0 36.816406,0 z"
       id="path828"
       inkscape:connector-curvature="0" />
  </g>
</svg>
