<svg viewBox="0 0 16.58276 16.01433">
  <defs>
    <linearGradient id="a" >
        <stop
          style="stop-color:#728c5b;stop-opacity:1"
          offset="0"
        />
        <stop
          style="stop-color:#ce2828;stop-opacity:1"
          offset="1"
        />
    </linearGradient>


    <linearGradient id="b">
      <stop
        style="stop-color:#8a120f;stop-opacity:1"
        offset="0"
      />
      <stop
        style="stop-color:#fb604e;stop-opacity:1"
        offset="1"
      />
    </linearGradient>

  </defs>
  <ellipse cx="-2.41177" cy="12.84626" fill="url(#a)" rx="3.02994" ry="2.85713" transform="matrix(-.92759 .3736 .42428 .90553 0 0)"/>
  <ellipse cx="-8.26633" cy="12.07245" fill="url(#b)" rx="3.02994" ry="2.85713" transform="matrix(-.92759 .3736 .42428 .90553 0 0)"/>
  <ellipse cx=".39645" cy="8.81446" fill="url(#a)" rx="3.02994" ry="2.85713" transform="matrix(-.92759 .3736 .42428 .90553 0 0)"/>
  <ellipse cx="-8.25869" cy="9.80388" fill="url(#b)" rx="3.33372" ry="3.14359" transform="matrix(-.88487 -.46583 -.41624 .90925 0 0)"/>
  <ellipse cx="-10.25014" cy="1.62255" fill="url(#a)" rx="3.33372" ry="3.14359" transform="matrix(-.88487 -.46583 -.41624 .90925 0 0)"/>
  <ellipse cx="-13.51834" cy="-3.34816" fill="url(#b)" rx="3.33372" ry="3.14359" transform="matrix(-.88487 -.46583 -.41624 .90925 0 0)"/>
</svg>
