<svg viewBox="0 0 34.27514 24.89106">
<defs/>
<path fill="#70b037" d="M6.57915 3.1464c-1.50624.20804-2.1889.17154-3.36092.46785L1.43313.47745C.63985-.20804.16207-.03639.01038.25757c-.17596.78672 1.94624 4.07989 1.79928 4.93214-.34208 2.06071.28407 4.91434 1.2644 6.85736.97106 1.96698 3.72857 5.09142 6.11821 6.62208 1.51167.97868 3.5499 1.93665 9.84062 4.81619 8.89361 2.6715 10.02866.7411 13.8291.59576.27021-.01033.75252.05794 1.13928-.12184.72655-.33774-.2224-1.93821-.2224-1.93821-.73944-.9115-.28245-4.44177-1.32472-6.11318-.95077-1.92679-2.07665-3.87213-3.90793-5.43684-3.19596-2.71926-8.13803-4.1641-11.96447-6.38456-.95428-.56108-4.39578-.5969-4.8929-.75658-1.85023-.311-3.33447-.10724-5.1097-.1835z"/>
<path fill="#79d12c" d="M7.30304 16.27138s-.14215-.29738-1.27423-2.0883c-.56991-.90158-1.3394-3.43872-1.12663-7.09547.78142.61793 1.78387 1.33359 3.04573 2.13852-.09463.27079-.1726.87628-.09602 1.88293.15001 1.9719.97131 4.599 1.4199 5.46687.27358.52931 1.6504 2.23489 1.6504 2.23489s-.14215-.29739-1.27423-2.0883c-.57006-.90182-1.49955-3.56965-1.5032-7.37125 1.40842.89164 2.9083 1.79655 4.42207 2.6816-.10176.30145-.19829.87356-.19543 1.77271.0063 1.97702.3783 3.46488.76272 4.35998.23445.5459 1.484 2.33717 1.484 2.33717s-.12018-.30581-1.11935-2.16638c-.49895-.9291-.97247-2.45712-.71294-6.17482 1.36784.7972 2.74143 1.57485 4.06704 2.30816-.10312.29836-.2021.873-.19922 1.78317.006 1.97701.20127 2.59887.58568 3.49397.23446.54592.90581 1.58864.90581 1.58864s.45802.44272-.54115-1.41784c-.49983-.93071-.80085-1.61338-.53504-5.32911 1.67416.9237 3.25726 1.76953 4.64218 2.48932-.0987.29793-.20373.81626-.23412 1.595-.0669 1.71453.0772 2.05547.4616 2.95057.23444.54591.77993 1.34675.77993 1.34675s.5839.68461-.41529-1.17595c-.48665-.90618-.80333-2.39894-.44429-4.6396 1.46503.75968 2.70116 1.3755 3.54664 1.7701.20438.09539.44007.21292.6879.33924-.0805.1395-.17897.40935-.22572.75564-.0961.71209-.0781 1.96847.46833 2.73862.34703.48911.87407 1.0113.87407 1.0113s.47033.48499-.67033-1.08634c-.25458-.3507-.75892-.9759-.33415-3.35666.00034-.0019.00033-.0032.00066-.0051 2.46433 1.26769 6.59048 3.74722 6.58258 3.74081 0 0 1.2406-.2259-8.41755-5.56163 3.6213-.76325 4.37378-.58895 5.39872-.27182 2.09421.64798 1.56197.28742 1.56197.28742s-1.191-.46728-1.79639-.60243c-.99263-.2216-1.6711-.30805-3.7333-.0084-.86445.12559-1.42549.28726-1.74237.42294-.68208-.37545-1.4151-.77464-2.20604-1.20077-.59286-.31942-1.2193-.64671-1.86773-.98421.0483-.0071.11962-.03651.21282-.09541 3.35272-2.11885 5.0093-2.4915 6.12051-2.54217 2.20047-.10032 2.5405-.15321 2.5405-.15321s-2.26114-.13994-2.87767-.06218c-1.01089.1275-2.55879.55907-4.37365 1.5342-1.2317.6618-1.69207 1.14738-1.6902 1.28345-2.3887-1.24311-5.1986-2.69762-8.84131-5.02159.03901-.017.08325-.03997.13594-.07456 3.31276-2.17455 6.16938-2.97257 7.27948-3.0418 2.19825-.13708 2.53717-.19554 2.53717-.19554s-2.26338-.10208-2.87837-.01403c-1.00836.14437-3.7554.99943-5.55183 2.00474-1.0699.59875-1.5456 1.05012-1.64387 1.24412-1.20435-.77087-2.50028-1.63852-3.89751-2.62116 3.24916-1.78733 5.90601-2.29143 6.99405-2.22876 2.19897.12665 2.54308.10917 2.54308.10917s-2.23188-.37166-2.85368-.3578c-1.01952.02275-3.25018.5866-5.29892 1.48043-.80455.35101-1.30528.6449-1.58688.85477-1.0562-.74606-2.16956-1.5572-3.3489-2.44658-1.32175-.99677-1.59763-.12424 1.2165 2.14542-.09445.27307-.17998.8888-.12655 1.95324.10716 2.1349.60726 4.27068 1.05583 5.13855.27358.52931 1.65027 2.23477 1.65027 2.23477zm7.98517-3.84423c.0353.02232.12894-.0054.26559-.09177 3.35272-2.11885 5.0093-2.4915 6.12051-2.54216C23.87478 9.6929 24.21482 9.64 24.21482 9.64s-2.26114-.13994-2.87767-.06218c-1.01088.1275-2.55892.5592-4.37378 1.53434-1.36114.73135-1.78094 1.24805-1.67516 1.31498z"/>
</svg>