<svg viewBox="0 0 8.34461 12.87627">
  <defs/>
  <path fill="#70b037" d="M.4026 10.23058c.10517.53219.10302.7758.23605 1.18742L.0471 12.76253c-.24744.29493.55506-.0826.66963-.03403.3027.04812.21911-.87487.54627-.83827.79081.08377 1.86698-.19163 2.5902-.5763.73251-.3818 1.87514-1.42067 2.41704-2.29926.34675-.55598.67656-1.29897 1.6651-3.59067.86448-3.21415.10966-3.5825-.0111-4.93227-.009-.09597.009-.26887-.066-.40319-.14115-.25233-.73443.11486-.73443.11486-.33446.27993-1.687.18234-2.3057.58405-.71756.37384-1.43916.81034-2.00364 1.49086C1.83372 3.46574 1.36845 5.25107.58854 6.65368.39125 7.0036.43685 8.22898.38458 8.40883c-.0866.66416.0165 1.1886.0181 1.82175z"/>
  <path fill="#79d12c" d="M5.38943 9.73116s-.11083.05607-.7735.49193c-.3336.21942-1.28675.54-2.68327.53165.22192-.28946.47726-.65939.76214-1.12327.10477.0287.33674.04528.71886-.00052.74851-.08971 1.73503-.43039 2.0579-.60601.1969-.10711.82284-.6285.82284-.6285s-.11082.05607-.77349.49193c-.3337.21948-1.33387.5994-2.78184.67074.31538-.51763.63425-1.06806.94531-1.62306.11657.03066.33615.05447.6786.03689.75292-.03866 1.31325-.19847 1.64757-.35176.2039-.09349.8647-.57117.8647-.57117s-.11443.0484-.80592.43826c-.3453.19468-.91918.39134-2.33972.36747.28012-.50145.55268-1.00459.80918-1.48984.11542.0312.336.05584.68263.03804.75294-.03866.98645-.1195 1.32078-.2728.2039-.09349.58952-.3516.58952-.3516s.16075-.17116-.53074.21869c-.3459.19502-.60076.31472-2.02065.28858.32302-.61279.61795-1.19174.86828-1.69785.11517.02964.31442.05746.61156.05393.65422-.0078.7816-.06534 1.11593-.21863.2039-.09349.49955-.30236.49955-.30236s.25072-.2204-.44077.16945c-.33679.18988-.89993.33007-1.75958.24359.26415-.53535.47744-.9866.61318-1.29474.0328-.07449.0735-.16053.11738-.25105.0545.02607.159.05615.29171.0664.2729.0211.75114-.0085 1.03508-.21712.18033-.1325.37016-.32968.37016-.32968s.17663-.17631-.40225.25856c-.1292.09706-.35866.28805-1.2728.18076-.00074-.00009-.001-.00007-.002-.00015C6.6662 2.0476 7.53964.53356 7.53733.5365c0 0-.1074-.43732-1.97353 3.09798-.35306-1.27463-.29962-1.54562-.19647-1.9162.21077-.7572.0826-.56115.0826-.56115s-.15749.43244-.19855.65037c-.0673.35732-.0886.60036.061 1.3287.0627.30532.13396.502.1911.61226a97.81374 97.81374 0 00-.4194.80718c-.11147.21686-.22535.44582-.34275.6828-.004-.01707-.016-.0419-.04-.07399C3.83655 4.01036 3.6661 3.42771 3.62767 3.0332c-.0761-.78122-.10209-.90125-.10209-.90125s-.0144.80724.0259 1.0252c.066.3574.257.9003.65966 1.52817.27328.42613.46616.58101.51796.57784-.43239.87296-.93804 1.8997-1.76054 3.23883-.007-.01357-.0167-.02889-.0307-.047-.8853-1.13883-1.23845-2.1407-1.28392-2.53447-.0901-.77976-.11816-.89929-.11816-.89929s.00008.80734.0442 1.02457c.0724.35618.44533 1.318.85917 1.93877.24648.36971.4266.53068.50218.56207-.27289.4428-.58107.91995-.9313 1.43529-.73673-1.12334-.97447-2.05953-.96933-2.44788.0104-.78487-.002-.90701-.002-.90701s-.10315.8011-.0872 1.02212c.0262.3624.27938 1.14582.6551 1.85843.14755.27984.26811.45262.3529.54897-.266.3896-.5558.80075-.87426 1.23683-.35692.48873-.0198.57083.79625-.47244.10563.02858.34164.04768.74617.0091.81133-.07747 1.61624-.29479 1.9391-.4704.1969-.10712.82281-.62846.82281-.62846zm-1.6017-2.77082c.008-.01296-.004-.0458-.0395-.09282-.86479-1.15408-1.03524-1.73674-1.07367-2.13124-.0761-.78123-.10209-.90126-.10209-.90126s-.0144.80724.0258 1.02521c.066.35739.25705.90033.65972 1.5282.302.47092.50603.61079.52971.57191z"/>
</svg>
