<svg viewBox="0 0 23.9245 9.09327">
  <defs/>
  <path fill="#70b037" d="M3.69345 1.62236c-.72152.42098-1.07627.54528-1.60917.9412l-1.236-.27452C.29963 2.1065.01475 2.48479 0 2.666c.0774.43685 1.59639.5293 1.70248.9934.26326 1.1194 1.18689 2.43937 2.09739 3.2222.91086.79696 2.97535 1.80862 4.51476 2.08687.97602.1813 2.28166-.023 6.0902.12479 3.72483-.6398 5.72569-.71535 7.6267-1.58453.13516-.0618 1.66955-.52224 1.828-.69459.29768-.32377-.52421-.93899-.52421-.93899-.56922-.30874-1.16844-1.23339-2.0528-1.86515-.89203-.78076-3.62856-2.3171-4.89137-2.7295C14.18974.5666 11.39348.33555 8.9774.00722c-.60411-.0856-2.36109.61636-2.64765.6392-1.00649.22903-1.71773.64323-2.6363.97593z"/>
  <path fill="#79d12c" d="M6.84564 8.1446s-.13534-.12146-1.09071-.7952c-.48095-.33917-1.4103-1.46822-2.07786-3.3721.52829.15067 1.18967.3048 2.00185.45003.009.15749.0982.48168.35062.9775.49456.97129 1.46933 2.13523 1.88146 2.48265.25135.2119 1.31302.79102 1.31302.79102s-.13534-.12146-1.09071-.7952c-.48108-.33926-1.51948-1.50128-2.32778-3.43354.90507.15865 1.85945.30492 2.81668.43817.0122.17457.0845.48568.2767.94228.42259 1.00394.92732 1.68263 1.3126 2.05733.23498.22852 1.25014.87785 1.25014.87785s-.12597-.13035-1.02855-.86731c-.45072-.36802-1.01556-1.0459-1.67228-2.99056.86442.11913 1.7276.2271 2.55699.32258.011.17327.0825.48618.27701.94838.42258 1.00395.65361 1.27935 1.03889 1.65404.23498.22852.79744.61823.79744.61823s.32674.12927-.57585-.60769c-.4515-.36865-.74933-.65278-1.40244-2.59776 1.04695.11935 2.0311.21815 2.88778.29434.013.17214.0696.45768.21933.86.32969.88581.47527 1.02901.86055 1.4037.23498.22853.68215.52159.68215.52159s.44203.22592-.46056-.51104c-.4396-.35894-.91723-1.0517-1.21005-2.26615.90586.07971 1.66484.13417 2.17832.15788.12413.0057.26887.01618.42164.02855-.0113.08777-.004.2456.0455.43146.10219.3822.37787 1.01726.81901 1.29451.28016.17609.65884.33132.65884.33132s.34196.14818-.57119-.4121c-.2038-.12506-.59279-.33741-.88191-1.63686-.00023-.001-.0005-.0017-.00077-.0027 1.52159.1289 5.37347.70486 5.3681.70325 0 0-.6458-.55308-6.6871-1.2451 1.67886-1.1459 2.09834-1.21473 2.68661-1.26795 1.20199-.10875.85495-.18071.85495-.18071s-.70453.01162-1.04094.06959c-.55157.09504-.9148.19306-1.8995.77693-.41277.24476-.66366.44436-.79596.57966-.42636-.04817-.88365-.09776-1.3761-.14892-.36911-.03835-.75698-.0737-1.15818-.10961.0231-.0137.0531-.0436.0879-.09305 1.25478-1.77897 2.0178-2.3151 2.5719-2.5734 1.09726-.51148 1.25889-.60953 1.25889-.60953s-1.17907.402-1.47597.57056c-.48681.27637-1.18209.81973-1.89776 1.69534-.48571.59425-.61672.9375-.5869 1.00628-1.47793-.13223-3.2148-.28381-5.55945-.70322.0162-.0168.0338-.03774.0533-.06636 1.22266-1.79893 2.50544-2.80248 3.05504-3.06998 1.08834-.5297 1.24821-.63035 1.24821-.63035s-1.17217.42173-1.4661.59519c-.48195.28442-1.69693 1.29404-2.39684 2.18114-.41684.52833-.56289.85738-.57169.97659-.77572-.13994-1.61852-.30994-2.53722-.5172C6.10916 2.09022 7.35275 1.27793 7.91912 1.0821 9.06376.68635 9.23498.60546 9.23498.60546s-1.21336.27806-1.52649.41523c-.51341.2249-1.52769.9784-2.3795 1.8616-.33451.34685-.52669.60107-.62532.7667-.69515-.15833-1.43316-.3378-2.2213-.54323-.88332-.23025-.83847.27114 1.07348.83632.01.1586.097.4896.35001 1.01966.50735 1.06312 1.21463 2.04446 1.62675 2.39188.25136.2119 1.31293.791 1.31293.791zm3.24354-3.62566c.0226.004.0644-.02973.11554-.10224 1.25478-1.77897 2.0178-2.3151 2.5719-2.5734 1.09726-.51148 1.25889-.60953 1.25889-.60953s-1.17907.40201-1.47597.57056c-.4868.27637-1.18212.81982-1.89779 1.69543-.53676.6567-.64054 1.00728-.57257 1.01918z"/>
</svg>
