<svg viewBox="0 0 24.4435 27.3859">
<defs/>
<path fill="#70b037" d="M3.07587 21.81534c-.001 1.21664-.10589 1.75402 0 2.7151L.1483 27.0815c-.63292.55553.95141.13496 1.16838.28675.60614.22386 2.19466-1.75992 2.85613-1.55203 1.60087.49215 3.93947.30158 5.59313-.26746 1.6717-.5591 4.4616-2.41065 5.94334-4.14136.94563-1.09372 1.64885-2.88537 4.6351-7.56473 1.9346-5.15323 3.31089-7.72423 3.616-10.75327.0217-.21536.5711-2.48293.47094-2.80887-.18815-.6123-1.56594-.03142-1.56594-.03142-.8067.4886-2.40976.562-3.8543 1.20927-1.63747.54733-5.58115 2.85795-7.02817 4.14228-2.51623 2.24264-4.86284 5.58815-7.05219 8.38418-.55183.69653-.96127 3.42153-1.14328 3.79858-.45214 1.43375-.4544 2.63248-.71157 4.03192z"/>
<path fill="#79d12c" d="M13.59336 22.64838s-.25223.08084-1.80173.7865c-.78006.35524-2.88285.6934-5.76725.13268.5779-.55336 1.25798-1.2715 2.03777-2.18577.20486.10406.67774.23079 1.48673.27799 1.58472.09244 3.76477-.27716 4.5046-.53981.4512-.16019 1.95994-1.06906 1.95994-1.06906s-.25222.08084-1.80172.7865c-.78027.35533-3.0047.80635-6.02824.4017.86496-1.02117 1.75061-2.11346 2.622-3.21888.22846.113.67273.25088 1.38808.345 1.57288.20695 2.79725.07147 3.5516-.13738.46009-.12738 2.02288-.92616 2.02288-.92616s-.2565.06251-1.84668.65533c-.79408.29603-2.06163.50769-4.98932-.09665.78538-.99913 1.55584-2.0049 2.28573-2.9774.22585.11375.67186.25384 1.39598.34912 1.57287.20695 2.08898.11901 2.84334-.08984.46008-.12738 1.3636-.54793 1.3636-.54793s.40277-.31571-1.18741.2771c-.79546.29654-1.37166.46204-4.2971-.14705.91989-1.22845 1.76776-2.39306 2.49347-3.41403.22599.11021.62656.24905 1.24247.35663 1.35604.23687 1.6431.15916 2.39748-.0497.46008-.12737 1.1573-.47405 1.1573-.47405s.60907-.3896-.98111.20323c-.7745.28872-1.99663.3798-3.73873-.14509.7663-1.08022 1.39286-1.99435 1.80024-2.62245.0985-.15183.21804-.32611.34593-.50908.10202.07877.3057.1858.57592.25998.55563.15257 1.55674.27296 2.22967-.07777.42737-.22273.90098-.58466.90098-.58466s.43774-.32094-.9381.41506c-.30707.16427-.86007.49715-2.7063-.09488-.001-.00047-.002-.0006-.004-.0011 1.2809-1.81812 4.83733-6.23713 4.83136-6.23156 0 0-1.1702.4052-6.48246 7.49136-.20608-2.95323.0158-3.5312.38147-4.3099.74713-1.59108.40148-1.20771.40148-1.20771s-.50344.89427-.67793 1.35981c-.2861.76332-.42996 1.29204-.42 2.95931.004.6989.0706 1.1611.14347 1.4269-.37407.5006-.77267 1.03903-1.1991 1.6205-.31963.43585-.64925.89748-.98942 1.37545-.00027-.03907-.0158-.09876-.0523-.17898-1.31383-2.88558-1.4268-4.23907-1.34407-5.1256.1638-1.75556.15939-2.03085.15939-2.03085s-.3616 1.7779-.368 2.2751c-.0105.81522.16133 2.08886.73589 3.63244.38994 1.04758.72512 1.46468.83352 1.47778-1.25298 1.76079-2.7207 3.83289-4.97203 6.47214-.009-.03275-.0226-.07029-.0443-.11578-1.36254-2.85988-1.68093-5.2105-1.61309-6.09814.13432-1.75774.12535-2.03274.12535-2.03274s-.33172 1.78374-.32978 2.28082c.003.81502.37906 3.08487.97965 4.61707.3577.91254.664 1.33812.80738 1.43683-.74634.87232-1.57977 1.80688-2.51587 2.80944-1.06166-2.76794-1.16842-4.92865-.99814-5.78467.34414-1.73003.36833-2.00476.36833-2.00476s-.54262 1.72987-.60043 2.2244c-.0948.81083.1067 2.64002.5907 4.36033.19007.67557.36835 1.10412.50407 1.3499-.7102.7575-1.4785 1.55335-2.3163 2.39313-.93899.9412-.27566 1.25349 1.84075-.7346.2067.10418.68688.238 1.53927.30974 1.7096.1439 3.4634-.02369 4.2032-.28633.45122-.16019 1.95985-1.06896 1.95985-1.06896zm-2.1731-6.74372c.0217-.02557.01-.10282-.0436-.22043-1.31383-2.88559-1.4268-4.23908-1.34407-5.1256.1638-1.75556.15939-2.03086.15939-2.03086s-.36159 1.7779-.368 2.2751c-.0105.81523.16142 2.08897.73598 3.63255.43092 1.15768.79534 1.54594.86027 1.46924z"/>
</svg>