<svg viewBox="0 0 21.05459 23.18725">
  <defs/>
  <path fill="#70b037" d="M1.85141 5.24953c.004-1.12301-.0967-1.61723.0113-2.50621L.13014.24432C-.48906-.25745 1.29071.19318 1.5044.04928c.59615-.2172.79041 1.69148 1.44082 1.48805 1.57405-.4822 3.8697-.34708 5.4912.14934 1.63922.48694 4.37112 2.14737 5.81896 3.7191.92402.99307 1.88736 2.37287 4.80033 6.64012 3.02478 6.1908 1.63613 7.23716 1.92316 10.02782.0204.19841.1246.5428.0249.8454-.1873.56848-1.53784.05631-1.53784.05631-.79013-.43693-3.5003.29496-4.9161-.27732-1.60568-.47666-3.24433-1.07906-4.65992-2.23934-2.46154-2.02621-4.11137-5.47083-6.24962-8.01356-.53899-.63331-.92972-3.14151-1.10689-3.48639-.43802-1.31555-.43526-2.42202-.68197-3.7093z"/>
  <path fill="#79d12c" d="M12.18276 4.29717s-.24734-.07022-1.76598-.69456c-.7645-.31432-2.82799-.58979-5.6627-.02191.56516.5007 1.23 1.15174 1.99193 1.98207.2016-.09963.66648-.22486 1.46108-.28253 1.55654-.11297 3.69575.19018 4.42114.41972.44241.14 1.92016.95263 1.92016.95263s-.24734-.07022-1.76597-.69456c-.76472-.3144-2.94716-.69192-5.91788-.26569.84512.92753 1.71026 1.92033 2.56134 2.9255.22481-.10828.66164-.2433 1.3645-.34266 1.54537-.21845 2.74711-.11475 3.487.06488.45125.10956 1.98255.81962 1.98255.81962s-.25162-.05323-1.81067-.5727c-.77853-.2594-2.02234-.43267-4.89977.17622.76707.90856 1.51946 1.82352 2.23215 2.70847.22225-.10894.6608-.24603 1.37225-.3466 1.54538-.21846 2.05182-.1463 2.79172.03334.45125.10955 1.33673.48198 1.33673.48198s.3942.2844-1.16485-.23507c-.77988-.25985-1.345-.40257-4.22023.21067.8982 1.1179 1.72593 2.17811 2.43431 3.10787.22238-.10566.6163-.24081 1.22155-.35085 1.33258-.24229 1.61416-.17557 2.35405.0041.45126.10955 1.13448.4174 1.13448.4174s.59646.349-.96259-.17048c-.75933-.25301-1.95905-.31577-3.67193.19911.748.98375 1.35946 1.81662 1.7569 2.3893.0961.13843.21274.29721.33756.46387.10051-.07449.30097-.17683.56662-.25002.54624-.15051 1.52981-.2791 2.18915.0329.41874.19815.8823.52396.8823.52396s.42852.28862-.91945-.36676c-.30086-.14628-.8425-.4439-2.6579.13477-.001.00047-.002.0006-.004.0011 1.25023 1.6559 3.6225 4.38819 3.61666 4.38314 0 0-.0457.9311-5.23277-5.51721-.21465 2.7296.00085 3.25924.35667 3.97165.72704 1.45563.38922 1.10778.38922 1.10778s-.49064-.81669-.66005-1.24337c-.27777-.6996-.41684-1.18512-.4001-2.7243.007-.6452.0742-1.073.1468-1.31962-.36526-.45555-.75443-.9456-1.17075-1.4749-.31206-.39674-.63382-.8171-.96587-1.25237-.00042.03607-.0159.09143-.0521.16612-1.30214 2.68648-1.41869 3.9378-1.34115 4.75468.15356 1.61763.14807 1.87182.14807 1.87182s-.34767-1.63481-.3519-2.09365c-.007-.7523.16711-1.93094.73772-3.36578.38727-.97379.71814-1.36464.82465-1.37862-1.22308-1.60347-2.65572-3.49055-4.85548-5.88748-.009.03039-.0225.06528-.0439.10764-1.34987 2.6636-1.6723 4.83893-1.60938 5.65709.1246 1.62016.11465 1.87415.11465 1.87415s-.31833-1.6407-.31436-2.09957c.007-.75238.38506-2.85415.9812-4.27894.35504-.84856.65757-1.24673.7988-1.34036-.72926-.79219-1.54379-1.6403-2.45884-2.5494-1.05403 2.57348-1.16785 4.56982-1.0042 5.357.33074 1.59093.35336 1.8441.35336 1.8441s-.52565-1.58731-.58036-2.04278c-.0897-.7468.11575-2.43876.59818-4.03516.18945-.62691.3663-1.0256.5006-1.25483-.69426-.68684-1.44539-1.40806-2.2646-2.16862-.91814-.8524-.26548-1.15223 1.80452.64598.2034-.09976.67548-.23166 1.5128-.31275 1.67937-.16264 3.40085-.03853 4.12624.191.4424.14 1.92006.95255 1.92006.95255zm-2.16196 6.26276c.0212.02322.009.09474-.0437.20423-1.30214 2.68649-1.41869 3.93781-1.34115 4.75469.15356 1.61763.14808 1.87182.14808 1.87182s-.34768-1.63481-.3519-2.09364c-.007-.75232.1672-1.93106.73781-3.3659.42796-1.07612.78743-1.44086.85087-1.3712z"/>
</svg>
