<svg viewBox="0 0 22.66735 40.75276">
<defs/>
<path fill="#70b037" d="M8.63396 35.73556c-1.41726.70574-1.97883 1.13076-3.16464 1.5718l-.4511 2.78805c-.25542 1.01098-1.16058.59346-1.47193.44502-.63643-.53062.39691-3.08336-.25519-3.68348-1.56539-1.45873-2.79206-4.11623-3.15327-6.2468-.38395-2.14446.0458-6.25507 1.14507-8.87091.68898-1.66312 2.34162-3.46627 5.9457-9.42782 4.80794-5.09042 6.952-8.07784 10.2935-10.16373.23758-.1483 2.54024-2.05943 2.9822-2.13903.83023-.14954 1.00673 1.6874 1.00673 1.6874-.0697 1.1615.83782 2.95005.9783 4.89812.37648 2.10038.12645 7.73344-.47408 10.05304-1.0551 4.03892-3.50078 8.53158-5.4034 12.53486-.47 1.00427-3.3925 3.02778-3.71924 3.4443-1.39102 1.32249-2.78682 2.01892-4.25865 3.10918z"/>
<path fill="#79d12c" d="M1.14731 24.7623s.062.32153.19947 2.41774c.0692 1.05529.97775 3.54138 3.41821 6.35842.28697-.94979.7027-2.10627 1.28525-3.48489-.2482-.1629-.68887-.60458-1.24506-1.4584-1.0895-1.67254-2.00928-4.26099-2.16146-5.21885-.0928-.58418.0319-2.75363.0319-2.75363s.062.32152.19948 2.41773c.0692 1.05556.92158 3.73948 3.26633 6.79843.6544-1.53328 1.37886-3.13026 2.12747-4.7193-.27324-.18342-.70917-.5875-1.26205-1.31216-1.21563-1.59335-1.81623-3.00535-2.04013-3.9479-.13656-.57485-.1737-2.73944-.1737-2.73944s.0861.31556.38021 2.39076c.14691 1.03627.68546 2.5394 3.2036 5.37835.678-1.43384 1.373-2.85528 2.05432-4.21326-.2725-.18014-.71209-.58482-1.27174-1.31836-1.21563-1.59335-1.43287-2.2064-1.65677-3.14895-.13656-.57485-.20613-1.80241-.20613-1.80241s.11848-.62147.41265 1.45372c.14715 1.03808.31121 1.76149 2.8335 4.5952.86195-1.71308 1.69411-3.31078 2.43453-4.69227-.26845-.18234-.67844-.53826-1.18539-1.14682-1.11617-1.33986-1.20344-1.69752-1.42734-2.64007-.13656-.57486-.16442-1.53497-.16442-1.53497s.0768-.88892.37094 1.18627c.14327 1.01072.79424 2.39458 2.48528 3.98819.78434-1.46 1.46167-2.67164 1.94138-3.47898.11596-.19516.24502-.42627.37906-.6715-.15502-.0655-.40595-.22541-.65982-.47677-.52204-.51686-1.28256-1.53756-1.29066-2.47355-.005-.59443.1233-1.3198.1233-1.3198s.1029-.66258.0974 1.26205c-.001.42956-.0466 1.22459 1.78716 2.89274.001.0013.002.0023.004.0037 1.32562-2.44768 4.27303-8.87952 4.27023-8.8698 0 0 .25266 1.50914-4.71572 11.39747 3.56986-1.4852 4.10605-2.0615 4.78715-2.91056C21.1714 9.23558 20.93868 9.834 20.93868 9.834s-.73045 1.06605-1.16497 1.52561c-.71245.75352-1.23958 1.21628-3.18908 2.17063-.8172.40006-1.3971.59524-1.75202.6698-.35173.69724-.73238 1.4431-1.14595 2.24417-.30999.60046-.64385 1.22673-.9902 1.87394.0457-.02233.12488-.03997.24101-.04663 4.17727-.2395 5.82483-.90002 6.8069-1.50334 1.94473-1.19474 2.26835-1.3493 2.26835-1.3493s-1.84827 1.4231-2.4238 1.71792c-.94369.4834-2.53466 1.03354-4.68975 1.30135-1.4626.18174-2.1564.05813-2.23883-.05236-1.27608 2.38407-2.78198 5.18226-4.46349 9.16228.0439-.0089.0959-.0161.16237-.01884 4.17748-.17156 7.11454-1.18558 8.10712-1.77333 1.96554-1.1639 2.29163-1.31332 2.29163-1.31332s-1.87356 1.39394-2.45414 1.67959c-.95194.46837-3.83046 1.37301-5.98842 1.60587-1.28522.13868-1.971.05145-2.1749-.04758-.55438 1.3179-1.12735 2.7667-1.71597 4.36667 3.88392-.44605 6.46852-1.58064 7.36078-2.26166 1.80326-1.37637 2.1085-1.56177 2.1085-1.56177s-1.68013 1.59247-2.22072 1.94171c-.88637.57263-3.14322 1.41214-5.4482 1.88089-.90518.18407-1.51512.23798-1.88568.23245-.44294 1.21208-.89459 2.50962-1.35438 3.9083-.5153 1.5676-1.29025 1.02591-.28415-2.4302-.24947-.16482-.70293-.61035-1.3146-1.49723-1.22685-1.77876-2.118-3.78599-2.2702-4.74384-.0928-.58418.0318-2.75346.0318-2.75346zm9.20651-1.53712c.0164-.03838.11366-.0704.28392-.08015 4.17727-.2395 5.82484-.90003 6.8069-1.50335 1.94474-1.19474 2.26835-1.3493 2.26835-1.3493s-1.84826 1.4231-2.4238 1.71792c-.94368.4834-2.53484 1.03351-4.68993 1.3013-1.6163.20086-2.2946.0287-2.24544-.08642z"/>
</svg>