<svg viewBox="0 0 43.40672 25.61813">
<defs/>
<path fill="#70b037" d="M6.545 8.45626c-.63364-1.5464-1.03855-2.17227-1.41057-3.4526L.28995 3.3686c-1.04943-.35859 1.07355-.6945 1.2555-1.00677.61233-.61779 3.55246 1.03181 4.2396.40392C7.4537 1.26011 10.36387.21718 12.64732.03196c2.29996-.20776 6.61553.61342 9.29585 1.9999 1.7049.8711 3.48103 2.76294 9.50177 7.07214 5.00275 5.48978 7.99284 8.00276 9.93327 11.68687.13795.26194 1.97642 2.84352 2.02536 3.31304.0919.88203-1.86604.90058-1.86604.90058-1.22355-.17796-3.18869.6097-5.26138.58052-2.25271.20393-8.19371-.56693-10.60037-1.40486-4.18979-1.46892-8.74865-4.43351-12.833-6.78578-1.0252-.58245-2.93309-3.82262-3.34776-4.20206C8.20665 11.6176 7.58116 10.0945 6.545 8.45626z"/>
<path fill="#79d12c" d="M18.75498 1.61669s-.3452.03582-2.5744-.0099c-1.12225-.02303-3.82563.70262-7.00158 3.00086.98217.38607 2.17277.92553 3.58512 1.65957.19215-.24496.69478-.66596 1.64273-1.17058 1.85692-.9885 4.6695-1.71664 5.69528-1.78923.6256-.04428 2.91139.2823 2.91139.2823s-.3452.03581-2.57441-.0099c-1.12254-.02305-4.03076.62594-7.45506 2.8022 1.57028.82319 3.20236 1.72543 4.8241 2.65221.21594-.26925.67835-.68874 1.48935-1.20158 1.78319-1.1276 3.32536-1.62821 4.34066-1.77722.61922-.09087 2.91279.066 2.91279.066s-.34081.06147-2.5603.18157c-1.10834.05998-2.74198.48745-5.9473 2.86496 1.46315.83889 2.91183 1.69444 4.29444 2.52995.21252-.26864.67574-.69203 1.49668-1.21115 1.7832-1.1276 2.44927-1.29943 3.46458-1.44843.61922-.09087 1.92379-.05266 1.92379-.05266s.64818.18012-1.5713.30023c-1.11026.06008-1.88888.1663-5.08901 2.5486 1.74397 1.0566 3.3682 2.07156 4.77099 2.97102.21442-.26433.62378-.66105 1.30825-1.13635 1.507-1.04646 1.89246-1.10542 2.90776-1.25442.61922-.09088 1.63745-.03322 1.63745-.03322s.93454.16068-1.28495.28078c-1.081.0585-2.59741.61435-4.41884 2.23924 1.48234.9525 2.71042 1.77059 3.52644 2.3454.19726.13896.43152.29487.6803.45725.0817-.15625.27097-.40428.55723-.64713.58865-.49937 1.7295-1.20266 2.72062-1.1265.62945.04836 1.38679.2483 1.38679.2483s.69293.16755-1.3433-.01224c-.45447-.04012-1.29215-.1595-3.20387 1.608-.002.0014-.003.0021-.004.0035 2.48429 1.60802 9.05515 5.2728 9.04507 5.26899 0 0-1.61716.12786-11.6843-5.96356 1.28654 3.86868 1.85356 4.48169 2.69765 5.27095 1.7247 1.61265 1.11004 1.3151 1.11004 1.3151s-1.06977-.8605-1.52138-1.3566c-.74048-.81342-1.18808-1.40668-2.0423-3.53232-.35806-.89104-.5183-1.5153-.56885-1.89333-.70972-.43098-1.4686-.8966-2.28328-1.40166-.61066-.37857-1.24671-.78444-1.90394-1.20529.02.04982.0323.13426.0301.25634-.0802 4.39146.4872 6.17468 1.0472 7.25656 1.10898 2.1424 1.24668 2.49489 1.24668 2.49489s-1.35832-2.06212-1.62434-2.69085c-.43616-1.03087-.89127-2.7449-1.00254-5.02354-.0755-1.54644.1107-2.26104.23422-2.33729-2.42095-1.55044-5.26175-3.37875-9.33916-5.4976.006.04668.009.10178.007.17154-.1521 4.38554.68637 7.54965 1.22907 8.64111 1.07466 2.16138 1.20674 2.516 1.20674 2.516s-1.32545-2.08594-1.58136-2.7191c-.4196-1.03816-1.14701-4.13115-1.22107-6.40962-.0441-1.357.10298-2.0665.22406-2.27084-1.35034-.6991-2.83771-1.42946-4.48382-2.18987.16182 4.10326 1.15603 6.90956 1.80543 7.90452 1.31247 2.01082 1.48429 2.34688 1.48429 2.34688s-1.55098-1.90154-1.8774-2.49862c-.53515-.979-1.2433-3.41577-1.55523-5.86937-.1225-.96354-.13082-1.60647-.0954-1.99361C9.1393 5.79499 7.8023 5.20521 6.35892 4.59777c-1.6177-.6808-.98257-1.44248 2.59436-.07752.19443-.24598.70203-.68015 1.6894-1.23984 1.98029-1.12255 4.17554-1.87332 5.2013-1.94592.6256-.04428 2.9112.28223 2.9112.28223zm.8913 9.76981c.0393.02062.0654.12527.0621.30426-.0802 4.39146.4872 6.17467 1.0472 7.25655 1.10898 2.1424 1.24669 2.4949 1.24669 2.4949s-1.35832-2.06212-1.62433-2.69085c-.43617-1.03088-.89122-2.7451-1.0025-5.02373-.0835-1.70897.1529-2.40297.2708-2.34113z"/>
</svg>