<svg viewBox="0 0 14.14736 27.72716">
<defs/>
<path fill="#70b037" d="M5.34398 23.7305c-.88298.4652-1.2333.74622-1.9716 1.03607l-.85474 2.50226c-.1619.67159-.46105.4354-.65408.33576-.39385-.35474.55993-2.74292.15656-3.14393-.96827-.97468-1.72228-2.7456-1.9401-4.16356-.23191-1.42726.048-4.1597.73934-5.89613.43337-1.10402 1.46605-2.29836 3.72445-6.25248 3.00384-3.37126 4.3456-5.35175 6.42873-6.72918.1481-.09793 1.58508-1.36218 1.85998-1.41382.51643-.09702.62038 1.12512.62038 1.12512-.047.77224.51144 1.96434.59265 3.26028.2274 1.39793.0544 5.14339-.32603 6.68425-.66833 2.68295-2.20225 5.6636-3.39716 8.32036-.29522.6665-2.11775 2.00367-2.3221 2.27973-.8686.87543-1.7382 1.3345-2.65628 2.05527z"/>
<path fill="#79d12c" d="M.72563 16.41101s.0376.214.1164 1.60846c.0397.70201.59657 2.358 2.1044 4.23857.1813-.6308.44329-1.3987.80963-2.31383-.15375-.10905-.42622-.40407-.7692-.97352-.67185-1.11548-1.23536-2.83958-1.32694-3.47704-.0559-.38877.0284-1.83117.0284-1.83117s.0376.214.1164 1.60846c.0397.7022.56104 2.48958 2.00865 4.53074.41147-1.01777.86668-2.0777 1.33687-3.1323-.16923-.12277-.43888-.39277-.78021-.8763-.75048-1.0632-1.11931-2.00398-1.25551-2.63147-.0831-.38269-.0994-1.82233-.0994-1.82233s.0525.21011.2288 1.59105c.0881.6896.41806 1.6908 1.97409 3.58616.42583-.95158.86218-1.89486 1.28985-2.79597-.1688-.1206-.44071-.39101-.78621-.88048-.75048-1.06318-.88357-1.47151-1.01977-2.099-.0831-.3827-.12247-1.19927-.12247-1.19927s.0756-.41295.2519.96798c.0882.6908.1879 1.17236 1.74653 3.06426.54102-1.13675 1.06317-2.19685 1.52762-3.11342-.16626-.12206-.41994-.35995-.73308-.76614-.68946-.89432-.74258-1.13243-.87878-1.75992-.0831-.3827-.0974-1.02129-.0974-1.02129s.0505-.59094.2268.79c.0859.67258.48612 1.5948 1.53204 2.65955.492-.96867.9167-1.77247 1.21736-2.30798.0727-.12945.1536-.28277.23766-.44546-.0961-.04402-.25157-.1511-.40855-.319-.32281-.34526-.79225-1.02628-.79436-1.64877-.001-.39534.0807-.87736.0807-.87736s.066-.44033.0566.8396c-.002.28567-.0328.81426 1.1016 1.929.00092.0009.001.0016.002.0025.83147-1.62393 2.68326-5.89273 2.68149-5.88627 0 0 .1523 1.00437-2.96624 7.56596 2.22316-.97729 2.55818-1.35898 2.9841-1.92165.87028-1.14968.72379-.75239.72379-.75239s-.45728.70683-.72875 1.01118c-.44511.49904-.77415.80525-1.98866 1.43424-.50911.26366-.8701.39177-1.0909.44033-.22076.46265-.45965.95756-.71916 1.4891-.19453.39842-.40396.81394-.62124 1.24335.0285-.01472.0777-.02622.14993-.03031 2.59674-.14708 3.62269-.58154 4.23489-.9799 1.2123-.78887 1.4139-.8907 1.4139-.8907s-1.15307.941-1.51166 1.1354c-.58797.31871-1.5784.67993-2.91853.85174-.90952.1166-1.3403.03236-1.39118-.04136-.80048 1.58177-1.74507 3.43827-2.8025 6.08021.0273-.0058.0597-.01044.10096-.01206 2.59667-.10189 4.42508-.76767 5.04377-1.15565 1.22514-.76829 1.42825-.86671 1.42825-.86671s-1.1687.92155-1.5304 1.10982c-.59304.3087-2.38474.90192-3.72655 1.05047-.79914.08847-1.22505.02846-1.35145-.038-.34865.87483-.70925 1.83666-1.08005 2.89899 2.41508-.2853 4.02484-1.0323 4.58147-1.4826 1.12495-.91006 1.31522-1.03247 1.31522-1.03247s-1.0491 1.05414-1.38615 1.28482c-.55263.37823-1.95778.92995-3.3917 1.23495-.5631.11977-.94232.15384-1.1726.14908-.27905.80479-.56378 1.66638-.8539 2.59521-.32514 1.041-.80503.6785-.16898-1.617-.15452-.11034-.43493-.40796-.8123-.99956-.75686-1.18652-1.30441-2.524-1.396-3.16145-.0558-.38877.0284-1.83106.0284-1.83106zm5.72625-.99536c.0103-.02548.0709-.04648.1767-.05247 2.59674-.14707 3.62269-.58153 4.23489-.9799 1.2123-.78886 1.41389-.8907 1.41389-.8907s-1.15306.941-1.51166 1.1354c-.58796.31871-1.57851.67991-2.91864.85171-1.0051.12886-1.4261.01238-1.39518-.06404z"/>
</svg>