<svg viewBox="0 0 35.60966 30.88689">
<defs/>
<path fill="#70b037" d="M7.01097 28.03247c-1.63628.04286-2.35532.19471-3.65171.09194L1.592 30.51623c-.72462.82766-1.34747.04951-1.55937-.22262-.32268-.76705 1.8614-2.68921 1.55822-3.5275-.71897-2.02918-.546-5.02426.1604-7.15684.6924-2.15528 3.08323-5.78333 5.35817-7.73556 1.4373-1.24548 3.82195-2.20484 10.00907-6.1796C23.98045 3.04729 27.3893 1.2014 31.45235.7089c.28888-.03502 3.31911-.8139 3.76105-.69694.83023.21972.0981 2.00013.0981 2.00013-.62839 1.04747-.67001 3.0986-1.48907 4.96657-.67778 2.11116-3.64494 7.22924-5.32074 9.12196-2.92659 3.29156-7.34255 6.4037-11.02507 9.29627-.91714.7288-4.56756 1.34433-5.0682 1.5897-1.91222.62637-3.5244.66985-5.39742 1.04588z"/>
<path fill="#79d12c" d="M5.51577 14.61978s-.09974.32507-.9936 2.32916c-.44999 1.0089-.82986 3.70763.02707 7.37477.72366-.75726 1.6653-1.6507 2.86717-2.6782-.14726-.25828-.33456-.8583-.42687-1.89055-.18081-2.02208.2386-4.8206.56549-5.77495.19936-.58205 1.368-2.54092 1.368-2.54092s-.09974.32507-.9936 2.32916c-.45011 1.00917-.97744 3.86716-.32546 7.71742 1.34262-1.13997 2.78014-2.30878 4.23583-3.4598-.16012-.28813-.36139-.85122-.51348-1.76222-.3344-2.00306-.1958-3.57234.05821-4.54345.15492-.59228 1.17355-2.6165 1.17355-2.6165s-.07494.32991-.81558 2.38217c-.36985 1.02482-.60935 2.65186.3078 6.37285 1.3158-1.03751 2.64107-2.05618 3.92303-3.02188-.16104-.28478-.36535-.85001-.5193-1.77217-.3344-2.00306-.23452-2.6656.0195-3.63671.15492-.59227.68834-1.76117.68834-1.76117s.41027-.52541-.33036 1.52683c-.3705 1.0266-.57256 1.76858.3509 5.48652 1.61944-1.21717 3.15557-2.34015 4.50287-3.30214-.15627-.28508-.35729-.79229-.52393-1.57574-.3669-1.72494-.27261-2.09444-.01859-3.06556.15492-.59227.59635-1.49504.59635-1.49504s.50227-.79155-.23837 1.2607c-.36073.99955-.43967 2.56447.32836 4.77302 1.42555-1.01588 2.6327-1.84754 3.46294-2.38943.2007-.131.43084-.28968.67237-.45932-.10959-.1277-.26078-.3844-.3702-.7272-.22498-.7049-.42258-1.9802.02515-2.85205.28434-.5537.75423-1.1712.75423-1.1712s.41606-.57028-.5248 1.2129c-.21.39799-.638 1.11597.22404 3.45532.0007.0019.0009.0031.0016.005 2.39967-1.6985 8.21632-6.39309 8.20903-6.38527 0 0-.50327 1.50917-9.84455 8.53796 3.97932.16337 4.74876-.1398 5.78305-.63344 2.1133-1.00867 1.61-.55397 1.61-.55397s-1.18482.67366-1.80473.91241c-1.01644.39147-1.72241.59322-3.96519.63694-.94014.01833-1.56414-.05096-1.92424-.13502-.65994.495-1.3699 1.02262-2.13677 1.58727-.5748.42323-1.18393.8601-1.81466 1.31101.05255-.00098.13339.01684.24258.0608 3.92782 1.5813 5.75223 1.67984 6.94163 1.5441 2.35532-.26879 2.72574-.27246 2.72574-.27246s-2.37833.5223-3.04682.54733c-1.09606.04104-2.81517-.13545-4.9117-.81743-1.42286-.46285-1.99578-.87708-2.01726-1.01517-2.32354 1.66087-5.05813 3.60672-8.5276 6.57319.04439.01064.09536.02645.15731.05261 3.89498 1.64443 7.06782 1.97172 8.25924 1.85498 2.3593-.23119 2.72948-.22904 2.72948-.22904s-2.38723.48434-3.05584.49869c-1.0963.02353-4.16255-.37997-6.2447-1.09561-1.24008-.42623-1.82338-.80323-1.96126-.98314-1.14664.98332-2.37387 2.08006-3.68892 3.3103 3.7606 1.26303 6.67049 1.3263 7.81573 1.0797 2.31455-.49838 2.6832-.5386 2.6832-.5386s-2.30728.75203-2.97033.84265c-1.08716.14857-3.55453-.04695-5.88553-.60724-.9154-.22003-1.49813-.43335-1.83353-.59847-.9935.93327-2.03651 1.94206-3.13612 3.04117-1.2324 1.23185-1.67607.39472.9224-2.37728-.14747-.26062-.34457-.86974-.47144-1.95663-.25446-2.1799-.09157-4.42686.23532-5.3812.19936-.58204 1.36787-2.54078 1.36787-2.54078zm9.14748 2.54877c.0336-.02853.13793-.01623.29802.04822 3.92782 1.5813 5.75224 1.67982 6.94164 1.5441 2.35532-.2688 2.72574-.27247 2.72574-.27247s-2.37834.5223-3.04682.54733c-1.09606.04104-2.81533-.13556-4.91185-.81755-1.5724-.51149-2.10757-.96406-2.00673-1.04964z"/>
</svg>