<!--  clip path and dash array to draw main svg  -->
<svg class="svgContain" viewBox="0 0 291.48551 76.000572">
<clipPath id="clippy">
<!--  Main svg group and path  -->
<path d="m 98.616429,53.624219 c -3.6158,1.92458 -5.7801,2.65854 -10.8551,3.62136 -5.6983,1.10807 -8.2616,1.19036 -11.3313,0.31856 -2.4305,-0.67019 -4.4062,-1.6877 -9.7704,-5.67894 l -4.6835,-3.02451 c -3.173,-2.1131 -6.5382,-1.86466 -6.5382,-1.86466 0,0 -2.9249,0.10542 -7.3718,0.94891 -7.5882,1.4396 -28.05374,11.67792 -28.05374,11.67792 0,0 -1.96687,1.10574 -2.78027,1.57771 -2.85271,1.59147 -17.0353004,10.50316 -17.2276504,10.80902 -0.0434,0.0352 0.23426,0.57494 0.61846,1.14829 0.38418,0.57335 0.92917,1.46659 1.22113,1.94972 l 0.54497,0.89297 3.63788,-2.46751 c 12.0909304,-8.19176 23.0278804,-14.54838 30.9471204,-18.07077 1.27,-0.5641 2.4241,-1.07924 2.5834,-1.16338 l 1.3607,-0.46967 c 0.3483,-0.161 1.233,-0.50717 2.4601,-0.9014 7.2951,-2.32674 11.579,-2.70854 16.1933,-1.34858 1.6415,0.46937 2.6252,1.0369 6.917,4.1275 5.9408,4.21316 10.223,6.05736 15.8761,5.8211 5.7408,-0.6692 11.9779,-2.27849 16.7137,-4.54422 4.331001,-2.11429 8.764901,-5.13689 18.305001,-12.52141 3.9506,-2.94346 7.4877,-5.75491 15.0426,-9.12865 4.0664,-1.66026 6.7051,-2.26854 10.8495,-2.46221 4.536,-0.2413 9.1744,-0.20558 15.4826,0.0519 4.5117,0.1782 9.369,0.89203 31.7548,1.75842 1.2626,0.0566 3.6224,-0.041 5.2662,-0.21829 3.6309,-0.39237 11.8079,-2.29393 14.2902,-3.33031 2.3234,-0.94092 0.6375,-0.0856 5.7941,-2.71515 3.307,-1.70445 7.3358,-4.35398 15.1029,-9.86711 13.1893,-9.3964104 16.9249,-11.6133504 24.0057,-14.2761204 2.3124,-0.86995 3.4607,-0.89879 4.7598,-0.12197 0.8467,0.51223 1.1086,0.57044 2.7332,0.55827 0.7514,-0.007 2.6643,-0.74745 4.7625,-1.81901 l 1.0239,-0.54425 -2.1193,-0.21722 c -3.5163,-0.32914 -3.2914,-0.45297 2.1299,-1.0504 8.1174,-0.89375998 12.9064,-0.45586998 18.7193,1.67296 7.8438,3.05386 3.3527,0.57758 1.9579,0.0323 l -2.0929,-0.86863 1.3441,-0.44317 1.3441,-0.44344 -1.307,-0.29051998 c -0.7329,-0.15769 -2.0373,-0.17912 -2.9184,-0.0661 -1.0239,0.14049 -2.4659,0.064 -3.9185,-0.19923 -6.7601,-1.19486 -17.8144,-0.0672 -25.3344,2.65217998 -5.9319,2.12169 -11.3202,4.73287 -15.3585,7.4649504 -4.8671,3.43111 -6.0524,4.12073 -12.9638,8.86884 -9.085,6.22088 -14.8341,9.3046 -20.3856,10.92332 -3.7494,1.08823 -9.4726,2.0664 -9.4726,2.0664 -7.0053,0.42265 -9.7373,-0.1409 -14.941,-0.10081 -2.4284,-0.13176 -6.6665,-0.4318 -9.3904,-0.66913 -17.2241,-1.44516 -19.1738,-1.55999 -25.205,-1.54676 -6.0965,0.22315 -6.8276,0.10361 -10.6616,0.94562 -4.1167,1.1311 -9.8729,3.65046 -15.1971,6.59951 -2.177,1.19406 -3.5955,2.16323 -12.703,8.79237 -3.7818,2.80292 -4.4842,3.55948 -11.161101,7.15353 z" stroke-width="0.26458332"/>
</clipPath>
<!--  stroke svg  -->
<path clip-path="url(#clippy)" id="vine" fill="none" stroke="#70b037" stroke-width="26.25208333" stroke-linecap="round" stroke-linejoin="round" stroke-opacity="1" stroke-miterlimit="4" d="M -20.955582,91.314191 C 1.0585116,73.337648 24.003579,53.942721 52.360173,47.461257 68.074205,46.486048 81.933669,61.871006 97.746768,55.180191 111.50001,46.755376 121.46673,31.897792 137.35686,27.289029 c 12.88457,-0.478729 25.62319,2.744245 38.58215,2.413382 15.77389,0.894356 31.90429,-1.174228 46.21336,-8.122042 22.56944,-7.481664 44.40809,-17.8234439 68.13702,-21.2321167"/>
</svg>