<svg width="156" height="51" viewBox="0 0 156 51" fill="none" xmlns="http://www.w3.org/2000/svg">
<path d="M52.7784 33.8423C50.8433 34.8684 49.685 35.2598 46.9689 35.7731C43.9193 36.3639 42.5475 36.4078 40.9046 35.943C39.6038 35.5857 38.5464 35.0431 35.6756 32.9151L33.169 31.3024C31.4708 30.1758 29.6698 30.3082 29.6698 30.3082C29.6698 30.3082 28.1044 30.3644 25.7245 30.8142C21.6633 31.5817 10.7104 37.0407 10.7104 37.0407C10.7104 37.0407 9.65781 37.6302 9.22249 37.8819C7.69575 38.7304 0.105336 43.482 0.00239739 43.6451C-0.0208644 43.6638 0.127799 43.9517 0.333393 44.2574C0.538986 44.5631 0.83073 45.0393 0.986988 45.2969L1.2786 45.773L3.22556 44.4574C9.6965 40.0897 15.5499 36.7004 19.7882 34.8223C20.4679 34.5215 21.0855 34.2469 21.1708 34.202L21.899 33.9516C22.0853 33.8657 22.5588 33.6812 23.2155 33.471C27.1198 32.2304 29.4125 32.0268 31.882 32.7519C32.7606 33.0022 33.287 33.3048 35.584 34.9527C38.7634 37.1991 41.0552 38.1824 44.0807 38.0564C47.1531 37.6996 50.4912 36.8415 53.0257 35.6335C55.3436 34.5062 57.7166 32.8946 62.8224 28.9572C64.9367 27.3878 66.8296 25.8888 70.873 24.09C73.0493 23.2047 74.4615 22.8804 76.6795 22.7772C79.1071 22.6485 81.5895 22.6675 84.9656 22.8048C87.3802 22.8998 89.9798 23.2804 101.96 23.7424C102.636 23.7726 103.899 23.7205 104.779 23.626C106.722 23.4168 111.098 22.4029 112.427 21.8503C113.67 21.3486 112.768 21.8047 115.528 20.4026C117.298 19.4938 119.454 18.0812 123.611 15.1416C130.67 10.1316 132.669 8.94955 136.458 7.5298C137.696 7.06596 138.31 7.05058 139.006 7.46477C139.459 7.73788 139.599 7.76892 140.469 7.76243C140.871 7.7586 141.894 7.3639 143.017 6.79256L143.565 6.50237L142.431 6.38655C140.549 6.21105 140.67 6.14504 143.571 5.8265C147.915 5.34996 150.478 5.58343 153.589 6.71849C157.787 8.34677 155.384 7.02645 154.637 6.73562L153.517 6.27248L154.237 6.03619L154.956 5.79975L154.256 5.64484C153.864 5.56077 153.166 5.54935 152.694 5.6096C152.146 5.68451 151.375 5.64372 150.597 5.50338C146.979 4.8663 141.063 5.46755 137.039 6.91748C133.864 8.04874 130.98 9.44098 128.819 10.8977C126.214 12.7271 125.58 13.0948 121.881 15.6264C117.019 18.9433 113.942 20.5875 110.971 21.4506C108.964 22.0308 105.901 22.5524 105.901 22.5524C102.152 22.7777 100.69 22.4772 97.9047 22.4986C96.6051 22.4284 94.3368 22.2684 92.879 22.1419C83.6609 21.3713 82.6174 21.3101 79.3896 21.3171C76.1268 21.4361 75.7355 21.3724 73.6836 21.8213C71.4804 22.4244 68.3998 23.7677 65.5504 25.3401C64.3852 25.9768 63.6261 26.4935 58.7518 30.0281C56.7278 31.5225 56.3519 31.9259 52.7784 33.8422V33.8423Z" fill="#72B039"/>
<path d="M47.2769 37.7594C46.3639 37.8861 45.95 37.8639 45.2396 38.0443L44.1575 36.1342C43.6767 35.7168 43.3871 35.8214 43.2951 36.0004C43.1884 36.4794 44.4749 38.4847 44.3858 39.0036C44.1784 40.2584 44.558 41.9961 45.1522 43.1792C45.7408 44.3769 47.4124 46.2795 48.8609 47.2115C49.7772 47.8075 51.0127 48.3908 54.826 50.1442C60.217 51.7709 60.905 50.5955 63.2087 50.507C63.3725 50.5007 63.6649 50.5423 63.8993 50.4328C64.3397 50.2271 63.7645 49.2526 63.7645 49.2526C63.3163 48.6975 63.5933 46.5479 62.9615 45.5301C62.3852 44.3569 61.7027 43.1723 60.5926 42.2195C58.6553 40.5637 55.6596 39.6839 53.3401 38.3318C52.7617 37.9902 50.6756 37.9684 50.3742 37.8711C49.2527 37.6818 48.353 37.8058 47.2769 37.7594V37.7594Z" fill="#70B037"/>
<path d="M47.7157 45.7516C47.7157 45.7516 47.6296 45.5705 46.9433 44.48C46.5979 43.931 46.1314 42.3861 46.2604 40.1594C46.7341 40.5357 47.3417 40.9714 48.1066 41.4616C48.0493 41.6265 48.002 41.9952 48.0484 42.6081C48.1394 43.8089 48.6372 45.4086 48.9091 45.937C49.075 46.2593 49.9096 47.2979 49.9096 47.2979C49.9096 47.2979 49.8234 47.1168 49.1372 46.0263C48.7916 45.4771 48.2282 43.8526 48.226 41.5378C49.0797 42.0807 49.9889 42.6317 50.9065 43.1707C50.8448 43.3542 50.7863 43.7026 50.788 44.2501C50.7918 45.4539 51.0173 46.3599 51.2504 46.905C51.3925 47.2374 52.1499 48.3281 52.1499 48.3281C52.1499 48.3281 52.0771 48.1419 51.4714 47.009C51.1689 46.4432 50.8819 45.5128 51.0392 43.249C51.8684 43.7344 52.701 44.208 53.5045 44.6545C53.442 44.8362 53.382 45.1861 53.3838 45.7403C53.3874 46.9441 53.5058 47.3228 53.7388 47.8678C53.8809 48.2003 54.2879 48.8352 54.2879 48.8352C54.2879 48.8352 54.5655 49.1048 53.9598 47.9718C53.6569 47.4051 53.4744 46.9894 53.6355 44.7268C54.6503 45.2893 55.61 45.8043 56.4495 46.2426C56.3896 46.4241 56.326 46.7397 56.3075 47.2139C56.267 48.2579 56.3543 48.4655 56.5874 49.0105C56.7295 49.3429 57.0601 49.8306 57.0601 49.8306C57.0601 49.8306 57.4141 50.2475 56.8084 49.1145C56.5134 48.5627 56.3214 47.6538 56.5391 46.2894C57.4271 46.752 58.1764 47.127 58.6889 47.3672C58.8128 47.4253 58.9557 47.4969 59.1059 47.5738C59.0571 47.6587 58.9974 47.8231 58.9691 48.0339C58.9108 48.4675 58.9217 49.2326 59.253 49.7015C59.4633 49.9994 59.7828 50.3173 59.7828 50.3173C59.7828 50.3173 60.0679 50.6126 59.3765 49.6558C59.2222 49.4423 58.9164 49.0616 59.1739 47.6119C59.1741 47.6107 59.1741 47.6099 59.1743 47.6088C60.6681 48.3807 63.1693 49.8905 63.1645 49.8866C63.1645 49.8866 63.9165 49.7491 58.062 46.5001C60.2571 46.0353 60.7133 46.1414 61.3346 46.3345C62.604 46.7291 62.2814 46.5096 62.2814 46.5096C62.2814 46.5096 61.5594 46.225 61.1925 46.1427C60.5908 46.0078 60.1795 45.9551 58.9295 46.1376C58.4055 46.2141 58.0654 46.3125 57.8733 46.3951C57.4598 46.1665 57.0155 45.9235 56.5361 45.664C56.1767 45.4695 55.797 45.2702 55.4039 45.0647C55.4332 45.0603 55.4764 45.0424 55.5329 45.0066C57.5652 43.7164 58.5694 43.4894 59.243 43.4586C60.5768 43.3975 60.7829 43.3653 60.7829 43.3653C60.7829 43.3653 59.4123 43.2801 59.0386 43.3274C58.4258 43.4051 57.4875 43.6679 56.3874 44.2616C55.6408 44.6646 55.3617 44.9603 55.3629 45.0432C53.9149 44.2862 52.2116 43.4005 50.0035 41.9854C50.0272 41.9751 50.054 41.9611 50.0859 41.94C52.094 40.6159 53.8256 40.13 54.4985 40.0878C55.831 40.0043 56.0365 39.9687 56.0365 39.9687C56.0365 39.9687 54.6645 39.9066 54.2917 39.9602C53.6805 40.0481 52.0153 40.5688 50.9264 41.1809C50.2778 41.5455 49.9895 41.8204 49.9299 41.9385C49.1999 41.4691 48.4143 40.9408 47.5674 40.3424C49.5369 39.2541 51.1474 38.9471 51.8069 38.9853C53.1399 39.0624 53.3485 39.0518 53.3485 39.0518C53.3485 39.0518 51.9956 38.8254 51.6187 38.8339C51.0007 38.8477 49.6485 39.1911 48.4066 39.7353C47.9189 39.9491 47.6154 40.128 47.4447 40.2558C46.8045 39.8015 46.1296 39.3076 45.4147 38.7661C44.6135 38.1591 44.4463 38.6904 46.1521 40.0724C46.0949 40.2387 46.043 40.6137 46.0754 41.2618C46.1404 42.5618 46.4435 43.8623 46.7154 44.3908C46.8812 44.7131 47.7157 45.7516 47.7157 45.7516L47.7157 45.7516ZM52.5561 43.4107C52.5775 43.4243 52.6343 43.4075 52.7171 43.3549C54.7494 42.0646 55.7536 41.8377 56.4271 41.8069C57.761 41.7458 57.9671 41.7136 57.9671 41.7136C57.9671 41.7136 56.5965 41.6284 56.2228 41.6757C55.61 41.7534 54.6716 42.0162 53.5715 42.61C52.7464 43.0553 52.492 43.37 52.5561 43.4107V43.4107Z" fill="#79D12C"/>
<path d="M64.1416 25.4897C63.1802 25.922 62.7993 26.1823 61.995 26.4524L61.689 28.1601C61.5158 28.7793 60.9018 28.5236 60.6906 28.4326C60.259 28.1076 60.9599 26.5441 60.5175 26.1766C59.4558 25.2831 58.6237 23.6554 58.3787 22.3505C58.1183 21.0371 58.4098 18.5194 59.1554 16.9172C59.6227 15.8986 60.7437 14.7942 63.1883 11.1428C66.4495 8.02504 67.9038 6.19529 70.1703 4.91772C70.3315 4.82689 71.8933 3.65635 72.1931 3.6076C72.7562 3.51601 72.876 4.6411 72.876 4.6411C72.8287 5.3525 73.4443 6.44796 73.5395 7.64112C73.7949 8.92757 73.6253 12.3777 73.218 13.7984C72.5023 16.2722 70.8434 19.0239 69.5529 21.4758C69.2341 22.0909 67.2518 23.3303 67.0302 23.5854C66.0866 24.3954 65.1399 24.822 64.1416 25.4897V25.4897Z" fill="#70B037"/>
<path d="M59.0635 18.7689C59.0635 18.7689 59.1055 18.9659 59.1988 20.2498C59.2457 20.8961 59.862 22.4188 61.5173 24.1442C61.712 23.5625 61.994 22.8541 62.3891 22.0097C62.2207 21.91 61.9218 21.6394 61.5446 21.1165C60.8056 20.0921 60.1817 18.5067 60.0785 17.92C60.0155 17.5622 60.1001 16.2335 60.1001 16.2335C60.1001 16.2335 60.1422 16.4304 60.2354 17.7143C60.2824 18.3608 60.8605 20.0047 62.4509 21.8782C62.8948 20.9391 63.3862 19.961 63.894 18.9877C63.7087 18.8754 63.413 18.6279 63.0379 18.1841C62.2134 17.2082 61.806 16.3433 61.6541 15.766C61.5615 15.414 61.5363 14.0882 61.5363 14.0882C61.5363 14.0882 61.5947 14.2815 61.7942 15.5525C61.8939 16.1872 62.2592 17.1078 63.9672 18.8466C64.4271 17.9684 64.8985 17.0978 65.3606 16.2661C65.1758 16.1557 64.8776 15.9079 64.498 15.4586C63.6735 14.4827 63.5261 14.1072 63.3742 13.5299C63.2816 13.1778 63.2344 12.426 63.2344 12.426C63.2344 12.426 63.3148 12.0453 63.5143 13.3164C63.6141 13.9522 63.7254 14.3952 65.4363 16.1308C66.0209 15.0816 66.5854 14.103 67.0876 13.2569C66.9055 13.1452 66.6274 12.9272 66.2835 12.5545C65.5265 11.7339 65.4673 11.5148 65.3154 10.9375C65.2228 10.5854 65.2039 9.99735 65.2039 9.99735C65.2039 9.99735 65.256 9.4529 65.4555 10.7239C65.5526 11.343 65.9942 12.1906 67.1412 13.1666C67.6732 12.2724 68.1326 11.5303 68.458 11.0358C68.5367 10.9163 68.6242 10.7747 68.7151 10.6245C68.61 10.5844 68.4398 10.4865 68.2676 10.3325C67.9135 10.0159 67.3976 9.39078 67.3922 8.8175C67.3888 8.45342 67.4758 8.00914 67.4758 8.00914C67.4758 8.00914 67.5456 7.60332 67.5419 8.78213C67.5412 9.04522 67.5102 9.53217 68.7541 10.5539C68.7547 10.5547 68.7554 10.5553 68.7568 10.5561C69.6559 9.05698 71.6551 5.11759 71.6532 5.12354C71.6532 5.12354 71.8246 6.04787 68.4546 12.1043C70.876 11.1946 71.2397 10.8417 71.7017 10.3216C72.6456 9.25907 72.4878 9.62559 72.4878 9.62559C72.4878 9.62559 71.9923 10.2785 71.6976 10.56C71.2144 11.0215 70.8568 11.305 69.5345 11.8895C68.9802 12.1345 68.5868 12.2541 68.3461 12.2997C68.1075 12.7268 67.8493 13.1836 67.5688 13.6742C67.3585 14.042 67.1321 14.4256 66.8972 14.822C66.9282 14.8083 66.9819 14.7975 67.0606 14.7934C69.894 14.6467 71.0116 14.2422 71.6777 13.8727C72.9968 13.1409 73.2163 13.0462 73.2163 13.0462C73.2163 13.0462 71.9626 13.9179 71.5723 14.0984C70.9322 14.3945 69.853 14.7315 68.3912 14.8955C67.3992 15.0068 66.9286 14.9311 66.8727 14.8634C66.0071 16.3236 64.9857 18.0375 63.8451 20.4752C63.8749 20.4697 63.9102 20.4653 63.9552 20.4636C66.7888 20.3585 68.781 19.7375 69.4542 19.3775C70.7874 18.6646 71.0086 18.5731 71.0086 18.5731C71.0086 18.5731 69.7378 19.4269 69.344 19.6018C68.6983 19.8887 66.7458 20.4428 65.2821 20.5854C64.4104 20.6703 63.9452 20.6169 63.8069 20.5563C63.4309 21.3634 63.0422 22.2508 62.643 23.2308C65.2774 22.9576 67.0305 22.2627 67.6357 21.8455C68.8589 21.0025 69.0659 20.889 69.0659 20.889C69.0659 20.889 67.9263 21.8643 67.5596 22.0782C66.9584 22.429 65.4276 22.9432 63.8641 23.2303C63.2502 23.343 62.8364 23.376 62.5851 23.3726C62.2847 24.115 61.9783 24.9097 61.6664 25.7664C61.3169 26.7265 60.7913 26.3948 61.4737 24.2779C61.3045 24.177 60.9969 23.9041 60.582 23.3609C59.7499 22.2715 59.1454 21.0421 59.0422 20.4554C58.9792 20.0976 59.0637 18.7689 59.0637 18.7689L59.0635 18.7689ZM65.3082 17.8275C65.3193 17.804 65.3853 17.7843 65.5008 17.7784C68.3342 17.6317 69.4517 17.2271 70.1178 16.8576C71.4369 16.1258 71.6564 16.0312 71.6564 16.0312C71.6564 16.0312 70.4028 16.9028 70.0124 17.0834C69.3723 17.3794 68.293 17.7164 66.8312 17.8804C65.7349 18.0034 65.2748 17.898 65.3082 17.8275V17.8275Z" fill="#79D12C"/>
<path d="M64.8696 31.4846C64.5305 30.6601 64.3138 30.3264 64.1147 29.6437L61.5219 28.7719C60.9603 28.5807 62.0965 28.4016 62.1939 28.2351C62.5216 27.9057 64.0951 28.7853 64.4629 28.4505C65.3559 27.6477 66.9134 27.0916 68.1355 26.9929C69.3664 26.8821 71.676 27.3199 73.1105 28.0592C74.023 28.5236 74.9735 29.5323 78.1958 31.83C80.8732 34.757 82.4734 36.0969 83.5119 38.0612C83.5858 38.2009 84.5697 39.5774 84.5959 39.8277C84.6451 40.298 83.5972 40.3079 83.5972 40.3079C82.9424 40.213 81.8907 40.633 80.7814 40.6174C79.5757 40.7261 76.3962 40.3151 75.1082 39.8683C72.8658 39.0851 70.426 37.5045 68.2401 36.2503C67.6914 35.9397 66.6703 34.2121 66.4484 34.0098C65.7589 33.1702 65.4241 32.3581 64.8696 31.4846Z" fill="#70B037"/>
<path d="M71.4042 27.838C71.4042 27.838 71.2195 27.8571 70.0264 27.8327C69.4258 27.8204 67.979 28.2073 66.2793 29.4327C66.8049 29.6386 67.4421 29.9262 68.198 30.3176C68.3008 30.187 68.5698 29.9625 69.0772 29.6934C70.071 29.1664 71.5762 28.7781 72.1252 28.7394C72.46 28.7158 73.6834 28.89 73.6834 28.89C73.6834 28.89 73.4986 28.909 72.3056 28.8847C71.7048 28.8724 70.1483 29.2184 68.3157 30.3788C69.1561 30.8177 70.0296 31.2987 70.8975 31.7929C71.0131 31.6493 71.2605 31.4257 71.6946 31.1522C72.6489 30.551 73.4743 30.2841 74.0177 30.2046C74.3491 30.1562 75.5766 30.2398 75.5766 30.2398C75.5766 30.2398 75.3942 30.2726 74.2063 30.3366C73.6131 30.3686 72.7388 30.5965 71.0234 31.8642C71.8064 32.3115 72.5818 32.7676 73.3217 33.2131C73.4355 33.0699 73.6834 32.8441 74.1227 32.5674C75.0771 31.9661 75.4335 31.8745 75.9769 31.7951C76.3083 31.7466 77.0065 31.767 77.0065 31.767C77.0065 31.767 77.3534 31.863 76.1656 31.9271C75.5714 31.9591 75.1547 32.0157 73.442 33.286C74.3753 33.8493 75.2446 34.3905 75.9954 34.8701C76.1101 34.7291 76.3292 34.5176 76.6955 34.2642C77.5021 33.7062 77.7084 33.6748 78.2517 33.5953C78.5831 33.5469 79.1281 33.5776 79.1281 33.5776C79.1281 33.5776 79.6282 33.6633 78.4404 33.7273C77.8619 33.7585 77.0503 34.0549 76.0755 34.9213C76.8688 35.4291 77.5261 35.8653 77.9628 36.1718C78.0684 36.2459 78.1937 36.329 78.3269 36.4156C78.3706 36.3323 78.4719 36.2 78.6251 36.0706C78.9401 35.8043 79.5507 35.4293 80.0812 35.4699C80.418 35.4957 80.8233 35.6023 80.8233 35.6023C80.8233 35.6023 81.1942 35.6916 80.1044 35.5958C79.8612 35.5744 79.4129 35.5107 78.3897 36.4531C78.3887 36.4539 78.3881 36.4543 78.3876 36.455C79.7172 37.3124 83.2338 39.2664 83.2284 39.2644C83.2284 39.2644 82.3629 39.3325 76.9751 36.0847C77.6637 38.1474 77.9671 38.4743 78.4189 38.8951C79.3419 39.7549 79.013 39.5963 79.013 39.5963C79.013 39.5963 78.4404 39.1375 78.1987 38.8729C77.8024 38.4392 77.5629 38.1229 77.1057 36.9896C76.9141 36.5145 76.8283 36.1816 76.8013 35.9801C76.4214 35.7503 76.0153 35.502 75.5793 35.2327C75.2525 35.0309 74.9121 34.8145 74.5603 34.5901C74.571 34.6166 74.5776 34.6617 74.5764 34.7268C74.5335 37.0682 74.8372 38.019 75.1369 38.5959C75.7304 39.7381 75.8041 39.9261 75.8041 39.9261C75.8041 39.9261 75.0771 38.8266 74.9348 38.4914C74.7013 37.9417 74.4578 37.0278 74.3982 35.8129C74.3578 34.9883 74.4574 34.6073 74.5236 34.5667C73.2279 33.74 71.7075 32.7652 69.5253 31.6354C69.5285 31.6603 69.5302 31.6897 69.5291 31.7269C69.4477 34.0652 69.8964 35.7523 70.1869 36.3342C70.762 37.4866 70.8327 37.6757 70.8327 37.6757C70.8327 37.6757 70.1233 36.5635 69.9864 36.2259C69.7618 35.6724 69.3725 34.0233 69.3329 32.8084C69.3093 32.0849 69.388 31.7066 69.4528 31.5976C68.7301 31.2249 67.9341 30.8355 67.0531 30.43C67.1397 32.6178 67.6718 34.1141 68.0193 34.6446C68.7218 35.7167 68.8137 35.8959 68.8137 35.8959C68.8137 35.8959 67.9836 34.882 67.809 34.5637C67.5225 34.0417 67.1436 32.7425 66.9766 31.4342C66.911 30.9205 66.9066 30.5777 66.9256 30.3713C66.258 30.0658 65.5425 29.7513 64.77 29.4274C63.9042 29.0644 64.2441 28.6583 66.1585 29.3861C66.2625 29.255 66.5342 29.0235 67.0626 28.725C68.1224 28.1265 69.2973 27.7262 69.8463 27.6875C70.1811 27.6639 71.4043 27.838 71.4043 27.838L71.4042 27.838ZM71.8812 33.0471C71.9023 33.0581 71.9162 33.1139 71.9145 33.2093C71.8716 35.5508 72.1752 36.5016 72.4749 37.0784C73.0684 38.2207 73.1421 38.4087 73.1421 38.4087C73.1421 38.4087 72.4152 37.3092 72.2728 36.9739C72.0394 36.4243 71.7959 35.5103 71.7363 34.2954C71.6916 33.3842 71.8181 33.0141 71.8812 33.0471H71.8812Z" fill="#79D12C"/>
<path d="M79.1891 18.5516C79.1884 19.2721 79.1114 19.5903 79.1891 20.1594L77.0396 21.6701C76.5748 21.9991 77.7381 21.75 77.8974 21.8399C78.3425 21.9725 79.5089 20.7977 79.9945 20.9208C81.17 21.2123 82.8871 21.0994 84.1013 20.7625C85.3287 20.4314 87.3772 19.3349 88.4651 18.31C89.1595 17.6623 89.6758 16.6013 91.8684 13.8303C93.2889 10.7786 94.2994 9.25607 94.5235 7.46231C94.5394 7.33478 94.9428 5.99195 94.8692 5.79894C94.7311 5.43634 93.7195 5.78033 93.7195 5.78033C93.1271 6.06967 91.9501 6.11314 90.8895 6.49644C89.6872 6.82057 86.7915 8.18888 85.7291 8.94945C83.8815 10.2775 82.1585 12.2587 80.551 13.9145C80.1458 14.3269 79.8452 15.9406 79.7116 16.1639C79.3796 17.013 79.3779 17.7228 79.1891 18.5516Z" fill="#70B037"/>
<path d="M86.9115 19.0447C86.9115 19.0447 86.7263 19.0926 85.5886 19.5105C85.0158 19.7209 83.4718 19.9211 81.354 19.5891C81.7783 19.2614 82.2777 18.8361 82.8502 18.2947C83.0006 18.3563 83.3478 18.4313 83.9418 18.4593C85.1054 18.514 86.7061 18.2952 87.2493 18.1396C87.5806 18.0448 88.6884 17.5065 88.6884 17.5065C88.6884 17.5065 88.5032 17.5544 87.3655 17.9723C86.7926 18.1827 85.1593 18.4498 82.9393 18.2102C83.5744 17.6055 84.2247 16.9586 84.8645 16.304C85.0322 16.3709 85.3584 16.4526 85.8837 16.5083C87.0385 16.6309 87.9375 16.5506 88.4914 16.4269C88.8292 16.3515 89.9767 15.8785 89.9767 15.8785C89.9767 15.8785 89.7884 15.9155 88.6208 16.2666C88.0377 16.4419 87.107 16.5672 84.9574 16.2093C85.5341 15.6177 86.0998 15.0221 86.6357 14.4462C86.8015 14.5135 87.129 14.5965 87.6607 14.6529C88.8155 14.7755 89.1945 14.7234 89.7484 14.5997C90.0862 14.5243 90.7496 14.2752 90.7496 14.2752C90.7496 14.2752 91.0453 14.0883 89.8777 14.4393C89.2937 14.6149 88.8706 14.7129 86.7226 14.3522C87.398 13.6248 88.0206 12.9351 88.5534 12.3305C88.7194 12.3958 89.0135 12.478 89.4657 12.5417C90.4614 12.682 90.6721 12.6359 91.226 12.5122C91.5639 12.4368 92.0758 12.2315 92.0758 12.2315C92.0758 12.2315 92.523 12.0008 91.3554 12.3519C90.7867 12.5228 89.8894 12.5768 88.6103 12.266C89.1729 11.6263 89.633 11.0849 89.9321 10.713C90.0044 10.6231 90.0922 10.5199 90.1861 10.4115C90.261 10.4581 90.4105 10.5215 90.609 10.5655C91.0169 10.6558 91.752 10.7271 92.2461 10.5194C92.5599 10.3875 92.9076 10.1732 92.9076 10.1732C92.9076 10.1732 93.229 9.98312 92.2188 10.419C91.9934 10.5162 91.5873 10.7134 90.2317 10.3628C90.231 10.3625 90.2303 10.3624 90.2288 10.3621C91.1693 9.28546 93.7806 6.66858 93.7762 6.67188C93.7762 6.67188 92.917 6.91183 89.0165 11.1082C88.8652 9.3593 89.0281 9.01703 89.2966 8.5559C89.8452 7.61368 89.5914 7.84071 89.5914 7.84071C89.5914 7.84071 89.2217 8.37028 89.0936 8.64597C88.8835 9.098 88.7779 9.4111 88.7852 10.3984C88.7882 10.8123 88.8371 11.086 88.8906 11.2434C88.6159 11.5399 88.3232 11.8587 88.0101 12.2031C87.7754 12.4612 87.5334 12.7345 87.2836 13.0176C87.2834 12.9945 87.272 12.9591 87.2452 12.9116C86.2806 11.2028 86.1976 10.4013 86.2584 9.87629C86.3786 8.83667 86.3754 8.67364 86.3754 8.67364C86.3754 8.67364 86.1099 9.72649 86.1052 10.0209C86.0975 10.5037 86.2237 11.2579 86.6455 12.172C86.9318 12.7924 87.1779 13.0394 87.2575 13.0471C86.3375 14.0899 85.2599 15.3169 83.6068 16.8799C83.6002 16.8605 83.5903 16.8382 83.5743 16.8113C82.5739 15.1177 82.3401 13.7257 82.3899 13.2C82.4885 12.1591 82.482 11.9963 82.482 11.9963C82.482 11.9963 82.2384 13.0526 82.2398 13.347C82.242 13.8296 82.5181 15.1738 82.9591 16.0811C83.2218 16.6215 83.4467 16.8735 83.5519 16.932C83.0039 17.4486 82.392 18.002 81.7047 18.5957C80.9251 16.9566 80.8468 15.677 80.9718 15.1701C81.2245 14.1456 81.2422 13.9829 81.2422 13.9829C81.2422 13.9829 80.8438 15.0073 80.8014 15.3002C80.7318 15.7803 80.8797 16.8636 81.2351 17.8823C81.3746 18.2824 81.5055 18.5362 81.6052 18.6817C81.0837 19.1303 80.5196 19.6016 79.9045 20.0989C79.215 20.6562 79.7021 20.8412 81.256 19.6639C81.4078 19.7256 81.7604 19.8048 82.3862 19.8473C83.6415 19.9325 84.9292 19.8333 85.4724 19.6777C85.8037 19.5829 86.9114 19.0447 86.9114 19.0447L86.9115 19.0447ZM85.3159 15.0512C85.3318 15.036 85.3232 14.9903 85.2839 14.9206C84.3192 13.2118 84.2362 12.4103 84.297 11.8853C84.4173 10.8457 84.414 10.6827 84.414 10.6827C84.414 10.6827 84.1485 11.7355 84.1438 12.03C84.1361 12.5127 84.2623 13.267 84.6842 14.1811C85.0006 14.8667 85.2682 15.0966 85.3159 15.0512H85.3159Z" fill="#79D12C"/>
<path d="M92.5181 25.3764C92.5202 24.7776 92.4663 24.5141 92.5241 24.0401L91.5969 22.7077C91.2655 22.4401 92.218 22.6804 92.3324 22.6037C92.6514 22.4879 92.7554 23.5055 93.1035 23.3971C93.9459 23.14 95.1745 23.212 96.0423 23.4767C96.9196 23.7363 98.3817 24.6217 99.1565 25.4597C99.6511 25.9892 100.167 26.7249 101.726 29.0001C103.344 32.3009 102.601 32.8588 102.755 34.3468C102.766 34.4526 102.822 34.6362 102.768 34.7975C102.668 35.1006 101.945 34.8276 101.945 34.8276C101.522 34.5946 100.072 34.9848 99.3141 34.6797C98.4548 34.4256 97.5778 34.1044 96.8202 33.4857C95.5028 32.4054 94.6198 30.5687 93.4755 29.213C93.187 28.8753 92.9779 27.538 92.8831 27.3541C92.6486 26.6527 92.6501 26.0627 92.5181 25.3764L92.5181 25.3764Z" fill="#70B037"/>
<path d="M98.0472 24.8686C98.0472 24.8686 97.9149 24.8312 97.1021 24.4983C96.6929 24.3307 95.5886 24.1838 94.0715 24.4866C94.374 24.7536 94.7298 25.1007 95.1375 25.5434C95.2454 25.4903 95.4942 25.4235 95.9195 25.3928C96.7525 25.3325 97.8974 25.4942 98.2856 25.6165C98.5224 25.6912 99.3133 26.1245 99.3133 26.1245C99.3133 26.1245 99.1809 26.087 98.3682 25.7541C97.9589 25.5865 96.7909 25.3852 95.201 25.6125C95.6533 26.107 96.1163 26.6364 96.5718 27.1723C96.6921 27.1146 96.9259 27.0426 97.302 26.9896C98.1291 26.8731 98.7723 26.9284 99.1683 27.0242C99.4098 27.0826 100.229 27.4612 100.229 27.4612C100.229 27.4612 100.095 27.4328 99.2602 27.1559C98.8436 27.0176 98.1779 26.9252 96.6379 27.2498C97.0485 27.7343 97.4511 28.2221 97.8326 28.6939C97.9515 28.6359 98.1862 28.5628 98.567 28.5091C99.394 28.3927 99.6651 28.4311 100.061 28.5269C100.303 28.5853 100.776 28.7839 100.776 28.7839C100.776 28.7839 100.987 28.9355 100.153 28.6586C99.7357 28.52 99.4332 28.4439 97.8944 28.7709C98.3751 29.3669 98.8181 29.9322 99.1973 30.428C99.3163 30.3716 99.5271 30.2996 99.851 30.2409C100.564 30.1117 100.715 30.1473 101.111 30.2431C101.352 30.3015 101.718 30.4656 101.718 30.4656C101.718 30.4656 102.037 30.6517 101.203 30.3747C100.796 30.2398 100.154 30.2064 99.2377 30.4809C99.638 31.0054 99.9653 31.4495 100.178 31.7548C100.229 31.8287 100.292 31.9133 100.359 32.0022C100.412 31.9625 100.52 31.9079 100.662 31.8689C100.954 31.7886 101.481 31.7201 101.833 31.8864C102.058 31.9921 102.306 32.1658 102.306 32.1658C102.306 32.1658 102.535 32.3197 101.814 31.9702C101.653 31.8922 101.363 31.7335 100.391 32.0421C100.391 32.0423 100.39 32.0424 100.389 32.0427C101.058 32.9256 102.328 34.3824 102.325 34.3797C102.325 34.3797 102.3 34.8761 99.5241 31.438C99.4092 32.8934 99.5245 33.1758 99.7149 33.5556C100.104 34.3317 99.9232 34.1463 99.9232 34.1463C99.9232 34.1463 99.6607 33.7108 99.57 33.4833C99.4213 33.1103 99.3469 32.8514 99.3559 32.0308C99.3596 31.6868 99.3956 31.4587 99.4344 31.3272C99.2389 31.0843 99.0307 30.823 98.8079 30.5408C98.6408 30.3292 98.4686 30.1051 98.2909 29.873C98.2907 29.8923 98.2824 29.9218 98.2631 29.9616C97.5662 31.394 97.5038 32.0612 97.5453 32.4967C97.6275 33.3592 97.6245 33.4948 97.6245 33.4948C97.6245 33.4948 97.4385 32.6231 97.4362 32.3785C97.4325 31.9773 97.5256 31.3489 97.831 30.5839C98.0383 30.0647 98.2154 29.8563 98.2724 29.8488C97.6178 28.9939 96.851 27.9877 95.6738 26.7097C95.6689 26.7259 95.6617 26.7445 95.6503 26.7671C94.9278 28.1873 94.7553 29.3471 94.7889 29.7834C94.8556 30.6472 94.8503 30.7826 94.8503 30.7826C94.8503 30.7826 94.6799 29.9078 94.6821 29.6632C94.6858 29.262 94.8881 28.1414 95.2072 27.3817C95.3972 26.9293 95.5591 26.717 95.6347 26.667C95.2444 26.2446 94.8085 25.7924 94.3188 25.3077C93.7546 26.6799 93.6937 27.7443 93.7813 28.164C93.9583 29.0123 93.9704 29.1473 93.9704 29.1473C93.9704 29.1473 93.6891 28.3009 93.6598 28.0581C93.6118 27.6599 93.7218 26.7578 93.98 25.9066C94.0814 25.5723 94.176 25.3597 94.2479 25.2375C93.8763 24.8713 93.4743 24.4868 93.0359 24.0812C92.5445 23.6268 92.8938 23.4669 94.0017 24.4257C94.1105 24.3725 94.3632 24.3022 94.8113 24.2589C95.7101 24.1722 96.6314 24.2384 97.0196 24.3608C97.2564 24.4354 98.0472 24.8686 98.0472 24.8686L98.0472 24.8686ZM96.8902 28.2078C96.9015 28.2202 96.895 28.2583 96.8668 28.3167C96.1699 29.7491 96.1075 30.4163 96.149 30.8518C96.2312 31.7143 96.2283 31.8499 96.2283 31.8499C96.2283 31.8499 96.0422 30.9782 96.0399 30.7336C96.0362 30.3324 96.1294 29.704 96.4348 28.9389C96.6638 28.3651 96.8562 28.1707 96.8902 28.2078H96.8902Z" fill="#79D12C"/>
<path d="M107.344 21.3611C106.736 21.6408 106.495 21.8097 105.987 21.984L105.399 23.4883C105.288 23.892 105.082 23.75 104.949 23.6901C104.678 23.4768 105.334 22.0411 105.057 21.8001C104.391 21.2141 103.872 20.1495 103.722 19.297C103.562 18.439 103.755 16.7963 104.231 15.7524C104.529 15.0887 105.239 14.3707 106.793 11.9936C108.86 9.96691 109.783 8.77629 111.217 7.94822C111.318 7.88935 112.307 7.12931 112.496 7.09827C112.852 7.03994 112.923 7.77466 112.923 7.77466C112.891 8.23891 113.275 8.95557 113.331 9.73465C113.487 10.5751 113.368 12.8267 113.107 13.753C112.647 15.366 111.591 17.1579 110.769 18.755C110.566 19.1557 109.312 19.9596 109.172 20.1255C108.574 20.6518 107.976 20.9278 107.344 21.3611Z" fill="#70B037"/>
<path d="M104.166 16.9609C104.166 16.9609 104.192 17.0896 104.246 17.9279C104.274 18.3499 104.657 19.3455 105.694 20.476C105.819 20.0968 105.999 19.6351 106.251 19.085C106.146 19.0194 105.958 18.8421 105.722 18.4997C105.26 17.8291 104.872 16.7927 104.809 16.4094C104.771 16.1757 104.829 15.3086 104.829 15.3086C104.829 15.3086 104.855 15.4372 104.909 16.2755C104.936 16.6977 105.295 17.7722 106.291 18.9993C106.574 18.3875 106.887 17.7502 107.211 17.1163C107.094 17.0424 106.909 16.8801 106.674 16.5894C106.157 15.9503 105.904 15.3847 105.81 15.0075C105.753 14.7774 105.742 13.9119 105.742 13.9119C105.742 13.9119 105.778 14.0383 105.899 14.8684C105.96 15.283 106.187 15.8849 107.257 17.0243C107.55 16.4523 107.85 15.8852 108.145 15.3435C108.029 15.271 107.841 15.1084 107.604 14.8142C107.087 14.175 106.996 13.9295 106.902 13.5523C106.845 13.3222 106.818 12.8313 106.818 12.8313C106.818 12.8313 106.87 12.5831 106.991 13.4132C107.052 13.8285 107.12 14.118 108.193 15.2554C108.565 14.572 108.924 13.9347 109.244 13.3837C109.13 13.3103 108.955 13.1673 108.74 12.9231C108.265 12.3855 108.229 12.2423 108.135 11.8651C108.078 11.635 108.068 11.2511 108.068 11.2511C108.068 11.2511 108.103 10.8959 108.224 11.726C108.283 12.1304 108.558 12.6848 109.278 13.3249C109.617 12.7426 109.909 12.2593 110.116 11.9374C110.166 11.8596 110.221 11.7674 110.279 11.6696C110.213 11.6431 110.106 11.5788 109.998 11.4778C109.776 11.2703 109.453 10.8609 109.452 10.4866C109.451 10.249 109.507 9.95919 109.507 9.95919C109.507 9.95919 109.552 9.69447 109.546 10.4639C109.545 10.6357 109.523 10.9534 110.304 11.6236C110.305 11.6241 110.305 11.6246 110.305 11.6251C110.877 10.6488 112.152 8.08255 112.15 8.08643C112.15 8.08643 112.255 8.69023 110.109 12.6349C111.639 12.0474 111.87 11.8179 112.163 11.4796C112.761 10.7885 112.661 11.0273 112.661 11.0273C112.661 11.0273 112.346 11.4522 112.159 11.6352C111.853 11.9352 111.627 12.1193 110.791 12.4974C110.441 12.6559 110.192 12.733 110.04 12.7622C109.888 13.0403 109.724 13.3378 109.545 13.6574C109.412 13.8969 109.268 14.1467 109.118 14.4048C109.138 14.396 109.172 14.3891 109.221 14.3866C111.008 14.2982 111.714 14.037 112.135 13.7975C112.969 13.3233 113.108 13.2621 113.108 13.2621C113.108 13.2621 112.314 13.8278 112.068 13.9446C111.663 14.1362 110.982 14.3534 110.06 14.4567C109.434 14.5268 109.137 14.4761 109.102 14.4318C108.552 15.3827 107.902 16.4988 107.174 18.0871C107.193 18.0836 107.215 18.0808 107.244 18.0798C109.03 18.0186 110.288 17.6183 110.714 17.3851C111.557 16.9232 111.697 16.864 111.697 16.864C111.697 16.864 110.893 17.418 110.644 17.5312C110.236 17.7168 109.003 18.0734 108.08 18.1627C107.53 18.2159 107.237 18.1798 107.15 18.1399C106.91 18.6658 106.662 19.244 106.407 19.8827C108.068 19.7112 109.176 19.2621 109.559 18.9914C110.333 18.4443 110.464 18.3707 110.464 18.3707C110.464 18.3707 109.742 19.0044 109.51 19.1431C109.13 19.3705 108.163 19.7022 107.177 19.8855C106.789 19.9575 106.528 19.978 106.37 19.9751C106.178 20.459 105.982 20.9769 105.782 21.5353C105.558 22.1611 105.228 21.9432 105.666 20.5632C105.56 20.4969 105.367 20.318 105.107 19.9623C104.586 19.249 104.21 18.4449 104.147 18.0617C104.108 17.828 104.166 16.9609 104.166 16.9609L104.166 16.9609ZM108.106 16.3625C108.113 16.3472 108.155 16.3346 108.228 16.331C110.014 16.2426 110.72 15.9814 111.142 15.7419C111.976 15.2677 112.114 15.2064 112.114 15.2064C112.114 15.2064 111.321 15.7721 111.074 15.889C110.67 16.0806 109.988 16.2978 109.066 16.401C108.375 16.4785 108.085 16.4085 108.106 16.3625V16.3625Z" fill="#79D12C"/>
<path d="M123.318 15.4888C122.932 15.7133 122.742 15.7795 122.457 15.9906L121.795 15.8443C121.502 15.7469 121.349 15.9486 121.341 16.0453C121.383 16.2782 122.196 16.3275 122.253 16.5749C122.393 17.1718 122.888 17.8756 123.375 18.293C123.863 18.7179 124.967 19.2573 125.791 19.4056C126.314 19.5023 127.012 19.3934 129.051 19.4722C131.044 19.1311 132.115 19.0908 133.132 18.6273C133.205 18.5944 134.026 18.3489 134.111 18.257C134.27 18.0844 133.83 17.7563 133.83 17.7563C133.526 17.5917 133.205 17.0987 132.732 16.7619C132.254 16.3456 130.79 15.5264 130.114 15.3065C128.936 14.9259 127.439 14.8027 126.146 14.6276C125.823 14.582 124.882 14.9563 124.729 14.9684C124.19 15.0906 123.81 15.3114 123.318 15.4888V15.4888Z" fill="#70B037"/>
<path d="M125.005 18.9664C125.005 18.9664 124.933 18.9016 124.421 18.5424C124.164 18.3615 123.667 17.7595 123.309 16.7444C123.592 16.8248 123.946 16.9069 124.381 16.9844C124.386 17.0683 124.433 17.2412 124.568 17.5056C124.833 18.0234 125.355 18.644 125.575 18.8293C125.71 18.9423 126.278 19.251 126.278 19.251C126.278 19.251 126.206 19.1863 125.694 18.827C125.437 18.6462 124.881 18.0266 124.448 16.9963C124.933 17.0809 125.444 17.1589 125.956 17.23C125.962 17.323 126.001 17.4889 126.104 17.7324C126.33 18.2677 126.6 18.6295 126.807 18.8293C126.932 18.9512 127.476 19.2974 127.476 19.2974C127.476 19.2974 127.408 19.2279 126.925 18.8349C126.684 18.6387 126.382 18.2773 126.03 17.2404C126.493 17.3039 126.955 17.3615 127.399 17.4124C127.404 17.5048 127.443 17.6716 127.547 17.9181C127.773 18.4534 127.897 18.6002 128.103 18.8C128.229 18.9218 128.53 19.1296 128.53 19.1296C128.53 19.1296 128.705 19.1985 128.221 18.8056C127.98 18.609 127.82 18.4575 127.471 17.4205C128.031 17.4841 128.558 17.5368 129.016 17.5774C129.023 17.6692 129.054 17.8215 129.134 18.036C129.31 18.5083 129.388 18.5846 129.594 18.7844C129.72 18.9063 129.959 19.0625 129.959 19.0625C129.959 19.0625 130.196 19.183 129.713 18.79C129.478 18.5987 129.222 18.2293 129.065 17.5818C129.55 17.6243 129.956 17.6533 130.231 17.6659C130.298 17.669 130.375 17.6746 130.457 17.6812C130.451 17.728 130.455 17.8121 130.481 17.9112C130.536 18.115 130.683 18.4536 130.919 18.6014C131.069 18.6953 131.272 18.7781 131.272 18.7781C131.272 18.7781 131.455 18.8571 130.966 18.5584C130.857 18.4917 130.649 18.3785 130.494 17.6856C130.494 17.6851 130.494 17.6847 130.494 17.6842C131.308 17.7529 133.37 18.06 133.367 18.0591C133.367 18.0591 133.021 17.7642 129.788 17.3953C130.687 16.7843 130.911 16.7476 131.226 16.7192C131.869 16.6612 131.683 16.6229 131.683 16.6229C131.683 16.6229 131.306 16.629 131.126 16.66C130.831 16.7106 130.637 16.7629 130.11 17.0742C129.889 17.2047 129.755 17.3111 129.684 17.3833C129.456 17.3576 129.211 17.3311 128.947 17.3039C128.75 17.2834 128.542 17.2646 128.327 17.2454C128.34 17.2381 128.356 17.2222 128.375 17.1958C129.046 16.2473 129.454 15.9614 129.751 15.8237C130.338 15.551 130.425 15.4987 130.425 15.4987C130.425 15.4987 129.794 15.7131 129.635 15.8029C129.374 15.9503 129.002 16.24 128.619 16.7069C128.359 17.0237 128.289 17.2067 128.305 17.2434C127.514 17.1729 126.584 17.0921 125.33 16.8685C125.338 16.8595 125.348 16.8483 125.358 16.8331C126.013 15.8739 126.699 15.3388 126.993 15.1962C127.576 14.9138 127.661 14.8601 127.661 14.8601C127.661 14.8601 127.034 15.085 126.877 15.1775C126.619 15.3291 125.968 15.8674 125.594 16.3404C125.371 16.6221 125.293 16.7976 125.288 16.8611C124.873 16.7865 124.422 16.6959 123.93 16.5853C124.611 15.7383 125.277 15.3052 125.58 15.2007C126.192 14.9897 126.284 14.9466 126.284 14.9466C126.284 14.9466 125.635 15.0949 125.467 15.168C125.192 15.2879 124.649 15.6897 124.193 16.1606C124.014 16.3455 123.912 16.4811 123.859 16.5694C123.487 16.485 123.092 16.3893 122.67 16.2797C122.197 16.157 122.221 16.4243 123.244 16.7256C123.25 16.8102 123.296 16.9867 123.432 17.2693C123.703 17.8362 124.082 18.3594 124.302 18.5446C124.437 18.6576 125.005 18.9664 125.005 18.9664L125.005 18.9664ZM126.741 17.0332C126.753 17.0354 126.776 17.0174 126.803 16.9787C127.474 16.0302 127.883 15.7443 128.179 15.6066C128.767 15.3339 128.853 15.2816 128.853 15.2816C128.853 15.2816 128.222 15.496 128.063 15.5858C127.803 15.7332 127.431 16.0229 127.047 16.4898C126.76 16.8399 126.705 17.0269 126.741 17.0332V17.0332Z" fill="#79D12C"/>
<path d="M138.15 5.4548C138.206 5.73856 138.205 5.86845 138.276 6.08792L137.96 6.8048C137.827 6.96206 138.257 6.76076 138.318 6.78666C138.48 6.81232 138.435 6.32019 138.611 6.3397C139.034 6.38437 139.61 6.23753 139.997 6.03243C140.389 5.82886 141 5.27495 141.29 4.8065C141.476 4.51006 141.652 4.1139 142.181 2.892C142.644 1.17826 142.24 0.981863 142.176 0.262184C142.171 0.211014 142.18 0.118826 142.14 0.0472089C142.065 -0.0873299 141.747 0.108451 141.747 0.108451C141.568 0.257705 140.844 0.205672 140.513 0.419858C140.129 0.619184 139.743 0.85192 139.441 1.21476C138.916 1.84788 138.667 2.7998 138.25 3.54765C138.144 3.73422 138.168 4.38758 138.14 4.48347C138.094 4.83759 138.149 5.11722 138.15 5.4548H138.15Z" fill="#70B037"/>
<path d="M140.819 5.18849C140.819 5.18849 140.76 5.21839 140.405 5.45078C140.226 5.56777 139.716 5.7387 138.969 5.73425C139.088 5.57991 139.224 5.38267 139.377 5.13534C139.433 5.15064 139.557 5.15948 139.762 5.13506C140.162 5.08723 140.69 4.90558 140.863 4.81194C140.968 4.75483 141.303 4.47684 141.303 4.47684C141.303 4.47684 141.244 4.50673 140.889 4.73913C140.711 4.85615 140.175 5.05872 139.401 5.09676C139.569 4.82076 139.74 4.52728 139.906 4.23136C139.969 4.24771 140.086 4.26041 140.27 4.25103C140.673 4.23042 140.972 4.14521 141.151 4.06348C141.261 4.01363 141.614 3.75894 141.614 3.75894C141.614 3.75894 141.553 3.78475 141.183 3.99261C140.998 4.09641 140.691 4.20127 139.931 4.18854C140.081 3.92118 140.226 3.65291 140.364 3.39418C140.425 3.41082 140.544 3.42395 140.729 3.41446C141.132 3.39385 141.257 3.35075 141.436 3.26901C141.545 3.21916 141.751 3.08154 141.751 3.08154C141.751 3.08154 141.837 2.99028 141.467 3.19815C141.282 3.30213 141.146 3.36595 140.386 3.35201C140.559 3.02528 140.717 2.71659 140.851 2.44674C140.912 2.46255 141.019 2.47738 141.178 2.4755C141.528 2.47134 141.596 2.44066 141.775 2.35893C141.884 2.30908 142.043 2.19771 142.043 2.19771C142.043 2.19771 142.177 2.0802 141.807 2.28806C141.626 2.3893 141.325 2.46405 140.865 2.41794C141.006 2.1325 141.12 1.8919 141.193 1.7276C141.211 1.68789 141.232 1.64201 141.256 1.59375C141.285 1.60765 141.341 1.62368 141.412 1.62915C141.558 1.6404 141.814 1.62462 141.966 1.51338C142.063 1.44274 142.164 1.3376 142.164 1.3376C142.164 1.3376 142.259 1.2436 141.949 1.47546C141.88 1.52722 141.757 1.62905 141.268 1.57184C141.267 1.57179 141.267 1.57181 141.267 1.57176C141.502 1.09173 141.97 0.28446 141.968 0.286028C141.968 0.286028 141.911 0.0528548 140.912 1.93783C140.723 1.25821 140.752 1.11372 140.807 0.916136C140.92 0.512408 140.851 0.616939 140.851 0.616939C140.851 0.616939 140.767 0.84751 140.745 0.963707C140.709 1.15422 140.698 1.28381 140.778 1.67215C140.811 1.83494 140.849 1.93981 140.88 1.9986C140.805 2.14171 140.73 2.28517 140.656 2.42898C140.596 2.5446 140.535 2.66668 140.472 2.79304C140.47 2.78393 140.464 2.7707 140.451 2.75359C139.988 2.13824 139.897 1.82758 139.876 1.61723C139.835 1.2007 139.821 1.1367 139.821 1.1367C139.821 1.1367 139.814 1.56711 139.835 1.68332C139.871 1.87388 139.973 2.16335 140.188 2.49812C140.335 2.72533 140.438 2.80791 140.466 2.80622C140.234 3.27167 139.964 3.81911 139.523 4.53312C139.52 4.52588 139.514 4.51771 139.507 4.50806C139.033 3.90085 138.844 3.36666 138.82 3.15671C138.772 2.74095 138.757 2.67722 138.757 2.67722C138.757 2.67722 138.757 3.10769 138.78 3.22351C138.819 3.41342 139.019 3.92625 139.24 4.25723C139.372 4.45436 139.468 4.54019 139.509 4.55692C139.363 4.79302 139.198 5.04743 139.01 5.3222C138.616 4.72325 138.489 4.22409 138.492 4.01702C138.497 3.59854 138.49 3.53342 138.49 3.53342C138.49 3.53342 138.435 3.96055 138.444 4.0784C138.458 4.27162 138.593 4.68933 138.794 5.06929C138.873 5.21849 138.938 5.31062 138.983 5.36199C138.841 5.56972 138.686 5.78894 138.515 6.02145C138.324 6.28203 138.505 6.32581 138.942 5.76955C138.998 5.78479 139.124 5.79497 139.341 5.7744C139.775 5.7331 140.206 5.61723 140.379 5.52359C140.484 5.46648 140.819 5.18851 140.819 5.18851L140.819 5.18849ZM139.962 3.71113C139.966 3.70422 139.96 3.68671 139.941 3.66164C139.478 3.0463 139.387 2.73563 139.366 2.52529C139.325 2.10875 139.311 2.04475 139.311 2.04475C139.311 2.04475 139.304 2.47516 139.325 2.59138C139.36 2.78193 139.463 3.07142 139.678 3.40619C139.84 3.65728 139.949 3.73186 139.962 3.71113H139.962Z" fill="#79D12C"/>
<path d="M30.399 33.1264C29.0774 32.5137 28.4813 31.1027 29.0675 29.975C29.6537 28.8472 31.2003 28.4297 32.5219 29.0424C33.8435 29.6551 34.4397 31.0661 33.8535 32.1939C33.2672 33.3216 31.7206 33.7392 30.399 33.1264Z" fill="url(#paint0_linear)"/>
<path d="M26.9013 35.6845C25.5797 35.0718 24.9836 33.6609 25.5698 32.5331C26.156 31.4053 27.7026 30.9878 29.0243 31.6005C30.3459 32.2132 30.942 33.6242 30.3558 34.752C29.7696 35.8797 28.223 36.2973 26.9013 35.6845Z" fill="url(#paint1_linear)"/>
<path d="M33.2447 36.259C31.9231 35.6463 31.327 34.2353 31.9132 33.1075C32.4994 31.9798 34.046 31.5623 35.3676 32.175C36.6892 32.7877 37.2854 34.1987 36.6992 35.3264C36.1129 36.4542 34.5663 36.8717 33.2447 36.259Z" fill="url(#paint2_linear)"/>
<path d="M30.9326 37.6164C29.611 37.0037 29.0148 35.5927 29.6011 34.465C30.1873 33.3372 31.7339 32.9197 33.0555 33.5324C34.3771 34.1451 34.9733 35.5561 34.387 36.6839C33.8008 37.8116 32.2542 38.2292 30.9326 37.6164Z" fill="url(#paint3_linear)"/>
<path d="M37.2167 37.4597C35.8951 36.847 35.299 35.436 35.8852 34.3082C36.4714 33.1805 38.018 32.7629 39.3396 33.3757C40.6612 33.9884 41.2574 35.3993 40.6712 36.5271C40.0849 37.6549 38.5383 38.0724 37.2167 37.4597Z" fill="url(#paint4_linear)"/>
<path d="M34.4896 40.8012C33.168 40.1885 32.5718 38.7776 33.1581 37.6498C33.7443 36.522 35.2909 36.1045 36.6125 36.7172C37.9341 37.3299 38.5303 38.7409 37.944 39.8687C37.3578 40.9964 35.8112 41.414 34.4896 40.8012Z" fill="url(#paint5_linear)"/>
<path d="M39.5288 40.8535C38.2072 40.2408 37.6111 38.8298 38.1973 37.702C38.7835 36.5743 40.3301 36.1567 41.6518 36.7695C42.9734 37.3822 43.5695 38.7931 42.9833 39.9209C42.3971 41.0487 40.8505 41.4662 39.5288 40.8535Z" fill="url(#paint6_linear)"/>
<path d="M62.4723 31.4489C61.4898 31.8664 60.3497 31.4313 59.926 30.4773C59.5022 29.5232 59.9551 28.4113 60.9377 27.9939C61.9202 27.5764 63.0603 28.0115 63.4841 28.9656C63.9079 29.9196 63.4549 31.0315 62.4723 31.4489Z" fill="url(#paint7_linear)"/>
<path d="M65.7021 29.5207C64.7195 29.9382 63.5795 29.5031 63.1557 28.549C62.7319 27.5949 63.1849 26.4831 64.1674 26.0657C65.15 25.6482 66.29 26.0833 66.7138 27.0373C67.1376 27.9914 66.6846 29.1033 65.7021 29.5207Z" fill="url(#paint8_linear)"/>
<path d="M59.7406 29.7116C58.7581 30.1291 57.618 29.694 57.1943 28.7399C56.7705 27.7859 57.2234 26.674 58.206 26.2566C59.1885 25.8391 60.3286 26.2742 60.7524 27.2283C61.1762 28.1823 60.7232 29.2942 59.7406 29.7116Z" fill="url(#paint9_linear)"/>
<path d="M58.0533 32.9852C57.0221 32.4125 56.5569 31.0938 57.0143 30.0398C57.4718 28.9857 58.6786 28.5955 59.7099 29.1682C60.7411 29.7408 61.2063 31.0596 60.7489 32.1136C60.2914 33.1677 59.0846 33.5579 58.0533 32.9852Z" fill="url(#paint10_linear)"/>
<path d="M61.3244 28.6376C60.2931 28.0649 59.8279 26.7462 60.2854 25.6921C60.7428 24.638 61.9497 24.2478 62.9809 24.8205C64.0122 25.3932 64.4774 26.7119 64.0199 27.766C63.5625 28.82 62.3557 29.2102 61.3244 28.6376Z" fill="url(#paint11_linear)"/>
<path d="M64.4646 26.6361C63.4333 26.0634 62.9682 24.7447 63.4256 23.6906C63.883 22.6366 65.0899 22.2464 66.1211 22.819C67.1524 23.3917 67.6176 24.7104 67.1601 25.7645C66.7027 26.8186 65.4959 27.2088 64.4646 26.6361Z" fill="url(#paint12_linear)"/>
<path d="M82.2391 22.8982C80.9818 23.3389 79.5229 22.8796 78.9806 21.8723C78.4383 20.8651 79.0179 19.6913 80.2753 19.2506C81.5326 18.8099 82.9914 19.2692 83.5337 20.2764C84.076 21.2837 83.4964 22.4575 82.2391 22.8982Z" fill="url(#paint13_linear)"/>
<path d="M81.3085 26.4611C80.0512 26.9018 78.5924 26.4426 78.0501 25.4353C77.5078 24.4281 78.0874 23.2543 79.3447 22.8136C80.602 22.3729 82.0609 22.8322 82.6032 23.8394C83.1455 24.8467 82.5658 26.0204 81.3085 26.4611Z" fill="url(#paint14_linear)"/>
<path d="M76.7151 24.0334C75.5531 23.5357 75.0289 22.3896 75.5443 21.4735C76.0598 20.5574 77.4196 20.2182 78.5817 20.716C79.7437 21.2137 80.2679 22.3598 79.7524 23.2759C79.237 24.192 77.8772 24.5311 76.7151 24.0334Z" fill="url(#paint15_linear)"/>
<path d="M83.0561 24.6504C81.8941 24.1526 81.3699 23.0065 81.8854 22.0904C82.4008 21.1743 83.7607 20.8352 84.9227 21.3329C86.0847 21.8306 86.6089 22.9768 86.0935 23.8929C85.578 24.8089 84.2182 25.1481 83.0561 24.6504Z" fill="url(#paint16_linear)"/>
<path d="M104.763 23.6941C103.54 24.1231 102.121 23.676 101.594 22.6953C101.066 21.7146 101.63 20.5717 102.853 20.1427C104.076 19.7136 105.494 20.1607 106.022 21.1414C106.549 22.1221 105.985 23.265 104.763 23.6941Z" fill="url(#paint17_linear)"/>
<path d="M105.545 26.3308C104.323 26.7599 102.904 26.3127 102.377 25.332C101.849 24.3513 102.413 23.2085 103.636 22.7794C104.858 22.3503 106.277 22.7974 106.805 23.7781C107.332 24.7588 106.768 25.9017 105.545 26.3308Z" fill="url(#paint18_linear)"/>
<path d="M109.851 25.5774C108.628 26.0064 107.209 25.5593 106.682 24.5786C106.154 23.5979 106.718 22.455 107.941 22.026C109.163 21.5969 110.582 22.044 111.11 23.0247C111.637 24.0054 111.073 25.1483 109.851 25.5774Z" fill="url(#paint19_linear)"/>
<path d="M99.6915 25.6627C98.5156 25.1314 97.9852 23.9078 98.5068 22.9298C99.0284 21.9518 100.404 21.5898 101.58 22.1211C102.756 22.6525 103.287 23.8761 102.765 24.854C102.243 25.832 100.867 26.1941 99.6915 25.6627Z" fill="url(#paint20_linear)"/>
<path d="M107.632 20.6863C108.604 21.2077 108.981 22.2835 108.475 23.0893C107.969 23.895 106.771 24.1255 105.799 23.6042C104.827 23.0828 104.45 22.007 104.956 21.2012C105.462 20.3955 106.66 20.1649 107.632 20.6863Z" fill="url(#paint21_linear)"/>
<path d="M31.3138 29.9614C30.2949 29.988 29.8472 30.0822 29.0399 30.0185L27.9394 31.5023C27.4882 32.0158 27.1003 31.533 26.9684 31.3642C26.7674 30.8883 28.1275 29.6959 27.9387 29.1758C27.491 27.917 27.5987 26.0589 28.0386 24.7359C28.4697 23.3988 29.9585 21.1481 31.3751 19.9369C32.2702 19.1643 33.7551 18.5691 37.6078 16.1033C41.8808 14.4613 44.0035 13.3161 46.5336 13.0106C46.7135 12.9889 48.6005 12.5057 48.8757 12.5782C49.3926 12.7145 48.9367 13.819 48.9367 13.819C48.5454 14.4689 48.5195 15.7413 48.0095 16.9002C47.5874 18.2099 45.7398 21.385 44.6962 22.5592C42.8738 24.6012 40.124 26.5319 37.8309 28.3264C37.2597 28.7785 34.9866 29.1604 34.6749 29.3126C33.4841 29.7012 32.4802 29.7282 31.3139 29.9614H31.3138Z" fill="#70B037"/>
<path d="M30.3828 21.6406C30.3828 21.6406 30.3207 21.8422 29.7641 23.0855C29.4839 23.7114 29.2473 25.3856 29.7809 27.6606C30.2316 27.1909 30.8179 26.6366 31.5663 25.9991C31.4746 25.8389 31.358 25.4667 31.3005 24.8263C31.1879 23.5718 31.4491 21.8357 31.6527 21.2437C31.7768 20.8826 32.5045 19.6673 32.5045 19.6673C32.5045 19.6673 32.4424 19.869 31.8858 21.1123C31.6055 21.7384 31.2772 23.5114 31.6831 25.9C32.5192 25.1928 33.4144 24.4677 34.3208 23.7536C34.2211 23.5749 34.0958 23.2255 34.0011 22.6604C33.7928 21.4177 33.8791 20.4442 34.0373 19.8417C34.1338 19.4743 34.7681 18.2185 34.7681 18.2185C34.7681 18.2185 34.7214 18.4232 34.2602 19.6964C34.0299 20.3321 33.8808 21.3415 34.4519 23.6499C35.2713 23.0063 36.0965 22.3743 36.8948 21.7752C36.7945 21.5985 36.6673 21.2479 36.5714 20.6758C36.3632 19.4332 36.4254 19.0221 36.5836 18.4197C36.68 18.0523 37.0122 17.3271 37.0122 17.3271C37.0122 17.3271 37.2677 17.0011 36.8065 18.2743C36.5758 18.9112 36.4499 19.3715 37.025 21.678C38.0334 20.9229 38.99 20.2262 39.829 19.6294C39.7316 19.4526 39.6065 19.1379 39.5027 18.6519C39.2742 17.5818 39.3329 17.3526 39.4911 16.7501C39.5876 16.3827 39.8625 15.8226 39.8625 15.8226C39.8625 15.8226 40.1752 15.3316 39.714 16.6047C39.4894 17.2248 39.4403 18.1957 39.9185 19.5658C40.8062 18.9356 41.5579 18.4196 42.0749 18.0834C42.1999 18.0022 42.3432 17.9037 42.4936 17.7985C42.4254 17.7193 42.3312 17.56 42.2631 17.3473C42.123 16.91 41.9999 16.1189 42.2787 15.578C42.4558 15.2345 42.7484 14.8514 42.7484 14.8514C42.7484 14.8514 43.0075 14.4976 42.4216 15.6039C42.2908 15.8508 42.0243 16.2962 42.5611 17.7475C42.5615 17.7487 42.5617 17.7494 42.5621 17.7506C44.0564 16.6969 47.6785 13.7845 47.6739 13.7893C47.6739 13.7893 47.3605 14.7256 41.5437 19.086C44.0216 19.1874 44.5007 18.9993 45.1448 18.6931C46.4608 18.0673 46.1474 18.3494 46.1474 18.3494C46.1474 18.3494 45.4096 18.7673 45.0235 18.9154C44.3906 19.1583 43.951 19.2835 42.5544 19.3106C41.969 19.322 41.5804 19.279 41.3562 19.2268C40.9452 19.5339 40.5031 19.8612 40.0256 20.2115C39.6676 20.4741 39.2883 20.7451 38.8956 21.0248C38.9283 21.0242 38.9786 21.0353 39.0466 21.0626C41.4925 22.0436 42.6286 22.1047 43.3692 22.0205C44.8359 21.8537 45.0666 21.8515 45.0666 21.8515C45.0666 21.8515 43.5856 22.1755 43.1693 22.191C42.4868 22.2165 41.4163 22.107 40.1107 21.6839C39.2247 21.3968 38.868 21.1398 38.8546 21.0541C37.4077 22.0845 35.7049 23.2916 33.5444 25.132C33.572 25.1386 33.6038 25.1484 33.6423 25.1646C36.0678 26.1848 38.0435 26.3878 38.7854 26.3154C40.2546 26.1719 40.4851 26.1733 40.4851 26.1733C40.4851 26.1733 38.9985 26.4738 38.5822 26.4827C37.8995 26.4973 35.9902 26.2469 34.6936 25.803C33.9214 25.5385 33.5582 25.3047 33.4723 25.1931C32.7583 25.8031 31.9941 26.4835 31.1752 27.2467C33.5169 28.0302 35.3289 28.0695 36.0421 27.9165C37.4834 27.6073 37.7129 27.5824 37.7129 27.5824C37.7129 27.5824 36.2762 28.0489 35.8633 28.1051C35.1863 28.1973 33.6499 28.076 32.1983 27.7284C31.6283 27.5919 31.2654 27.4596 31.0566 27.3571C30.4379 27.9361 29.7884 28.5619 29.1037 29.2438C28.3363 30.008 28.06 29.4887 29.6781 27.769C29.5863 27.6073 29.4635 27.2294 29.3845 26.5551C29.2261 25.2028 29.3275 23.8088 29.5311 23.2168C29.6552 22.8557 30.3828 21.6405 30.3828 21.6405L30.3828 21.6406ZM36.079 23.2218C36.0999 23.2041 36.1649 23.2117 36.2646 23.2517C38.7105 24.2327 39.8465 24.2938 40.5872 24.2096C42.0539 24.0428 42.2845 24.0406 42.2845 24.0406C42.2845 24.0406 40.8035 24.3646 40.3872 24.3801C39.7047 24.4056 38.6341 24.296 37.3286 23.8729C36.3495 23.5556 36.0162 23.2748 36.079 23.2217V23.2218Z" fill="#79D12C"/>
<path d="M121.623 16.8914C121.017 17.1104 120.314 16.8822 120.052 16.3817C119.791 15.8811 120.07 15.2979 120.677 15.0789C121.283 14.8599 121.986 15.0881 122.248 15.5886C122.509 16.0891 122.23 16.6724 121.623 16.8914Z" fill="url(#paint22_linear)"/>
<path d="M123.31 14.4176C123.822 14.7022 124.021 15.2895 123.754 15.7294C123.487 16.1692 122.856 16.2951 122.343 16.0105C121.831 15.7258 121.631 15.1385 121.898 14.6987C122.165 14.2588 122.797 14.133 123.31 14.4176Z" fill="url(#paint23_linear)"/>
<defs>
<linearGradient id="paint0_linear" x1="34.9149" y1="30.1519" x2="30.239" y2="27.7213" gradientUnits="userSpaceOnUse">
<stop stop-color="#728C5B"/>
<stop offset="1" stop-color="#CE2828"/>
</linearGradient>
<linearGradient id="paint1_linear" x1="31.4172" y1="32.71" x2="26.7413" y2="30.2794" gradientUnits="userSpaceOnUse">
<stop stop-color="#728C5B"/>
<stop offset="1" stop-color="#CE2828"/>
</linearGradient>
<linearGradient id="paint2_linear" x1="37.7606" y1="33.2844" x2="33.0847" y2="30.8538" gradientUnits="userSpaceOnUse">
<stop stop-color="#728C5B"/>
<stop offset="1" stop-color="#CE2828"/>
</linearGradient>
<linearGradient id="paint3_linear" x1="35.4485" y1="34.6418" x2="30.7726" y2="32.2113" gradientUnits="userSpaceOnUse">
<stop stop-color="#728C5B"/>
<stop offset="1" stop-color="#CE2828"/>
</linearGradient>
<linearGradient id="paint4_linear" x1="41.7326" y1="34.4851" x2="37.0567" y2="32.0545" gradientUnits="userSpaceOnUse">
<stop stop-color="#728C5B"/>
<stop offset="1" stop-color="#CE2828"/>
</linearGradient>
<linearGradient id="paint5_linear" x1="39.0055" y1="37.8267" x2="34.3296" y2="35.3961" gradientUnits="userSpaceOnUse">
<stop stop-color="#728C5B"/>
<stop offset="1" stop-color="#CE2828"/>
</linearGradient>
<linearGradient id="paint6_linear" x1="44.0447" y1="37.8789" x2="39.3688" y2="35.4483" gradientUnits="userSpaceOnUse">
<stop stop-color="#728C5B"/>
<stop offset="1" stop-color="#CE2828"/>
</linearGradient>
<linearGradient id="paint7_linear" x1="62.7167" y1="27.238" x2="59.1841" y2="28.8071" gradientUnits="userSpaceOnUse">
<stop stop-color="#728C5B"/>
<stop offset="1" stop-color="#CE2828"/>
</linearGradient>
<linearGradient id="paint8_linear" x1="65.9465" y1="25.3098" x2="62.4139" y2="26.8789" gradientUnits="userSpaceOnUse">
<stop stop-color="#8A120F"/>
<stop offset="1" stop-color="#FB604E"/>
</linearGradient>
<linearGradient id="paint9_linear" x1="59.985" y1="25.5007" x2="56.4524" y2="27.0698" gradientUnits="userSpaceOnUse">
<stop stop-color="#728C5B"/>
<stop offset="1" stop-color="#CE2828"/>
</linearGradient>
<linearGradient id="paint10_linear" x1="61.5771" y1="30.2051" x2="57.6771" y2="28.5125" gradientUnits="userSpaceOnUse">
<stop stop-color="#8A120F"/>
<stop offset="1" stop-color="#FB604E"/>
</linearGradient>
<linearGradient id="paint11_linear" x1="64.8482" y1="25.8574" x2="60.9482" y2="24.1649" gradientUnits="userSpaceOnUse">
<stop stop-color="#728C5B"/>
<stop offset="1" stop-color="#CE2828"/>
</linearGradient>
<linearGradient id="paint12_linear" x1="67.9884" y1="23.856" x2="64.0884" y2="22.1634" gradientUnits="userSpaceOnUse">
<stop stop-color="#8A120F"/>
<stop offset="1" stop-color="#FB604E"/>
</linearGradient>
<linearGradient id="paint13_linear" x1="82.5518" y1="18.4526" x2="78.3558" y2="20.7118" gradientUnits="userSpaceOnUse">
<stop stop-color="#728C5B"/>
<stop offset="1" stop-color="#CE2828"/>
</linearGradient>
<linearGradient id="paint14_linear" x1="81.6213" y1="22.0156" x2="77.4252" y2="24.2747" gradientUnits="userSpaceOnUse">
<stop stop-color="#8A120F"/>
<stop offset="1" stop-color="#FB604E"/>
</linearGradient>
<linearGradient id="paint15_linear" x1="80.6857" y1="21.6172" x2="76.7192" y2="19.3854" gradientUnits="userSpaceOnUse">
<stop stop-color="#728C5B"/>
<stop offset="1" stop-color="#CE2828"/>
</linearGradient>
<linearGradient id="paint16_linear" x1="87.0267" y1="22.2341" x2="83.0602" y2="20.0024" gradientUnits="userSpaceOnUse">
<stop stop-color="#8A120F"/>
<stop offset="1" stop-color="#FB604E"/>
</linearGradient>
<linearGradient id="paint17_linear" x1="105.067" y1="19.3657" x2="100.984" y2="21.5614" gradientUnits="userSpaceOnUse">
<stop stop-color="#728C5B"/>
<stop offset="1" stop-color="#CE2828"/>
</linearGradient>
<linearGradient id="paint18_linear" x1="105.85" y1="22.0024" x2="101.767" y2="24.1981" gradientUnits="userSpaceOnUse">
<stop stop-color="#8A120F"/>
<stop offset="1" stop-color="#FB604E"/>
</linearGradient>
<linearGradient id="paint19_linear" x1="110.155" y1="21.249" x2="106.072" y2="23.4447" gradientUnits="userSpaceOnUse">
<stop stop-color="#728C5B"/>
<stop offset="1" stop-color="#CE2828"/>
</linearGradient>
<linearGradient id="paint20_linear" x1="103.709" y1="23.0833" x2="99.5952" y2="20.889" gradientUnits="userSpaceOnUse">
<stop stop-color="#728C5B"/>
<stop offset="1" stop-color="#CE2828"/>
</linearGradient>
<linearGradient id="paint21_linear" x1="104.039" y1="22.6602" x2="107.413" y2="24.7796" gradientUnits="userSpaceOnUse">
<stop stop-color="#8A120F"/>
<stop offset="1" stop-color="#FB604E"/>
</linearGradient>
<linearGradient id="paint22_linear" x1="121.774" y1="14.6824" x2="119.724" y2="15.7532" gradientUnits="userSpaceOnUse">
<stop stop-color="#728C5B"/>
<stop offset="1" stop-color="#CE2828"/>
</linearGradient>
<linearGradient id="paint23_linear" x1="121.415" y1="15.4951" x2="123.229" y2="16.5957" gradientUnits="userSpaceOnUse">
<stop stop-color="#8A120F"/>
<stop offset="1" stop-color="#FB604E"/>
</linearGradient>
</defs>
</svg>
